G04 #@! TF.GenerationSoftware,KiCad,Pcbnew,(5.1.10)-1*
G04 #@! TF.CreationDate,2022-01-02T12:56:15-07:00*
G04 #@! TF.ProjectId,SAMD21,53414d44-3231-42e6-9b69-6361645f7063,rev?*
G04 #@! TF.SameCoordinates,Original*
G04 #@! TF.FileFunction,Copper,L2,Inr*
G04 #@! TF.FilePolarity,Positive*
%FSLAX46Y46*%
G04 Gerber Fmt 4.6, Leading zero omitted, Abs format (unit mm)*
G04 Created by KiCad (PCBNEW (5.1.10)-1) date 2022-01-02 12:56:15*
%MOMM*%
%LPD*%
G01*
G04 APERTURE LIST*
G04 #@! TA.AperFunction,ComponentPad*
%ADD10O,1.550000X0.890000*%
G04 #@! TD*
G04 #@! TA.AperFunction,ComponentPad*
%ADD11O,0.950000X1.250000*%
G04 #@! TD*
G04 #@! TA.AperFunction,ComponentPad*
%ADD12R,4.400000X1.800000*%
G04 #@! TD*
G04 #@! TA.AperFunction,ComponentPad*
%ADD13O,4.000000X1.800000*%
G04 #@! TD*
G04 #@! TA.AperFunction,ComponentPad*
%ADD14O,1.800000X4.000000*%
G04 #@! TD*
G04 #@! TA.AperFunction,ComponentPad*
%ADD15O,1.700000X1.700000*%
G04 #@! TD*
G04 #@! TA.AperFunction,ComponentPad*
%ADD16R,1.700000X1.700000*%
G04 #@! TD*
G04 #@! TA.AperFunction,ComponentPad*
%ADD17C,1.540000*%
G04 #@! TD*
G04 #@! TA.AperFunction,ViaPad*
%ADD18C,0.600000*%
G04 #@! TD*
G04 #@! TA.AperFunction,Conductor*
%ADD19C,0.254000*%
G04 #@! TD*
G04 #@! TA.AperFunction,Conductor*
%ADD20C,0.100000*%
G04 #@! TD*
G04 APERTURE END LIST*
D10*
X162550000Y-52450000D03*
X162550000Y-59450000D03*
D11*
X159850000Y-53450000D03*
X159850000Y-58450000D03*
D12*
X73050000Y-124450000D03*
D13*
X73050000Y-130250000D03*
D14*
X77850000Y-127450000D03*
D15*
X88160000Y-125820000D03*
X90700000Y-125820000D03*
X88160000Y-128360000D03*
X90700000Y-128360000D03*
X88160000Y-130900000D03*
D16*
X90700000Y-130900000D03*
D15*
X141200000Y-79120000D03*
X143740000Y-79120000D03*
X141200000Y-81660000D03*
X143740000Y-81660000D03*
X141200000Y-84200000D03*
X143740000Y-84200000D03*
X141200000Y-86740000D03*
X143740000Y-86740000D03*
X141200000Y-89280000D03*
X143740000Y-89280000D03*
X141200000Y-91820000D03*
D16*
X143740000Y-91820000D03*
D17*
X137700000Y-128400000D03*
X131200000Y-128400000D03*
X137700000Y-123900000D03*
X131200000Y-123900000D03*
X152800000Y-128400000D03*
X146300000Y-128400000D03*
X152800000Y-123900000D03*
X146300000Y-123900000D03*
D15*
X160600000Y-114380000D03*
X160600000Y-111840000D03*
X160600000Y-109300000D03*
X160600000Y-106760000D03*
X160600000Y-104220000D03*
X160600000Y-101680000D03*
X160600000Y-99140000D03*
D16*
X160600000Y-96600000D03*
D15*
X111240000Y-60600000D03*
X111240000Y-58060000D03*
X113780000Y-60600000D03*
X113780000Y-58060000D03*
X116320000Y-60600000D03*
X116320000Y-58060000D03*
X118860000Y-60600000D03*
X118860000Y-58060000D03*
X121400000Y-60600000D03*
D16*
X121400000Y-58060000D03*
D15*
X150900000Y-114400000D03*
D16*
X150900000Y-111860000D03*
D15*
X121640000Y-111100000D03*
X121640000Y-113640000D03*
X119100000Y-111100000D03*
X119100000Y-113640000D03*
X116560000Y-111100000D03*
X116560000Y-113640000D03*
X114020000Y-111100000D03*
X114020000Y-113640000D03*
X111480000Y-111100000D03*
X111480000Y-113640000D03*
X108940000Y-111100000D03*
D16*
X108940000Y-113640000D03*
D15*
X89940000Y-94000000D03*
X87400000Y-94000000D03*
X89940000Y-91460000D03*
X87400000Y-91460000D03*
X89940000Y-88920000D03*
X87400000Y-88920000D03*
X89940000Y-86380000D03*
X87400000Y-86380000D03*
X89940000Y-83840000D03*
X87400000Y-83840000D03*
X89940000Y-81300000D03*
D16*
X87400000Y-81300000D03*
D15*
X114540000Y-134160000D03*
X114540000Y-136700000D03*
X112000000Y-134160000D03*
D16*
X112000000Y-136700000D03*
D15*
X114440000Y-126340000D03*
X111900000Y-126340000D03*
X114440000Y-123800000D03*
D16*
X111900000Y-123800000D03*
D15*
X144760000Y-59200000D03*
D16*
X147300000Y-59200000D03*
D15*
X134360000Y-59200000D03*
D16*
X136900000Y-59200000D03*
D15*
X156740000Y-69000000D03*
D16*
X154200000Y-69000000D03*
D18*
X70200000Y-120800000D03*
X70200000Y-119700000D03*
X78800000Y-114600000D03*
X81500000Y-118300000D03*
X83500000Y-118300000D03*
X73000000Y-53600000D03*
X70200000Y-46600000D03*
X83100000Y-57700000D03*
X79700000Y-47700000D03*
X92274990Y-58500000D03*
X108800000Y-84300000D03*
X114300000Y-76400000D03*
X115250000Y-82350000D03*
X117750000Y-82750000D03*
X122900000Y-81600000D03*
X114700000Y-87800000D03*
X114300000Y-93100000D03*
X158300003Y-75899997D03*
X157300000Y-82600000D03*
X72500000Y-113500000D03*
X72500000Y-115500000D03*
X99487500Y-53712500D03*
X89525000Y-59975000D03*
X78225000Y-50675000D03*
X95300000Y-47300000D03*
X101700000Y-85400000D03*
X114300000Y-79100000D03*
X121020000Y-80720000D03*
X114275010Y-90550000D03*
X157600000Y-90600000D03*
X82150000Y-45350000D03*
X160700000Y-78500000D03*
X117800000Y-62700000D03*
X143000000Y-43700000D03*
X147300000Y-43200000D03*
X113600000Y-83500000D03*
X137500000Y-96600000D03*
X115500000Y-86900000D03*
X132600000Y-103100000D03*
X116800000Y-84900000D03*
X137300000Y-94800000D03*
X127100000Y-77500000D03*
X90400000Y-50100000D03*
D19*
X160768083Y-40731173D02*
X161511891Y-40934656D01*
X162207905Y-41266638D01*
X162834130Y-41716626D01*
X163370777Y-42270403D01*
X163800871Y-42910451D01*
X164110829Y-43616553D01*
X164292065Y-44371457D01*
X164340001Y-45024220D01*
X164340000Y-50479792D01*
X164306709Y-50493242D01*
X164298573Y-50497568D01*
X164126896Y-50590393D01*
X164077278Y-50623861D01*
X164027247Y-50656600D01*
X164020106Y-50662424D01*
X163869728Y-50786828D01*
X163827589Y-50829263D01*
X163784839Y-50871126D01*
X163778966Y-50878227D01*
X163655616Y-51029469D01*
X163622534Y-51079262D01*
X163588716Y-51128651D01*
X163584333Y-51136757D01*
X163492708Y-51309079D01*
X163469909Y-51364394D01*
X163446348Y-51419366D01*
X163443623Y-51428169D01*
X163419771Y-51507170D01*
X163410631Y-51500810D01*
X163215257Y-51415528D01*
X163007000Y-51370000D01*
X162677000Y-51370000D01*
X162677000Y-52323000D01*
X162697000Y-52323000D01*
X162697000Y-52577000D01*
X162677000Y-52577000D01*
X162677000Y-53530000D01*
X163007000Y-53530000D01*
X163215257Y-53484472D01*
X163340000Y-53430021D01*
X163340001Y-58469979D01*
X163215257Y-58415528D01*
X163007000Y-58370000D01*
X162677000Y-58370000D01*
X162677000Y-59323000D01*
X162697000Y-59323000D01*
X162697000Y-59577000D01*
X162677000Y-59577000D01*
X162677000Y-60530000D01*
X163007000Y-60530000D01*
X163215257Y-60484472D01*
X163410631Y-60399190D01*
X163419827Y-60392791D01*
X163447653Y-60482683D01*
X163470838Y-60537838D01*
X163493242Y-60593291D01*
X163497568Y-60601427D01*
X163590393Y-60773104D01*
X163623846Y-60822699D01*
X163656600Y-60872753D01*
X163662424Y-60879894D01*
X163786828Y-61030272D01*
X163829263Y-61072411D01*
X163871126Y-61115161D01*
X163878227Y-61121034D01*
X164029469Y-61244384D01*
X164079277Y-61277477D01*
X164128651Y-61311284D01*
X164136757Y-61315667D01*
X164309080Y-61407292D01*
X164340001Y-61420037D01*
X164340000Y-134970608D01*
X164268827Y-135768083D01*
X164065344Y-136511890D01*
X163733363Y-137207904D01*
X163283374Y-137834130D01*
X162729597Y-138370777D01*
X162089549Y-138800871D01*
X161383447Y-139110829D01*
X160628543Y-139292065D01*
X159975793Y-139340000D01*
X70029392Y-139340000D01*
X69231917Y-139268827D01*
X68488110Y-139065344D01*
X67792096Y-138733363D01*
X67165870Y-138283374D01*
X66629223Y-137729597D01*
X66199129Y-137089549D01*
X65889171Y-136383447D01*
X65761102Y-135850000D01*
X110511928Y-135850000D01*
X110511928Y-137550000D01*
X110524188Y-137674482D01*
X110560498Y-137794180D01*
X110619463Y-137904494D01*
X110698815Y-138001185D01*
X110795506Y-138080537D01*
X110905820Y-138139502D01*
X111025518Y-138175812D01*
X111150000Y-138188072D01*
X112850000Y-138188072D01*
X112974482Y-138175812D01*
X113094180Y-138139502D01*
X113204494Y-138080537D01*
X113301185Y-138001185D01*
X113380537Y-137904494D01*
X113439502Y-137794180D01*
X113461513Y-137721620D01*
X113593368Y-137853475D01*
X113836589Y-138015990D01*
X114106842Y-138127932D01*
X114393740Y-138185000D01*
X114686260Y-138185000D01*
X114973158Y-138127932D01*
X115243411Y-138015990D01*
X115486632Y-137853475D01*
X115693475Y-137646632D01*
X115855990Y-137403411D01*
X115967932Y-137133158D01*
X116025000Y-136846260D01*
X116025000Y-136553740D01*
X115967932Y-136266842D01*
X115855990Y-135996589D01*
X115693475Y-135753368D01*
X115486632Y-135546525D01*
X115312240Y-135430000D01*
X115486632Y-135313475D01*
X115693475Y-135106632D01*
X115855990Y-134863411D01*
X115967932Y-134593158D01*
X116025000Y-134306260D01*
X116025000Y-134013740D01*
X115967932Y-133726842D01*
X115855990Y-133456589D01*
X115693475Y-133213368D01*
X115486632Y-133006525D01*
X115243411Y-132844010D01*
X114973158Y-132732068D01*
X114686260Y-132675000D01*
X114393740Y-132675000D01*
X114106842Y-132732068D01*
X113836589Y-132844010D01*
X113593368Y-133006525D01*
X113386525Y-133213368D01*
X113270000Y-133387760D01*
X113153475Y-133213368D01*
X112946632Y-133006525D01*
X112703411Y-132844010D01*
X112433158Y-132732068D01*
X112146260Y-132675000D01*
X111853740Y-132675000D01*
X111566842Y-132732068D01*
X111296589Y-132844010D01*
X111053368Y-133006525D01*
X110846525Y-133213368D01*
X110684010Y-133456589D01*
X110572068Y-133726842D01*
X110515000Y-134013740D01*
X110515000Y-134306260D01*
X110572068Y-134593158D01*
X110684010Y-134863411D01*
X110846525Y-135106632D01*
X110978380Y-135238487D01*
X110905820Y-135260498D01*
X110795506Y-135319463D01*
X110698815Y-135398815D01*
X110619463Y-135495506D01*
X110560498Y-135605820D01*
X110524188Y-135725518D01*
X110511928Y-135850000D01*
X65761102Y-135850000D01*
X65707935Y-135628543D01*
X65660000Y-134975793D01*
X65660000Y-130614740D01*
X70458964Y-130614740D01*
X70483245Y-130720087D01*
X70603138Y-130997204D01*
X70774790Y-131245606D01*
X70991604Y-131455748D01*
X71245249Y-131619554D01*
X71525977Y-131730729D01*
X71823000Y-131785000D01*
X72923000Y-131785000D01*
X72923000Y-130377000D01*
X73177000Y-130377000D01*
X73177000Y-131785000D01*
X74277000Y-131785000D01*
X74574023Y-131730729D01*
X74854751Y-131619554D01*
X75108396Y-131455748D01*
X75325210Y-131245606D01*
X75496862Y-130997204D01*
X75602195Y-130753740D01*
X86675000Y-130753740D01*
X86675000Y-131046260D01*
X86732068Y-131333158D01*
X86844010Y-131603411D01*
X87006525Y-131846632D01*
X87213368Y-132053475D01*
X87456589Y-132215990D01*
X87726842Y-132327932D01*
X88013740Y-132385000D01*
X88306260Y-132385000D01*
X88593158Y-132327932D01*
X88863411Y-132215990D01*
X89106632Y-132053475D01*
X89238487Y-131921620D01*
X89260498Y-131994180D01*
X89319463Y-132104494D01*
X89398815Y-132201185D01*
X89495506Y-132280537D01*
X89605820Y-132339502D01*
X89725518Y-132375812D01*
X89850000Y-132388072D01*
X91550000Y-132388072D01*
X91674482Y-132375812D01*
X91794180Y-132339502D01*
X91904494Y-132280537D01*
X92001185Y-132201185D01*
X92080537Y-132104494D01*
X92139502Y-131994180D01*
X92175812Y-131874482D01*
X92188072Y-131750000D01*
X92188072Y-130050000D01*
X92175812Y-129925518D01*
X92139502Y-129805820D01*
X92080537Y-129695506D01*
X92001185Y-129598815D01*
X91904494Y-129519463D01*
X91794180Y-129460498D01*
X91713534Y-129436034D01*
X91785374Y-129371278D01*
X130408327Y-129371278D01*
X130476276Y-129612187D01*
X130726668Y-129730087D01*
X130995250Y-129796872D01*
X131271701Y-129809977D01*
X131545395Y-129768896D01*
X131805817Y-129675210D01*
X131923724Y-129612187D01*
X131991673Y-129371278D01*
X136908327Y-129371278D01*
X136976276Y-129612187D01*
X137226668Y-129730087D01*
X137495250Y-129796872D01*
X137771701Y-129809977D01*
X138045395Y-129768896D01*
X138305817Y-129675210D01*
X138423724Y-129612187D01*
X138491673Y-129371278D01*
X145508327Y-129371278D01*
X145576276Y-129612187D01*
X145826668Y-129730087D01*
X146095250Y-129796872D01*
X146371701Y-129809977D01*
X146645395Y-129768896D01*
X146905817Y-129675210D01*
X147023724Y-129612187D01*
X147091673Y-129371278D01*
X152008327Y-129371278D01*
X152076276Y-129612187D01*
X152326668Y-129730087D01*
X152595250Y-129796872D01*
X152871701Y-129809977D01*
X153145395Y-129768896D01*
X153405817Y-129675210D01*
X153523724Y-129612187D01*
X153591673Y-129371278D01*
X152800000Y-128579605D01*
X152008327Y-129371278D01*
X147091673Y-129371278D01*
X146300000Y-128579605D01*
X145508327Y-129371278D01*
X138491673Y-129371278D01*
X137700000Y-128579605D01*
X136908327Y-129371278D01*
X131991673Y-129371278D01*
X131200000Y-128579605D01*
X130408327Y-129371278D01*
X91785374Y-129371278D01*
X91797588Y-129360269D01*
X91971641Y-129126920D01*
X92096825Y-128864099D01*
X92141476Y-128716890D01*
X92020155Y-128487000D01*
X90827000Y-128487000D01*
X90827000Y-128507000D01*
X90573000Y-128507000D01*
X90573000Y-128487000D01*
X88287000Y-128487000D01*
X88287000Y-128507000D01*
X88033000Y-128507000D01*
X88033000Y-128487000D01*
X86839845Y-128487000D01*
X86718524Y-128716890D01*
X86763175Y-128864099D01*
X86888359Y-129126920D01*
X87062412Y-129360269D01*
X87278645Y-129555178D01*
X87395534Y-129624805D01*
X87213368Y-129746525D01*
X87006525Y-129953368D01*
X86844010Y-130196589D01*
X86732068Y-130466842D01*
X86675000Y-130753740D01*
X75602195Y-130753740D01*
X75616755Y-130720087D01*
X75641036Y-130614740D01*
X75520378Y-130377000D01*
X73177000Y-130377000D01*
X72923000Y-130377000D01*
X70579622Y-130377000D01*
X70458964Y-130614740D01*
X65660000Y-130614740D01*
X65660000Y-129885260D01*
X70458964Y-129885260D01*
X70579622Y-130123000D01*
X72923000Y-130123000D01*
X72923000Y-128715000D01*
X73177000Y-128715000D01*
X73177000Y-130123000D01*
X75520378Y-130123000D01*
X75641036Y-129885260D01*
X75616755Y-129779913D01*
X75496862Y-129502796D01*
X75325210Y-129254394D01*
X75108396Y-129044252D01*
X74854751Y-128880446D01*
X74574023Y-128769271D01*
X74277000Y-128715000D01*
X73177000Y-128715000D01*
X72923000Y-128715000D01*
X71823000Y-128715000D01*
X71525977Y-128769271D01*
X71245249Y-128880446D01*
X70991604Y-129044252D01*
X70774790Y-129254394D01*
X70603138Y-129502796D01*
X70483245Y-129779913D01*
X70458964Y-129885260D01*
X65660000Y-129885260D01*
X65660000Y-127577000D01*
X76315000Y-127577000D01*
X76315000Y-128677000D01*
X76369271Y-128974023D01*
X76480446Y-129254751D01*
X76644252Y-129508396D01*
X76854394Y-129725210D01*
X77102796Y-129896862D01*
X77379913Y-130016755D01*
X77485260Y-130041036D01*
X77723000Y-129920378D01*
X77723000Y-127577000D01*
X77977000Y-127577000D01*
X77977000Y-129920378D01*
X78214740Y-130041036D01*
X78320087Y-130016755D01*
X78597204Y-129896862D01*
X78845606Y-129725210D01*
X79055748Y-129508396D01*
X79219554Y-129254751D01*
X79330729Y-128974023D01*
X79385000Y-128677000D01*
X79385000Y-128471701D01*
X129790023Y-128471701D01*
X129831104Y-128745395D01*
X129924790Y-129005817D01*
X129987813Y-129123724D01*
X130228722Y-129191673D01*
X131020395Y-128400000D01*
X131379605Y-128400000D01*
X132171278Y-129191673D01*
X132412187Y-129123724D01*
X132530087Y-128873332D01*
X132596872Y-128604750D01*
X132603179Y-128471701D01*
X136290023Y-128471701D01*
X136331104Y-128745395D01*
X136424790Y-129005817D01*
X136487813Y-129123724D01*
X136728722Y-129191673D01*
X137520395Y-128400000D01*
X137879605Y-128400000D01*
X138671278Y-129191673D01*
X138912187Y-129123724D01*
X139030087Y-128873332D01*
X139096872Y-128604750D01*
X139103179Y-128471701D01*
X144890023Y-128471701D01*
X144931104Y-128745395D01*
X145024790Y-129005817D01*
X145087813Y-129123724D01*
X145328722Y-129191673D01*
X146120395Y-128400000D01*
X146479605Y-128400000D01*
X147271278Y-129191673D01*
X147512187Y-129123724D01*
X147630087Y-128873332D01*
X147696872Y-128604750D01*
X147703179Y-128471701D01*
X151390023Y-128471701D01*
X151431104Y-128745395D01*
X151524790Y-129005817D01*
X151587813Y-129123724D01*
X151828722Y-129191673D01*
X152620395Y-128400000D01*
X152979605Y-128400000D01*
X153771278Y-129191673D01*
X154012187Y-129123724D01*
X154130087Y-128873332D01*
X154196872Y-128604750D01*
X154209977Y-128328299D01*
X154168896Y-128054605D01*
X154075210Y-127794183D01*
X154012187Y-127676276D01*
X153771278Y-127608327D01*
X152979605Y-128400000D01*
X152620395Y-128400000D01*
X151828722Y-127608327D01*
X151587813Y-127676276D01*
X151469913Y-127926668D01*
X151403128Y-128195250D01*
X151390023Y-128471701D01*
X147703179Y-128471701D01*
X147709977Y-128328299D01*
X147668896Y-128054605D01*
X147575210Y-127794183D01*
X147512187Y-127676276D01*
X147271278Y-127608327D01*
X146479605Y-128400000D01*
X146120395Y-128400000D01*
X145328722Y-127608327D01*
X145087813Y-127676276D01*
X144969913Y-127926668D01*
X144903128Y-128195250D01*
X144890023Y-128471701D01*
X139103179Y-128471701D01*
X139109977Y-128328299D01*
X139068896Y-128054605D01*
X138975210Y-127794183D01*
X138912187Y-127676276D01*
X138671278Y-127608327D01*
X137879605Y-128400000D01*
X137520395Y-128400000D01*
X136728722Y-127608327D01*
X136487813Y-127676276D01*
X136369913Y-127926668D01*
X136303128Y-128195250D01*
X136290023Y-128471701D01*
X132603179Y-128471701D01*
X132609977Y-128328299D01*
X132568896Y-128054605D01*
X132475210Y-127794183D01*
X132412187Y-127676276D01*
X132171278Y-127608327D01*
X131379605Y-128400000D01*
X131020395Y-128400000D01*
X130228722Y-127608327D01*
X129987813Y-127676276D01*
X129869913Y-127926668D01*
X129803128Y-128195250D01*
X129790023Y-128471701D01*
X79385000Y-128471701D01*
X79385000Y-127577000D01*
X77977000Y-127577000D01*
X77723000Y-127577000D01*
X76315000Y-127577000D01*
X65660000Y-127577000D01*
X65660000Y-126223000D01*
X76315000Y-126223000D01*
X76315000Y-127323000D01*
X77723000Y-127323000D01*
X77723000Y-124979622D01*
X77977000Y-124979622D01*
X77977000Y-127323000D01*
X79385000Y-127323000D01*
X79385000Y-126223000D01*
X79330729Y-125925977D01*
X79230838Y-125673740D01*
X86675000Y-125673740D01*
X86675000Y-125966260D01*
X86732068Y-126253158D01*
X86844010Y-126523411D01*
X87006525Y-126766632D01*
X87213368Y-126973475D01*
X87395534Y-127095195D01*
X87278645Y-127164822D01*
X87062412Y-127359731D01*
X86888359Y-127593080D01*
X86763175Y-127855901D01*
X86718524Y-128003110D01*
X86839845Y-128233000D01*
X88033000Y-128233000D01*
X88033000Y-128213000D01*
X88287000Y-128213000D01*
X88287000Y-128233000D01*
X90573000Y-128233000D01*
X90573000Y-128213000D01*
X90827000Y-128213000D01*
X90827000Y-128233000D01*
X92020155Y-128233000D01*
X92141476Y-128003110D01*
X92096825Y-127855901D01*
X91971641Y-127593080D01*
X91797588Y-127359731D01*
X91581355Y-127164822D01*
X91464466Y-127095195D01*
X91646632Y-126973475D01*
X91853475Y-126766632D01*
X92015990Y-126523411D01*
X92127932Y-126253158D01*
X92185000Y-125966260D01*
X92185000Y-125673740D01*
X92127932Y-125386842D01*
X92015990Y-125116589D01*
X91853475Y-124873368D01*
X91646632Y-124666525D01*
X91403411Y-124504010D01*
X91133158Y-124392068D01*
X90846260Y-124335000D01*
X90553740Y-124335000D01*
X90266842Y-124392068D01*
X89996589Y-124504010D01*
X89753368Y-124666525D01*
X89546525Y-124873368D01*
X89430000Y-125047760D01*
X89313475Y-124873368D01*
X89106632Y-124666525D01*
X88863411Y-124504010D01*
X88593158Y-124392068D01*
X88306260Y-124335000D01*
X88013740Y-124335000D01*
X87726842Y-124392068D01*
X87456589Y-124504010D01*
X87213368Y-124666525D01*
X87006525Y-124873368D01*
X86844010Y-125116589D01*
X86732068Y-125386842D01*
X86675000Y-125673740D01*
X79230838Y-125673740D01*
X79219554Y-125645249D01*
X79055748Y-125391604D01*
X78845606Y-125174790D01*
X78597204Y-125003138D01*
X78320087Y-124883245D01*
X78214740Y-124858964D01*
X77977000Y-124979622D01*
X77723000Y-124979622D01*
X77485260Y-124858964D01*
X77379913Y-124883245D01*
X77102796Y-125003138D01*
X76854394Y-125174790D01*
X76644252Y-125391604D01*
X76480446Y-125645249D01*
X76369271Y-125925977D01*
X76315000Y-126223000D01*
X65660000Y-126223000D01*
X65660000Y-123550000D01*
X70211928Y-123550000D01*
X70211928Y-125350000D01*
X70224188Y-125474482D01*
X70260498Y-125594180D01*
X70319463Y-125704494D01*
X70398815Y-125801185D01*
X70495506Y-125880537D01*
X70605820Y-125939502D01*
X70725518Y-125975812D01*
X70850000Y-125988072D01*
X75250000Y-125988072D01*
X75374482Y-125975812D01*
X75494180Y-125939502D01*
X75604494Y-125880537D01*
X75701185Y-125801185D01*
X75780537Y-125704494D01*
X75839502Y-125594180D01*
X75875812Y-125474482D01*
X75888072Y-125350000D01*
X75888072Y-123550000D01*
X75875812Y-123425518D01*
X75839502Y-123305820D01*
X75780537Y-123195506D01*
X75701185Y-123098815D01*
X75604494Y-123019463D01*
X75494180Y-122960498D01*
X75459573Y-122950000D01*
X110411928Y-122950000D01*
X110411928Y-124650000D01*
X110424188Y-124774482D01*
X110460498Y-124894180D01*
X110519463Y-125004494D01*
X110598815Y-125101185D01*
X110695506Y-125180537D01*
X110805820Y-125239502D01*
X110878380Y-125261513D01*
X110746525Y-125393368D01*
X110584010Y-125636589D01*
X110472068Y-125906842D01*
X110415000Y-126193740D01*
X110415000Y-126486260D01*
X110472068Y-126773158D01*
X110584010Y-127043411D01*
X110746525Y-127286632D01*
X110953368Y-127493475D01*
X111196589Y-127655990D01*
X111466842Y-127767932D01*
X111753740Y-127825000D01*
X112046260Y-127825000D01*
X112333158Y-127767932D01*
X112603411Y-127655990D01*
X112846632Y-127493475D01*
X113053475Y-127286632D01*
X113170000Y-127112240D01*
X113286525Y-127286632D01*
X113493368Y-127493475D01*
X113736589Y-127655990D01*
X114006842Y-127767932D01*
X114293740Y-127825000D01*
X114586260Y-127825000D01*
X114873158Y-127767932D01*
X115143411Y-127655990D01*
X115386632Y-127493475D01*
X115451385Y-127428722D01*
X130408327Y-127428722D01*
X131200000Y-128220395D01*
X131991673Y-127428722D01*
X136908327Y-127428722D01*
X137700000Y-128220395D01*
X138491673Y-127428722D01*
X145508327Y-127428722D01*
X146300000Y-128220395D01*
X147091673Y-127428722D01*
X152008327Y-127428722D01*
X152800000Y-128220395D01*
X153591673Y-127428722D01*
X153523724Y-127187813D01*
X153273332Y-127069913D01*
X153004750Y-127003128D01*
X152728299Y-126990023D01*
X152454605Y-127031104D01*
X152194183Y-127124790D01*
X152076276Y-127187813D01*
X152008327Y-127428722D01*
X147091673Y-127428722D01*
X147023724Y-127187813D01*
X146773332Y-127069913D01*
X146504750Y-127003128D01*
X146228299Y-126990023D01*
X145954605Y-127031104D01*
X145694183Y-127124790D01*
X145576276Y-127187813D01*
X145508327Y-127428722D01*
X138491673Y-127428722D01*
X138423724Y-127187813D01*
X138173332Y-127069913D01*
X137904750Y-127003128D01*
X137628299Y-126990023D01*
X137354605Y-127031104D01*
X137094183Y-127124790D01*
X136976276Y-127187813D01*
X136908327Y-127428722D01*
X131991673Y-127428722D01*
X131923724Y-127187813D01*
X131673332Y-127069913D01*
X131404750Y-127003128D01*
X131128299Y-126990023D01*
X130854605Y-127031104D01*
X130594183Y-127124790D01*
X130476276Y-127187813D01*
X130408327Y-127428722D01*
X115451385Y-127428722D01*
X115593475Y-127286632D01*
X115755990Y-127043411D01*
X115867932Y-126773158D01*
X115925000Y-126486260D01*
X115925000Y-126193740D01*
X115867932Y-125906842D01*
X115755990Y-125636589D01*
X115593475Y-125393368D01*
X115386632Y-125186525D01*
X115204466Y-125064805D01*
X115321355Y-124995178D01*
X115537588Y-124800269D01*
X115711641Y-124566920D01*
X115836825Y-124304099D01*
X115881476Y-124156890D01*
X115760155Y-123927000D01*
X114567000Y-123927000D01*
X114567000Y-123947000D01*
X114313000Y-123947000D01*
X114313000Y-123927000D01*
X114293000Y-123927000D01*
X114293000Y-123761620D01*
X129795000Y-123761620D01*
X129795000Y-124038380D01*
X129848994Y-124309823D01*
X129954905Y-124565517D01*
X130108665Y-124795635D01*
X130304365Y-124991335D01*
X130534483Y-125145095D01*
X130790177Y-125251006D01*
X131061620Y-125305000D01*
X131338380Y-125305000D01*
X131609823Y-125251006D01*
X131865517Y-125145095D01*
X132095635Y-124991335D01*
X132291335Y-124795635D01*
X132445095Y-124565517D01*
X132551006Y-124309823D01*
X132605000Y-124038380D01*
X132605000Y-123761620D01*
X136295000Y-123761620D01*
X136295000Y-124038380D01*
X136348994Y-124309823D01*
X136454905Y-124565517D01*
X136608665Y-124795635D01*
X136804365Y-124991335D01*
X137034483Y-125145095D01*
X137290177Y-125251006D01*
X137561620Y-125305000D01*
X137838380Y-125305000D01*
X138109823Y-125251006D01*
X138365517Y-125145095D01*
X138595635Y-124991335D01*
X138791335Y-124795635D01*
X138945095Y-124565517D01*
X139051006Y-124309823D01*
X139105000Y-124038380D01*
X139105000Y-123761620D01*
X144895000Y-123761620D01*
X144895000Y-124038380D01*
X144948994Y-124309823D01*
X145054905Y-124565517D01*
X145208665Y-124795635D01*
X145404365Y-124991335D01*
X145634483Y-125145095D01*
X145890177Y-125251006D01*
X146161620Y-125305000D01*
X146438380Y-125305000D01*
X146709823Y-125251006D01*
X146965517Y-125145095D01*
X147195635Y-124991335D01*
X147391335Y-124795635D01*
X147545095Y-124565517D01*
X147651006Y-124309823D01*
X147705000Y-124038380D01*
X147705000Y-123761620D01*
X151395000Y-123761620D01*
X151395000Y-124038380D01*
X151448994Y-124309823D01*
X151554905Y-124565517D01*
X151708665Y-124795635D01*
X151904365Y-124991335D01*
X152134483Y-125145095D01*
X152390177Y-125251006D01*
X152661620Y-125305000D01*
X152938380Y-125305000D01*
X153209823Y-125251006D01*
X153465517Y-125145095D01*
X153695635Y-124991335D01*
X153891335Y-124795635D01*
X154045095Y-124565517D01*
X154151006Y-124309823D01*
X154205000Y-124038380D01*
X154205000Y-123761620D01*
X154151006Y-123490177D01*
X154045095Y-123234483D01*
X153891335Y-123004365D01*
X153695635Y-122808665D01*
X153465517Y-122654905D01*
X153209823Y-122548994D01*
X152938380Y-122495000D01*
X152661620Y-122495000D01*
X152390177Y-122548994D01*
X152134483Y-122654905D01*
X151904365Y-122808665D01*
X151708665Y-123004365D01*
X151554905Y-123234483D01*
X151448994Y-123490177D01*
X151395000Y-123761620D01*
X147705000Y-123761620D01*
X147651006Y-123490177D01*
X147545095Y-123234483D01*
X147391335Y-123004365D01*
X147195635Y-122808665D01*
X146965517Y-122654905D01*
X146709823Y-122548994D01*
X146438380Y-122495000D01*
X146161620Y-122495000D01*
X145890177Y-122548994D01*
X145634483Y-122654905D01*
X145404365Y-122808665D01*
X145208665Y-123004365D01*
X145054905Y-123234483D01*
X144948994Y-123490177D01*
X144895000Y-123761620D01*
X139105000Y-123761620D01*
X139051006Y-123490177D01*
X138945095Y-123234483D01*
X138791335Y-123004365D01*
X138595635Y-122808665D01*
X138365517Y-122654905D01*
X138109823Y-122548994D01*
X137838380Y-122495000D01*
X137561620Y-122495000D01*
X137290177Y-122548994D01*
X137034483Y-122654905D01*
X136804365Y-122808665D01*
X136608665Y-123004365D01*
X136454905Y-123234483D01*
X136348994Y-123490177D01*
X136295000Y-123761620D01*
X132605000Y-123761620D01*
X132551006Y-123490177D01*
X132445095Y-123234483D01*
X132291335Y-123004365D01*
X132095635Y-122808665D01*
X131865517Y-122654905D01*
X131609823Y-122548994D01*
X131338380Y-122495000D01*
X131061620Y-122495000D01*
X130790177Y-122548994D01*
X130534483Y-122654905D01*
X130304365Y-122808665D01*
X130108665Y-123004365D01*
X129954905Y-123234483D01*
X129848994Y-123490177D01*
X129795000Y-123761620D01*
X114293000Y-123761620D01*
X114293000Y-123673000D01*
X114313000Y-123673000D01*
X114313000Y-122479186D01*
X114567000Y-122479186D01*
X114567000Y-123673000D01*
X115760155Y-123673000D01*
X115881476Y-123443110D01*
X115836825Y-123295901D01*
X115711641Y-123033080D01*
X115537588Y-122799731D01*
X115321355Y-122604822D01*
X115071252Y-122455843D01*
X114796891Y-122358519D01*
X114567000Y-122479186D01*
X114313000Y-122479186D01*
X114083109Y-122358519D01*
X113808748Y-122455843D01*
X113558645Y-122604822D01*
X113362498Y-122781626D01*
X113339502Y-122705820D01*
X113280537Y-122595506D01*
X113201185Y-122498815D01*
X113104494Y-122419463D01*
X112994180Y-122360498D01*
X112874482Y-122324188D01*
X112750000Y-122311928D01*
X111050000Y-122311928D01*
X110925518Y-122324188D01*
X110805820Y-122360498D01*
X110695506Y-122419463D01*
X110598815Y-122498815D01*
X110519463Y-122595506D01*
X110460498Y-122705820D01*
X110424188Y-122825518D01*
X110411928Y-122950000D01*
X75459573Y-122950000D01*
X75374482Y-122924188D01*
X75250000Y-122911928D01*
X70850000Y-122911928D01*
X70725518Y-122924188D01*
X70605820Y-122960498D01*
X70495506Y-123019463D01*
X70398815Y-123098815D01*
X70319463Y-123195506D01*
X70260498Y-123305820D01*
X70224188Y-123425518D01*
X70211928Y-123550000D01*
X65660000Y-123550000D01*
X65660000Y-115407911D01*
X71565000Y-115407911D01*
X71565000Y-115592089D01*
X71600932Y-115772729D01*
X71671414Y-115942889D01*
X71773738Y-116096028D01*
X71903972Y-116226262D01*
X72057111Y-116328586D01*
X72227271Y-116399068D01*
X72407911Y-116435000D01*
X72592089Y-116435000D01*
X72772729Y-116399068D01*
X72942889Y-116328586D01*
X73096028Y-116226262D01*
X73226262Y-116096028D01*
X73328586Y-115942889D01*
X73399068Y-115772729D01*
X73435000Y-115592089D01*
X73435000Y-115407911D01*
X73399068Y-115227271D01*
X73328586Y-115057111D01*
X73226262Y-114903972D01*
X73096028Y-114773738D01*
X72942889Y-114671414D01*
X72772729Y-114600932D01*
X72592089Y-114565000D01*
X72407911Y-114565000D01*
X72227271Y-114600932D01*
X72057111Y-114671414D01*
X71903972Y-114773738D01*
X71773738Y-114903972D01*
X71671414Y-115057111D01*
X71600932Y-115227271D01*
X71565000Y-115407911D01*
X65660000Y-115407911D01*
X65660000Y-113407911D01*
X71565000Y-113407911D01*
X71565000Y-113592089D01*
X71600932Y-113772729D01*
X71671414Y-113942889D01*
X71773738Y-114096028D01*
X71903972Y-114226262D01*
X72057111Y-114328586D01*
X72227271Y-114399068D01*
X72407911Y-114435000D01*
X72592089Y-114435000D01*
X72772729Y-114399068D01*
X72942889Y-114328586D01*
X73096028Y-114226262D01*
X73226262Y-114096028D01*
X73328586Y-113942889D01*
X73399068Y-113772729D01*
X73435000Y-113592089D01*
X73435000Y-113407911D01*
X73399068Y-113227271D01*
X73328586Y-113057111D01*
X73226262Y-112903972D01*
X73112290Y-112790000D01*
X107451928Y-112790000D01*
X107451928Y-114490000D01*
X107464188Y-114614482D01*
X107500498Y-114734180D01*
X107559463Y-114844494D01*
X107638815Y-114941185D01*
X107735506Y-115020537D01*
X107845820Y-115079502D01*
X107965518Y-115115812D01*
X108090000Y-115128072D01*
X109790000Y-115128072D01*
X109914482Y-115115812D01*
X110034180Y-115079502D01*
X110144494Y-115020537D01*
X110241185Y-114941185D01*
X110320537Y-114844494D01*
X110379502Y-114734180D01*
X110401513Y-114661620D01*
X110533368Y-114793475D01*
X110776589Y-114955990D01*
X111046842Y-115067932D01*
X111333740Y-115125000D01*
X111626260Y-115125000D01*
X111913158Y-115067932D01*
X112183411Y-114955990D01*
X112426632Y-114793475D01*
X112633475Y-114586632D01*
X112750000Y-114412240D01*
X112866525Y-114586632D01*
X113073368Y-114793475D01*
X113316589Y-114955990D01*
X113586842Y-115067932D01*
X113873740Y-115125000D01*
X114166260Y-115125000D01*
X114453158Y-115067932D01*
X114723411Y-114955990D01*
X114966632Y-114793475D01*
X115173475Y-114586632D01*
X115290000Y-114412240D01*
X115406525Y-114586632D01*
X115613368Y-114793475D01*
X115856589Y-114955990D01*
X116126842Y-115067932D01*
X116413740Y-115125000D01*
X116706260Y-115125000D01*
X116993158Y-115067932D01*
X117263411Y-114955990D01*
X117506632Y-114793475D01*
X117713475Y-114586632D01*
X117830000Y-114412240D01*
X117946525Y-114586632D01*
X118153368Y-114793475D01*
X118396589Y-114955990D01*
X118666842Y-115067932D01*
X118953740Y-115125000D01*
X119246260Y-115125000D01*
X119533158Y-115067932D01*
X119803411Y-114955990D01*
X120046632Y-114793475D01*
X120253475Y-114586632D01*
X120370000Y-114412240D01*
X120486525Y-114586632D01*
X120693368Y-114793475D01*
X120936589Y-114955990D01*
X121206842Y-115067932D01*
X121493740Y-115125000D01*
X121786260Y-115125000D01*
X122073158Y-115067932D01*
X122343411Y-114955990D01*
X122586632Y-114793475D01*
X122793475Y-114586632D01*
X122955990Y-114343411D01*
X123067932Y-114073158D01*
X123125000Y-113786260D01*
X123125000Y-113493740D01*
X123067932Y-113206842D01*
X122955990Y-112936589D01*
X122793475Y-112693368D01*
X122586632Y-112486525D01*
X122412240Y-112370000D01*
X122586632Y-112253475D01*
X122793475Y-112046632D01*
X122955990Y-111803411D01*
X123067932Y-111533158D01*
X123125000Y-111246260D01*
X123125000Y-111010000D01*
X149411928Y-111010000D01*
X149411928Y-112710000D01*
X149424188Y-112834482D01*
X149460498Y-112954180D01*
X149519463Y-113064494D01*
X149598815Y-113161185D01*
X149695506Y-113240537D01*
X149805820Y-113299502D01*
X149878380Y-113321513D01*
X149746525Y-113453368D01*
X149584010Y-113696589D01*
X149472068Y-113966842D01*
X149415000Y-114253740D01*
X149415000Y-114546260D01*
X149472068Y-114833158D01*
X149584010Y-115103411D01*
X149746525Y-115346632D01*
X149953368Y-115553475D01*
X150196589Y-115715990D01*
X150466842Y-115827932D01*
X150753740Y-115885000D01*
X151046260Y-115885000D01*
X151333158Y-115827932D01*
X151603411Y-115715990D01*
X151846632Y-115553475D01*
X152053475Y-115346632D01*
X152215990Y-115103411D01*
X152327932Y-114833158D01*
X152385000Y-114546260D01*
X152385000Y-114253740D01*
X152327932Y-113966842D01*
X152215990Y-113696589D01*
X152053475Y-113453368D01*
X151921620Y-113321513D01*
X151994180Y-113299502D01*
X152104494Y-113240537D01*
X152201185Y-113161185D01*
X152280537Y-113064494D01*
X152339502Y-112954180D01*
X152375812Y-112834482D01*
X152388072Y-112710000D01*
X152388072Y-111693740D01*
X159115000Y-111693740D01*
X159115000Y-111986260D01*
X159172068Y-112273158D01*
X159284010Y-112543411D01*
X159446525Y-112786632D01*
X159653368Y-112993475D01*
X159827760Y-113110000D01*
X159653368Y-113226525D01*
X159446525Y-113433368D01*
X159284010Y-113676589D01*
X159172068Y-113946842D01*
X159115000Y-114233740D01*
X159115000Y-114526260D01*
X159172068Y-114813158D01*
X159284010Y-115083411D01*
X159446525Y-115326632D01*
X159653368Y-115533475D01*
X159896589Y-115695990D01*
X160166842Y-115807932D01*
X160453740Y-115865000D01*
X160746260Y-115865000D01*
X161033158Y-115807932D01*
X161303411Y-115695990D01*
X161546632Y-115533475D01*
X161753475Y-115326632D01*
X161915990Y-115083411D01*
X162027932Y-114813158D01*
X162085000Y-114526260D01*
X162085000Y-114233740D01*
X162027932Y-113946842D01*
X161915990Y-113676589D01*
X161753475Y-113433368D01*
X161546632Y-113226525D01*
X161372240Y-113110000D01*
X161546632Y-112993475D01*
X161753475Y-112786632D01*
X161915990Y-112543411D01*
X162027932Y-112273158D01*
X162085000Y-111986260D01*
X162085000Y-111693740D01*
X162027932Y-111406842D01*
X161915990Y-111136589D01*
X161753475Y-110893368D01*
X161546632Y-110686525D01*
X161364466Y-110564805D01*
X161481355Y-110495178D01*
X161697588Y-110300269D01*
X161871641Y-110066920D01*
X161996825Y-109804099D01*
X162041476Y-109656890D01*
X161920155Y-109427000D01*
X160727000Y-109427000D01*
X160727000Y-109447000D01*
X160473000Y-109447000D01*
X160473000Y-109427000D01*
X159279845Y-109427000D01*
X159158524Y-109656890D01*
X159203175Y-109804099D01*
X159328359Y-110066920D01*
X159502412Y-110300269D01*
X159718645Y-110495178D01*
X159835534Y-110564805D01*
X159653368Y-110686525D01*
X159446525Y-110893368D01*
X159284010Y-111136589D01*
X159172068Y-111406842D01*
X159115000Y-111693740D01*
X152388072Y-111693740D01*
X152388072Y-111010000D01*
X152375812Y-110885518D01*
X152339502Y-110765820D01*
X152280537Y-110655506D01*
X152201185Y-110558815D01*
X152104494Y-110479463D01*
X151994180Y-110420498D01*
X151874482Y-110384188D01*
X151750000Y-110371928D01*
X150050000Y-110371928D01*
X149925518Y-110384188D01*
X149805820Y-110420498D01*
X149695506Y-110479463D01*
X149598815Y-110558815D01*
X149519463Y-110655506D01*
X149460498Y-110765820D01*
X149424188Y-110885518D01*
X149411928Y-111010000D01*
X123125000Y-111010000D01*
X123125000Y-110953740D01*
X123067932Y-110666842D01*
X122955990Y-110396589D01*
X122793475Y-110153368D01*
X122586632Y-109946525D01*
X122343411Y-109784010D01*
X122073158Y-109672068D01*
X121786260Y-109615000D01*
X121493740Y-109615000D01*
X121206842Y-109672068D01*
X120936589Y-109784010D01*
X120693368Y-109946525D01*
X120486525Y-110153368D01*
X120370000Y-110327760D01*
X120253475Y-110153368D01*
X120046632Y-109946525D01*
X119803411Y-109784010D01*
X119533158Y-109672068D01*
X119246260Y-109615000D01*
X118953740Y-109615000D01*
X118666842Y-109672068D01*
X118396589Y-109784010D01*
X118153368Y-109946525D01*
X117946525Y-110153368D01*
X117830000Y-110327760D01*
X117713475Y-110153368D01*
X117506632Y-109946525D01*
X117263411Y-109784010D01*
X116993158Y-109672068D01*
X116706260Y-109615000D01*
X116413740Y-109615000D01*
X116126842Y-109672068D01*
X115856589Y-109784010D01*
X115613368Y-109946525D01*
X115406525Y-110153368D01*
X115290000Y-110327760D01*
X115173475Y-110153368D01*
X114966632Y-109946525D01*
X114723411Y-109784010D01*
X114453158Y-109672068D01*
X114166260Y-109615000D01*
X113873740Y-109615000D01*
X113586842Y-109672068D01*
X113316589Y-109784010D01*
X113073368Y-109946525D01*
X112866525Y-110153368D01*
X112750000Y-110327760D01*
X112633475Y-110153368D01*
X112426632Y-109946525D01*
X112183411Y-109784010D01*
X111913158Y-109672068D01*
X111626260Y-109615000D01*
X111333740Y-109615000D01*
X111046842Y-109672068D01*
X110776589Y-109784010D01*
X110533368Y-109946525D01*
X110326525Y-110153368D01*
X110204805Y-110335534D01*
X110135178Y-110218645D01*
X109940269Y-110002412D01*
X109706920Y-109828359D01*
X109444099Y-109703175D01*
X109296890Y-109658524D01*
X109067000Y-109779845D01*
X109067000Y-110973000D01*
X109087000Y-110973000D01*
X109087000Y-111227000D01*
X109067000Y-111227000D01*
X109067000Y-111247000D01*
X108813000Y-111247000D01*
X108813000Y-111227000D01*
X107619186Y-111227000D01*
X107498519Y-111456891D01*
X107595843Y-111731252D01*
X107744822Y-111981355D01*
X107921626Y-112177502D01*
X107845820Y-112200498D01*
X107735506Y-112259463D01*
X107638815Y-112338815D01*
X107559463Y-112435506D01*
X107500498Y-112545820D01*
X107464188Y-112665518D01*
X107451928Y-112790000D01*
X73112290Y-112790000D01*
X73096028Y-112773738D01*
X72942889Y-112671414D01*
X72772729Y-112600932D01*
X72592089Y-112565000D01*
X72407911Y-112565000D01*
X72227271Y-112600932D01*
X72057111Y-112671414D01*
X71903972Y-112773738D01*
X71773738Y-112903972D01*
X71671414Y-113057111D01*
X71600932Y-113227271D01*
X71565000Y-113407911D01*
X65660000Y-113407911D01*
X65660000Y-110743109D01*
X107498519Y-110743109D01*
X107619186Y-110973000D01*
X108813000Y-110973000D01*
X108813000Y-109779845D01*
X108583110Y-109658524D01*
X108435901Y-109703175D01*
X108173080Y-109828359D01*
X107939731Y-110002412D01*
X107744822Y-110218645D01*
X107595843Y-110468748D01*
X107498519Y-110743109D01*
X65660000Y-110743109D01*
X65660000Y-103007911D01*
X131665000Y-103007911D01*
X131665000Y-103192089D01*
X131700932Y-103372729D01*
X131771414Y-103542889D01*
X131873738Y-103696028D01*
X132003972Y-103826262D01*
X132157111Y-103928586D01*
X132327271Y-103999068D01*
X132507911Y-104035000D01*
X132692089Y-104035000D01*
X132872729Y-103999068D01*
X133042889Y-103928586D01*
X133196028Y-103826262D01*
X133326262Y-103696028D01*
X133428586Y-103542889D01*
X133499068Y-103372729D01*
X133535000Y-103192089D01*
X133535000Y-103007911D01*
X133499068Y-102827271D01*
X133428586Y-102657111D01*
X133326262Y-102503972D01*
X133196028Y-102373738D01*
X133042889Y-102271414D01*
X132872729Y-102200932D01*
X132692089Y-102165000D01*
X132507911Y-102165000D01*
X132327271Y-102200932D01*
X132157111Y-102271414D01*
X132003972Y-102373738D01*
X131873738Y-102503972D01*
X131771414Y-102657111D01*
X131700932Y-102827271D01*
X131665000Y-103007911D01*
X65660000Y-103007911D01*
X65660000Y-80450000D01*
X85911928Y-80450000D01*
X85911928Y-82150000D01*
X85924188Y-82274482D01*
X85960498Y-82394180D01*
X86019463Y-82504494D01*
X86098815Y-82601185D01*
X86195506Y-82680537D01*
X86305820Y-82739502D01*
X86378380Y-82761513D01*
X86246525Y-82893368D01*
X86084010Y-83136589D01*
X85972068Y-83406842D01*
X85915000Y-83693740D01*
X85915000Y-83986260D01*
X85972068Y-84273158D01*
X86084010Y-84543411D01*
X86246525Y-84786632D01*
X86453368Y-84993475D01*
X86627760Y-85110000D01*
X86453368Y-85226525D01*
X86246525Y-85433368D01*
X86084010Y-85676589D01*
X85972068Y-85946842D01*
X85915000Y-86233740D01*
X85915000Y-86526260D01*
X85972068Y-86813158D01*
X86084010Y-87083411D01*
X86246525Y-87326632D01*
X86453368Y-87533475D01*
X86627760Y-87650000D01*
X86453368Y-87766525D01*
X86246525Y-87973368D01*
X86084010Y-88216589D01*
X85972068Y-88486842D01*
X85915000Y-88773740D01*
X85915000Y-89066260D01*
X85972068Y-89353158D01*
X86084010Y-89623411D01*
X86246525Y-89866632D01*
X86453368Y-90073475D01*
X86627760Y-90190000D01*
X86453368Y-90306525D01*
X86246525Y-90513368D01*
X86084010Y-90756589D01*
X85972068Y-91026842D01*
X85915000Y-91313740D01*
X85915000Y-91606260D01*
X85972068Y-91893158D01*
X86084010Y-92163411D01*
X86246525Y-92406632D01*
X86453368Y-92613475D01*
X86627760Y-92730000D01*
X86453368Y-92846525D01*
X86246525Y-93053368D01*
X86084010Y-93296589D01*
X85972068Y-93566842D01*
X85915000Y-93853740D01*
X85915000Y-94146260D01*
X85972068Y-94433158D01*
X86084010Y-94703411D01*
X86246525Y-94946632D01*
X86453368Y-95153475D01*
X86696589Y-95315990D01*
X86966842Y-95427932D01*
X87253740Y-95485000D01*
X87546260Y-95485000D01*
X87833158Y-95427932D01*
X88103411Y-95315990D01*
X88346632Y-95153475D01*
X88553475Y-94946632D01*
X88670000Y-94772240D01*
X88786525Y-94946632D01*
X88993368Y-95153475D01*
X89236589Y-95315990D01*
X89506842Y-95427932D01*
X89793740Y-95485000D01*
X90086260Y-95485000D01*
X90373158Y-95427932D01*
X90643411Y-95315990D01*
X90886632Y-95153475D01*
X91093475Y-94946632D01*
X91252983Y-94707911D01*
X136365000Y-94707911D01*
X136365000Y-94892089D01*
X136400932Y-95072729D01*
X136471414Y-95242889D01*
X136573738Y-95396028D01*
X136703972Y-95526262D01*
X136857111Y-95628586D01*
X137027271Y-95699068D01*
X137165426Y-95726549D01*
X137057111Y-95771414D01*
X136903972Y-95873738D01*
X136773738Y-96003972D01*
X136671414Y-96157111D01*
X136600932Y-96327271D01*
X136565000Y-96507911D01*
X136565000Y-96692089D01*
X136600932Y-96872729D01*
X136671414Y-97042889D01*
X136773738Y-97196028D01*
X136903972Y-97326262D01*
X137057111Y-97428586D01*
X137227271Y-97499068D01*
X137407911Y-97535000D01*
X137592089Y-97535000D01*
X137772729Y-97499068D01*
X137942889Y-97428586D01*
X138096028Y-97326262D01*
X138226262Y-97196028D01*
X138328586Y-97042889D01*
X138399068Y-96872729D01*
X138435000Y-96692089D01*
X138435000Y-96507911D01*
X138399068Y-96327271D01*
X138328586Y-96157111D01*
X138226262Y-96003972D01*
X138096028Y-95873738D01*
X137942889Y-95771414D01*
X137891191Y-95750000D01*
X159111928Y-95750000D01*
X159111928Y-97450000D01*
X159124188Y-97574482D01*
X159160498Y-97694180D01*
X159219463Y-97804494D01*
X159298815Y-97901185D01*
X159395506Y-97980537D01*
X159505820Y-98039502D01*
X159578380Y-98061513D01*
X159446525Y-98193368D01*
X159284010Y-98436589D01*
X159172068Y-98706842D01*
X159115000Y-98993740D01*
X159115000Y-99286260D01*
X159172068Y-99573158D01*
X159284010Y-99843411D01*
X159446525Y-100086632D01*
X159653368Y-100293475D01*
X159827760Y-100410000D01*
X159653368Y-100526525D01*
X159446525Y-100733368D01*
X159284010Y-100976589D01*
X159172068Y-101246842D01*
X159115000Y-101533740D01*
X159115000Y-101826260D01*
X159172068Y-102113158D01*
X159284010Y-102383411D01*
X159446525Y-102626632D01*
X159653368Y-102833475D01*
X159827760Y-102950000D01*
X159653368Y-103066525D01*
X159446525Y-103273368D01*
X159284010Y-103516589D01*
X159172068Y-103786842D01*
X159115000Y-104073740D01*
X159115000Y-104366260D01*
X159172068Y-104653158D01*
X159284010Y-104923411D01*
X159446525Y-105166632D01*
X159653368Y-105373475D01*
X159827760Y-105490000D01*
X159653368Y-105606525D01*
X159446525Y-105813368D01*
X159284010Y-106056589D01*
X159172068Y-106326842D01*
X159115000Y-106613740D01*
X159115000Y-106906260D01*
X159172068Y-107193158D01*
X159284010Y-107463411D01*
X159446525Y-107706632D01*
X159653368Y-107913475D01*
X159835534Y-108035195D01*
X159718645Y-108104822D01*
X159502412Y-108299731D01*
X159328359Y-108533080D01*
X159203175Y-108795901D01*
X159158524Y-108943110D01*
X159279845Y-109173000D01*
X160473000Y-109173000D01*
X160473000Y-109153000D01*
X160727000Y-109153000D01*
X160727000Y-109173000D01*
X161920155Y-109173000D01*
X162041476Y-108943110D01*
X161996825Y-108795901D01*
X161871641Y-108533080D01*
X161697588Y-108299731D01*
X161481355Y-108104822D01*
X161364466Y-108035195D01*
X161546632Y-107913475D01*
X161753475Y-107706632D01*
X161915990Y-107463411D01*
X162027932Y-107193158D01*
X162085000Y-106906260D01*
X162085000Y-106613740D01*
X162027932Y-106326842D01*
X161915990Y-106056589D01*
X161753475Y-105813368D01*
X161546632Y-105606525D01*
X161372240Y-105490000D01*
X161546632Y-105373475D01*
X161753475Y-105166632D01*
X161915990Y-104923411D01*
X162027932Y-104653158D01*
X162085000Y-104366260D01*
X162085000Y-104073740D01*
X162027932Y-103786842D01*
X161915990Y-103516589D01*
X161753475Y-103273368D01*
X161546632Y-103066525D01*
X161372240Y-102950000D01*
X161546632Y-102833475D01*
X161753475Y-102626632D01*
X161915990Y-102383411D01*
X162027932Y-102113158D01*
X162085000Y-101826260D01*
X162085000Y-101533740D01*
X162027932Y-101246842D01*
X161915990Y-100976589D01*
X161753475Y-100733368D01*
X161546632Y-100526525D01*
X161372240Y-100410000D01*
X161546632Y-100293475D01*
X161753475Y-100086632D01*
X161915990Y-99843411D01*
X162027932Y-99573158D01*
X162085000Y-99286260D01*
X162085000Y-98993740D01*
X162027932Y-98706842D01*
X161915990Y-98436589D01*
X161753475Y-98193368D01*
X161621620Y-98061513D01*
X161694180Y-98039502D01*
X161804494Y-97980537D01*
X161901185Y-97901185D01*
X161980537Y-97804494D01*
X162039502Y-97694180D01*
X162075812Y-97574482D01*
X162088072Y-97450000D01*
X162088072Y-95750000D01*
X162075812Y-95625518D01*
X162039502Y-95505820D01*
X161980537Y-95395506D01*
X161901185Y-95298815D01*
X161804494Y-95219463D01*
X161694180Y-95160498D01*
X161574482Y-95124188D01*
X161450000Y-95111928D01*
X159750000Y-95111928D01*
X159625518Y-95124188D01*
X159505820Y-95160498D01*
X159395506Y-95219463D01*
X159298815Y-95298815D01*
X159219463Y-95395506D01*
X159160498Y-95505820D01*
X159124188Y-95625518D01*
X159111928Y-95750000D01*
X137891191Y-95750000D01*
X137772729Y-95700932D01*
X137634574Y-95673451D01*
X137742889Y-95628586D01*
X137896028Y-95526262D01*
X138026262Y-95396028D01*
X138128586Y-95242889D01*
X138199068Y-95072729D01*
X138235000Y-94892089D01*
X138235000Y-94707911D01*
X138199068Y-94527271D01*
X138128586Y-94357111D01*
X138026262Y-94203972D01*
X137896028Y-94073738D01*
X137742889Y-93971414D01*
X137572729Y-93900932D01*
X137392089Y-93865000D01*
X137207911Y-93865000D01*
X137027271Y-93900932D01*
X136857111Y-93971414D01*
X136703972Y-94073738D01*
X136573738Y-94203972D01*
X136471414Y-94357111D01*
X136400932Y-94527271D01*
X136365000Y-94707911D01*
X91252983Y-94707911D01*
X91255990Y-94703411D01*
X91367932Y-94433158D01*
X91425000Y-94146260D01*
X91425000Y-93853740D01*
X91367932Y-93566842D01*
X91255990Y-93296589D01*
X91093475Y-93053368D01*
X90886632Y-92846525D01*
X90712240Y-92730000D01*
X90886632Y-92613475D01*
X91093475Y-92406632D01*
X91246983Y-92176890D01*
X139758524Y-92176890D01*
X139803175Y-92324099D01*
X139928359Y-92586920D01*
X140102412Y-92820269D01*
X140318645Y-93015178D01*
X140568748Y-93164157D01*
X140843109Y-93261481D01*
X141073000Y-93140814D01*
X141073000Y-91947000D01*
X139879845Y-91947000D01*
X139758524Y-92176890D01*
X91246983Y-92176890D01*
X91255990Y-92163411D01*
X91367932Y-91893158D01*
X91425000Y-91606260D01*
X91425000Y-91313740D01*
X91367932Y-91026842D01*
X91255990Y-90756589D01*
X91093475Y-90513368D01*
X91038018Y-90457911D01*
X113340010Y-90457911D01*
X113340010Y-90642089D01*
X113375942Y-90822729D01*
X113446424Y-90992889D01*
X113548748Y-91146028D01*
X113678982Y-91276262D01*
X113832121Y-91378586D01*
X114002281Y-91449068D01*
X114182921Y-91485000D01*
X114367099Y-91485000D01*
X114547739Y-91449068D01*
X114717899Y-91378586D01*
X114871038Y-91276262D01*
X115001272Y-91146028D01*
X115103596Y-90992889D01*
X115174078Y-90822729D01*
X115210010Y-90642089D01*
X115210010Y-90457911D01*
X115174078Y-90277271D01*
X115103596Y-90107111D01*
X115001272Y-89953972D01*
X114871038Y-89823738D01*
X114717899Y-89721414D01*
X114547739Y-89650932D01*
X114367099Y-89615000D01*
X114182921Y-89615000D01*
X114002281Y-89650932D01*
X113832121Y-89721414D01*
X113678982Y-89823738D01*
X113548748Y-89953972D01*
X113446424Y-90107111D01*
X113375942Y-90277271D01*
X113340010Y-90457911D01*
X91038018Y-90457911D01*
X90886632Y-90306525D01*
X90712240Y-90190000D01*
X90886632Y-90073475D01*
X91093475Y-89866632D01*
X91255990Y-89623411D01*
X91367932Y-89353158D01*
X91425000Y-89066260D01*
X91425000Y-88773740D01*
X91367932Y-88486842D01*
X91255990Y-88216589D01*
X91093475Y-87973368D01*
X90886632Y-87766525D01*
X90712240Y-87650000D01*
X90886632Y-87533475D01*
X91093475Y-87326632D01*
X91255990Y-87083411D01*
X91367932Y-86813158D01*
X91368975Y-86807911D01*
X114565000Y-86807911D01*
X114565000Y-86992089D01*
X114600932Y-87172729D01*
X114671414Y-87342889D01*
X114773738Y-87496028D01*
X114903972Y-87626262D01*
X115057111Y-87728586D01*
X115227271Y-87799068D01*
X115407911Y-87835000D01*
X115592089Y-87835000D01*
X115772729Y-87799068D01*
X115942889Y-87728586D01*
X116096028Y-87626262D01*
X116226262Y-87496028D01*
X116328586Y-87342889D01*
X116399068Y-87172729D01*
X116435000Y-86992089D01*
X116435000Y-86807911D01*
X116399068Y-86627271D01*
X116328586Y-86457111D01*
X116226262Y-86303972D01*
X116096028Y-86173738D01*
X115942889Y-86071414D01*
X115772729Y-86000932D01*
X115592089Y-85965000D01*
X115407911Y-85965000D01*
X115227271Y-86000932D01*
X115057111Y-86071414D01*
X114903972Y-86173738D01*
X114773738Y-86303972D01*
X114671414Y-86457111D01*
X114600932Y-86627271D01*
X114565000Y-86807911D01*
X91368975Y-86807911D01*
X91425000Y-86526260D01*
X91425000Y-86233740D01*
X91367932Y-85946842D01*
X91255990Y-85676589D01*
X91093475Y-85433368D01*
X90968018Y-85307911D01*
X100765000Y-85307911D01*
X100765000Y-85492089D01*
X100800932Y-85672729D01*
X100871414Y-85842889D01*
X100973738Y-85996028D01*
X101103972Y-86126262D01*
X101257111Y-86228586D01*
X101427271Y-86299068D01*
X101607911Y-86335000D01*
X101792089Y-86335000D01*
X101972729Y-86299068D01*
X102142889Y-86228586D01*
X102296028Y-86126262D01*
X102426262Y-85996028D01*
X102528586Y-85842889D01*
X102599068Y-85672729D01*
X102635000Y-85492089D01*
X102635000Y-85307911D01*
X102599068Y-85127271D01*
X102528586Y-84957111D01*
X102428894Y-84807911D01*
X115865000Y-84807911D01*
X115865000Y-84992089D01*
X115900932Y-85172729D01*
X115971414Y-85342889D01*
X116073738Y-85496028D01*
X116203972Y-85626262D01*
X116357111Y-85728586D01*
X116527271Y-85799068D01*
X116707911Y-85835000D01*
X116892089Y-85835000D01*
X117072729Y-85799068D01*
X117242889Y-85728586D01*
X117396028Y-85626262D01*
X117526262Y-85496028D01*
X117628586Y-85342889D01*
X117699068Y-85172729D01*
X117735000Y-84992089D01*
X117735000Y-84807911D01*
X117699068Y-84627271D01*
X117628586Y-84457111D01*
X117526262Y-84303972D01*
X117396028Y-84173738D01*
X117242889Y-84071414D01*
X117072729Y-84000932D01*
X116892089Y-83965000D01*
X116707911Y-83965000D01*
X116527271Y-84000932D01*
X116357111Y-84071414D01*
X116203972Y-84173738D01*
X116073738Y-84303972D01*
X115971414Y-84457111D01*
X115900932Y-84627271D01*
X115865000Y-84807911D01*
X102428894Y-84807911D01*
X102426262Y-84803972D01*
X102296028Y-84673738D01*
X102142889Y-84571414D01*
X101972729Y-84500932D01*
X101792089Y-84465000D01*
X101607911Y-84465000D01*
X101427271Y-84500932D01*
X101257111Y-84571414D01*
X101103972Y-84673738D01*
X100973738Y-84803972D01*
X100871414Y-84957111D01*
X100800932Y-85127271D01*
X100765000Y-85307911D01*
X90968018Y-85307911D01*
X90886632Y-85226525D01*
X90712240Y-85110000D01*
X90886632Y-84993475D01*
X91093475Y-84786632D01*
X91255990Y-84543411D01*
X91367932Y-84273158D01*
X91425000Y-83986260D01*
X91425000Y-83693740D01*
X91368145Y-83407911D01*
X112665000Y-83407911D01*
X112665000Y-83592089D01*
X112700932Y-83772729D01*
X112771414Y-83942889D01*
X112873738Y-84096028D01*
X113003972Y-84226262D01*
X113157111Y-84328586D01*
X113327271Y-84399068D01*
X113507911Y-84435000D01*
X113692089Y-84435000D01*
X113872729Y-84399068D01*
X114042889Y-84328586D01*
X114196028Y-84226262D01*
X114326262Y-84096028D01*
X114428586Y-83942889D01*
X114499068Y-83772729D01*
X114535000Y-83592089D01*
X114535000Y-83407911D01*
X114499068Y-83227271D01*
X114428586Y-83057111D01*
X114326262Y-82903972D01*
X114196028Y-82773738D01*
X114042889Y-82671414D01*
X113872729Y-82600932D01*
X113692089Y-82565000D01*
X113507911Y-82565000D01*
X113327271Y-82600932D01*
X113157111Y-82671414D01*
X113003972Y-82773738D01*
X112873738Y-82903972D01*
X112771414Y-83057111D01*
X112700932Y-83227271D01*
X112665000Y-83407911D01*
X91368145Y-83407911D01*
X91367932Y-83406842D01*
X91255990Y-83136589D01*
X91093475Y-82893368D01*
X90886632Y-82686525D01*
X90704466Y-82564805D01*
X90821355Y-82495178D01*
X91037588Y-82300269D01*
X91211641Y-82066920D01*
X91336825Y-81804099D01*
X91381476Y-81656890D01*
X91260155Y-81427000D01*
X90067000Y-81427000D01*
X90067000Y-81447000D01*
X89813000Y-81447000D01*
X89813000Y-81427000D01*
X89793000Y-81427000D01*
X89793000Y-81173000D01*
X89813000Y-81173000D01*
X89813000Y-79979186D01*
X90067000Y-79979186D01*
X90067000Y-81173000D01*
X91260155Y-81173000D01*
X91381476Y-80943110D01*
X91336825Y-80795901D01*
X91256810Y-80627911D01*
X120085000Y-80627911D01*
X120085000Y-80812089D01*
X120120932Y-80992729D01*
X120191414Y-81162889D01*
X120293738Y-81316028D01*
X120423972Y-81446262D01*
X120577111Y-81548586D01*
X120747271Y-81619068D01*
X120927911Y-81655000D01*
X121112089Y-81655000D01*
X121292729Y-81619068D01*
X121462889Y-81548586D01*
X121616028Y-81446262D01*
X121746262Y-81316028D01*
X121848586Y-81162889D01*
X121919068Y-80992729D01*
X121955000Y-80812089D01*
X121955000Y-80627911D01*
X121919068Y-80447271D01*
X121848586Y-80277111D01*
X121746262Y-80123972D01*
X121616028Y-79993738D01*
X121462889Y-79891414D01*
X121292729Y-79820932D01*
X121112089Y-79785000D01*
X120927911Y-79785000D01*
X120747271Y-79820932D01*
X120577111Y-79891414D01*
X120423972Y-79993738D01*
X120293738Y-80123972D01*
X120191414Y-80277111D01*
X120120932Y-80447271D01*
X120085000Y-80627911D01*
X91256810Y-80627911D01*
X91211641Y-80533080D01*
X91037588Y-80299731D01*
X90821355Y-80104822D01*
X90571252Y-79955843D01*
X90296891Y-79858519D01*
X90067000Y-79979186D01*
X89813000Y-79979186D01*
X89583109Y-79858519D01*
X89308748Y-79955843D01*
X89058645Y-80104822D01*
X88862498Y-80281626D01*
X88839502Y-80205820D01*
X88780537Y-80095506D01*
X88701185Y-79998815D01*
X88604494Y-79919463D01*
X88494180Y-79860498D01*
X88374482Y-79824188D01*
X88250000Y-79811928D01*
X86550000Y-79811928D01*
X86425518Y-79824188D01*
X86305820Y-79860498D01*
X86195506Y-79919463D01*
X86098815Y-79998815D01*
X86019463Y-80095506D01*
X85960498Y-80205820D01*
X85924188Y-80325518D01*
X85911928Y-80450000D01*
X65660000Y-80450000D01*
X65660000Y-79007911D01*
X113365000Y-79007911D01*
X113365000Y-79192089D01*
X113400932Y-79372729D01*
X113471414Y-79542889D01*
X113573738Y-79696028D01*
X113703972Y-79826262D01*
X113857111Y-79928586D01*
X114027271Y-79999068D01*
X114207911Y-80035000D01*
X114392089Y-80035000D01*
X114572729Y-79999068D01*
X114742889Y-79928586D01*
X114896028Y-79826262D01*
X115026262Y-79696028D01*
X115128586Y-79542889D01*
X115199068Y-79372729D01*
X115235000Y-79192089D01*
X115235000Y-79007911D01*
X115228203Y-78973740D01*
X139715000Y-78973740D01*
X139715000Y-79266260D01*
X139772068Y-79553158D01*
X139884010Y-79823411D01*
X140046525Y-80066632D01*
X140253368Y-80273475D01*
X140427760Y-80390000D01*
X140253368Y-80506525D01*
X140046525Y-80713368D01*
X139884010Y-80956589D01*
X139772068Y-81226842D01*
X139715000Y-81513740D01*
X139715000Y-81806260D01*
X139772068Y-82093158D01*
X139884010Y-82363411D01*
X140046525Y-82606632D01*
X140253368Y-82813475D01*
X140427760Y-82930000D01*
X140253368Y-83046525D01*
X140046525Y-83253368D01*
X139884010Y-83496589D01*
X139772068Y-83766842D01*
X139715000Y-84053740D01*
X139715000Y-84346260D01*
X139772068Y-84633158D01*
X139884010Y-84903411D01*
X140046525Y-85146632D01*
X140253368Y-85353475D01*
X140427760Y-85470000D01*
X140253368Y-85586525D01*
X140046525Y-85793368D01*
X139884010Y-86036589D01*
X139772068Y-86306842D01*
X139715000Y-86593740D01*
X139715000Y-86886260D01*
X139772068Y-87173158D01*
X139884010Y-87443411D01*
X140046525Y-87686632D01*
X140253368Y-87893475D01*
X140427760Y-88010000D01*
X140253368Y-88126525D01*
X140046525Y-88333368D01*
X139884010Y-88576589D01*
X139772068Y-88846842D01*
X139715000Y-89133740D01*
X139715000Y-89426260D01*
X139772068Y-89713158D01*
X139884010Y-89983411D01*
X140046525Y-90226632D01*
X140253368Y-90433475D01*
X140435534Y-90555195D01*
X140318645Y-90624822D01*
X140102412Y-90819731D01*
X139928359Y-91053080D01*
X139803175Y-91315901D01*
X139758524Y-91463110D01*
X139879845Y-91693000D01*
X141073000Y-91693000D01*
X141073000Y-91673000D01*
X141327000Y-91673000D01*
X141327000Y-91693000D01*
X141347000Y-91693000D01*
X141347000Y-91947000D01*
X141327000Y-91947000D01*
X141327000Y-93140814D01*
X141556891Y-93261481D01*
X141831252Y-93164157D01*
X142081355Y-93015178D01*
X142277502Y-92838374D01*
X142300498Y-92914180D01*
X142359463Y-93024494D01*
X142438815Y-93121185D01*
X142535506Y-93200537D01*
X142645820Y-93259502D01*
X142765518Y-93295812D01*
X142890000Y-93308072D01*
X144590000Y-93308072D01*
X144714482Y-93295812D01*
X144834180Y-93259502D01*
X144944494Y-93200537D01*
X145041185Y-93121185D01*
X145120537Y-93024494D01*
X145179502Y-92914180D01*
X145215812Y-92794482D01*
X145228072Y-92670000D01*
X145228072Y-90970000D01*
X145215812Y-90845518D01*
X145179502Y-90725820D01*
X145120537Y-90615506D01*
X145041185Y-90518815D01*
X145027899Y-90507911D01*
X156665000Y-90507911D01*
X156665000Y-90692089D01*
X156700932Y-90872729D01*
X156771414Y-91042889D01*
X156873738Y-91196028D01*
X157003972Y-91326262D01*
X157157111Y-91428586D01*
X157327271Y-91499068D01*
X157507911Y-91535000D01*
X157692089Y-91535000D01*
X157872729Y-91499068D01*
X158042889Y-91428586D01*
X158196028Y-91326262D01*
X158326262Y-91196028D01*
X158428586Y-91042889D01*
X158499068Y-90872729D01*
X158535000Y-90692089D01*
X158535000Y-90507911D01*
X158499068Y-90327271D01*
X158428586Y-90157111D01*
X158326262Y-90003972D01*
X158196028Y-89873738D01*
X158042889Y-89771414D01*
X157872729Y-89700932D01*
X157692089Y-89665000D01*
X157507911Y-89665000D01*
X157327271Y-89700932D01*
X157157111Y-89771414D01*
X157003972Y-89873738D01*
X156873738Y-90003972D01*
X156771414Y-90157111D01*
X156700932Y-90327271D01*
X156665000Y-90507911D01*
X145027899Y-90507911D01*
X144944494Y-90439463D01*
X144834180Y-90380498D01*
X144761620Y-90358487D01*
X144893475Y-90226632D01*
X145055990Y-89983411D01*
X145167932Y-89713158D01*
X145225000Y-89426260D01*
X145225000Y-89133740D01*
X145167932Y-88846842D01*
X145055990Y-88576589D01*
X144893475Y-88333368D01*
X144686632Y-88126525D01*
X144512240Y-88010000D01*
X144686632Y-87893475D01*
X144893475Y-87686632D01*
X145055990Y-87443411D01*
X145167932Y-87173158D01*
X145225000Y-86886260D01*
X145225000Y-86593740D01*
X145167932Y-86306842D01*
X145055990Y-86036589D01*
X144893475Y-85793368D01*
X144686632Y-85586525D01*
X144512240Y-85470000D01*
X144686632Y-85353475D01*
X144893475Y-85146632D01*
X145055990Y-84903411D01*
X145167932Y-84633158D01*
X145225000Y-84346260D01*
X145225000Y-84053740D01*
X145167932Y-83766842D01*
X145055990Y-83496589D01*
X144893475Y-83253368D01*
X144686632Y-83046525D01*
X144512240Y-82930000D01*
X144686632Y-82813475D01*
X144893475Y-82606632D01*
X145055990Y-82363411D01*
X145167932Y-82093158D01*
X145225000Y-81806260D01*
X145225000Y-81513740D01*
X145167932Y-81226842D01*
X145055990Y-80956589D01*
X144893475Y-80713368D01*
X144686632Y-80506525D01*
X144512240Y-80390000D01*
X144686632Y-80273475D01*
X144893475Y-80066632D01*
X145055990Y-79823411D01*
X145167932Y-79553158D01*
X145225000Y-79266260D01*
X145225000Y-78973740D01*
X145167932Y-78686842D01*
X145055990Y-78416589D01*
X145050192Y-78407911D01*
X159765000Y-78407911D01*
X159765000Y-78592089D01*
X159800932Y-78772729D01*
X159871414Y-78942889D01*
X159973738Y-79096028D01*
X160103972Y-79226262D01*
X160257111Y-79328586D01*
X160427271Y-79399068D01*
X160607911Y-79435000D01*
X160792089Y-79435000D01*
X160972729Y-79399068D01*
X161142889Y-79328586D01*
X161296028Y-79226262D01*
X161426262Y-79096028D01*
X161528586Y-78942889D01*
X161599068Y-78772729D01*
X161635000Y-78592089D01*
X161635000Y-78407911D01*
X161599068Y-78227271D01*
X161528586Y-78057111D01*
X161426262Y-77903972D01*
X161296028Y-77773738D01*
X161142889Y-77671414D01*
X160972729Y-77600932D01*
X160792089Y-77565000D01*
X160607911Y-77565000D01*
X160427271Y-77600932D01*
X160257111Y-77671414D01*
X160103972Y-77773738D01*
X159973738Y-77903972D01*
X159871414Y-78057111D01*
X159800932Y-78227271D01*
X159765000Y-78407911D01*
X145050192Y-78407911D01*
X144893475Y-78173368D01*
X144686632Y-77966525D01*
X144443411Y-77804010D01*
X144173158Y-77692068D01*
X143886260Y-77635000D01*
X143593740Y-77635000D01*
X143306842Y-77692068D01*
X143036589Y-77804010D01*
X142793368Y-77966525D01*
X142586525Y-78173368D01*
X142470000Y-78347760D01*
X142353475Y-78173368D01*
X142146632Y-77966525D01*
X141903411Y-77804010D01*
X141633158Y-77692068D01*
X141346260Y-77635000D01*
X141053740Y-77635000D01*
X140766842Y-77692068D01*
X140496589Y-77804010D01*
X140253368Y-77966525D01*
X140046525Y-78173368D01*
X139884010Y-78416589D01*
X139772068Y-78686842D01*
X139715000Y-78973740D01*
X115228203Y-78973740D01*
X115199068Y-78827271D01*
X115128586Y-78657111D01*
X115026262Y-78503972D01*
X114896028Y-78373738D01*
X114742889Y-78271414D01*
X114572729Y-78200932D01*
X114392089Y-78165000D01*
X114207911Y-78165000D01*
X114027271Y-78200932D01*
X113857111Y-78271414D01*
X113703972Y-78373738D01*
X113573738Y-78503972D01*
X113471414Y-78657111D01*
X113400932Y-78827271D01*
X113365000Y-79007911D01*
X65660000Y-79007911D01*
X65660000Y-77407911D01*
X126165000Y-77407911D01*
X126165000Y-77592089D01*
X126200932Y-77772729D01*
X126271414Y-77942889D01*
X126373738Y-78096028D01*
X126503972Y-78226262D01*
X126657111Y-78328586D01*
X126827271Y-78399068D01*
X127007911Y-78435000D01*
X127192089Y-78435000D01*
X127372729Y-78399068D01*
X127542889Y-78328586D01*
X127696028Y-78226262D01*
X127826262Y-78096028D01*
X127928586Y-77942889D01*
X127999068Y-77772729D01*
X128035000Y-77592089D01*
X128035000Y-77407911D01*
X127999068Y-77227271D01*
X127928586Y-77057111D01*
X127826262Y-76903972D01*
X127696028Y-76773738D01*
X127542889Y-76671414D01*
X127372729Y-76600932D01*
X127192089Y-76565000D01*
X127007911Y-76565000D01*
X126827271Y-76600932D01*
X126657111Y-76671414D01*
X126503972Y-76773738D01*
X126373738Y-76903972D01*
X126271414Y-77057111D01*
X126200932Y-77227271D01*
X126165000Y-77407911D01*
X65660000Y-77407911D01*
X65660000Y-68150000D01*
X152711928Y-68150000D01*
X152711928Y-69850000D01*
X152724188Y-69974482D01*
X152760498Y-70094180D01*
X152819463Y-70204494D01*
X152898815Y-70301185D01*
X152995506Y-70380537D01*
X153105820Y-70439502D01*
X153225518Y-70475812D01*
X153350000Y-70488072D01*
X155050000Y-70488072D01*
X155174482Y-70475812D01*
X155294180Y-70439502D01*
X155404494Y-70380537D01*
X155501185Y-70301185D01*
X155580537Y-70204494D01*
X155639502Y-70094180D01*
X155661513Y-70021620D01*
X155793368Y-70153475D01*
X156036589Y-70315990D01*
X156306842Y-70427932D01*
X156593740Y-70485000D01*
X156886260Y-70485000D01*
X157173158Y-70427932D01*
X157443411Y-70315990D01*
X157686632Y-70153475D01*
X157893475Y-69946632D01*
X158055990Y-69703411D01*
X158167932Y-69433158D01*
X158225000Y-69146260D01*
X158225000Y-68853740D01*
X158167932Y-68566842D01*
X158055990Y-68296589D01*
X157893475Y-68053368D01*
X157686632Y-67846525D01*
X157443411Y-67684010D01*
X157173158Y-67572068D01*
X156886260Y-67515000D01*
X156593740Y-67515000D01*
X156306842Y-67572068D01*
X156036589Y-67684010D01*
X155793368Y-67846525D01*
X155661513Y-67978380D01*
X155639502Y-67905820D01*
X155580537Y-67795506D01*
X155501185Y-67698815D01*
X155404494Y-67619463D01*
X155294180Y-67560498D01*
X155174482Y-67524188D01*
X155050000Y-67511928D01*
X153350000Y-67511928D01*
X153225518Y-67524188D01*
X153105820Y-67560498D01*
X152995506Y-67619463D01*
X152898815Y-67698815D01*
X152819463Y-67795506D01*
X152760498Y-67905820D01*
X152724188Y-68025518D01*
X152711928Y-68150000D01*
X65660000Y-68150000D01*
X65660000Y-59882911D01*
X88590000Y-59882911D01*
X88590000Y-60067089D01*
X88625932Y-60247729D01*
X88696414Y-60417889D01*
X88798738Y-60571028D01*
X88928972Y-60701262D01*
X89082111Y-60803586D01*
X89252271Y-60874068D01*
X89432911Y-60910000D01*
X89617089Y-60910000D01*
X89797729Y-60874068D01*
X89967889Y-60803586D01*
X90121028Y-60701262D01*
X90251262Y-60571028D01*
X90353586Y-60417889D01*
X90424068Y-60247729D01*
X90460000Y-60067089D01*
X90460000Y-59882911D01*
X90424068Y-59702271D01*
X90353586Y-59532111D01*
X90251262Y-59378972D01*
X90121028Y-59248738D01*
X89967889Y-59146414D01*
X89797729Y-59075932D01*
X89617089Y-59040000D01*
X89432911Y-59040000D01*
X89252271Y-59075932D01*
X89082111Y-59146414D01*
X88928972Y-59248738D01*
X88798738Y-59378972D01*
X88696414Y-59532111D01*
X88625932Y-59702271D01*
X88590000Y-59882911D01*
X65660000Y-59882911D01*
X65660000Y-57913740D01*
X109755000Y-57913740D01*
X109755000Y-58206260D01*
X109812068Y-58493158D01*
X109924010Y-58763411D01*
X110086525Y-59006632D01*
X110293368Y-59213475D01*
X110467760Y-59330000D01*
X110293368Y-59446525D01*
X110086525Y-59653368D01*
X109924010Y-59896589D01*
X109812068Y-60166842D01*
X109755000Y-60453740D01*
X109755000Y-60746260D01*
X109812068Y-61033158D01*
X109924010Y-61303411D01*
X110086525Y-61546632D01*
X110293368Y-61753475D01*
X110536589Y-61915990D01*
X110806842Y-62027932D01*
X111093740Y-62085000D01*
X111386260Y-62085000D01*
X111673158Y-62027932D01*
X111943411Y-61915990D01*
X112186632Y-61753475D01*
X112393475Y-61546632D01*
X112510000Y-61372240D01*
X112626525Y-61546632D01*
X112833368Y-61753475D01*
X113076589Y-61915990D01*
X113346842Y-62027932D01*
X113633740Y-62085000D01*
X113926260Y-62085000D01*
X114213158Y-62027932D01*
X114483411Y-61915990D01*
X114726632Y-61753475D01*
X114933475Y-61546632D01*
X115050000Y-61372240D01*
X115166525Y-61546632D01*
X115373368Y-61753475D01*
X115616589Y-61915990D01*
X115886842Y-62027932D01*
X116173740Y-62085000D01*
X116466260Y-62085000D01*
X116753158Y-62027932D01*
X117023411Y-61915990D01*
X117266632Y-61753475D01*
X117473475Y-61546632D01*
X117590000Y-61372240D01*
X117706525Y-61546632D01*
X117913368Y-61753475D01*
X117946948Y-61775912D01*
X117892089Y-61765000D01*
X117707911Y-61765000D01*
X117527271Y-61800932D01*
X117357111Y-61871414D01*
X117203972Y-61973738D01*
X117073738Y-62103972D01*
X116971414Y-62257111D01*
X116900932Y-62427271D01*
X116865000Y-62607911D01*
X116865000Y-62792089D01*
X116900932Y-62972729D01*
X116971414Y-63142889D01*
X117073738Y-63296028D01*
X117203972Y-63426262D01*
X117357111Y-63528586D01*
X117527271Y-63599068D01*
X117707911Y-63635000D01*
X117892089Y-63635000D01*
X118072729Y-63599068D01*
X118242889Y-63528586D01*
X118396028Y-63426262D01*
X118526262Y-63296028D01*
X118628586Y-63142889D01*
X118699068Y-62972729D01*
X118735000Y-62792089D01*
X118735000Y-62607911D01*
X118699068Y-62427271D01*
X118628586Y-62257111D01*
X118526262Y-62103972D01*
X118456027Y-62033737D01*
X118713740Y-62085000D01*
X119006260Y-62085000D01*
X119293158Y-62027932D01*
X119563411Y-61915990D01*
X119806632Y-61753475D01*
X120013475Y-61546632D01*
X120135195Y-61364466D01*
X120204822Y-61481355D01*
X120399731Y-61697588D01*
X120633080Y-61871641D01*
X120895901Y-61996825D01*
X121043110Y-62041476D01*
X121273000Y-61920155D01*
X121273000Y-60727000D01*
X121527000Y-60727000D01*
X121527000Y-61920155D01*
X121756890Y-62041476D01*
X121904099Y-61996825D01*
X122166920Y-61871641D01*
X122400269Y-61697588D01*
X122595178Y-61481355D01*
X122744157Y-61231252D01*
X122841481Y-60956891D01*
X122720814Y-60727000D01*
X121527000Y-60727000D01*
X121273000Y-60727000D01*
X121253000Y-60727000D01*
X121253000Y-60473000D01*
X121273000Y-60473000D01*
X121273000Y-60453000D01*
X121527000Y-60453000D01*
X121527000Y-60473000D01*
X122720814Y-60473000D01*
X122841481Y-60243109D01*
X122744157Y-59968748D01*
X122595178Y-59718645D01*
X122418374Y-59522498D01*
X122494180Y-59499502D01*
X122604494Y-59440537D01*
X122701185Y-59361185D01*
X122780537Y-59264494D01*
X122839502Y-59154180D01*
X122869970Y-59053740D01*
X132875000Y-59053740D01*
X132875000Y-59346260D01*
X132932068Y-59633158D01*
X133044010Y-59903411D01*
X133206525Y-60146632D01*
X133413368Y-60353475D01*
X133656589Y-60515990D01*
X133926842Y-60627932D01*
X134213740Y-60685000D01*
X134506260Y-60685000D01*
X134793158Y-60627932D01*
X135063411Y-60515990D01*
X135306632Y-60353475D01*
X135438487Y-60221620D01*
X135460498Y-60294180D01*
X135519463Y-60404494D01*
X135598815Y-60501185D01*
X135695506Y-60580537D01*
X135805820Y-60639502D01*
X135925518Y-60675812D01*
X136050000Y-60688072D01*
X136614250Y-60685000D01*
X136773000Y-60526250D01*
X136773000Y-59327000D01*
X137027000Y-59327000D01*
X137027000Y-60526250D01*
X137185750Y-60685000D01*
X137750000Y-60688072D01*
X137874482Y-60675812D01*
X137994180Y-60639502D01*
X138104494Y-60580537D01*
X138201185Y-60501185D01*
X138280537Y-60404494D01*
X138339502Y-60294180D01*
X138375812Y-60174482D01*
X138388072Y-60050000D01*
X138385388Y-59556891D01*
X143318519Y-59556891D01*
X143415843Y-59831252D01*
X143564822Y-60081355D01*
X143759731Y-60297588D01*
X143993080Y-60471641D01*
X144255901Y-60596825D01*
X144403110Y-60641476D01*
X144633000Y-60520155D01*
X144633000Y-59327000D01*
X143439186Y-59327000D01*
X143318519Y-59556891D01*
X138385388Y-59556891D01*
X138385000Y-59485750D01*
X138226250Y-59327000D01*
X137027000Y-59327000D01*
X136773000Y-59327000D01*
X136753000Y-59327000D01*
X136753000Y-59073000D01*
X136773000Y-59073000D01*
X136773000Y-57873750D01*
X137027000Y-57873750D01*
X137027000Y-59073000D01*
X138226250Y-59073000D01*
X138385000Y-58914250D01*
X138385387Y-58843109D01*
X143318519Y-58843109D01*
X143439186Y-59073000D01*
X144633000Y-59073000D01*
X144633000Y-57879845D01*
X144887000Y-57879845D01*
X144887000Y-59073000D01*
X144907000Y-59073000D01*
X144907000Y-59327000D01*
X144887000Y-59327000D01*
X144887000Y-60520155D01*
X145116890Y-60641476D01*
X145264099Y-60596825D01*
X145526920Y-60471641D01*
X145760269Y-60297588D01*
X145836034Y-60213534D01*
X145860498Y-60294180D01*
X145919463Y-60404494D01*
X145998815Y-60501185D01*
X146095506Y-60580537D01*
X146205820Y-60639502D01*
X146325518Y-60675812D01*
X146450000Y-60688072D01*
X148150000Y-60688072D01*
X148274482Y-60675812D01*
X148394180Y-60639502D01*
X148504494Y-60580537D01*
X148601185Y-60501185D01*
X148680537Y-60404494D01*
X148739502Y-60294180D01*
X148775812Y-60174482D01*
X148788072Y-60050000D01*
X148788072Y-59743213D01*
X161180565Y-59743213D01*
X161251454Y-59944420D01*
X161366521Y-60123874D01*
X161514387Y-60277431D01*
X161689369Y-60399190D01*
X161884743Y-60484472D01*
X162093000Y-60530000D01*
X162423000Y-60530000D01*
X162423000Y-59577000D01*
X161307546Y-59577000D01*
X161180565Y-59743213D01*
X148788072Y-59743213D01*
X148788072Y-58751131D01*
X158748770Y-58751131D01*
X158799414Y-58963066D01*
X158890431Y-59161049D01*
X159018324Y-59337471D01*
X159178178Y-59485553D01*
X159363850Y-59599603D01*
X159552062Y-59669268D01*
X159723000Y-59542734D01*
X159723000Y-58577000D01*
X159977000Y-58577000D01*
X159977000Y-59542734D01*
X160147938Y-59669268D01*
X160336150Y-59599603D01*
X160521822Y-59485553D01*
X160681676Y-59337471D01*
X160809569Y-59161049D01*
X160811528Y-59156787D01*
X161180565Y-59156787D01*
X161307546Y-59323000D01*
X162423000Y-59323000D01*
X162423000Y-58370000D01*
X162093000Y-58370000D01*
X161884743Y-58415528D01*
X161689369Y-58500810D01*
X161514387Y-58622569D01*
X161366521Y-58776126D01*
X161251454Y-58955580D01*
X161180565Y-59156787D01*
X160811528Y-59156787D01*
X160900586Y-58963066D01*
X160951230Y-58751131D01*
X160802564Y-58577000D01*
X159977000Y-58577000D01*
X159723000Y-58577000D01*
X158897436Y-58577000D01*
X158748770Y-58751131D01*
X148788072Y-58751131D01*
X148788072Y-58350000D01*
X148775812Y-58225518D01*
X148752561Y-58148869D01*
X158748770Y-58148869D01*
X158897436Y-58323000D01*
X159723000Y-58323000D01*
X159723000Y-57357266D01*
X159977000Y-57357266D01*
X159977000Y-58323000D01*
X160802564Y-58323000D01*
X160951230Y-58148869D01*
X160900586Y-57936934D01*
X160809569Y-57738951D01*
X160681676Y-57562529D01*
X160521822Y-57414447D01*
X160336150Y-57300397D01*
X160147938Y-57230732D01*
X159977000Y-57357266D01*
X159723000Y-57357266D01*
X159552062Y-57230732D01*
X159363850Y-57300397D01*
X159178178Y-57414447D01*
X159018324Y-57562529D01*
X158890431Y-57738951D01*
X158799414Y-57936934D01*
X158748770Y-58148869D01*
X148752561Y-58148869D01*
X148739502Y-58105820D01*
X148680537Y-57995506D01*
X148601185Y-57898815D01*
X148504494Y-57819463D01*
X148394180Y-57760498D01*
X148274482Y-57724188D01*
X148150000Y-57711928D01*
X146450000Y-57711928D01*
X146325518Y-57724188D01*
X146205820Y-57760498D01*
X146095506Y-57819463D01*
X145998815Y-57898815D01*
X145919463Y-57995506D01*
X145860498Y-58105820D01*
X145836034Y-58186466D01*
X145760269Y-58102412D01*
X145526920Y-57928359D01*
X145264099Y-57803175D01*
X145116890Y-57758524D01*
X144887000Y-57879845D01*
X144633000Y-57879845D01*
X144403110Y-57758524D01*
X144255901Y-57803175D01*
X143993080Y-57928359D01*
X143759731Y-58102412D01*
X143564822Y-58318645D01*
X143415843Y-58568748D01*
X143318519Y-58843109D01*
X138385387Y-58843109D01*
X138388072Y-58350000D01*
X138375812Y-58225518D01*
X138339502Y-58105820D01*
X138280537Y-57995506D01*
X138201185Y-57898815D01*
X138104494Y-57819463D01*
X137994180Y-57760498D01*
X137874482Y-57724188D01*
X137750000Y-57711928D01*
X137185750Y-57715000D01*
X137027000Y-57873750D01*
X136773000Y-57873750D01*
X136614250Y-57715000D01*
X136050000Y-57711928D01*
X135925518Y-57724188D01*
X135805820Y-57760498D01*
X135695506Y-57819463D01*
X135598815Y-57898815D01*
X135519463Y-57995506D01*
X135460498Y-58105820D01*
X135438487Y-58178380D01*
X135306632Y-58046525D01*
X135063411Y-57884010D01*
X134793158Y-57772068D01*
X134506260Y-57715000D01*
X134213740Y-57715000D01*
X133926842Y-57772068D01*
X133656589Y-57884010D01*
X133413368Y-58046525D01*
X133206525Y-58253368D01*
X133044010Y-58496589D01*
X132932068Y-58766842D01*
X132875000Y-59053740D01*
X122869970Y-59053740D01*
X122875812Y-59034482D01*
X122888072Y-58910000D01*
X122888072Y-57210000D01*
X122875812Y-57085518D01*
X122839502Y-56965820D01*
X122780537Y-56855506D01*
X122701185Y-56758815D01*
X122604494Y-56679463D01*
X122494180Y-56620498D01*
X122374482Y-56584188D01*
X122250000Y-56571928D01*
X120550000Y-56571928D01*
X120425518Y-56584188D01*
X120305820Y-56620498D01*
X120195506Y-56679463D01*
X120098815Y-56758815D01*
X120019463Y-56855506D01*
X119960498Y-56965820D01*
X119938487Y-57038380D01*
X119806632Y-56906525D01*
X119563411Y-56744010D01*
X119293158Y-56632068D01*
X119006260Y-56575000D01*
X118713740Y-56575000D01*
X118426842Y-56632068D01*
X118156589Y-56744010D01*
X117913368Y-56906525D01*
X117706525Y-57113368D01*
X117590000Y-57287760D01*
X117473475Y-57113368D01*
X117266632Y-56906525D01*
X117023411Y-56744010D01*
X116753158Y-56632068D01*
X116466260Y-56575000D01*
X116173740Y-56575000D01*
X115886842Y-56632068D01*
X115616589Y-56744010D01*
X115373368Y-56906525D01*
X115166525Y-57113368D01*
X115050000Y-57287760D01*
X114933475Y-57113368D01*
X114726632Y-56906525D01*
X114483411Y-56744010D01*
X114213158Y-56632068D01*
X113926260Y-56575000D01*
X113633740Y-56575000D01*
X113346842Y-56632068D01*
X113076589Y-56744010D01*
X112833368Y-56906525D01*
X112626525Y-57113368D01*
X112510000Y-57287760D01*
X112393475Y-57113368D01*
X112186632Y-56906525D01*
X111943411Y-56744010D01*
X111673158Y-56632068D01*
X111386260Y-56575000D01*
X111093740Y-56575000D01*
X110806842Y-56632068D01*
X110536589Y-56744010D01*
X110293368Y-56906525D01*
X110086525Y-57113368D01*
X109924010Y-57356589D01*
X109812068Y-57626842D01*
X109755000Y-57913740D01*
X65660000Y-57913740D01*
X65660000Y-53093137D01*
X69315000Y-53093137D01*
X69315000Y-53306863D01*
X69356696Y-53516483D01*
X69438485Y-53713940D01*
X69557225Y-53891647D01*
X69708353Y-54042775D01*
X69886060Y-54161515D01*
X70083517Y-54243304D01*
X70293137Y-54285000D01*
X70506863Y-54285000D01*
X70716483Y-54243304D01*
X70913940Y-54161515D01*
X71091647Y-54042775D01*
X71242775Y-53891647D01*
X71361515Y-53713940D01*
X71400255Y-53620411D01*
X98552500Y-53620411D01*
X98552500Y-53804589D01*
X98588432Y-53985229D01*
X98658914Y-54155389D01*
X98761238Y-54308528D01*
X98891472Y-54438762D01*
X99044611Y-54541086D01*
X99214771Y-54611568D01*
X99395411Y-54647500D01*
X99579589Y-54647500D01*
X99760229Y-54611568D01*
X99930389Y-54541086D01*
X100083528Y-54438762D01*
X100213762Y-54308528D01*
X100316086Y-54155389D01*
X100386568Y-53985229D01*
X100422500Y-53804589D01*
X100422500Y-53751131D01*
X158748770Y-53751131D01*
X158799414Y-53963066D01*
X158890431Y-54161049D01*
X159018324Y-54337471D01*
X159178178Y-54485553D01*
X159363850Y-54599603D01*
X159552062Y-54669268D01*
X159723000Y-54542734D01*
X159723000Y-53577000D01*
X159977000Y-53577000D01*
X159977000Y-54542734D01*
X160147938Y-54669268D01*
X160336150Y-54599603D01*
X160521822Y-54485553D01*
X160681676Y-54337471D01*
X160809569Y-54161049D01*
X160900586Y-53963066D01*
X160951230Y-53751131D01*
X160802564Y-53577000D01*
X159977000Y-53577000D01*
X159723000Y-53577000D01*
X158897436Y-53577000D01*
X158748770Y-53751131D01*
X100422500Y-53751131D01*
X100422500Y-53620411D01*
X100386568Y-53439771D01*
X100316086Y-53269611D01*
X100235409Y-53148869D01*
X158748770Y-53148869D01*
X158897436Y-53323000D01*
X159723000Y-53323000D01*
X159723000Y-52357266D01*
X159977000Y-52357266D01*
X159977000Y-53323000D01*
X160802564Y-53323000D01*
X160951230Y-53148869D01*
X160900586Y-52936934D01*
X160811529Y-52743213D01*
X161180565Y-52743213D01*
X161251454Y-52944420D01*
X161366521Y-53123874D01*
X161514387Y-53277431D01*
X161689369Y-53399190D01*
X161884743Y-53484472D01*
X162093000Y-53530000D01*
X162423000Y-53530000D01*
X162423000Y-52577000D01*
X161307546Y-52577000D01*
X161180565Y-52743213D01*
X160811529Y-52743213D01*
X160809569Y-52738951D01*
X160681676Y-52562529D01*
X160521822Y-52414447D01*
X160336150Y-52300397D01*
X160147938Y-52230732D01*
X159977000Y-52357266D01*
X159723000Y-52357266D01*
X159552062Y-52230732D01*
X159363850Y-52300397D01*
X159178178Y-52414447D01*
X159018324Y-52562529D01*
X158890431Y-52738951D01*
X158799414Y-52936934D01*
X158748770Y-53148869D01*
X100235409Y-53148869D01*
X100213762Y-53116472D01*
X100083528Y-52986238D01*
X99930389Y-52883914D01*
X99760229Y-52813432D01*
X99579589Y-52777500D01*
X99395411Y-52777500D01*
X99214771Y-52813432D01*
X99044611Y-52883914D01*
X98891472Y-52986238D01*
X98761238Y-53116472D01*
X98658914Y-53269611D01*
X98588432Y-53439771D01*
X98552500Y-53620411D01*
X71400255Y-53620411D01*
X71443304Y-53516483D01*
X71485000Y-53306863D01*
X71485000Y-53093137D01*
X71443304Y-52883517D01*
X71361515Y-52686060D01*
X71242775Y-52508353D01*
X71091647Y-52357225D01*
X70913940Y-52238485D01*
X70716703Y-52156787D01*
X161180565Y-52156787D01*
X161307546Y-52323000D01*
X162423000Y-52323000D01*
X162423000Y-51370000D01*
X162093000Y-51370000D01*
X161884743Y-51415528D01*
X161689369Y-51500810D01*
X161514387Y-51622569D01*
X161366521Y-51776126D01*
X161251454Y-51955580D01*
X161180565Y-52156787D01*
X70716703Y-52156787D01*
X70716483Y-52156696D01*
X70506863Y-52115000D01*
X70293137Y-52115000D01*
X70083517Y-52156696D01*
X69886060Y-52238485D01*
X69708353Y-52357225D01*
X69557225Y-52508353D01*
X69438485Y-52686060D01*
X69356696Y-52883517D01*
X69315000Y-53093137D01*
X65660000Y-53093137D01*
X65660000Y-50582911D01*
X77290000Y-50582911D01*
X77290000Y-50767089D01*
X77325932Y-50947729D01*
X77396414Y-51117889D01*
X77498738Y-51271028D01*
X77628972Y-51401262D01*
X77782111Y-51503586D01*
X77952271Y-51574068D01*
X78132911Y-51610000D01*
X78317089Y-51610000D01*
X78497729Y-51574068D01*
X78667889Y-51503586D01*
X78821028Y-51401262D01*
X78951262Y-51271028D01*
X79053586Y-51117889D01*
X79124068Y-50947729D01*
X79160000Y-50767089D01*
X79160000Y-50582911D01*
X79124068Y-50402271D01*
X79053586Y-50232111D01*
X78951262Y-50078972D01*
X78880201Y-50007911D01*
X89465000Y-50007911D01*
X89465000Y-50192089D01*
X89500932Y-50372729D01*
X89571414Y-50542889D01*
X89673738Y-50696028D01*
X89803972Y-50826262D01*
X89957111Y-50928586D01*
X90127271Y-50999068D01*
X90307911Y-51035000D01*
X90492089Y-51035000D01*
X90672729Y-50999068D01*
X90842889Y-50928586D01*
X90996028Y-50826262D01*
X91126262Y-50696028D01*
X91228586Y-50542889D01*
X91299068Y-50372729D01*
X91335000Y-50192089D01*
X91335000Y-50007911D01*
X91299068Y-49827271D01*
X91228586Y-49657111D01*
X91126262Y-49503972D01*
X90996028Y-49373738D01*
X90842889Y-49271414D01*
X90672729Y-49200932D01*
X90492089Y-49165000D01*
X90307911Y-49165000D01*
X90127271Y-49200932D01*
X89957111Y-49271414D01*
X89803972Y-49373738D01*
X89673738Y-49503972D01*
X89571414Y-49657111D01*
X89500932Y-49827271D01*
X89465000Y-50007911D01*
X78880201Y-50007911D01*
X78821028Y-49948738D01*
X78667889Y-49846414D01*
X78497729Y-49775932D01*
X78317089Y-49740000D01*
X78132911Y-49740000D01*
X77952271Y-49775932D01*
X77782111Y-49846414D01*
X77628972Y-49948738D01*
X77498738Y-50078972D01*
X77396414Y-50232111D01*
X77325932Y-50402271D01*
X77290000Y-50582911D01*
X65660000Y-50582911D01*
X65660000Y-48693137D01*
X69315000Y-48693137D01*
X69315000Y-48906863D01*
X69356696Y-49116483D01*
X69438485Y-49313940D01*
X69557225Y-49491647D01*
X69708353Y-49642775D01*
X69886060Y-49761515D01*
X70083517Y-49843304D01*
X70293137Y-49885000D01*
X70506863Y-49885000D01*
X70716483Y-49843304D01*
X70913940Y-49761515D01*
X71091647Y-49642775D01*
X71242775Y-49491647D01*
X71361515Y-49313940D01*
X71443304Y-49116483D01*
X71485000Y-48906863D01*
X71485000Y-48693137D01*
X71443304Y-48483517D01*
X71361515Y-48286060D01*
X71242775Y-48108353D01*
X71091647Y-47957225D01*
X70913940Y-47838485D01*
X70716483Y-47756696D01*
X70506863Y-47715000D01*
X70293137Y-47715000D01*
X70083517Y-47756696D01*
X69886060Y-47838485D01*
X69708353Y-47957225D01*
X69557225Y-48108353D01*
X69438485Y-48286060D01*
X69356696Y-48483517D01*
X69315000Y-48693137D01*
X65660000Y-48693137D01*
X65660000Y-47207911D01*
X94365000Y-47207911D01*
X94365000Y-47392089D01*
X94400932Y-47572729D01*
X94471414Y-47742889D01*
X94573738Y-47896028D01*
X94703972Y-48026262D01*
X94857111Y-48128586D01*
X95027271Y-48199068D01*
X95207911Y-48235000D01*
X95392089Y-48235000D01*
X95572729Y-48199068D01*
X95742889Y-48128586D01*
X95896028Y-48026262D01*
X96026262Y-47896028D01*
X96128586Y-47742889D01*
X96199068Y-47572729D01*
X96235000Y-47392089D01*
X96235000Y-47207911D01*
X96199068Y-47027271D01*
X96128586Y-46857111D01*
X96026262Y-46703972D01*
X95896028Y-46573738D01*
X95742889Y-46471414D01*
X95572729Y-46400932D01*
X95392089Y-46365000D01*
X95207911Y-46365000D01*
X95027271Y-46400932D01*
X94857111Y-46471414D01*
X94703972Y-46573738D01*
X94573738Y-46703972D01*
X94471414Y-46857111D01*
X94400932Y-47027271D01*
X94365000Y-47207911D01*
X65660000Y-47207911D01*
X65660000Y-45257911D01*
X81215000Y-45257911D01*
X81215000Y-45442089D01*
X81250932Y-45622729D01*
X81321414Y-45792889D01*
X81423738Y-45946028D01*
X81553972Y-46076262D01*
X81707111Y-46178586D01*
X81877271Y-46249068D01*
X82057911Y-46285000D01*
X82242089Y-46285000D01*
X82422729Y-46249068D01*
X82592889Y-46178586D01*
X82746028Y-46076262D01*
X82876262Y-45946028D01*
X82978586Y-45792889D01*
X83049068Y-45622729D01*
X83085000Y-45442089D01*
X83085000Y-45257911D01*
X83049068Y-45077271D01*
X82978586Y-44907111D01*
X82876262Y-44753972D01*
X82746028Y-44623738D01*
X82592889Y-44521414D01*
X82422729Y-44450932D01*
X82242089Y-44415000D01*
X82057911Y-44415000D01*
X81877271Y-44450932D01*
X81707111Y-44521414D01*
X81553972Y-44623738D01*
X81423738Y-44753972D01*
X81321414Y-44907111D01*
X81250932Y-45077271D01*
X81215000Y-45257911D01*
X65660000Y-45257911D01*
X65660000Y-45029392D01*
X65731173Y-44231917D01*
X65901881Y-43607911D01*
X142065000Y-43607911D01*
X142065000Y-43792089D01*
X142100932Y-43972729D01*
X142171414Y-44142889D01*
X142273738Y-44296028D01*
X142403972Y-44426262D01*
X142557111Y-44528586D01*
X142727271Y-44599068D01*
X142907911Y-44635000D01*
X143092089Y-44635000D01*
X143272729Y-44599068D01*
X143442889Y-44528586D01*
X143596028Y-44426262D01*
X143726262Y-44296028D01*
X143828586Y-44142889D01*
X143899068Y-43972729D01*
X143935000Y-43792089D01*
X143935000Y-43607911D01*
X143899068Y-43427271D01*
X143828586Y-43257111D01*
X143728894Y-43107911D01*
X146365000Y-43107911D01*
X146365000Y-43292089D01*
X146400932Y-43472729D01*
X146471414Y-43642889D01*
X146573738Y-43796028D01*
X146703972Y-43926262D01*
X146857111Y-44028586D01*
X147027271Y-44099068D01*
X147207911Y-44135000D01*
X147392089Y-44135000D01*
X147572729Y-44099068D01*
X147742889Y-44028586D01*
X147896028Y-43926262D01*
X148026262Y-43796028D01*
X148128586Y-43642889D01*
X148199068Y-43472729D01*
X148235000Y-43292089D01*
X148235000Y-43107911D01*
X148199068Y-42927271D01*
X148128586Y-42757111D01*
X148026262Y-42603972D01*
X147896028Y-42473738D01*
X147742889Y-42371414D01*
X147572729Y-42300932D01*
X147392089Y-42265000D01*
X147207911Y-42265000D01*
X147027271Y-42300932D01*
X146857111Y-42371414D01*
X146703972Y-42473738D01*
X146573738Y-42603972D01*
X146471414Y-42757111D01*
X146400932Y-42927271D01*
X146365000Y-43107911D01*
X143728894Y-43107911D01*
X143726262Y-43103972D01*
X143596028Y-42973738D01*
X143442889Y-42871414D01*
X143272729Y-42800932D01*
X143092089Y-42765000D01*
X142907911Y-42765000D01*
X142727271Y-42800932D01*
X142557111Y-42871414D01*
X142403972Y-42973738D01*
X142273738Y-43103972D01*
X142171414Y-43257111D01*
X142100932Y-43427271D01*
X142065000Y-43607911D01*
X65901881Y-43607911D01*
X65934656Y-43488109D01*
X66266638Y-42792095D01*
X66716626Y-42165870D01*
X67270403Y-41629223D01*
X67910451Y-41199129D01*
X68616553Y-40889171D01*
X69371457Y-40707935D01*
X70024207Y-40660000D01*
X159970608Y-40660000D01*
X160768083Y-40731173D01*
G04 #@! TA.AperFunction,Conductor*
D20*
G36*
X160768083Y-40731173D02*
G01*
X161511891Y-40934656D01*
X162207905Y-41266638D01*
X162834130Y-41716626D01*
X163370777Y-42270403D01*
X163800871Y-42910451D01*
X164110829Y-43616553D01*
X164292065Y-44371457D01*
X164340001Y-45024220D01*
X164340000Y-50479792D01*
X164306709Y-50493242D01*
X164298573Y-50497568D01*
X164126896Y-50590393D01*
X164077278Y-50623861D01*
X164027247Y-50656600D01*
X164020106Y-50662424D01*
X163869728Y-50786828D01*
X163827589Y-50829263D01*
X163784839Y-50871126D01*
X163778966Y-50878227D01*
X163655616Y-51029469D01*
X163622534Y-51079262D01*
X163588716Y-51128651D01*
X163584333Y-51136757D01*
X163492708Y-51309079D01*
X163469909Y-51364394D01*
X163446348Y-51419366D01*
X163443623Y-51428169D01*
X163419771Y-51507170D01*
X163410631Y-51500810D01*
X163215257Y-51415528D01*
X163007000Y-51370000D01*
X162677000Y-51370000D01*
X162677000Y-52323000D01*
X162697000Y-52323000D01*
X162697000Y-52577000D01*
X162677000Y-52577000D01*
X162677000Y-53530000D01*
X163007000Y-53530000D01*
X163215257Y-53484472D01*
X163340000Y-53430021D01*
X163340001Y-58469979D01*
X163215257Y-58415528D01*
X163007000Y-58370000D01*
X162677000Y-58370000D01*
X162677000Y-59323000D01*
X162697000Y-59323000D01*
X162697000Y-59577000D01*
X162677000Y-59577000D01*
X162677000Y-60530000D01*
X163007000Y-60530000D01*
X163215257Y-60484472D01*
X163410631Y-60399190D01*
X163419827Y-60392791D01*
X163447653Y-60482683D01*
X163470838Y-60537838D01*
X163493242Y-60593291D01*
X163497568Y-60601427D01*
X163590393Y-60773104D01*
X163623846Y-60822699D01*
X163656600Y-60872753D01*
X163662424Y-60879894D01*
X163786828Y-61030272D01*
X163829263Y-61072411D01*
X163871126Y-61115161D01*
X163878227Y-61121034D01*
X164029469Y-61244384D01*
X164079277Y-61277477D01*
X164128651Y-61311284D01*
X164136757Y-61315667D01*
X164309080Y-61407292D01*
X164340001Y-61420037D01*
X164340000Y-134970608D01*
X164268827Y-135768083D01*
X164065344Y-136511890D01*
X163733363Y-137207904D01*
X163283374Y-137834130D01*
X162729597Y-138370777D01*
X162089549Y-138800871D01*
X161383447Y-139110829D01*
X160628543Y-139292065D01*
X159975793Y-139340000D01*
X70029392Y-139340000D01*
X69231917Y-139268827D01*
X68488110Y-139065344D01*
X67792096Y-138733363D01*
X67165870Y-138283374D01*
X66629223Y-137729597D01*
X66199129Y-137089549D01*
X65889171Y-136383447D01*
X65761102Y-135850000D01*
X110511928Y-135850000D01*
X110511928Y-137550000D01*
X110524188Y-137674482D01*
X110560498Y-137794180D01*
X110619463Y-137904494D01*
X110698815Y-138001185D01*
X110795506Y-138080537D01*
X110905820Y-138139502D01*
X111025518Y-138175812D01*
X111150000Y-138188072D01*
X112850000Y-138188072D01*
X112974482Y-138175812D01*
X113094180Y-138139502D01*
X113204494Y-138080537D01*
X113301185Y-138001185D01*
X113380537Y-137904494D01*
X113439502Y-137794180D01*
X113461513Y-137721620D01*
X113593368Y-137853475D01*
X113836589Y-138015990D01*
X114106842Y-138127932D01*
X114393740Y-138185000D01*
X114686260Y-138185000D01*
X114973158Y-138127932D01*
X115243411Y-138015990D01*
X115486632Y-137853475D01*
X115693475Y-137646632D01*
X115855990Y-137403411D01*
X115967932Y-137133158D01*
X116025000Y-136846260D01*
X116025000Y-136553740D01*
X115967932Y-136266842D01*
X115855990Y-135996589D01*
X115693475Y-135753368D01*
X115486632Y-135546525D01*
X115312240Y-135430000D01*
X115486632Y-135313475D01*
X115693475Y-135106632D01*
X115855990Y-134863411D01*
X115967932Y-134593158D01*
X116025000Y-134306260D01*
X116025000Y-134013740D01*
X115967932Y-133726842D01*
X115855990Y-133456589D01*
X115693475Y-133213368D01*
X115486632Y-133006525D01*
X115243411Y-132844010D01*
X114973158Y-132732068D01*
X114686260Y-132675000D01*
X114393740Y-132675000D01*
X114106842Y-132732068D01*
X113836589Y-132844010D01*
X113593368Y-133006525D01*
X113386525Y-133213368D01*
X113270000Y-133387760D01*
X113153475Y-133213368D01*
X112946632Y-133006525D01*
X112703411Y-132844010D01*
X112433158Y-132732068D01*
X112146260Y-132675000D01*
X111853740Y-132675000D01*
X111566842Y-132732068D01*
X111296589Y-132844010D01*
X111053368Y-133006525D01*
X110846525Y-133213368D01*
X110684010Y-133456589D01*
X110572068Y-133726842D01*
X110515000Y-134013740D01*
X110515000Y-134306260D01*
X110572068Y-134593158D01*
X110684010Y-134863411D01*
X110846525Y-135106632D01*
X110978380Y-135238487D01*
X110905820Y-135260498D01*
X110795506Y-135319463D01*
X110698815Y-135398815D01*
X110619463Y-135495506D01*
X110560498Y-135605820D01*
X110524188Y-135725518D01*
X110511928Y-135850000D01*
X65761102Y-135850000D01*
X65707935Y-135628543D01*
X65660000Y-134975793D01*
X65660000Y-130614740D01*
X70458964Y-130614740D01*
X70483245Y-130720087D01*
X70603138Y-130997204D01*
X70774790Y-131245606D01*
X70991604Y-131455748D01*
X71245249Y-131619554D01*
X71525977Y-131730729D01*
X71823000Y-131785000D01*
X72923000Y-131785000D01*
X72923000Y-130377000D01*
X73177000Y-130377000D01*
X73177000Y-131785000D01*
X74277000Y-131785000D01*
X74574023Y-131730729D01*
X74854751Y-131619554D01*
X75108396Y-131455748D01*
X75325210Y-131245606D01*
X75496862Y-130997204D01*
X75602195Y-130753740D01*
X86675000Y-130753740D01*
X86675000Y-131046260D01*
X86732068Y-131333158D01*
X86844010Y-131603411D01*
X87006525Y-131846632D01*
X87213368Y-132053475D01*
X87456589Y-132215990D01*
X87726842Y-132327932D01*
X88013740Y-132385000D01*
X88306260Y-132385000D01*
X88593158Y-132327932D01*
X88863411Y-132215990D01*
X89106632Y-132053475D01*
X89238487Y-131921620D01*
X89260498Y-131994180D01*
X89319463Y-132104494D01*
X89398815Y-132201185D01*
X89495506Y-132280537D01*
X89605820Y-132339502D01*
X89725518Y-132375812D01*
X89850000Y-132388072D01*
X91550000Y-132388072D01*
X91674482Y-132375812D01*
X91794180Y-132339502D01*
X91904494Y-132280537D01*
X92001185Y-132201185D01*
X92080537Y-132104494D01*
X92139502Y-131994180D01*
X92175812Y-131874482D01*
X92188072Y-131750000D01*
X92188072Y-130050000D01*
X92175812Y-129925518D01*
X92139502Y-129805820D01*
X92080537Y-129695506D01*
X92001185Y-129598815D01*
X91904494Y-129519463D01*
X91794180Y-129460498D01*
X91713534Y-129436034D01*
X91785374Y-129371278D01*
X130408327Y-129371278D01*
X130476276Y-129612187D01*
X130726668Y-129730087D01*
X130995250Y-129796872D01*
X131271701Y-129809977D01*
X131545395Y-129768896D01*
X131805817Y-129675210D01*
X131923724Y-129612187D01*
X131991673Y-129371278D01*
X136908327Y-129371278D01*
X136976276Y-129612187D01*
X137226668Y-129730087D01*
X137495250Y-129796872D01*
X137771701Y-129809977D01*
X138045395Y-129768896D01*
X138305817Y-129675210D01*
X138423724Y-129612187D01*
X138491673Y-129371278D01*
X145508327Y-129371278D01*
X145576276Y-129612187D01*
X145826668Y-129730087D01*
X146095250Y-129796872D01*
X146371701Y-129809977D01*
X146645395Y-129768896D01*
X146905817Y-129675210D01*
X147023724Y-129612187D01*
X147091673Y-129371278D01*
X152008327Y-129371278D01*
X152076276Y-129612187D01*
X152326668Y-129730087D01*
X152595250Y-129796872D01*
X152871701Y-129809977D01*
X153145395Y-129768896D01*
X153405817Y-129675210D01*
X153523724Y-129612187D01*
X153591673Y-129371278D01*
X152800000Y-128579605D01*
X152008327Y-129371278D01*
X147091673Y-129371278D01*
X146300000Y-128579605D01*
X145508327Y-129371278D01*
X138491673Y-129371278D01*
X137700000Y-128579605D01*
X136908327Y-129371278D01*
X131991673Y-129371278D01*
X131200000Y-128579605D01*
X130408327Y-129371278D01*
X91785374Y-129371278D01*
X91797588Y-129360269D01*
X91971641Y-129126920D01*
X92096825Y-128864099D01*
X92141476Y-128716890D01*
X92020155Y-128487000D01*
X90827000Y-128487000D01*
X90827000Y-128507000D01*
X90573000Y-128507000D01*
X90573000Y-128487000D01*
X88287000Y-128487000D01*
X88287000Y-128507000D01*
X88033000Y-128507000D01*
X88033000Y-128487000D01*
X86839845Y-128487000D01*
X86718524Y-128716890D01*
X86763175Y-128864099D01*
X86888359Y-129126920D01*
X87062412Y-129360269D01*
X87278645Y-129555178D01*
X87395534Y-129624805D01*
X87213368Y-129746525D01*
X87006525Y-129953368D01*
X86844010Y-130196589D01*
X86732068Y-130466842D01*
X86675000Y-130753740D01*
X75602195Y-130753740D01*
X75616755Y-130720087D01*
X75641036Y-130614740D01*
X75520378Y-130377000D01*
X73177000Y-130377000D01*
X72923000Y-130377000D01*
X70579622Y-130377000D01*
X70458964Y-130614740D01*
X65660000Y-130614740D01*
X65660000Y-129885260D01*
X70458964Y-129885260D01*
X70579622Y-130123000D01*
X72923000Y-130123000D01*
X72923000Y-128715000D01*
X73177000Y-128715000D01*
X73177000Y-130123000D01*
X75520378Y-130123000D01*
X75641036Y-129885260D01*
X75616755Y-129779913D01*
X75496862Y-129502796D01*
X75325210Y-129254394D01*
X75108396Y-129044252D01*
X74854751Y-128880446D01*
X74574023Y-128769271D01*
X74277000Y-128715000D01*
X73177000Y-128715000D01*
X72923000Y-128715000D01*
X71823000Y-128715000D01*
X71525977Y-128769271D01*
X71245249Y-128880446D01*
X70991604Y-129044252D01*
X70774790Y-129254394D01*
X70603138Y-129502796D01*
X70483245Y-129779913D01*
X70458964Y-129885260D01*
X65660000Y-129885260D01*
X65660000Y-127577000D01*
X76315000Y-127577000D01*
X76315000Y-128677000D01*
X76369271Y-128974023D01*
X76480446Y-129254751D01*
X76644252Y-129508396D01*
X76854394Y-129725210D01*
X77102796Y-129896862D01*
X77379913Y-130016755D01*
X77485260Y-130041036D01*
X77723000Y-129920378D01*
X77723000Y-127577000D01*
X77977000Y-127577000D01*
X77977000Y-129920378D01*
X78214740Y-130041036D01*
X78320087Y-130016755D01*
X78597204Y-129896862D01*
X78845606Y-129725210D01*
X79055748Y-129508396D01*
X79219554Y-129254751D01*
X79330729Y-128974023D01*
X79385000Y-128677000D01*
X79385000Y-128471701D01*
X129790023Y-128471701D01*
X129831104Y-128745395D01*
X129924790Y-129005817D01*
X129987813Y-129123724D01*
X130228722Y-129191673D01*
X131020395Y-128400000D01*
X131379605Y-128400000D01*
X132171278Y-129191673D01*
X132412187Y-129123724D01*
X132530087Y-128873332D01*
X132596872Y-128604750D01*
X132603179Y-128471701D01*
X136290023Y-128471701D01*
X136331104Y-128745395D01*
X136424790Y-129005817D01*
X136487813Y-129123724D01*
X136728722Y-129191673D01*
X137520395Y-128400000D01*
X137879605Y-128400000D01*
X138671278Y-129191673D01*
X138912187Y-129123724D01*
X139030087Y-128873332D01*
X139096872Y-128604750D01*
X139103179Y-128471701D01*
X144890023Y-128471701D01*
X144931104Y-128745395D01*
X145024790Y-129005817D01*
X145087813Y-129123724D01*
X145328722Y-129191673D01*
X146120395Y-128400000D01*
X146479605Y-128400000D01*
X147271278Y-129191673D01*
X147512187Y-129123724D01*
X147630087Y-128873332D01*
X147696872Y-128604750D01*
X147703179Y-128471701D01*
X151390023Y-128471701D01*
X151431104Y-128745395D01*
X151524790Y-129005817D01*
X151587813Y-129123724D01*
X151828722Y-129191673D01*
X152620395Y-128400000D01*
X152979605Y-128400000D01*
X153771278Y-129191673D01*
X154012187Y-129123724D01*
X154130087Y-128873332D01*
X154196872Y-128604750D01*
X154209977Y-128328299D01*
X154168896Y-128054605D01*
X154075210Y-127794183D01*
X154012187Y-127676276D01*
X153771278Y-127608327D01*
X152979605Y-128400000D01*
X152620395Y-128400000D01*
X151828722Y-127608327D01*
X151587813Y-127676276D01*
X151469913Y-127926668D01*
X151403128Y-128195250D01*
X151390023Y-128471701D01*
X147703179Y-128471701D01*
X147709977Y-128328299D01*
X147668896Y-128054605D01*
X147575210Y-127794183D01*
X147512187Y-127676276D01*
X147271278Y-127608327D01*
X146479605Y-128400000D01*
X146120395Y-128400000D01*
X145328722Y-127608327D01*
X145087813Y-127676276D01*
X144969913Y-127926668D01*
X144903128Y-128195250D01*
X144890023Y-128471701D01*
X139103179Y-128471701D01*
X139109977Y-128328299D01*
X139068896Y-128054605D01*
X138975210Y-127794183D01*
X138912187Y-127676276D01*
X138671278Y-127608327D01*
X137879605Y-128400000D01*
X137520395Y-128400000D01*
X136728722Y-127608327D01*
X136487813Y-127676276D01*
X136369913Y-127926668D01*
X136303128Y-128195250D01*
X136290023Y-128471701D01*
X132603179Y-128471701D01*
X132609977Y-128328299D01*
X132568896Y-128054605D01*
X132475210Y-127794183D01*
X132412187Y-127676276D01*
X132171278Y-127608327D01*
X131379605Y-128400000D01*
X131020395Y-128400000D01*
X130228722Y-127608327D01*
X129987813Y-127676276D01*
X129869913Y-127926668D01*
X129803128Y-128195250D01*
X129790023Y-128471701D01*
X79385000Y-128471701D01*
X79385000Y-127577000D01*
X77977000Y-127577000D01*
X77723000Y-127577000D01*
X76315000Y-127577000D01*
X65660000Y-127577000D01*
X65660000Y-126223000D01*
X76315000Y-126223000D01*
X76315000Y-127323000D01*
X77723000Y-127323000D01*
X77723000Y-124979622D01*
X77977000Y-124979622D01*
X77977000Y-127323000D01*
X79385000Y-127323000D01*
X79385000Y-126223000D01*
X79330729Y-125925977D01*
X79230838Y-125673740D01*
X86675000Y-125673740D01*
X86675000Y-125966260D01*
X86732068Y-126253158D01*
X86844010Y-126523411D01*
X87006525Y-126766632D01*
X87213368Y-126973475D01*
X87395534Y-127095195D01*
X87278645Y-127164822D01*
X87062412Y-127359731D01*
X86888359Y-127593080D01*
X86763175Y-127855901D01*
X86718524Y-128003110D01*
X86839845Y-128233000D01*
X88033000Y-128233000D01*
X88033000Y-128213000D01*
X88287000Y-128213000D01*
X88287000Y-128233000D01*
X90573000Y-128233000D01*
X90573000Y-128213000D01*
X90827000Y-128213000D01*
X90827000Y-128233000D01*
X92020155Y-128233000D01*
X92141476Y-128003110D01*
X92096825Y-127855901D01*
X91971641Y-127593080D01*
X91797588Y-127359731D01*
X91581355Y-127164822D01*
X91464466Y-127095195D01*
X91646632Y-126973475D01*
X91853475Y-126766632D01*
X92015990Y-126523411D01*
X92127932Y-126253158D01*
X92185000Y-125966260D01*
X92185000Y-125673740D01*
X92127932Y-125386842D01*
X92015990Y-125116589D01*
X91853475Y-124873368D01*
X91646632Y-124666525D01*
X91403411Y-124504010D01*
X91133158Y-124392068D01*
X90846260Y-124335000D01*
X90553740Y-124335000D01*
X90266842Y-124392068D01*
X89996589Y-124504010D01*
X89753368Y-124666525D01*
X89546525Y-124873368D01*
X89430000Y-125047760D01*
X89313475Y-124873368D01*
X89106632Y-124666525D01*
X88863411Y-124504010D01*
X88593158Y-124392068D01*
X88306260Y-124335000D01*
X88013740Y-124335000D01*
X87726842Y-124392068D01*
X87456589Y-124504010D01*
X87213368Y-124666525D01*
X87006525Y-124873368D01*
X86844010Y-125116589D01*
X86732068Y-125386842D01*
X86675000Y-125673740D01*
X79230838Y-125673740D01*
X79219554Y-125645249D01*
X79055748Y-125391604D01*
X78845606Y-125174790D01*
X78597204Y-125003138D01*
X78320087Y-124883245D01*
X78214740Y-124858964D01*
X77977000Y-124979622D01*
X77723000Y-124979622D01*
X77485260Y-124858964D01*
X77379913Y-124883245D01*
X77102796Y-125003138D01*
X76854394Y-125174790D01*
X76644252Y-125391604D01*
X76480446Y-125645249D01*
X76369271Y-125925977D01*
X76315000Y-126223000D01*
X65660000Y-126223000D01*
X65660000Y-123550000D01*
X70211928Y-123550000D01*
X70211928Y-125350000D01*
X70224188Y-125474482D01*
X70260498Y-125594180D01*
X70319463Y-125704494D01*
X70398815Y-125801185D01*
X70495506Y-125880537D01*
X70605820Y-125939502D01*
X70725518Y-125975812D01*
X70850000Y-125988072D01*
X75250000Y-125988072D01*
X75374482Y-125975812D01*
X75494180Y-125939502D01*
X75604494Y-125880537D01*
X75701185Y-125801185D01*
X75780537Y-125704494D01*
X75839502Y-125594180D01*
X75875812Y-125474482D01*
X75888072Y-125350000D01*
X75888072Y-123550000D01*
X75875812Y-123425518D01*
X75839502Y-123305820D01*
X75780537Y-123195506D01*
X75701185Y-123098815D01*
X75604494Y-123019463D01*
X75494180Y-122960498D01*
X75459573Y-122950000D01*
X110411928Y-122950000D01*
X110411928Y-124650000D01*
X110424188Y-124774482D01*
X110460498Y-124894180D01*
X110519463Y-125004494D01*
X110598815Y-125101185D01*
X110695506Y-125180537D01*
X110805820Y-125239502D01*
X110878380Y-125261513D01*
X110746525Y-125393368D01*
X110584010Y-125636589D01*
X110472068Y-125906842D01*
X110415000Y-126193740D01*
X110415000Y-126486260D01*
X110472068Y-126773158D01*
X110584010Y-127043411D01*
X110746525Y-127286632D01*
X110953368Y-127493475D01*
X111196589Y-127655990D01*
X111466842Y-127767932D01*
X111753740Y-127825000D01*
X112046260Y-127825000D01*
X112333158Y-127767932D01*
X112603411Y-127655990D01*
X112846632Y-127493475D01*
X113053475Y-127286632D01*
X113170000Y-127112240D01*
X113286525Y-127286632D01*
X113493368Y-127493475D01*
X113736589Y-127655990D01*
X114006842Y-127767932D01*
X114293740Y-127825000D01*
X114586260Y-127825000D01*
X114873158Y-127767932D01*
X115143411Y-127655990D01*
X115386632Y-127493475D01*
X115451385Y-127428722D01*
X130408327Y-127428722D01*
X131200000Y-128220395D01*
X131991673Y-127428722D01*
X136908327Y-127428722D01*
X137700000Y-128220395D01*
X138491673Y-127428722D01*
X145508327Y-127428722D01*
X146300000Y-128220395D01*
X147091673Y-127428722D01*
X152008327Y-127428722D01*
X152800000Y-128220395D01*
X153591673Y-127428722D01*
X153523724Y-127187813D01*
X153273332Y-127069913D01*
X153004750Y-127003128D01*
X152728299Y-126990023D01*
X152454605Y-127031104D01*
X152194183Y-127124790D01*
X152076276Y-127187813D01*
X152008327Y-127428722D01*
X147091673Y-127428722D01*
X147023724Y-127187813D01*
X146773332Y-127069913D01*
X146504750Y-127003128D01*
X146228299Y-126990023D01*
X145954605Y-127031104D01*
X145694183Y-127124790D01*
X145576276Y-127187813D01*
X145508327Y-127428722D01*
X138491673Y-127428722D01*
X138423724Y-127187813D01*
X138173332Y-127069913D01*
X137904750Y-127003128D01*
X137628299Y-126990023D01*
X137354605Y-127031104D01*
X137094183Y-127124790D01*
X136976276Y-127187813D01*
X136908327Y-127428722D01*
X131991673Y-127428722D01*
X131923724Y-127187813D01*
X131673332Y-127069913D01*
X131404750Y-127003128D01*
X131128299Y-126990023D01*
X130854605Y-127031104D01*
X130594183Y-127124790D01*
X130476276Y-127187813D01*
X130408327Y-127428722D01*
X115451385Y-127428722D01*
X115593475Y-127286632D01*
X115755990Y-127043411D01*
X115867932Y-126773158D01*
X115925000Y-126486260D01*
X115925000Y-126193740D01*
X115867932Y-125906842D01*
X115755990Y-125636589D01*
X115593475Y-125393368D01*
X115386632Y-125186525D01*
X115204466Y-125064805D01*
X115321355Y-124995178D01*
X115537588Y-124800269D01*
X115711641Y-124566920D01*
X115836825Y-124304099D01*
X115881476Y-124156890D01*
X115760155Y-123927000D01*
X114567000Y-123927000D01*
X114567000Y-123947000D01*
X114313000Y-123947000D01*
X114313000Y-123927000D01*
X114293000Y-123927000D01*
X114293000Y-123761620D01*
X129795000Y-123761620D01*
X129795000Y-124038380D01*
X129848994Y-124309823D01*
X129954905Y-124565517D01*
X130108665Y-124795635D01*
X130304365Y-124991335D01*
X130534483Y-125145095D01*
X130790177Y-125251006D01*
X131061620Y-125305000D01*
X131338380Y-125305000D01*
X131609823Y-125251006D01*
X131865517Y-125145095D01*
X132095635Y-124991335D01*
X132291335Y-124795635D01*
X132445095Y-124565517D01*
X132551006Y-124309823D01*
X132605000Y-124038380D01*
X132605000Y-123761620D01*
X136295000Y-123761620D01*
X136295000Y-124038380D01*
X136348994Y-124309823D01*
X136454905Y-124565517D01*
X136608665Y-124795635D01*
X136804365Y-124991335D01*
X137034483Y-125145095D01*
X137290177Y-125251006D01*
X137561620Y-125305000D01*
X137838380Y-125305000D01*
X138109823Y-125251006D01*
X138365517Y-125145095D01*
X138595635Y-124991335D01*
X138791335Y-124795635D01*
X138945095Y-124565517D01*
X139051006Y-124309823D01*
X139105000Y-124038380D01*
X139105000Y-123761620D01*
X144895000Y-123761620D01*
X144895000Y-124038380D01*
X144948994Y-124309823D01*
X145054905Y-124565517D01*
X145208665Y-124795635D01*
X145404365Y-124991335D01*
X145634483Y-125145095D01*
X145890177Y-125251006D01*
X146161620Y-125305000D01*
X146438380Y-125305000D01*
X146709823Y-125251006D01*
X146965517Y-125145095D01*
X147195635Y-124991335D01*
X147391335Y-124795635D01*
X147545095Y-124565517D01*
X147651006Y-124309823D01*
X147705000Y-124038380D01*
X147705000Y-123761620D01*
X151395000Y-123761620D01*
X151395000Y-124038380D01*
X151448994Y-124309823D01*
X151554905Y-124565517D01*
X151708665Y-124795635D01*
X151904365Y-124991335D01*
X152134483Y-125145095D01*
X152390177Y-125251006D01*
X152661620Y-125305000D01*
X152938380Y-125305000D01*
X153209823Y-125251006D01*
X153465517Y-125145095D01*
X153695635Y-124991335D01*
X153891335Y-124795635D01*
X154045095Y-124565517D01*
X154151006Y-124309823D01*
X154205000Y-124038380D01*
X154205000Y-123761620D01*
X154151006Y-123490177D01*
X154045095Y-123234483D01*
X153891335Y-123004365D01*
X153695635Y-122808665D01*
X153465517Y-122654905D01*
X153209823Y-122548994D01*
X152938380Y-122495000D01*
X152661620Y-122495000D01*
X152390177Y-122548994D01*
X152134483Y-122654905D01*
X151904365Y-122808665D01*
X151708665Y-123004365D01*
X151554905Y-123234483D01*
X151448994Y-123490177D01*
X151395000Y-123761620D01*
X147705000Y-123761620D01*
X147651006Y-123490177D01*
X147545095Y-123234483D01*
X147391335Y-123004365D01*
X147195635Y-122808665D01*
X146965517Y-122654905D01*
X146709823Y-122548994D01*
X146438380Y-122495000D01*
X146161620Y-122495000D01*
X145890177Y-122548994D01*
X145634483Y-122654905D01*
X145404365Y-122808665D01*
X145208665Y-123004365D01*
X145054905Y-123234483D01*
X144948994Y-123490177D01*
X144895000Y-123761620D01*
X139105000Y-123761620D01*
X139051006Y-123490177D01*
X138945095Y-123234483D01*
X138791335Y-123004365D01*
X138595635Y-122808665D01*
X138365517Y-122654905D01*
X138109823Y-122548994D01*
X137838380Y-122495000D01*
X137561620Y-122495000D01*
X137290177Y-122548994D01*
X137034483Y-122654905D01*
X136804365Y-122808665D01*
X136608665Y-123004365D01*
X136454905Y-123234483D01*
X136348994Y-123490177D01*
X136295000Y-123761620D01*
X132605000Y-123761620D01*
X132551006Y-123490177D01*
X132445095Y-123234483D01*
X132291335Y-123004365D01*
X132095635Y-122808665D01*
X131865517Y-122654905D01*
X131609823Y-122548994D01*
X131338380Y-122495000D01*
X131061620Y-122495000D01*
X130790177Y-122548994D01*
X130534483Y-122654905D01*
X130304365Y-122808665D01*
X130108665Y-123004365D01*
X129954905Y-123234483D01*
X129848994Y-123490177D01*
X129795000Y-123761620D01*
X114293000Y-123761620D01*
X114293000Y-123673000D01*
X114313000Y-123673000D01*
X114313000Y-122479186D01*
X114567000Y-122479186D01*
X114567000Y-123673000D01*
X115760155Y-123673000D01*
X115881476Y-123443110D01*
X115836825Y-123295901D01*
X115711641Y-123033080D01*
X115537588Y-122799731D01*
X115321355Y-122604822D01*
X115071252Y-122455843D01*
X114796891Y-122358519D01*
X114567000Y-122479186D01*
X114313000Y-122479186D01*
X114083109Y-122358519D01*
X113808748Y-122455843D01*
X113558645Y-122604822D01*
X113362498Y-122781626D01*
X113339502Y-122705820D01*
X113280537Y-122595506D01*
X113201185Y-122498815D01*
X113104494Y-122419463D01*
X112994180Y-122360498D01*
X112874482Y-122324188D01*
X112750000Y-122311928D01*
X111050000Y-122311928D01*
X110925518Y-122324188D01*
X110805820Y-122360498D01*
X110695506Y-122419463D01*
X110598815Y-122498815D01*
X110519463Y-122595506D01*
X110460498Y-122705820D01*
X110424188Y-122825518D01*
X110411928Y-122950000D01*
X75459573Y-122950000D01*
X75374482Y-122924188D01*
X75250000Y-122911928D01*
X70850000Y-122911928D01*
X70725518Y-122924188D01*
X70605820Y-122960498D01*
X70495506Y-123019463D01*
X70398815Y-123098815D01*
X70319463Y-123195506D01*
X70260498Y-123305820D01*
X70224188Y-123425518D01*
X70211928Y-123550000D01*
X65660000Y-123550000D01*
X65660000Y-115407911D01*
X71565000Y-115407911D01*
X71565000Y-115592089D01*
X71600932Y-115772729D01*
X71671414Y-115942889D01*
X71773738Y-116096028D01*
X71903972Y-116226262D01*
X72057111Y-116328586D01*
X72227271Y-116399068D01*
X72407911Y-116435000D01*
X72592089Y-116435000D01*
X72772729Y-116399068D01*
X72942889Y-116328586D01*
X73096028Y-116226262D01*
X73226262Y-116096028D01*
X73328586Y-115942889D01*
X73399068Y-115772729D01*
X73435000Y-115592089D01*
X73435000Y-115407911D01*
X73399068Y-115227271D01*
X73328586Y-115057111D01*
X73226262Y-114903972D01*
X73096028Y-114773738D01*
X72942889Y-114671414D01*
X72772729Y-114600932D01*
X72592089Y-114565000D01*
X72407911Y-114565000D01*
X72227271Y-114600932D01*
X72057111Y-114671414D01*
X71903972Y-114773738D01*
X71773738Y-114903972D01*
X71671414Y-115057111D01*
X71600932Y-115227271D01*
X71565000Y-115407911D01*
X65660000Y-115407911D01*
X65660000Y-113407911D01*
X71565000Y-113407911D01*
X71565000Y-113592089D01*
X71600932Y-113772729D01*
X71671414Y-113942889D01*
X71773738Y-114096028D01*
X71903972Y-114226262D01*
X72057111Y-114328586D01*
X72227271Y-114399068D01*
X72407911Y-114435000D01*
X72592089Y-114435000D01*
X72772729Y-114399068D01*
X72942889Y-114328586D01*
X73096028Y-114226262D01*
X73226262Y-114096028D01*
X73328586Y-113942889D01*
X73399068Y-113772729D01*
X73435000Y-113592089D01*
X73435000Y-113407911D01*
X73399068Y-113227271D01*
X73328586Y-113057111D01*
X73226262Y-112903972D01*
X73112290Y-112790000D01*
X107451928Y-112790000D01*
X107451928Y-114490000D01*
X107464188Y-114614482D01*
X107500498Y-114734180D01*
X107559463Y-114844494D01*
X107638815Y-114941185D01*
X107735506Y-115020537D01*
X107845820Y-115079502D01*
X107965518Y-115115812D01*
X108090000Y-115128072D01*
X109790000Y-115128072D01*
X109914482Y-115115812D01*
X110034180Y-115079502D01*
X110144494Y-115020537D01*
X110241185Y-114941185D01*
X110320537Y-114844494D01*
X110379502Y-114734180D01*
X110401513Y-114661620D01*
X110533368Y-114793475D01*
X110776589Y-114955990D01*
X111046842Y-115067932D01*
X111333740Y-115125000D01*
X111626260Y-115125000D01*
X111913158Y-115067932D01*
X112183411Y-114955990D01*
X112426632Y-114793475D01*
X112633475Y-114586632D01*
X112750000Y-114412240D01*
X112866525Y-114586632D01*
X113073368Y-114793475D01*
X113316589Y-114955990D01*
X113586842Y-115067932D01*
X113873740Y-115125000D01*
X114166260Y-115125000D01*
X114453158Y-115067932D01*
X114723411Y-114955990D01*
X114966632Y-114793475D01*
X115173475Y-114586632D01*
X115290000Y-114412240D01*
X115406525Y-114586632D01*
X115613368Y-114793475D01*
X115856589Y-114955990D01*
X116126842Y-115067932D01*
X116413740Y-115125000D01*
X116706260Y-115125000D01*
X116993158Y-115067932D01*
X117263411Y-114955990D01*
X117506632Y-114793475D01*
X117713475Y-114586632D01*
X117830000Y-114412240D01*
X117946525Y-114586632D01*
X118153368Y-114793475D01*
X118396589Y-114955990D01*
X118666842Y-115067932D01*
X118953740Y-115125000D01*
X119246260Y-115125000D01*
X119533158Y-115067932D01*
X119803411Y-114955990D01*
X120046632Y-114793475D01*
X120253475Y-114586632D01*
X120370000Y-114412240D01*
X120486525Y-114586632D01*
X120693368Y-114793475D01*
X120936589Y-114955990D01*
X121206842Y-115067932D01*
X121493740Y-115125000D01*
X121786260Y-115125000D01*
X122073158Y-115067932D01*
X122343411Y-114955990D01*
X122586632Y-114793475D01*
X122793475Y-114586632D01*
X122955990Y-114343411D01*
X123067932Y-114073158D01*
X123125000Y-113786260D01*
X123125000Y-113493740D01*
X123067932Y-113206842D01*
X122955990Y-112936589D01*
X122793475Y-112693368D01*
X122586632Y-112486525D01*
X122412240Y-112370000D01*
X122586632Y-112253475D01*
X122793475Y-112046632D01*
X122955990Y-111803411D01*
X123067932Y-111533158D01*
X123125000Y-111246260D01*
X123125000Y-111010000D01*
X149411928Y-111010000D01*
X149411928Y-112710000D01*
X149424188Y-112834482D01*
X149460498Y-112954180D01*
X149519463Y-113064494D01*
X149598815Y-113161185D01*
X149695506Y-113240537D01*
X149805820Y-113299502D01*
X149878380Y-113321513D01*
X149746525Y-113453368D01*
X149584010Y-113696589D01*
X149472068Y-113966842D01*
X149415000Y-114253740D01*
X149415000Y-114546260D01*
X149472068Y-114833158D01*
X149584010Y-115103411D01*
X149746525Y-115346632D01*
X149953368Y-115553475D01*
X150196589Y-115715990D01*
X150466842Y-115827932D01*
X150753740Y-115885000D01*
X151046260Y-115885000D01*
X151333158Y-115827932D01*
X151603411Y-115715990D01*
X151846632Y-115553475D01*
X152053475Y-115346632D01*
X152215990Y-115103411D01*
X152327932Y-114833158D01*
X152385000Y-114546260D01*
X152385000Y-114253740D01*
X152327932Y-113966842D01*
X152215990Y-113696589D01*
X152053475Y-113453368D01*
X151921620Y-113321513D01*
X151994180Y-113299502D01*
X152104494Y-113240537D01*
X152201185Y-113161185D01*
X152280537Y-113064494D01*
X152339502Y-112954180D01*
X152375812Y-112834482D01*
X152388072Y-112710000D01*
X152388072Y-111693740D01*
X159115000Y-111693740D01*
X159115000Y-111986260D01*
X159172068Y-112273158D01*
X159284010Y-112543411D01*
X159446525Y-112786632D01*
X159653368Y-112993475D01*
X159827760Y-113110000D01*
X159653368Y-113226525D01*
X159446525Y-113433368D01*
X159284010Y-113676589D01*
X159172068Y-113946842D01*
X159115000Y-114233740D01*
X159115000Y-114526260D01*
X159172068Y-114813158D01*
X159284010Y-115083411D01*
X159446525Y-115326632D01*
X159653368Y-115533475D01*
X159896589Y-115695990D01*
X160166842Y-115807932D01*
X160453740Y-115865000D01*
X160746260Y-115865000D01*
X161033158Y-115807932D01*
X161303411Y-115695990D01*
X161546632Y-115533475D01*
X161753475Y-115326632D01*
X161915990Y-115083411D01*
X162027932Y-114813158D01*
X162085000Y-114526260D01*
X162085000Y-114233740D01*
X162027932Y-113946842D01*
X161915990Y-113676589D01*
X161753475Y-113433368D01*
X161546632Y-113226525D01*
X161372240Y-113110000D01*
X161546632Y-112993475D01*
X161753475Y-112786632D01*
X161915990Y-112543411D01*
X162027932Y-112273158D01*
X162085000Y-111986260D01*
X162085000Y-111693740D01*
X162027932Y-111406842D01*
X161915990Y-111136589D01*
X161753475Y-110893368D01*
X161546632Y-110686525D01*
X161364466Y-110564805D01*
X161481355Y-110495178D01*
X161697588Y-110300269D01*
X161871641Y-110066920D01*
X161996825Y-109804099D01*
X162041476Y-109656890D01*
X161920155Y-109427000D01*
X160727000Y-109427000D01*
X160727000Y-109447000D01*
X160473000Y-109447000D01*
X160473000Y-109427000D01*
X159279845Y-109427000D01*
X159158524Y-109656890D01*
X159203175Y-109804099D01*
X159328359Y-110066920D01*
X159502412Y-110300269D01*
X159718645Y-110495178D01*
X159835534Y-110564805D01*
X159653368Y-110686525D01*
X159446525Y-110893368D01*
X159284010Y-111136589D01*
X159172068Y-111406842D01*
X159115000Y-111693740D01*
X152388072Y-111693740D01*
X152388072Y-111010000D01*
X152375812Y-110885518D01*
X152339502Y-110765820D01*
X152280537Y-110655506D01*
X152201185Y-110558815D01*
X152104494Y-110479463D01*
X151994180Y-110420498D01*
X151874482Y-110384188D01*
X151750000Y-110371928D01*
X150050000Y-110371928D01*
X149925518Y-110384188D01*
X149805820Y-110420498D01*
X149695506Y-110479463D01*
X149598815Y-110558815D01*
X149519463Y-110655506D01*
X149460498Y-110765820D01*
X149424188Y-110885518D01*
X149411928Y-111010000D01*
X123125000Y-111010000D01*
X123125000Y-110953740D01*
X123067932Y-110666842D01*
X122955990Y-110396589D01*
X122793475Y-110153368D01*
X122586632Y-109946525D01*
X122343411Y-109784010D01*
X122073158Y-109672068D01*
X121786260Y-109615000D01*
X121493740Y-109615000D01*
X121206842Y-109672068D01*
X120936589Y-109784010D01*
X120693368Y-109946525D01*
X120486525Y-110153368D01*
X120370000Y-110327760D01*
X120253475Y-110153368D01*
X120046632Y-109946525D01*
X119803411Y-109784010D01*
X119533158Y-109672068D01*
X119246260Y-109615000D01*
X118953740Y-109615000D01*
X118666842Y-109672068D01*
X118396589Y-109784010D01*
X118153368Y-109946525D01*
X117946525Y-110153368D01*
X117830000Y-110327760D01*
X117713475Y-110153368D01*
X117506632Y-109946525D01*
X117263411Y-109784010D01*
X116993158Y-109672068D01*
X116706260Y-109615000D01*
X116413740Y-109615000D01*
X116126842Y-109672068D01*
X115856589Y-109784010D01*
X115613368Y-109946525D01*
X115406525Y-110153368D01*
X115290000Y-110327760D01*
X115173475Y-110153368D01*
X114966632Y-109946525D01*
X114723411Y-109784010D01*
X114453158Y-109672068D01*
X114166260Y-109615000D01*
X113873740Y-109615000D01*
X113586842Y-109672068D01*
X113316589Y-109784010D01*
X113073368Y-109946525D01*
X112866525Y-110153368D01*
X112750000Y-110327760D01*
X112633475Y-110153368D01*
X112426632Y-109946525D01*
X112183411Y-109784010D01*
X111913158Y-109672068D01*
X111626260Y-109615000D01*
X111333740Y-109615000D01*
X111046842Y-109672068D01*
X110776589Y-109784010D01*
X110533368Y-109946525D01*
X110326525Y-110153368D01*
X110204805Y-110335534D01*
X110135178Y-110218645D01*
X109940269Y-110002412D01*
X109706920Y-109828359D01*
X109444099Y-109703175D01*
X109296890Y-109658524D01*
X109067000Y-109779845D01*
X109067000Y-110973000D01*
X109087000Y-110973000D01*
X109087000Y-111227000D01*
X109067000Y-111227000D01*
X109067000Y-111247000D01*
X108813000Y-111247000D01*
X108813000Y-111227000D01*
X107619186Y-111227000D01*
X107498519Y-111456891D01*
X107595843Y-111731252D01*
X107744822Y-111981355D01*
X107921626Y-112177502D01*
X107845820Y-112200498D01*
X107735506Y-112259463D01*
X107638815Y-112338815D01*
X107559463Y-112435506D01*
X107500498Y-112545820D01*
X107464188Y-112665518D01*
X107451928Y-112790000D01*
X73112290Y-112790000D01*
X73096028Y-112773738D01*
X72942889Y-112671414D01*
X72772729Y-112600932D01*
X72592089Y-112565000D01*
X72407911Y-112565000D01*
X72227271Y-112600932D01*
X72057111Y-112671414D01*
X71903972Y-112773738D01*
X71773738Y-112903972D01*
X71671414Y-113057111D01*
X71600932Y-113227271D01*
X71565000Y-113407911D01*
X65660000Y-113407911D01*
X65660000Y-110743109D01*
X107498519Y-110743109D01*
X107619186Y-110973000D01*
X108813000Y-110973000D01*
X108813000Y-109779845D01*
X108583110Y-109658524D01*
X108435901Y-109703175D01*
X108173080Y-109828359D01*
X107939731Y-110002412D01*
X107744822Y-110218645D01*
X107595843Y-110468748D01*
X107498519Y-110743109D01*
X65660000Y-110743109D01*
X65660000Y-103007911D01*
X131665000Y-103007911D01*
X131665000Y-103192089D01*
X131700932Y-103372729D01*
X131771414Y-103542889D01*
X131873738Y-103696028D01*
X132003972Y-103826262D01*
X132157111Y-103928586D01*
X132327271Y-103999068D01*
X132507911Y-104035000D01*
X132692089Y-104035000D01*
X132872729Y-103999068D01*
X133042889Y-103928586D01*
X133196028Y-103826262D01*
X133326262Y-103696028D01*
X133428586Y-103542889D01*
X133499068Y-103372729D01*
X133535000Y-103192089D01*
X133535000Y-103007911D01*
X133499068Y-102827271D01*
X133428586Y-102657111D01*
X133326262Y-102503972D01*
X133196028Y-102373738D01*
X133042889Y-102271414D01*
X132872729Y-102200932D01*
X132692089Y-102165000D01*
X132507911Y-102165000D01*
X132327271Y-102200932D01*
X132157111Y-102271414D01*
X132003972Y-102373738D01*
X131873738Y-102503972D01*
X131771414Y-102657111D01*
X131700932Y-102827271D01*
X131665000Y-103007911D01*
X65660000Y-103007911D01*
X65660000Y-80450000D01*
X85911928Y-80450000D01*
X85911928Y-82150000D01*
X85924188Y-82274482D01*
X85960498Y-82394180D01*
X86019463Y-82504494D01*
X86098815Y-82601185D01*
X86195506Y-82680537D01*
X86305820Y-82739502D01*
X86378380Y-82761513D01*
X86246525Y-82893368D01*
X86084010Y-83136589D01*
X85972068Y-83406842D01*
X85915000Y-83693740D01*
X85915000Y-83986260D01*
X85972068Y-84273158D01*
X86084010Y-84543411D01*
X86246525Y-84786632D01*
X86453368Y-84993475D01*
X86627760Y-85110000D01*
X86453368Y-85226525D01*
X86246525Y-85433368D01*
X86084010Y-85676589D01*
X85972068Y-85946842D01*
X85915000Y-86233740D01*
X85915000Y-86526260D01*
X85972068Y-86813158D01*
X86084010Y-87083411D01*
X86246525Y-87326632D01*
X86453368Y-87533475D01*
X86627760Y-87650000D01*
X86453368Y-87766525D01*
X86246525Y-87973368D01*
X86084010Y-88216589D01*
X85972068Y-88486842D01*
X85915000Y-88773740D01*
X85915000Y-89066260D01*
X85972068Y-89353158D01*
X86084010Y-89623411D01*
X86246525Y-89866632D01*
X86453368Y-90073475D01*
X86627760Y-90190000D01*
X86453368Y-90306525D01*
X86246525Y-90513368D01*
X86084010Y-90756589D01*
X85972068Y-91026842D01*
X85915000Y-91313740D01*
X85915000Y-91606260D01*
X85972068Y-91893158D01*
X86084010Y-92163411D01*
X86246525Y-92406632D01*
X86453368Y-92613475D01*
X86627760Y-92730000D01*
X86453368Y-92846525D01*
X86246525Y-93053368D01*
X86084010Y-93296589D01*
X85972068Y-93566842D01*
X85915000Y-93853740D01*
X85915000Y-94146260D01*
X85972068Y-94433158D01*
X86084010Y-94703411D01*
X86246525Y-94946632D01*
X86453368Y-95153475D01*
X86696589Y-95315990D01*
X86966842Y-95427932D01*
X87253740Y-95485000D01*
X87546260Y-95485000D01*
X87833158Y-95427932D01*
X88103411Y-95315990D01*
X88346632Y-95153475D01*
X88553475Y-94946632D01*
X88670000Y-94772240D01*
X88786525Y-94946632D01*
X88993368Y-95153475D01*
X89236589Y-95315990D01*
X89506842Y-95427932D01*
X89793740Y-95485000D01*
X90086260Y-95485000D01*
X90373158Y-95427932D01*
X90643411Y-95315990D01*
X90886632Y-95153475D01*
X91093475Y-94946632D01*
X91252983Y-94707911D01*
X136365000Y-94707911D01*
X136365000Y-94892089D01*
X136400932Y-95072729D01*
X136471414Y-95242889D01*
X136573738Y-95396028D01*
X136703972Y-95526262D01*
X136857111Y-95628586D01*
X137027271Y-95699068D01*
X137165426Y-95726549D01*
X137057111Y-95771414D01*
X136903972Y-95873738D01*
X136773738Y-96003972D01*
X136671414Y-96157111D01*
X136600932Y-96327271D01*
X136565000Y-96507911D01*
X136565000Y-96692089D01*
X136600932Y-96872729D01*
X136671414Y-97042889D01*
X136773738Y-97196028D01*
X136903972Y-97326262D01*
X137057111Y-97428586D01*
X137227271Y-97499068D01*
X137407911Y-97535000D01*
X137592089Y-97535000D01*
X137772729Y-97499068D01*
X137942889Y-97428586D01*
X138096028Y-97326262D01*
X138226262Y-97196028D01*
X138328586Y-97042889D01*
X138399068Y-96872729D01*
X138435000Y-96692089D01*
X138435000Y-96507911D01*
X138399068Y-96327271D01*
X138328586Y-96157111D01*
X138226262Y-96003972D01*
X138096028Y-95873738D01*
X137942889Y-95771414D01*
X137891191Y-95750000D01*
X159111928Y-95750000D01*
X159111928Y-97450000D01*
X159124188Y-97574482D01*
X159160498Y-97694180D01*
X159219463Y-97804494D01*
X159298815Y-97901185D01*
X159395506Y-97980537D01*
X159505820Y-98039502D01*
X159578380Y-98061513D01*
X159446525Y-98193368D01*
X159284010Y-98436589D01*
X159172068Y-98706842D01*
X159115000Y-98993740D01*
X159115000Y-99286260D01*
X159172068Y-99573158D01*
X159284010Y-99843411D01*
X159446525Y-100086632D01*
X159653368Y-100293475D01*
X159827760Y-100410000D01*
X159653368Y-100526525D01*
X159446525Y-100733368D01*
X159284010Y-100976589D01*
X159172068Y-101246842D01*
X159115000Y-101533740D01*
X159115000Y-101826260D01*
X159172068Y-102113158D01*
X159284010Y-102383411D01*
X159446525Y-102626632D01*
X159653368Y-102833475D01*
X159827760Y-102950000D01*
X159653368Y-103066525D01*
X159446525Y-103273368D01*
X159284010Y-103516589D01*
X159172068Y-103786842D01*
X159115000Y-104073740D01*
X159115000Y-104366260D01*
X159172068Y-104653158D01*
X159284010Y-104923411D01*
X159446525Y-105166632D01*
X159653368Y-105373475D01*
X159827760Y-105490000D01*
X159653368Y-105606525D01*
X159446525Y-105813368D01*
X159284010Y-106056589D01*
X159172068Y-106326842D01*
X159115000Y-106613740D01*
X159115000Y-106906260D01*
X159172068Y-107193158D01*
X159284010Y-107463411D01*
X159446525Y-107706632D01*
X159653368Y-107913475D01*
X159835534Y-108035195D01*
X159718645Y-108104822D01*
X159502412Y-108299731D01*
X159328359Y-108533080D01*
X159203175Y-108795901D01*
X159158524Y-108943110D01*
X159279845Y-109173000D01*
X160473000Y-109173000D01*
X160473000Y-109153000D01*
X160727000Y-109153000D01*
X160727000Y-109173000D01*
X161920155Y-109173000D01*
X162041476Y-108943110D01*
X161996825Y-108795901D01*
X161871641Y-108533080D01*
X161697588Y-108299731D01*
X161481355Y-108104822D01*
X161364466Y-108035195D01*
X161546632Y-107913475D01*
X161753475Y-107706632D01*
X161915990Y-107463411D01*
X162027932Y-107193158D01*
X162085000Y-106906260D01*
X162085000Y-106613740D01*
X162027932Y-106326842D01*
X161915990Y-106056589D01*
X161753475Y-105813368D01*
X161546632Y-105606525D01*
X161372240Y-105490000D01*
X161546632Y-105373475D01*
X161753475Y-105166632D01*
X161915990Y-104923411D01*
X162027932Y-104653158D01*
X162085000Y-104366260D01*
X162085000Y-104073740D01*
X162027932Y-103786842D01*
X161915990Y-103516589D01*
X161753475Y-103273368D01*
X161546632Y-103066525D01*
X161372240Y-102950000D01*
X161546632Y-102833475D01*
X161753475Y-102626632D01*
X161915990Y-102383411D01*
X162027932Y-102113158D01*
X162085000Y-101826260D01*
X162085000Y-101533740D01*
X162027932Y-101246842D01*
X161915990Y-100976589D01*
X161753475Y-100733368D01*
X161546632Y-100526525D01*
X161372240Y-100410000D01*
X161546632Y-100293475D01*
X161753475Y-100086632D01*
X161915990Y-99843411D01*
X162027932Y-99573158D01*
X162085000Y-99286260D01*
X162085000Y-98993740D01*
X162027932Y-98706842D01*
X161915990Y-98436589D01*
X161753475Y-98193368D01*
X161621620Y-98061513D01*
X161694180Y-98039502D01*
X161804494Y-97980537D01*
X161901185Y-97901185D01*
X161980537Y-97804494D01*
X162039502Y-97694180D01*
X162075812Y-97574482D01*
X162088072Y-97450000D01*
X162088072Y-95750000D01*
X162075812Y-95625518D01*
X162039502Y-95505820D01*
X161980537Y-95395506D01*
X161901185Y-95298815D01*
X161804494Y-95219463D01*
X161694180Y-95160498D01*
X161574482Y-95124188D01*
X161450000Y-95111928D01*
X159750000Y-95111928D01*
X159625518Y-95124188D01*
X159505820Y-95160498D01*
X159395506Y-95219463D01*
X159298815Y-95298815D01*
X159219463Y-95395506D01*
X159160498Y-95505820D01*
X159124188Y-95625518D01*
X159111928Y-95750000D01*
X137891191Y-95750000D01*
X137772729Y-95700932D01*
X137634574Y-95673451D01*
X137742889Y-95628586D01*
X137896028Y-95526262D01*
X138026262Y-95396028D01*
X138128586Y-95242889D01*
X138199068Y-95072729D01*
X138235000Y-94892089D01*
X138235000Y-94707911D01*
X138199068Y-94527271D01*
X138128586Y-94357111D01*
X138026262Y-94203972D01*
X137896028Y-94073738D01*
X137742889Y-93971414D01*
X137572729Y-93900932D01*
X137392089Y-93865000D01*
X137207911Y-93865000D01*
X137027271Y-93900932D01*
X136857111Y-93971414D01*
X136703972Y-94073738D01*
X136573738Y-94203972D01*
X136471414Y-94357111D01*
X136400932Y-94527271D01*
X136365000Y-94707911D01*
X91252983Y-94707911D01*
X91255990Y-94703411D01*
X91367932Y-94433158D01*
X91425000Y-94146260D01*
X91425000Y-93853740D01*
X91367932Y-93566842D01*
X91255990Y-93296589D01*
X91093475Y-93053368D01*
X90886632Y-92846525D01*
X90712240Y-92730000D01*
X90886632Y-92613475D01*
X91093475Y-92406632D01*
X91246983Y-92176890D01*
X139758524Y-92176890D01*
X139803175Y-92324099D01*
X139928359Y-92586920D01*
X140102412Y-92820269D01*
X140318645Y-93015178D01*
X140568748Y-93164157D01*
X140843109Y-93261481D01*
X141073000Y-93140814D01*
X141073000Y-91947000D01*
X139879845Y-91947000D01*
X139758524Y-92176890D01*
X91246983Y-92176890D01*
X91255990Y-92163411D01*
X91367932Y-91893158D01*
X91425000Y-91606260D01*
X91425000Y-91313740D01*
X91367932Y-91026842D01*
X91255990Y-90756589D01*
X91093475Y-90513368D01*
X91038018Y-90457911D01*
X113340010Y-90457911D01*
X113340010Y-90642089D01*
X113375942Y-90822729D01*
X113446424Y-90992889D01*
X113548748Y-91146028D01*
X113678982Y-91276262D01*
X113832121Y-91378586D01*
X114002281Y-91449068D01*
X114182921Y-91485000D01*
X114367099Y-91485000D01*
X114547739Y-91449068D01*
X114717899Y-91378586D01*
X114871038Y-91276262D01*
X115001272Y-91146028D01*
X115103596Y-90992889D01*
X115174078Y-90822729D01*
X115210010Y-90642089D01*
X115210010Y-90457911D01*
X115174078Y-90277271D01*
X115103596Y-90107111D01*
X115001272Y-89953972D01*
X114871038Y-89823738D01*
X114717899Y-89721414D01*
X114547739Y-89650932D01*
X114367099Y-89615000D01*
X114182921Y-89615000D01*
X114002281Y-89650932D01*
X113832121Y-89721414D01*
X113678982Y-89823738D01*
X113548748Y-89953972D01*
X113446424Y-90107111D01*
X113375942Y-90277271D01*
X113340010Y-90457911D01*
X91038018Y-90457911D01*
X90886632Y-90306525D01*
X90712240Y-90190000D01*
X90886632Y-90073475D01*
X91093475Y-89866632D01*
X91255990Y-89623411D01*
X91367932Y-89353158D01*
X91425000Y-89066260D01*
X91425000Y-88773740D01*
X91367932Y-88486842D01*
X91255990Y-88216589D01*
X91093475Y-87973368D01*
X90886632Y-87766525D01*
X90712240Y-87650000D01*
X90886632Y-87533475D01*
X91093475Y-87326632D01*
X91255990Y-87083411D01*
X91367932Y-86813158D01*
X91368975Y-86807911D01*
X114565000Y-86807911D01*
X114565000Y-86992089D01*
X114600932Y-87172729D01*
X114671414Y-87342889D01*
X114773738Y-87496028D01*
X114903972Y-87626262D01*
X115057111Y-87728586D01*
X115227271Y-87799068D01*
X115407911Y-87835000D01*
X115592089Y-87835000D01*
X115772729Y-87799068D01*
X115942889Y-87728586D01*
X116096028Y-87626262D01*
X116226262Y-87496028D01*
X116328586Y-87342889D01*
X116399068Y-87172729D01*
X116435000Y-86992089D01*
X116435000Y-86807911D01*
X116399068Y-86627271D01*
X116328586Y-86457111D01*
X116226262Y-86303972D01*
X116096028Y-86173738D01*
X115942889Y-86071414D01*
X115772729Y-86000932D01*
X115592089Y-85965000D01*
X115407911Y-85965000D01*
X115227271Y-86000932D01*
X115057111Y-86071414D01*
X114903972Y-86173738D01*
X114773738Y-86303972D01*
X114671414Y-86457111D01*
X114600932Y-86627271D01*
X114565000Y-86807911D01*
X91368975Y-86807911D01*
X91425000Y-86526260D01*
X91425000Y-86233740D01*
X91367932Y-85946842D01*
X91255990Y-85676589D01*
X91093475Y-85433368D01*
X90968018Y-85307911D01*
X100765000Y-85307911D01*
X100765000Y-85492089D01*
X100800932Y-85672729D01*
X100871414Y-85842889D01*
X100973738Y-85996028D01*
X101103972Y-86126262D01*
X101257111Y-86228586D01*
X101427271Y-86299068D01*
X101607911Y-86335000D01*
X101792089Y-86335000D01*
X101972729Y-86299068D01*
X102142889Y-86228586D01*
X102296028Y-86126262D01*
X102426262Y-85996028D01*
X102528586Y-85842889D01*
X102599068Y-85672729D01*
X102635000Y-85492089D01*
X102635000Y-85307911D01*
X102599068Y-85127271D01*
X102528586Y-84957111D01*
X102428894Y-84807911D01*
X115865000Y-84807911D01*
X115865000Y-84992089D01*
X115900932Y-85172729D01*
X115971414Y-85342889D01*
X116073738Y-85496028D01*
X116203972Y-85626262D01*
X116357111Y-85728586D01*
X116527271Y-85799068D01*
X116707911Y-85835000D01*
X116892089Y-85835000D01*
X117072729Y-85799068D01*
X117242889Y-85728586D01*
X117396028Y-85626262D01*
X117526262Y-85496028D01*
X117628586Y-85342889D01*
X117699068Y-85172729D01*
X117735000Y-84992089D01*
X117735000Y-84807911D01*
X117699068Y-84627271D01*
X117628586Y-84457111D01*
X117526262Y-84303972D01*
X117396028Y-84173738D01*
X117242889Y-84071414D01*
X117072729Y-84000932D01*
X116892089Y-83965000D01*
X116707911Y-83965000D01*
X116527271Y-84000932D01*
X116357111Y-84071414D01*
X116203972Y-84173738D01*
X116073738Y-84303972D01*
X115971414Y-84457111D01*
X115900932Y-84627271D01*
X115865000Y-84807911D01*
X102428894Y-84807911D01*
X102426262Y-84803972D01*
X102296028Y-84673738D01*
X102142889Y-84571414D01*
X101972729Y-84500932D01*
X101792089Y-84465000D01*
X101607911Y-84465000D01*
X101427271Y-84500932D01*
X101257111Y-84571414D01*
X101103972Y-84673738D01*
X100973738Y-84803972D01*
X100871414Y-84957111D01*
X100800932Y-85127271D01*
X100765000Y-85307911D01*
X90968018Y-85307911D01*
X90886632Y-85226525D01*
X90712240Y-85110000D01*
X90886632Y-84993475D01*
X91093475Y-84786632D01*
X91255990Y-84543411D01*
X91367932Y-84273158D01*
X91425000Y-83986260D01*
X91425000Y-83693740D01*
X91368145Y-83407911D01*
X112665000Y-83407911D01*
X112665000Y-83592089D01*
X112700932Y-83772729D01*
X112771414Y-83942889D01*
X112873738Y-84096028D01*
X113003972Y-84226262D01*
X113157111Y-84328586D01*
X113327271Y-84399068D01*
X113507911Y-84435000D01*
X113692089Y-84435000D01*
X113872729Y-84399068D01*
X114042889Y-84328586D01*
X114196028Y-84226262D01*
X114326262Y-84096028D01*
X114428586Y-83942889D01*
X114499068Y-83772729D01*
X114535000Y-83592089D01*
X114535000Y-83407911D01*
X114499068Y-83227271D01*
X114428586Y-83057111D01*
X114326262Y-82903972D01*
X114196028Y-82773738D01*
X114042889Y-82671414D01*
X113872729Y-82600932D01*
X113692089Y-82565000D01*
X113507911Y-82565000D01*
X113327271Y-82600932D01*
X113157111Y-82671414D01*
X113003972Y-82773738D01*
X112873738Y-82903972D01*
X112771414Y-83057111D01*
X112700932Y-83227271D01*
X112665000Y-83407911D01*
X91368145Y-83407911D01*
X91367932Y-83406842D01*
X91255990Y-83136589D01*
X91093475Y-82893368D01*
X90886632Y-82686525D01*
X90704466Y-82564805D01*
X90821355Y-82495178D01*
X91037588Y-82300269D01*
X91211641Y-82066920D01*
X91336825Y-81804099D01*
X91381476Y-81656890D01*
X91260155Y-81427000D01*
X90067000Y-81427000D01*
X90067000Y-81447000D01*
X89813000Y-81447000D01*
X89813000Y-81427000D01*
X89793000Y-81427000D01*
X89793000Y-81173000D01*
X89813000Y-81173000D01*
X89813000Y-79979186D01*
X90067000Y-79979186D01*
X90067000Y-81173000D01*
X91260155Y-81173000D01*
X91381476Y-80943110D01*
X91336825Y-80795901D01*
X91256810Y-80627911D01*
X120085000Y-80627911D01*
X120085000Y-80812089D01*
X120120932Y-80992729D01*
X120191414Y-81162889D01*
X120293738Y-81316028D01*
X120423972Y-81446262D01*
X120577111Y-81548586D01*
X120747271Y-81619068D01*
X120927911Y-81655000D01*
X121112089Y-81655000D01*
X121292729Y-81619068D01*
X121462889Y-81548586D01*
X121616028Y-81446262D01*
X121746262Y-81316028D01*
X121848586Y-81162889D01*
X121919068Y-80992729D01*
X121955000Y-80812089D01*
X121955000Y-80627911D01*
X121919068Y-80447271D01*
X121848586Y-80277111D01*
X121746262Y-80123972D01*
X121616028Y-79993738D01*
X121462889Y-79891414D01*
X121292729Y-79820932D01*
X121112089Y-79785000D01*
X120927911Y-79785000D01*
X120747271Y-79820932D01*
X120577111Y-79891414D01*
X120423972Y-79993738D01*
X120293738Y-80123972D01*
X120191414Y-80277111D01*
X120120932Y-80447271D01*
X120085000Y-80627911D01*
X91256810Y-80627911D01*
X91211641Y-80533080D01*
X91037588Y-80299731D01*
X90821355Y-80104822D01*
X90571252Y-79955843D01*
X90296891Y-79858519D01*
X90067000Y-79979186D01*
X89813000Y-79979186D01*
X89583109Y-79858519D01*
X89308748Y-79955843D01*
X89058645Y-80104822D01*
X88862498Y-80281626D01*
X88839502Y-80205820D01*
X88780537Y-80095506D01*
X88701185Y-79998815D01*
X88604494Y-79919463D01*
X88494180Y-79860498D01*
X88374482Y-79824188D01*
X88250000Y-79811928D01*
X86550000Y-79811928D01*
X86425518Y-79824188D01*
X86305820Y-79860498D01*
X86195506Y-79919463D01*
X86098815Y-79998815D01*
X86019463Y-80095506D01*
X85960498Y-80205820D01*
X85924188Y-80325518D01*
X85911928Y-80450000D01*
X65660000Y-80450000D01*
X65660000Y-79007911D01*
X113365000Y-79007911D01*
X113365000Y-79192089D01*
X113400932Y-79372729D01*
X113471414Y-79542889D01*
X113573738Y-79696028D01*
X113703972Y-79826262D01*
X113857111Y-79928586D01*
X114027271Y-79999068D01*
X114207911Y-80035000D01*
X114392089Y-80035000D01*
X114572729Y-79999068D01*
X114742889Y-79928586D01*
X114896028Y-79826262D01*
X115026262Y-79696028D01*
X115128586Y-79542889D01*
X115199068Y-79372729D01*
X115235000Y-79192089D01*
X115235000Y-79007911D01*
X115228203Y-78973740D01*
X139715000Y-78973740D01*
X139715000Y-79266260D01*
X139772068Y-79553158D01*
X139884010Y-79823411D01*
X140046525Y-80066632D01*
X140253368Y-80273475D01*
X140427760Y-80390000D01*
X140253368Y-80506525D01*
X140046525Y-80713368D01*
X139884010Y-80956589D01*
X139772068Y-81226842D01*
X139715000Y-81513740D01*
X139715000Y-81806260D01*
X139772068Y-82093158D01*
X139884010Y-82363411D01*
X140046525Y-82606632D01*
X140253368Y-82813475D01*
X140427760Y-82930000D01*
X140253368Y-83046525D01*
X140046525Y-83253368D01*
X139884010Y-83496589D01*
X139772068Y-83766842D01*
X139715000Y-84053740D01*
X139715000Y-84346260D01*
X139772068Y-84633158D01*
X139884010Y-84903411D01*
X140046525Y-85146632D01*
X140253368Y-85353475D01*
X140427760Y-85470000D01*
X140253368Y-85586525D01*
X140046525Y-85793368D01*
X139884010Y-86036589D01*
X139772068Y-86306842D01*
X139715000Y-86593740D01*
X139715000Y-86886260D01*
X139772068Y-87173158D01*
X139884010Y-87443411D01*
X140046525Y-87686632D01*
X140253368Y-87893475D01*
X140427760Y-88010000D01*
X140253368Y-88126525D01*
X140046525Y-88333368D01*
X139884010Y-88576589D01*
X139772068Y-88846842D01*
X139715000Y-89133740D01*
X139715000Y-89426260D01*
X139772068Y-89713158D01*
X139884010Y-89983411D01*
X140046525Y-90226632D01*
X140253368Y-90433475D01*
X140435534Y-90555195D01*
X140318645Y-90624822D01*
X140102412Y-90819731D01*
X139928359Y-91053080D01*
X139803175Y-91315901D01*
X139758524Y-91463110D01*
X139879845Y-91693000D01*
X141073000Y-91693000D01*
X141073000Y-91673000D01*
X141327000Y-91673000D01*
X141327000Y-91693000D01*
X141347000Y-91693000D01*
X141347000Y-91947000D01*
X141327000Y-91947000D01*
X141327000Y-93140814D01*
X141556891Y-93261481D01*
X141831252Y-93164157D01*
X142081355Y-93015178D01*
X142277502Y-92838374D01*
X142300498Y-92914180D01*
X142359463Y-93024494D01*
X142438815Y-93121185D01*
X142535506Y-93200537D01*
X142645820Y-93259502D01*
X142765518Y-93295812D01*
X142890000Y-93308072D01*
X144590000Y-93308072D01*
X144714482Y-93295812D01*
X144834180Y-93259502D01*
X144944494Y-93200537D01*
X145041185Y-93121185D01*
X145120537Y-93024494D01*
X145179502Y-92914180D01*
X145215812Y-92794482D01*
X145228072Y-92670000D01*
X145228072Y-90970000D01*
X145215812Y-90845518D01*
X145179502Y-90725820D01*
X145120537Y-90615506D01*
X145041185Y-90518815D01*
X145027899Y-90507911D01*
X156665000Y-90507911D01*
X156665000Y-90692089D01*
X156700932Y-90872729D01*
X156771414Y-91042889D01*
X156873738Y-91196028D01*
X157003972Y-91326262D01*
X157157111Y-91428586D01*
X157327271Y-91499068D01*
X157507911Y-91535000D01*
X157692089Y-91535000D01*
X157872729Y-91499068D01*
X158042889Y-91428586D01*
X158196028Y-91326262D01*
X158326262Y-91196028D01*
X158428586Y-91042889D01*
X158499068Y-90872729D01*
X158535000Y-90692089D01*
X158535000Y-90507911D01*
X158499068Y-90327271D01*
X158428586Y-90157111D01*
X158326262Y-90003972D01*
X158196028Y-89873738D01*
X158042889Y-89771414D01*
X157872729Y-89700932D01*
X157692089Y-89665000D01*
X157507911Y-89665000D01*
X157327271Y-89700932D01*
X157157111Y-89771414D01*
X157003972Y-89873738D01*
X156873738Y-90003972D01*
X156771414Y-90157111D01*
X156700932Y-90327271D01*
X156665000Y-90507911D01*
X145027899Y-90507911D01*
X144944494Y-90439463D01*
X144834180Y-90380498D01*
X144761620Y-90358487D01*
X144893475Y-90226632D01*
X145055990Y-89983411D01*
X145167932Y-89713158D01*
X145225000Y-89426260D01*
X145225000Y-89133740D01*
X145167932Y-88846842D01*
X145055990Y-88576589D01*
X144893475Y-88333368D01*
X144686632Y-88126525D01*
X144512240Y-88010000D01*
X144686632Y-87893475D01*
X144893475Y-87686632D01*
X145055990Y-87443411D01*
X145167932Y-87173158D01*
X145225000Y-86886260D01*
X145225000Y-86593740D01*
X145167932Y-86306842D01*
X145055990Y-86036589D01*
X144893475Y-85793368D01*
X144686632Y-85586525D01*
X144512240Y-85470000D01*
X144686632Y-85353475D01*
X144893475Y-85146632D01*
X145055990Y-84903411D01*
X145167932Y-84633158D01*
X145225000Y-84346260D01*
X145225000Y-84053740D01*
X145167932Y-83766842D01*
X145055990Y-83496589D01*
X144893475Y-83253368D01*
X144686632Y-83046525D01*
X144512240Y-82930000D01*
X144686632Y-82813475D01*
X144893475Y-82606632D01*
X145055990Y-82363411D01*
X145167932Y-82093158D01*
X145225000Y-81806260D01*
X145225000Y-81513740D01*
X145167932Y-81226842D01*
X145055990Y-80956589D01*
X144893475Y-80713368D01*
X144686632Y-80506525D01*
X144512240Y-80390000D01*
X144686632Y-80273475D01*
X144893475Y-80066632D01*
X145055990Y-79823411D01*
X145167932Y-79553158D01*
X145225000Y-79266260D01*
X145225000Y-78973740D01*
X145167932Y-78686842D01*
X145055990Y-78416589D01*
X145050192Y-78407911D01*
X159765000Y-78407911D01*
X159765000Y-78592089D01*
X159800932Y-78772729D01*
X159871414Y-78942889D01*
X159973738Y-79096028D01*
X160103972Y-79226262D01*
X160257111Y-79328586D01*
X160427271Y-79399068D01*
X160607911Y-79435000D01*
X160792089Y-79435000D01*
X160972729Y-79399068D01*
X161142889Y-79328586D01*
X161296028Y-79226262D01*
X161426262Y-79096028D01*
X161528586Y-78942889D01*
X161599068Y-78772729D01*
X161635000Y-78592089D01*
X161635000Y-78407911D01*
X161599068Y-78227271D01*
X161528586Y-78057111D01*
X161426262Y-77903972D01*
X161296028Y-77773738D01*
X161142889Y-77671414D01*
X160972729Y-77600932D01*
X160792089Y-77565000D01*
X160607911Y-77565000D01*
X160427271Y-77600932D01*
X160257111Y-77671414D01*
X160103972Y-77773738D01*
X159973738Y-77903972D01*
X159871414Y-78057111D01*
X159800932Y-78227271D01*
X159765000Y-78407911D01*
X145050192Y-78407911D01*
X144893475Y-78173368D01*
X144686632Y-77966525D01*
X144443411Y-77804010D01*
X144173158Y-77692068D01*
X143886260Y-77635000D01*
X143593740Y-77635000D01*
X143306842Y-77692068D01*
X143036589Y-77804010D01*
X142793368Y-77966525D01*
X142586525Y-78173368D01*
X142470000Y-78347760D01*
X142353475Y-78173368D01*
X142146632Y-77966525D01*
X141903411Y-77804010D01*
X141633158Y-77692068D01*
X141346260Y-77635000D01*
X141053740Y-77635000D01*
X140766842Y-77692068D01*
X140496589Y-77804010D01*
X140253368Y-77966525D01*
X140046525Y-78173368D01*
X139884010Y-78416589D01*
X139772068Y-78686842D01*
X139715000Y-78973740D01*
X115228203Y-78973740D01*
X115199068Y-78827271D01*
X115128586Y-78657111D01*
X115026262Y-78503972D01*
X114896028Y-78373738D01*
X114742889Y-78271414D01*
X114572729Y-78200932D01*
X114392089Y-78165000D01*
X114207911Y-78165000D01*
X114027271Y-78200932D01*
X113857111Y-78271414D01*
X113703972Y-78373738D01*
X113573738Y-78503972D01*
X113471414Y-78657111D01*
X113400932Y-78827271D01*
X113365000Y-79007911D01*
X65660000Y-79007911D01*
X65660000Y-77407911D01*
X126165000Y-77407911D01*
X126165000Y-77592089D01*
X126200932Y-77772729D01*
X126271414Y-77942889D01*
X126373738Y-78096028D01*
X126503972Y-78226262D01*
X126657111Y-78328586D01*
X126827271Y-78399068D01*
X127007911Y-78435000D01*
X127192089Y-78435000D01*
X127372729Y-78399068D01*
X127542889Y-78328586D01*
X127696028Y-78226262D01*
X127826262Y-78096028D01*
X127928586Y-77942889D01*
X127999068Y-77772729D01*
X128035000Y-77592089D01*
X128035000Y-77407911D01*
X127999068Y-77227271D01*
X127928586Y-77057111D01*
X127826262Y-76903972D01*
X127696028Y-76773738D01*
X127542889Y-76671414D01*
X127372729Y-76600932D01*
X127192089Y-76565000D01*
X127007911Y-76565000D01*
X126827271Y-76600932D01*
X126657111Y-76671414D01*
X126503972Y-76773738D01*
X126373738Y-76903972D01*
X126271414Y-77057111D01*
X126200932Y-77227271D01*
X126165000Y-77407911D01*
X65660000Y-77407911D01*
X65660000Y-68150000D01*
X152711928Y-68150000D01*
X152711928Y-69850000D01*
X152724188Y-69974482D01*
X152760498Y-70094180D01*
X152819463Y-70204494D01*
X152898815Y-70301185D01*
X152995506Y-70380537D01*
X153105820Y-70439502D01*
X153225518Y-70475812D01*
X153350000Y-70488072D01*
X155050000Y-70488072D01*
X155174482Y-70475812D01*
X155294180Y-70439502D01*
X155404494Y-70380537D01*
X155501185Y-70301185D01*
X155580537Y-70204494D01*
X155639502Y-70094180D01*
X155661513Y-70021620D01*
X155793368Y-70153475D01*
X156036589Y-70315990D01*
X156306842Y-70427932D01*
X156593740Y-70485000D01*
X156886260Y-70485000D01*
X157173158Y-70427932D01*
X157443411Y-70315990D01*
X157686632Y-70153475D01*
X157893475Y-69946632D01*
X158055990Y-69703411D01*
X158167932Y-69433158D01*
X158225000Y-69146260D01*
X158225000Y-68853740D01*
X158167932Y-68566842D01*
X158055990Y-68296589D01*
X157893475Y-68053368D01*
X157686632Y-67846525D01*
X157443411Y-67684010D01*
X157173158Y-67572068D01*
X156886260Y-67515000D01*
X156593740Y-67515000D01*
X156306842Y-67572068D01*
X156036589Y-67684010D01*
X155793368Y-67846525D01*
X155661513Y-67978380D01*
X155639502Y-67905820D01*
X155580537Y-67795506D01*
X155501185Y-67698815D01*
X155404494Y-67619463D01*
X155294180Y-67560498D01*
X155174482Y-67524188D01*
X155050000Y-67511928D01*
X153350000Y-67511928D01*
X153225518Y-67524188D01*
X153105820Y-67560498D01*
X152995506Y-67619463D01*
X152898815Y-67698815D01*
X152819463Y-67795506D01*
X152760498Y-67905820D01*
X152724188Y-68025518D01*
X152711928Y-68150000D01*
X65660000Y-68150000D01*
X65660000Y-59882911D01*
X88590000Y-59882911D01*
X88590000Y-60067089D01*
X88625932Y-60247729D01*
X88696414Y-60417889D01*
X88798738Y-60571028D01*
X88928972Y-60701262D01*
X89082111Y-60803586D01*
X89252271Y-60874068D01*
X89432911Y-60910000D01*
X89617089Y-60910000D01*
X89797729Y-60874068D01*
X89967889Y-60803586D01*
X90121028Y-60701262D01*
X90251262Y-60571028D01*
X90353586Y-60417889D01*
X90424068Y-60247729D01*
X90460000Y-60067089D01*
X90460000Y-59882911D01*
X90424068Y-59702271D01*
X90353586Y-59532111D01*
X90251262Y-59378972D01*
X90121028Y-59248738D01*
X89967889Y-59146414D01*
X89797729Y-59075932D01*
X89617089Y-59040000D01*
X89432911Y-59040000D01*
X89252271Y-59075932D01*
X89082111Y-59146414D01*
X88928972Y-59248738D01*
X88798738Y-59378972D01*
X88696414Y-59532111D01*
X88625932Y-59702271D01*
X88590000Y-59882911D01*
X65660000Y-59882911D01*
X65660000Y-57913740D01*
X109755000Y-57913740D01*
X109755000Y-58206260D01*
X109812068Y-58493158D01*
X109924010Y-58763411D01*
X110086525Y-59006632D01*
X110293368Y-59213475D01*
X110467760Y-59330000D01*
X110293368Y-59446525D01*
X110086525Y-59653368D01*
X109924010Y-59896589D01*
X109812068Y-60166842D01*
X109755000Y-60453740D01*
X109755000Y-60746260D01*
X109812068Y-61033158D01*
X109924010Y-61303411D01*
X110086525Y-61546632D01*
X110293368Y-61753475D01*
X110536589Y-61915990D01*
X110806842Y-62027932D01*
X111093740Y-62085000D01*
X111386260Y-62085000D01*
X111673158Y-62027932D01*
X111943411Y-61915990D01*
X112186632Y-61753475D01*
X112393475Y-61546632D01*
X112510000Y-61372240D01*
X112626525Y-61546632D01*
X112833368Y-61753475D01*
X113076589Y-61915990D01*
X113346842Y-62027932D01*
X113633740Y-62085000D01*
X113926260Y-62085000D01*
X114213158Y-62027932D01*
X114483411Y-61915990D01*
X114726632Y-61753475D01*
X114933475Y-61546632D01*
X115050000Y-61372240D01*
X115166525Y-61546632D01*
X115373368Y-61753475D01*
X115616589Y-61915990D01*
X115886842Y-62027932D01*
X116173740Y-62085000D01*
X116466260Y-62085000D01*
X116753158Y-62027932D01*
X117023411Y-61915990D01*
X117266632Y-61753475D01*
X117473475Y-61546632D01*
X117590000Y-61372240D01*
X117706525Y-61546632D01*
X117913368Y-61753475D01*
X117946948Y-61775912D01*
X117892089Y-61765000D01*
X117707911Y-61765000D01*
X117527271Y-61800932D01*
X117357111Y-61871414D01*
X117203972Y-61973738D01*
X117073738Y-62103972D01*
X116971414Y-62257111D01*
X116900932Y-62427271D01*
X116865000Y-62607911D01*
X116865000Y-62792089D01*
X116900932Y-62972729D01*
X116971414Y-63142889D01*
X117073738Y-63296028D01*
X117203972Y-63426262D01*
X117357111Y-63528586D01*
X117527271Y-63599068D01*
X117707911Y-63635000D01*
X117892089Y-63635000D01*
X118072729Y-63599068D01*
X118242889Y-63528586D01*
X118396028Y-63426262D01*
X118526262Y-63296028D01*
X118628586Y-63142889D01*
X118699068Y-62972729D01*
X118735000Y-62792089D01*
X118735000Y-62607911D01*
X118699068Y-62427271D01*
X118628586Y-62257111D01*
X118526262Y-62103972D01*
X118456027Y-62033737D01*
X118713740Y-62085000D01*
X119006260Y-62085000D01*
X119293158Y-62027932D01*
X119563411Y-61915990D01*
X119806632Y-61753475D01*
X120013475Y-61546632D01*
X120135195Y-61364466D01*
X120204822Y-61481355D01*
X120399731Y-61697588D01*
X120633080Y-61871641D01*
X120895901Y-61996825D01*
X121043110Y-62041476D01*
X121273000Y-61920155D01*
X121273000Y-60727000D01*
X121527000Y-60727000D01*
X121527000Y-61920155D01*
X121756890Y-62041476D01*
X121904099Y-61996825D01*
X122166920Y-61871641D01*
X122400269Y-61697588D01*
X122595178Y-61481355D01*
X122744157Y-61231252D01*
X122841481Y-60956891D01*
X122720814Y-60727000D01*
X121527000Y-60727000D01*
X121273000Y-60727000D01*
X121253000Y-60727000D01*
X121253000Y-60473000D01*
X121273000Y-60473000D01*
X121273000Y-60453000D01*
X121527000Y-60453000D01*
X121527000Y-60473000D01*
X122720814Y-60473000D01*
X122841481Y-60243109D01*
X122744157Y-59968748D01*
X122595178Y-59718645D01*
X122418374Y-59522498D01*
X122494180Y-59499502D01*
X122604494Y-59440537D01*
X122701185Y-59361185D01*
X122780537Y-59264494D01*
X122839502Y-59154180D01*
X122869970Y-59053740D01*
X132875000Y-59053740D01*
X132875000Y-59346260D01*
X132932068Y-59633158D01*
X133044010Y-59903411D01*
X133206525Y-60146632D01*
X133413368Y-60353475D01*
X133656589Y-60515990D01*
X133926842Y-60627932D01*
X134213740Y-60685000D01*
X134506260Y-60685000D01*
X134793158Y-60627932D01*
X135063411Y-60515990D01*
X135306632Y-60353475D01*
X135438487Y-60221620D01*
X135460498Y-60294180D01*
X135519463Y-60404494D01*
X135598815Y-60501185D01*
X135695506Y-60580537D01*
X135805820Y-60639502D01*
X135925518Y-60675812D01*
X136050000Y-60688072D01*
X136614250Y-60685000D01*
X136773000Y-60526250D01*
X136773000Y-59327000D01*
X137027000Y-59327000D01*
X137027000Y-60526250D01*
X137185750Y-60685000D01*
X137750000Y-60688072D01*
X137874482Y-60675812D01*
X137994180Y-60639502D01*
X138104494Y-60580537D01*
X138201185Y-60501185D01*
X138280537Y-60404494D01*
X138339502Y-60294180D01*
X138375812Y-60174482D01*
X138388072Y-60050000D01*
X138385388Y-59556891D01*
X143318519Y-59556891D01*
X143415843Y-59831252D01*
X143564822Y-60081355D01*
X143759731Y-60297588D01*
X143993080Y-60471641D01*
X144255901Y-60596825D01*
X144403110Y-60641476D01*
X144633000Y-60520155D01*
X144633000Y-59327000D01*
X143439186Y-59327000D01*
X143318519Y-59556891D01*
X138385388Y-59556891D01*
X138385000Y-59485750D01*
X138226250Y-59327000D01*
X137027000Y-59327000D01*
X136773000Y-59327000D01*
X136753000Y-59327000D01*
X136753000Y-59073000D01*
X136773000Y-59073000D01*
X136773000Y-57873750D01*
X137027000Y-57873750D01*
X137027000Y-59073000D01*
X138226250Y-59073000D01*
X138385000Y-58914250D01*
X138385387Y-58843109D01*
X143318519Y-58843109D01*
X143439186Y-59073000D01*
X144633000Y-59073000D01*
X144633000Y-57879845D01*
X144887000Y-57879845D01*
X144887000Y-59073000D01*
X144907000Y-59073000D01*
X144907000Y-59327000D01*
X144887000Y-59327000D01*
X144887000Y-60520155D01*
X145116890Y-60641476D01*
X145264099Y-60596825D01*
X145526920Y-60471641D01*
X145760269Y-60297588D01*
X145836034Y-60213534D01*
X145860498Y-60294180D01*
X145919463Y-60404494D01*
X145998815Y-60501185D01*
X146095506Y-60580537D01*
X146205820Y-60639502D01*
X146325518Y-60675812D01*
X146450000Y-60688072D01*
X148150000Y-60688072D01*
X148274482Y-60675812D01*
X148394180Y-60639502D01*
X148504494Y-60580537D01*
X148601185Y-60501185D01*
X148680537Y-60404494D01*
X148739502Y-60294180D01*
X148775812Y-60174482D01*
X148788072Y-60050000D01*
X148788072Y-59743213D01*
X161180565Y-59743213D01*
X161251454Y-59944420D01*
X161366521Y-60123874D01*
X161514387Y-60277431D01*
X161689369Y-60399190D01*
X161884743Y-60484472D01*
X162093000Y-60530000D01*
X162423000Y-60530000D01*
X162423000Y-59577000D01*
X161307546Y-59577000D01*
X161180565Y-59743213D01*
X148788072Y-59743213D01*
X148788072Y-58751131D01*
X158748770Y-58751131D01*
X158799414Y-58963066D01*
X158890431Y-59161049D01*
X159018324Y-59337471D01*
X159178178Y-59485553D01*
X159363850Y-59599603D01*
X159552062Y-59669268D01*
X159723000Y-59542734D01*
X159723000Y-58577000D01*
X159977000Y-58577000D01*
X159977000Y-59542734D01*
X160147938Y-59669268D01*
X160336150Y-59599603D01*
X160521822Y-59485553D01*
X160681676Y-59337471D01*
X160809569Y-59161049D01*
X160811528Y-59156787D01*
X161180565Y-59156787D01*
X161307546Y-59323000D01*
X162423000Y-59323000D01*
X162423000Y-58370000D01*
X162093000Y-58370000D01*
X161884743Y-58415528D01*
X161689369Y-58500810D01*
X161514387Y-58622569D01*
X161366521Y-58776126D01*
X161251454Y-58955580D01*
X161180565Y-59156787D01*
X160811528Y-59156787D01*
X160900586Y-58963066D01*
X160951230Y-58751131D01*
X160802564Y-58577000D01*
X159977000Y-58577000D01*
X159723000Y-58577000D01*
X158897436Y-58577000D01*
X158748770Y-58751131D01*
X148788072Y-58751131D01*
X148788072Y-58350000D01*
X148775812Y-58225518D01*
X148752561Y-58148869D01*
X158748770Y-58148869D01*
X158897436Y-58323000D01*
X159723000Y-58323000D01*
X159723000Y-57357266D01*
X159977000Y-57357266D01*
X159977000Y-58323000D01*
X160802564Y-58323000D01*
X160951230Y-58148869D01*
X160900586Y-57936934D01*
X160809569Y-57738951D01*
X160681676Y-57562529D01*
X160521822Y-57414447D01*
X160336150Y-57300397D01*
X160147938Y-57230732D01*
X159977000Y-57357266D01*
X159723000Y-57357266D01*
X159552062Y-57230732D01*
X159363850Y-57300397D01*
X159178178Y-57414447D01*
X159018324Y-57562529D01*
X158890431Y-57738951D01*
X158799414Y-57936934D01*
X158748770Y-58148869D01*
X148752561Y-58148869D01*
X148739502Y-58105820D01*
X148680537Y-57995506D01*
X148601185Y-57898815D01*
X148504494Y-57819463D01*
X148394180Y-57760498D01*
X148274482Y-57724188D01*
X148150000Y-57711928D01*
X146450000Y-57711928D01*
X146325518Y-57724188D01*
X146205820Y-57760498D01*
X146095506Y-57819463D01*
X145998815Y-57898815D01*
X145919463Y-57995506D01*
X145860498Y-58105820D01*
X145836034Y-58186466D01*
X145760269Y-58102412D01*
X145526920Y-57928359D01*
X145264099Y-57803175D01*
X145116890Y-57758524D01*
X144887000Y-57879845D01*
X144633000Y-57879845D01*
X144403110Y-57758524D01*
X144255901Y-57803175D01*
X143993080Y-57928359D01*
X143759731Y-58102412D01*
X143564822Y-58318645D01*
X143415843Y-58568748D01*
X143318519Y-58843109D01*
X138385387Y-58843109D01*
X138388072Y-58350000D01*
X138375812Y-58225518D01*
X138339502Y-58105820D01*
X138280537Y-57995506D01*
X138201185Y-57898815D01*
X138104494Y-57819463D01*
X137994180Y-57760498D01*
X137874482Y-57724188D01*
X137750000Y-57711928D01*
X137185750Y-57715000D01*
X137027000Y-57873750D01*
X136773000Y-57873750D01*
X136614250Y-57715000D01*
X136050000Y-57711928D01*
X135925518Y-57724188D01*
X135805820Y-57760498D01*
X135695506Y-57819463D01*
X135598815Y-57898815D01*
X135519463Y-57995506D01*
X135460498Y-58105820D01*
X135438487Y-58178380D01*
X135306632Y-58046525D01*
X135063411Y-57884010D01*
X134793158Y-57772068D01*
X134506260Y-57715000D01*
X134213740Y-57715000D01*
X133926842Y-57772068D01*
X133656589Y-57884010D01*
X133413368Y-58046525D01*
X133206525Y-58253368D01*
X133044010Y-58496589D01*
X132932068Y-58766842D01*
X132875000Y-59053740D01*
X122869970Y-59053740D01*
X122875812Y-59034482D01*
X122888072Y-58910000D01*
X122888072Y-57210000D01*
X122875812Y-57085518D01*
X122839502Y-56965820D01*
X122780537Y-56855506D01*
X122701185Y-56758815D01*
X122604494Y-56679463D01*
X122494180Y-56620498D01*
X122374482Y-56584188D01*
X122250000Y-56571928D01*
X120550000Y-56571928D01*
X120425518Y-56584188D01*
X120305820Y-56620498D01*
X120195506Y-56679463D01*
X120098815Y-56758815D01*
X120019463Y-56855506D01*
X119960498Y-56965820D01*
X119938487Y-57038380D01*
X119806632Y-56906525D01*
X119563411Y-56744010D01*
X119293158Y-56632068D01*
X119006260Y-56575000D01*
X118713740Y-56575000D01*
X118426842Y-56632068D01*
X118156589Y-56744010D01*
X117913368Y-56906525D01*
X117706525Y-57113368D01*
X117590000Y-57287760D01*
X117473475Y-57113368D01*
X117266632Y-56906525D01*
X117023411Y-56744010D01*
X116753158Y-56632068D01*
X116466260Y-56575000D01*
X116173740Y-56575000D01*
X115886842Y-56632068D01*
X115616589Y-56744010D01*
X115373368Y-56906525D01*
X115166525Y-57113368D01*
X115050000Y-57287760D01*
X114933475Y-57113368D01*
X114726632Y-56906525D01*
X114483411Y-56744010D01*
X114213158Y-56632068D01*
X113926260Y-56575000D01*
X113633740Y-56575000D01*
X113346842Y-56632068D01*
X113076589Y-56744010D01*
X112833368Y-56906525D01*
X112626525Y-57113368D01*
X112510000Y-57287760D01*
X112393475Y-57113368D01*
X112186632Y-56906525D01*
X111943411Y-56744010D01*
X111673158Y-56632068D01*
X111386260Y-56575000D01*
X111093740Y-56575000D01*
X110806842Y-56632068D01*
X110536589Y-56744010D01*
X110293368Y-56906525D01*
X110086525Y-57113368D01*
X109924010Y-57356589D01*
X109812068Y-57626842D01*
X109755000Y-57913740D01*
X65660000Y-57913740D01*
X65660000Y-53093137D01*
X69315000Y-53093137D01*
X69315000Y-53306863D01*
X69356696Y-53516483D01*
X69438485Y-53713940D01*
X69557225Y-53891647D01*
X69708353Y-54042775D01*
X69886060Y-54161515D01*
X70083517Y-54243304D01*
X70293137Y-54285000D01*
X70506863Y-54285000D01*
X70716483Y-54243304D01*
X70913940Y-54161515D01*
X71091647Y-54042775D01*
X71242775Y-53891647D01*
X71361515Y-53713940D01*
X71400255Y-53620411D01*
X98552500Y-53620411D01*
X98552500Y-53804589D01*
X98588432Y-53985229D01*
X98658914Y-54155389D01*
X98761238Y-54308528D01*
X98891472Y-54438762D01*
X99044611Y-54541086D01*
X99214771Y-54611568D01*
X99395411Y-54647500D01*
X99579589Y-54647500D01*
X99760229Y-54611568D01*
X99930389Y-54541086D01*
X100083528Y-54438762D01*
X100213762Y-54308528D01*
X100316086Y-54155389D01*
X100386568Y-53985229D01*
X100422500Y-53804589D01*
X100422500Y-53751131D01*
X158748770Y-53751131D01*
X158799414Y-53963066D01*
X158890431Y-54161049D01*
X159018324Y-54337471D01*
X159178178Y-54485553D01*
X159363850Y-54599603D01*
X159552062Y-54669268D01*
X159723000Y-54542734D01*
X159723000Y-53577000D01*
X159977000Y-53577000D01*
X159977000Y-54542734D01*
X160147938Y-54669268D01*
X160336150Y-54599603D01*
X160521822Y-54485553D01*
X160681676Y-54337471D01*
X160809569Y-54161049D01*
X160900586Y-53963066D01*
X160951230Y-53751131D01*
X160802564Y-53577000D01*
X159977000Y-53577000D01*
X159723000Y-53577000D01*
X158897436Y-53577000D01*
X158748770Y-53751131D01*
X100422500Y-53751131D01*
X100422500Y-53620411D01*
X100386568Y-53439771D01*
X100316086Y-53269611D01*
X100235409Y-53148869D01*
X158748770Y-53148869D01*
X158897436Y-53323000D01*
X159723000Y-53323000D01*
X159723000Y-52357266D01*
X159977000Y-52357266D01*
X159977000Y-53323000D01*
X160802564Y-53323000D01*
X160951230Y-53148869D01*
X160900586Y-52936934D01*
X160811529Y-52743213D01*
X161180565Y-52743213D01*
X161251454Y-52944420D01*
X161366521Y-53123874D01*
X161514387Y-53277431D01*
X161689369Y-53399190D01*
X161884743Y-53484472D01*
X162093000Y-53530000D01*
X162423000Y-53530000D01*
X162423000Y-52577000D01*
X161307546Y-52577000D01*
X161180565Y-52743213D01*
X160811529Y-52743213D01*
X160809569Y-52738951D01*
X160681676Y-52562529D01*
X160521822Y-52414447D01*
X160336150Y-52300397D01*
X160147938Y-52230732D01*
X159977000Y-52357266D01*
X159723000Y-52357266D01*
X159552062Y-52230732D01*
X159363850Y-52300397D01*
X159178178Y-52414447D01*
X159018324Y-52562529D01*
X158890431Y-52738951D01*
X158799414Y-52936934D01*
X158748770Y-53148869D01*
X100235409Y-53148869D01*
X100213762Y-53116472D01*
X100083528Y-52986238D01*
X99930389Y-52883914D01*
X99760229Y-52813432D01*
X99579589Y-52777500D01*
X99395411Y-52777500D01*
X99214771Y-52813432D01*
X99044611Y-52883914D01*
X98891472Y-52986238D01*
X98761238Y-53116472D01*
X98658914Y-53269611D01*
X98588432Y-53439771D01*
X98552500Y-53620411D01*
X71400255Y-53620411D01*
X71443304Y-53516483D01*
X71485000Y-53306863D01*
X71485000Y-53093137D01*
X71443304Y-52883517D01*
X71361515Y-52686060D01*
X71242775Y-52508353D01*
X71091647Y-52357225D01*
X70913940Y-52238485D01*
X70716703Y-52156787D01*
X161180565Y-52156787D01*
X161307546Y-52323000D01*
X162423000Y-52323000D01*
X162423000Y-51370000D01*
X162093000Y-51370000D01*
X161884743Y-51415528D01*
X161689369Y-51500810D01*
X161514387Y-51622569D01*
X161366521Y-51776126D01*
X161251454Y-51955580D01*
X161180565Y-52156787D01*
X70716703Y-52156787D01*
X70716483Y-52156696D01*
X70506863Y-52115000D01*
X70293137Y-52115000D01*
X70083517Y-52156696D01*
X69886060Y-52238485D01*
X69708353Y-52357225D01*
X69557225Y-52508353D01*
X69438485Y-52686060D01*
X69356696Y-52883517D01*
X69315000Y-53093137D01*
X65660000Y-53093137D01*
X65660000Y-50582911D01*
X77290000Y-50582911D01*
X77290000Y-50767089D01*
X77325932Y-50947729D01*
X77396414Y-51117889D01*
X77498738Y-51271028D01*
X77628972Y-51401262D01*
X77782111Y-51503586D01*
X77952271Y-51574068D01*
X78132911Y-51610000D01*
X78317089Y-51610000D01*
X78497729Y-51574068D01*
X78667889Y-51503586D01*
X78821028Y-51401262D01*
X78951262Y-51271028D01*
X79053586Y-51117889D01*
X79124068Y-50947729D01*
X79160000Y-50767089D01*
X79160000Y-50582911D01*
X79124068Y-50402271D01*
X79053586Y-50232111D01*
X78951262Y-50078972D01*
X78880201Y-50007911D01*
X89465000Y-50007911D01*
X89465000Y-50192089D01*
X89500932Y-50372729D01*
X89571414Y-50542889D01*
X89673738Y-50696028D01*
X89803972Y-50826262D01*
X89957111Y-50928586D01*
X90127271Y-50999068D01*
X90307911Y-51035000D01*
X90492089Y-51035000D01*
X90672729Y-50999068D01*
X90842889Y-50928586D01*
X90996028Y-50826262D01*
X91126262Y-50696028D01*
X91228586Y-50542889D01*
X91299068Y-50372729D01*
X91335000Y-50192089D01*
X91335000Y-50007911D01*
X91299068Y-49827271D01*
X91228586Y-49657111D01*
X91126262Y-49503972D01*
X90996028Y-49373738D01*
X90842889Y-49271414D01*
X90672729Y-49200932D01*
X90492089Y-49165000D01*
X90307911Y-49165000D01*
X90127271Y-49200932D01*
X89957111Y-49271414D01*
X89803972Y-49373738D01*
X89673738Y-49503972D01*
X89571414Y-49657111D01*
X89500932Y-49827271D01*
X89465000Y-50007911D01*
X78880201Y-50007911D01*
X78821028Y-49948738D01*
X78667889Y-49846414D01*
X78497729Y-49775932D01*
X78317089Y-49740000D01*
X78132911Y-49740000D01*
X77952271Y-49775932D01*
X77782111Y-49846414D01*
X77628972Y-49948738D01*
X77498738Y-50078972D01*
X77396414Y-50232111D01*
X77325932Y-50402271D01*
X77290000Y-50582911D01*
X65660000Y-50582911D01*
X65660000Y-48693137D01*
X69315000Y-48693137D01*
X69315000Y-48906863D01*
X69356696Y-49116483D01*
X69438485Y-49313940D01*
X69557225Y-49491647D01*
X69708353Y-49642775D01*
X69886060Y-49761515D01*
X70083517Y-49843304D01*
X70293137Y-49885000D01*
X70506863Y-49885000D01*
X70716483Y-49843304D01*
X70913940Y-49761515D01*
X71091647Y-49642775D01*
X71242775Y-49491647D01*
X71361515Y-49313940D01*
X71443304Y-49116483D01*
X71485000Y-48906863D01*
X71485000Y-48693137D01*
X71443304Y-48483517D01*
X71361515Y-48286060D01*
X71242775Y-48108353D01*
X71091647Y-47957225D01*
X70913940Y-47838485D01*
X70716483Y-47756696D01*
X70506863Y-47715000D01*
X70293137Y-47715000D01*
X70083517Y-47756696D01*
X69886060Y-47838485D01*
X69708353Y-47957225D01*
X69557225Y-48108353D01*
X69438485Y-48286060D01*
X69356696Y-48483517D01*
X69315000Y-48693137D01*
X65660000Y-48693137D01*
X65660000Y-47207911D01*
X94365000Y-47207911D01*
X94365000Y-47392089D01*
X94400932Y-47572729D01*
X94471414Y-47742889D01*
X94573738Y-47896028D01*
X94703972Y-48026262D01*
X94857111Y-48128586D01*
X95027271Y-48199068D01*
X95207911Y-48235000D01*
X95392089Y-48235000D01*
X95572729Y-48199068D01*
X95742889Y-48128586D01*
X95896028Y-48026262D01*
X96026262Y-47896028D01*
X96128586Y-47742889D01*
X96199068Y-47572729D01*
X96235000Y-47392089D01*
X96235000Y-47207911D01*
X96199068Y-47027271D01*
X96128586Y-46857111D01*
X96026262Y-46703972D01*
X95896028Y-46573738D01*
X95742889Y-46471414D01*
X95572729Y-46400932D01*
X95392089Y-46365000D01*
X95207911Y-46365000D01*
X95027271Y-46400932D01*
X94857111Y-46471414D01*
X94703972Y-46573738D01*
X94573738Y-46703972D01*
X94471414Y-46857111D01*
X94400932Y-47027271D01*
X94365000Y-47207911D01*
X65660000Y-47207911D01*
X65660000Y-45257911D01*
X81215000Y-45257911D01*
X81215000Y-45442089D01*
X81250932Y-45622729D01*
X81321414Y-45792889D01*
X81423738Y-45946028D01*
X81553972Y-46076262D01*
X81707111Y-46178586D01*
X81877271Y-46249068D01*
X82057911Y-46285000D01*
X82242089Y-46285000D01*
X82422729Y-46249068D01*
X82592889Y-46178586D01*
X82746028Y-46076262D01*
X82876262Y-45946028D01*
X82978586Y-45792889D01*
X83049068Y-45622729D01*
X83085000Y-45442089D01*
X83085000Y-45257911D01*
X83049068Y-45077271D01*
X82978586Y-44907111D01*
X82876262Y-44753972D01*
X82746028Y-44623738D01*
X82592889Y-44521414D01*
X82422729Y-44450932D01*
X82242089Y-44415000D01*
X82057911Y-44415000D01*
X81877271Y-44450932D01*
X81707111Y-44521414D01*
X81553972Y-44623738D01*
X81423738Y-44753972D01*
X81321414Y-44907111D01*
X81250932Y-45077271D01*
X81215000Y-45257911D01*
X65660000Y-45257911D01*
X65660000Y-45029392D01*
X65731173Y-44231917D01*
X65901881Y-43607911D01*
X142065000Y-43607911D01*
X142065000Y-43792089D01*
X142100932Y-43972729D01*
X142171414Y-44142889D01*
X142273738Y-44296028D01*
X142403972Y-44426262D01*
X142557111Y-44528586D01*
X142727271Y-44599068D01*
X142907911Y-44635000D01*
X143092089Y-44635000D01*
X143272729Y-44599068D01*
X143442889Y-44528586D01*
X143596028Y-44426262D01*
X143726262Y-44296028D01*
X143828586Y-44142889D01*
X143899068Y-43972729D01*
X143935000Y-43792089D01*
X143935000Y-43607911D01*
X143899068Y-43427271D01*
X143828586Y-43257111D01*
X143728894Y-43107911D01*
X146365000Y-43107911D01*
X146365000Y-43292089D01*
X146400932Y-43472729D01*
X146471414Y-43642889D01*
X146573738Y-43796028D01*
X146703972Y-43926262D01*
X146857111Y-44028586D01*
X147027271Y-44099068D01*
X147207911Y-44135000D01*
X147392089Y-44135000D01*
X147572729Y-44099068D01*
X147742889Y-44028586D01*
X147896028Y-43926262D01*
X148026262Y-43796028D01*
X148128586Y-43642889D01*
X148199068Y-43472729D01*
X148235000Y-43292089D01*
X148235000Y-43107911D01*
X148199068Y-42927271D01*
X148128586Y-42757111D01*
X148026262Y-42603972D01*
X147896028Y-42473738D01*
X147742889Y-42371414D01*
X147572729Y-42300932D01*
X147392089Y-42265000D01*
X147207911Y-42265000D01*
X147027271Y-42300932D01*
X146857111Y-42371414D01*
X146703972Y-42473738D01*
X146573738Y-42603972D01*
X146471414Y-42757111D01*
X146400932Y-42927271D01*
X146365000Y-43107911D01*
X143728894Y-43107911D01*
X143726262Y-43103972D01*
X143596028Y-42973738D01*
X143442889Y-42871414D01*
X143272729Y-42800932D01*
X143092089Y-42765000D01*
X142907911Y-42765000D01*
X142727271Y-42800932D01*
X142557111Y-42871414D01*
X142403972Y-42973738D01*
X142273738Y-43103972D01*
X142171414Y-43257111D01*
X142100932Y-43427271D01*
X142065000Y-43607911D01*
X65901881Y-43607911D01*
X65934656Y-43488109D01*
X66266638Y-42792095D01*
X66716626Y-42165870D01*
X67270403Y-41629223D01*
X67910451Y-41199129D01*
X68616553Y-40889171D01*
X69371457Y-40707935D01*
X70024207Y-40660000D01*
X159970608Y-40660000D01*
X160768083Y-40731173D01*
G37*
G04 #@! TD.AperFunction*
M02*
