%FSLAX45Y45*%
G04 Gerber Fmt 4.5, Leading zero omitted, Abs format (unit mm)*
G04 Created by KiCad (PCBNEW (5.1.10)-1) date 2022-01-02 12:56:20*
%MOMM*%
%LPD*%
G01*
G04 APERTURE LIST*
%TA.AperFunction,Profile*%
%ADD10C,0.050000*%
%TD*%
%ADD11C,0.200000*%
%ADD12C,0.300000*%
G04 APERTURE END LIST*
D10*
X16500000Y-5100000D02*
X16500000Y-4500000D01*
X16400000Y-5200000D02*
X16400000Y-5990000D01*
X16500000Y-6090000D02*
G75*
G02*
X16400000Y-5990000I0J100000D01*
G01*
X16400000Y-5200000D02*
G75*
G02*
X16500000Y-5100000I100000J0D01*
G01*
X7000000Y-14000000D02*
G75*
G02*
X6500000Y-13500000I0J500000D01*
G01*
X6500000Y-4500000D02*
G75*
G02*
X7000000Y-4000000I500000J0D01*
G01*
X16000000Y-4000000D02*
G75*
G02*
X16500000Y-4500000I0J-500000D01*
G01*
X16500000Y-13500000D02*
G75*
G02*
X16000000Y-14000000I-500000J0D01*
G01*
X6500000Y-4500000D02*
X6500000Y-13500000D01*
X16000000Y-4000000D02*
X7000000Y-4000000D01*
X16500000Y-13500000D02*
X16500000Y-6090000D01*
X7000000Y-14000000D02*
X16000000Y-14000000D01*
D11*
X7005000Y-4645000D02*
X7035000Y-4675000D01*
X7035000Y-4645000D02*
X7005000Y-4675000D01*
X7005000Y-11955000D02*
X7035000Y-11985000D01*
X7035000Y-11955000D02*
X7005000Y-11985000D01*
X7005000Y-12065000D02*
X7035000Y-12095000D01*
X7035000Y-12065000D02*
X7005000Y-12095000D01*
X7235000Y-11335000D02*
X7265000Y-11365000D01*
X7265000Y-11335000D02*
X7235000Y-11365000D01*
X7235000Y-11535000D02*
X7265000Y-11565000D01*
X7265000Y-11535000D02*
X7235000Y-11565000D01*
X7285000Y-5345000D02*
X7315000Y-5375000D01*
X7315000Y-5345000D02*
X7285000Y-5375000D01*
X7807500Y-5052500D02*
X7837500Y-5082500D01*
X7837500Y-5052500D02*
X7807500Y-5082500D01*
X7865000Y-11445000D02*
X7895000Y-11475000D01*
X7895000Y-11445000D02*
X7865000Y-11475000D01*
X7955000Y-4755000D02*
X7985000Y-4785000D01*
X7985000Y-4755000D02*
X7955000Y-4785000D01*
X8135000Y-11815000D02*
X8165000Y-11845000D01*
X8165000Y-11815000D02*
X8135000Y-11845000D01*
X8200000Y-4520000D02*
X8230000Y-4550000D01*
X8230000Y-4520000D02*
X8200000Y-4550000D01*
X8295000Y-5755000D02*
X8325000Y-5785000D01*
X8325000Y-5755000D02*
X8295000Y-5785000D01*
X8335000Y-11815000D02*
X8365000Y-11845000D01*
X8365000Y-11815000D02*
X8335000Y-11845000D01*
X8937500Y-5982500D02*
X8967500Y-6012500D01*
X8967500Y-5982500D02*
X8937500Y-6012500D01*
X9025000Y-4995000D02*
X9055000Y-5025000D01*
X9055000Y-4995000D02*
X9025000Y-5025000D01*
X9212499Y-5835000D02*
X9242499Y-5865000D01*
X9242499Y-5835000D02*
X9212499Y-5865000D01*
X9515000Y-4715000D02*
X9545000Y-4745000D01*
X9545000Y-4715000D02*
X9515000Y-4745000D01*
X9933750Y-5356250D02*
X9963750Y-5386250D01*
X9963750Y-5356250D02*
X9933750Y-5386250D01*
X10155000Y-8525000D02*
X10185000Y-8555000D01*
X10185000Y-8525000D02*
X10155000Y-8555000D01*
X10865000Y-8415000D02*
X10895000Y-8445000D01*
X10895000Y-8415000D02*
X10865000Y-8445000D01*
X11345000Y-8335000D02*
X11375000Y-8365000D01*
X11375000Y-8335000D02*
X11345000Y-8365000D01*
X11412501Y-9040000D02*
X11442501Y-9070000D01*
X11442501Y-9040000D02*
X11412501Y-9070000D01*
X11415000Y-7625000D02*
X11445000Y-7655000D01*
X11445000Y-7625000D02*
X11415000Y-7655000D01*
X11415000Y-7895000D02*
X11445000Y-7925000D01*
X11445000Y-7895000D02*
X11415000Y-7925000D01*
X11415000Y-9295000D02*
X11445000Y-9325000D01*
X11445000Y-9295000D02*
X11415000Y-9325000D01*
X11455000Y-8765000D02*
X11485000Y-8795000D01*
X11485000Y-8765000D02*
X11455000Y-8795000D01*
X11510000Y-8220000D02*
X11540000Y-8250000D01*
X11540000Y-8220000D02*
X11510000Y-8250000D01*
X11535000Y-8675000D02*
X11565000Y-8705000D01*
X11565000Y-8675000D02*
X11535000Y-8705000D01*
X11665000Y-8475000D02*
X11695000Y-8505000D01*
X11695000Y-8475000D02*
X11665000Y-8505000D01*
X11760000Y-8260000D02*
X11790000Y-8290000D01*
X11790000Y-8260000D02*
X11760000Y-8290000D01*
X11765000Y-6255000D02*
X11795000Y-6285000D01*
X11795000Y-6255000D02*
X11765000Y-6285000D01*
X12087000Y-8057000D02*
X12117000Y-8087000D01*
X12117000Y-8057000D02*
X12087000Y-8087000D01*
X12275000Y-8145000D02*
X12305000Y-8175000D01*
X12305000Y-8145000D02*
X12275000Y-8175000D01*
X12695000Y-7735000D02*
X12725000Y-7765000D01*
X12725000Y-7735000D02*
X12695000Y-7765000D01*
X13245000Y-10295000D02*
X13275000Y-10325000D01*
X13275000Y-10295000D02*
X13245000Y-10325000D01*
X13715000Y-9465000D02*
X13745000Y-9495000D01*
X13745000Y-9465000D02*
X13715000Y-9495000D01*
X13735000Y-9645000D02*
X13765000Y-9675000D01*
X13765000Y-9645000D02*
X13735000Y-9675000D01*
X14285000Y-4355000D02*
X14315000Y-4385000D01*
X14315000Y-4355000D02*
X14285000Y-4385000D01*
X14715000Y-4305000D02*
X14745000Y-4335000D01*
X14745000Y-4305000D02*
X14715000Y-4335000D01*
X15715000Y-8245000D02*
X15745000Y-8275000D01*
X15745000Y-8245000D02*
X15715000Y-8275000D01*
X15745000Y-9045000D02*
X15775000Y-9075000D01*
X15775000Y-9045000D02*
X15745000Y-9075000D01*
X15815000Y-7575000D02*
X15845000Y-7605000D01*
X15845000Y-7575000D02*
X15815000Y-7605000D01*
X16055000Y-7835000D02*
X16085000Y-7865000D01*
X16085000Y-7835000D02*
X16055000Y-7865000D01*
X16280000Y-5245000D02*
G75*
G03*
X16280000Y-5245000I-25000J0D01*
G01*
X16222500Y-5260000D02*
X16287500Y-5260000D01*
X16222500Y-5230000D02*
X16287500Y-5230000D01*
X16287500Y-5260000D02*
G75*
G03*
X16287500Y-5230000I0J15000D01*
G01*
X16222500Y-5230000D02*
G75*
G03*
X16222500Y-5260000I0J-15000D01*
G01*
X16280000Y-5945000D02*
G75*
G03*
X16280000Y-5945000I-25000J0D01*
G01*
X16222500Y-5960000D02*
X16287500Y-5960000D01*
X16222500Y-5930000D02*
X16287500Y-5930000D01*
X16287500Y-5960000D02*
G75*
G03*
X16287500Y-5930000I0J15000D01*
G01*
X16222500Y-5930000D02*
G75*
G03*
X16222500Y-5960000I0J-15000D01*
G01*
X15985000Y-5317500D02*
X15985000Y-5372500D01*
X15957500Y-5345000D02*
X16012500Y-5345000D01*
X16002500Y-5360000D02*
X16002500Y-5330000D01*
X15967500Y-5360000D02*
X15967500Y-5330000D01*
X16002500Y-5330000D02*
G75*
G03*
X15967500Y-5330000I-17500J0D01*
G01*
X15967500Y-5360000D02*
G75*
G03*
X16002500Y-5360000I17500J0D01*
G01*
X15985000Y-5817500D02*
X15985000Y-5872500D01*
X15957500Y-5845000D02*
X16012500Y-5845000D01*
X16002500Y-5860000D02*
X16002500Y-5830000D01*
X15967500Y-5860000D02*
X15967500Y-5830000D01*
X16002500Y-5830000D02*
G75*
G03*
X15967500Y-5830000I-17500J0D01*
G01*
X15967500Y-5860000D02*
G75*
G03*
X16002500Y-5860000I17500J0D01*
G01*
X7333284Y-12473284D02*
X7333284Y-12416715D01*
X7276715Y-12416715D01*
X7276715Y-12473284D01*
X7333284Y-12473284D01*
X7175000Y-12475000D02*
X7435000Y-12475000D01*
X7175000Y-12415000D02*
X7435000Y-12415000D01*
X7435000Y-12475000D02*
G75*
G03*
X7435000Y-12415000I0J30000D01*
G01*
X7175000Y-12415000D02*
G75*
G03*
X7175000Y-12475000I0J-30000D01*
G01*
X7333284Y-13053284D02*
X7333284Y-12996715D01*
X7276715Y-12996715D01*
X7276715Y-13053284D01*
X7333284Y-13053284D01*
X7195000Y-13055000D02*
X7415000Y-13055000D01*
X7195000Y-12995000D02*
X7415000Y-12995000D01*
X7415000Y-13055000D02*
G75*
G03*
X7415000Y-12995000I0J30000D01*
G01*
X7195000Y-12995000D02*
G75*
G03*
X7195000Y-13055000I0J-30000D01*
G01*
X7813284Y-12773284D02*
X7813284Y-12716715D01*
X7756715Y-12716715D01*
X7756715Y-12773284D01*
X7813284Y-12773284D01*
X7815000Y-12855000D02*
X7815000Y-12635000D01*
X7755000Y-12855000D02*
X7755000Y-12635000D01*
X7815000Y-12635000D02*
G75*
G03*
X7755000Y-12635000I-30000J0D01*
G01*
X7755000Y-12855000D02*
G75*
G03*
X7815000Y-12855000I30000J0D01*
G01*
X13120000Y-12439500D02*
X13169500Y-12390000D01*
X13120000Y-12340500D01*
X13070500Y-12390000D01*
X13120000Y-12439500D01*
X13120000Y-12889500D02*
X13169500Y-12840000D01*
X13120000Y-12790500D01*
X13070500Y-12840000D01*
X13120000Y-12889500D01*
X13770000Y-12439500D02*
X13819500Y-12390000D01*
X13770000Y-12340500D01*
X13720500Y-12390000D01*
X13770000Y-12439500D01*
X13770000Y-12889500D02*
X13819500Y-12840000D01*
X13770000Y-12790500D01*
X13720500Y-12840000D01*
X13770000Y-12889500D01*
X14630000Y-12439500D02*
X14679500Y-12390000D01*
X14630000Y-12340500D01*
X14580500Y-12390000D01*
X14630000Y-12439500D01*
X14630000Y-12889500D02*
X14679500Y-12840000D01*
X14630000Y-12790500D01*
X14580500Y-12840000D01*
X14630000Y-12889500D01*
X15280000Y-12439500D02*
X15329500Y-12390000D01*
X15280000Y-12340500D01*
X15230500Y-12390000D01*
X15280000Y-12439500D01*
X15280000Y-12889500D02*
X15329500Y-12840000D01*
X15280000Y-12790500D01*
X15230500Y-12840000D01*
X15280000Y-12889500D01*
X8690000Y-8080000D02*
X8790000Y-8180000D01*
X8790000Y-8080000D02*
X8690000Y-8180000D01*
X8790000Y-8130000D02*
G75*
G03*
X8790000Y-8130000I-50000J0D01*
G01*
X8690000Y-8334000D02*
X8790000Y-8434000D01*
X8790000Y-8334000D02*
X8690000Y-8434000D01*
X8790000Y-8384000D02*
G75*
G03*
X8790000Y-8384000I-50000J0D01*
G01*
X8690000Y-8588000D02*
X8790000Y-8688000D01*
X8790000Y-8588000D02*
X8690000Y-8688000D01*
X8790000Y-8638000D02*
G75*
G03*
X8790000Y-8638000I-50000J0D01*
G01*
X8690000Y-8842000D02*
X8790000Y-8942000D01*
X8790000Y-8842000D02*
X8690000Y-8942000D01*
X8790000Y-8892000D02*
G75*
G03*
X8790000Y-8892000I-50000J0D01*
G01*
X8690000Y-9096000D02*
X8790000Y-9196000D01*
X8790000Y-9096000D02*
X8690000Y-9196000D01*
X8790000Y-9146000D02*
G75*
G03*
X8790000Y-9146000I-50000J0D01*
G01*
X8690000Y-9350000D02*
X8790000Y-9450000D01*
X8790000Y-9350000D02*
X8690000Y-9450000D01*
X8790000Y-9400000D02*
G75*
G03*
X8790000Y-9400000I-50000J0D01*
G01*
X8766000Y-12532000D02*
X8866000Y-12632000D01*
X8866000Y-12532000D02*
X8766000Y-12632000D01*
X8866000Y-12582000D02*
G75*
G03*
X8866000Y-12582000I-50000J0D01*
G01*
X8766000Y-12786000D02*
X8866000Y-12886000D01*
X8866000Y-12786000D02*
X8766000Y-12886000D01*
X8866000Y-12836000D02*
G75*
G03*
X8866000Y-12836000I-50000J0D01*
G01*
X8766000Y-13040000D02*
X8866000Y-13140000D01*
X8866000Y-13040000D02*
X8766000Y-13140000D01*
X8866000Y-13090000D02*
G75*
G03*
X8866000Y-13090000I-50000J0D01*
G01*
X8944000Y-8080000D02*
X9044000Y-8180000D01*
X9044000Y-8080000D02*
X8944000Y-8180000D01*
X9044000Y-8130000D02*
G75*
G03*
X9044000Y-8130000I-50000J0D01*
G01*
X8944000Y-8334000D02*
X9044000Y-8434000D01*
X9044000Y-8334000D02*
X8944000Y-8434000D01*
X9044000Y-8384000D02*
G75*
G03*
X9044000Y-8384000I-50000J0D01*
G01*
X8944000Y-8588000D02*
X9044000Y-8688000D01*
X9044000Y-8588000D02*
X8944000Y-8688000D01*
X9044000Y-8638000D02*
G75*
G03*
X9044000Y-8638000I-50000J0D01*
G01*
X8944000Y-8842000D02*
X9044000Y-8942000D01*
X9044000Y-8842000D02*
X8944000Y-8942000D01*
X9044000Y-8892000D02*
G75*
G03*
X9044000Y-8892000I-50000J0D01*
G01*
X8944000Y-9096000D02*
X9044000Y-9196000D01*
X9044000Y-9096000D02*
X8944000Y-9196000D01*
X9044000Y-9146000D02*
G75*
G03*
X9044000Y-9146000I-50000J0D01*
G01*
X8944000Y-9350000D02*
X9044000Y-9450000D01*
X9044000Y-9350000D02*
X8944000Y-9450000D01*
X9044000Y-9400000D02*
G75*
G03*
X9044000Y-9400000I-50000J0D01*
G01*
X9020000Y-12532000D02*
X9120000Y-12632000D01*
X9120000Y-12532000D02*
X9020000Y-12632000D01*
X9120000Y-12582000D02*
G75*
G03*
X9120000Y-12582000I-50000J0D01*
G01*
X9020000Y-12786000D02*
X9120000Y-12886000D01*
X9120000Y-12786000D02*
X9020000Y-12886000D01*
X9120000Y-12836000D02*
G75*
G03*
X9120000Y-12836000I-50000J0D01*
G01*
X9020000Y-13040000D02*
X9120000Y-13140000D01*
X9120000Y-13040000D02*
X9020000Y-13140000D01*
X9120000Y-13090000D02*
G75*
G03*
X9120000Y-13090000I-50000J0D01*
G01*
X10844000Y-11060000D02*
X10944000Y-11160000D01*
X10944000Y-11060000D02*
X10844000Y-11160000D01*
X10944000Y-11110000D02*
G75*
G03*
X10944000Y-11110000I-50000J0D01*
G01*
X10844000Y-11314000D02*
X10944000Y-11414000D01*
X10944000Y-11314000D02*
X10844000Y-11414000D01*
X10944000Y-11364000D02*
G75*
G03*
X10944000Y-11364000I-50000J0D01*
G01*
X11074000Y-5756000D02*
X11174000Y-5856000D01*
X11174000Y-5756000D02*
X11074000Y-5856000D01*
X11174000Y-5806000D02*
G75*
G03*
X11174000Y-5806000I-50000J0D01*
G01*
X11074000Y-6010000D02*
X11174000Y-6110000D01*
X11174000Y-6010000D02*
X11074000Y-6110000D01*
X11174000Y-6060000D02*
G75*
G03*
X11174000Y-6060000I-50000J0D01*
G01*
X11098000Y-11060000D02*
X11198000Y-11160000D01*
X11198000Y-11060000D02*
X11098000Y-11160000D01*
X11198000Y-11110000D02*
G75*
G03*
X11198000Y-11110000I-50000J0D01*
G01*
X11098000Y-11314000D02*
X11198000Y-11414000D01*
X11198000Y-11314000D02*
X11098000Y-11414000D01*
X11198000Y-11364000D02*
G75*
G03*
X11198000Y-11364000I-50000J0D01*
G01*
X11140000Y-12330000D02*
X11240000Y-12430000D01*
X11240000Y-12330000D02*
X11140000Y-12430000D01*
X11240000Y-12380000D02*
G75*
G03*
X11240000Y-12380000I-50000J0D01*
G01*
X11140000Y-12584000D02*
X11240000Y-12684000D01*
X11240000Y-12584000D02*
X11140000Y-12684000D01*
X11240000Y-12634000D02*
G75*
G03*
X11240000Y-12634000I-50000J0D01*
G01*
X11150000Y-13366000D02*
X11250000Y-13466000D01*
X11250000Y-13366000D02*
X11150000Y-13466000D01*
X11250000Y-13416000D02*
G75*
G03*
X11250000Y-13416000I-50000J0D01*
G01*
X11150000Y-13620000D02*
X11250000Y-13720000D01*
X11250000Y-13620000D02*
X11150000Y-13720000D01*
X11250000Y-13670000D02*
G75*
G03*
X11250000Y-13670000I-50000J0D01*
G01*
X11328000Y-5756000D02*
X11428000Y-5856000D01*
X11428000Y-5756000D02*
X11328000Y-5856000D01*
X11428000Y-5806000D02*
G75*
G03*
X11428000Y-5806000I-50000J0D01*
G01*
X11328000Y-6010000D02*
X11428000Y-6110000D01*
X11428000Y-6010000D02*
X11328000Y-6110000D01*
X11428000Y-6060000D02*
G75*
G03*
X11428000Y-6060000I-50000J0D01*
G01*
X11352000Y-11060000D02*
X11452000Y-11160000D01*
X11452000Y-11060000D02*
X11352000Y-11160000D01*
X11452000Y-11110000D02*
G75*
G03*
X11452000Y-11110000I-50000J0D01*
G01*
X11352000Y-11314000D02*
X11452000Y-11414000D01*
X11452000Y-11314000D02*
X11352000Y-11414000D01*
X11452000Y-11364000D02*
G75*
G03*
X11452000Y-11364000I-50000J0D01*
G01*
X11394000Y-12330000D02*
X11494000Y-12430000D01*
X11494000Y-12330000D02*
X11394000Y-12430000D01*
X11494000Y-12380000D02*
G75*
G03*
X11494000Y-12380000I-50000J0D01*
G01*
X11394000Y-12584000D02*
X11494000Y-12684000D01*
X11494000Y-12584000D02*
X11394000Y-12684000D01*
X11494000Y-12634000D02*
G75*
G03*
X11494000Y-12634000I-50000J0D01*
G01*
X11404000Y-13366000D02*
X11504000Y-13466000D01*
X11504000Y-13366000D02*
X11404000Y-13466000D01*
X11504000Y-13416000D02*
G75*
G03*
X11504000Y-13416000I-50000J0D01*
G01*
X11404000Y-13620000D02*
X11504000Y-13720000D01*
X11504000Y-13620000D02*
X11404000Y-13720000D01*
X11504000Y-13670000D02*
G75*
G03*
X11504000Y-13670000I-50000J0D01*
G01*
X11582000Y-5756000D02*
X11682000Y-5856000D01*
X11682000Y-5756000D02*
X11582000Y-5856000D01*
X11682000Y-5806000D02*
G75*
G03*
X11682000Y-5806000I-50000J0D01*
G01*
X11582000Y-6010000D02*
X11682000Y-6110000D01*
X11682000Y-6010000D02*
X11582000Y-6110000D01*
X11682000Y-6060000D02*
G75*
G03*
X11682000Y-6060000I-50000J0D01*
G01*
X11606000Y-11060000D02*
X11706000Y-11160000D01*
X11706000Y-11060000D02*
X11606000Y-11160000D01*
X11706000Y-11110000D02*
G75*
G03*
X11706000Y-11110000I-50000J0D01*
G01*
X11606000Y-11314000D02*
X11706000Y-11414000D01*
X11706000Y-11314000D02*
X11606000Y-11414000D01*
X11706000Y-11364000D02*
G75*
G03*
X11706000Y-11364000I-50000J0D01*
G01*
X11836000Y-5756000D02*
X11936000Y-5856000D01*
X11936000Y-5756000D02*
X11836000Y-5856000D01*
X11936000Y-5806000D02*
G75*
G03*
X11936000Y-5806000I-50000J0D01*
G01*
X11836000Y-6010000D02*
X11936000Y-6110000D01*
X11936000Y-6010000D02*
X11836000Y-6110000D01*
X11936000Y-6060000D02*
G75*
G03*
X11936000Y-6060000I-50000J0D01*
G01*
X11860000Y-11060000D02*
X11960000Y-11160000D01*
X11960000Y-11060000D02*
X11860000Y-11160000D01*
X11960000Y-11110000D02*
G75*
G03*
X11960000Y-11110000I-50000J0D01*
G01*
X11860000Y-11314000D02*
X11960000Y-11414000D01*
X11960000Y-11314000D02*
X11860000Y-11414000D01*
X11960000Y-11364000D02*
G75*
G03*
X11960000Y-11364000I-50000J0D01*
G01*
X12090000Y-5756000D02*
X12190000Y-5856000D01*
X12190000Y-5756000D02*
X12090000Y-5856000D01*
X12190000Y-5806000D02*
G75*
G03*
X12190000Y-5806000I-50000J0D01*
G01*
X12090000Y-6010000D02*
X12190000Y-6110000D01*
X12190000Y-6010000D02*
X12090000Y-6110000D01*
X12190000Y-6060000D02*
G75*
G03*
X12190000Y-6060000I-50000J0D01*
G01*
X12114000Y-11060000D02*
X12214000Y-11160000D01*
X12214000Y-11060000D02*
X12114000Y-11160000D01*
X12214000Y-11110000D02*
G75*
G03*
X12214000Y-11110000I-50000J0D01*
G01*
X12114000Y-11314000D02*
X12214000Y-11414000D01*
X12214000Y-11314000D02*
X12114000Y-11414000D01*
X12214000Y-11364000D02*
G75*
G03*
X12214000Y-11364000I-50000J0D01*
G01*
X13386000Y-5870000D02*
X13486000Y-5970000D01*
X13486000Y-5870000D02*
X13386000Y-5970000D01*
X13486000Y-5920000D02*
G75*
G03*
X13486000Y-5920000I-50000J0D01*
G01*
X13640000Y-5870000D02*
X13740000Y-5970000D01*
X13740000Y-5870000D02*
X13640000Y-5970000D01*
X13740000Y-5920000D02*
G75*
G03*
X13740000Y-5920000I-50000J0D01*
G01*
X14070000Y-7862000D02*
X14170000Y-7962000D01*
X14170000Y-7862000D02*
X14070000Y-7962000D01*
X14170000Y-7912000D02*
G75*
G03*
X14170000Y-7912000I-50000J0D01*
G01*
X14070000Y-8116000D02*
X14170000Y-8216000D01*
X14170000Y-8116000D02*
X14070000Y-8216000D01*
X14170000Y-8166000D02*
G75*
G03*
X14170000Y-8166000I-50000J0D01*
G01*
X14070000Y-8370000D02*
X14170000Y-8470000D01*
X14170000Y-8370000D02*
X14070000Y-8470000D01*
X14170000Y-8420000D02*
G75*
G03*
X14170000Y-8420000I-50000J0D01*
G01*
X14070000Y-8624000D02*
X14170000Y-8724000D01*
X14170000Y-8624000D02*
X14070000Y-8724000D01*
X14170000Y-8674000D02*
G75*
G03*
X14170000Y-8674000I-50000J0D01*
G01*
X14070000Y-8878000D02*
X14170000Y-8978000D01*
X14170000Y-8878000D02*
X14070000Y-8978000D01*
X14170000Y-8928000D02*
G75*
G03*
X14170000Y-8928000I-50000J0D01*
G01*
X14070000Y-9132000D02*
X14170000Y-9232000D01*
X14170000Y-9132000D02*
X14070000Y-9232000D01*
X14170000Y-9182000D02*
G75*
G03*
X14170000Y-9182000I-50000J0D01*
G01*
X14324000Y-7862000D02*
X14424000Y-7962000D01*
X14424000Y-7862000D02*
X14324000Y-7962000D01*
X14424000Y-7912000D02*
G75*
G03*
X14424000Y-7912000I-50000J0D01*
G01*
X14324000Y-8116000D02*
X14424000Y-8216000D01*
X14424000Y-8116000D02*
X14324000Y-8216000D01*
X14424000Y-8166000D02*
G75*
G03*
X14424000Y-8166000I-50000J0D01*
G01*
X14324000Y-8370000D02*
X14424000Y-8470000D01*
X14424000Y-8370000D02*
X14324000Y-8470000D01*
X14424000Y-8420000D02*
G75*
G03*
X14424000Y-8420000I-50000J0D01*
G01*
X14324000Y-8624000D02*
X14424000Y-8724000D01*
X14424000Y-8624000D02*
X14324000Y-8724000D01*
X14424000Y-8674000D02*
G75*
G03*
X14424000Y-8674000I-50000J0D01*
G01*
X14324000Y-8878000D02*
X14424000Y-8978000D01*
X14424000Y-8878000D02*
X14324000Y-8978000D01*
X14424000Y-8928000D02*
G75*
G03*
X14424000Y-8928000I-50000J0D01*
G01*
X14324000Y-9132000D02*
X14424000Y-9232000D01*
X14424000Y-9132000D02*
X14324000Y-9232000D01*
X14424000Y-9182000D02*
G75*
G03*
X14424000Y-9182000I-50000J0D01*
G01*
X14426000Y-5870000D02*
X14526000Y-5970000D01*
X14526000Y-5870000D02*
X14426000Y-5970000D01*
X14526000Y-5920000D02*
G75*
G03*
X14526000Y-5920000I-50000J0D01*
G01*
X14680000Y-5870000D02*
X14780000Y-5970000D01*
X14780000Y-5870000D02*
X14680000Y-5970000D01*
X14780000Y-5920000D02*
G75*
G03*
X14780000Y-5920000I-50000J0D01*
G01*
X15040000Y-11136000D02*
X15140000Y-11236000D01*
X15140000Y-11136000D02*
X15040000Y-11236000D01*
X15140000Y-11186000D02*
G75*
G03*
X15140000Y-11186000I-50000J0D01*
G01*
X15040000Y-11390000D02*
X15140000Y-11490000D01*
X15140000Y-11390000D02*
X15040000Y-11490000D01*
X15140000Y-11440000D02*
G75*
G03*
X15140000Y-11440000I-50000J0D01*
G01*
X15370000Y-6850000D02*
X15470000Y-6950000D01*
X15470000Y-6850000D02*
X15370000Y-6950000D01*
X15470000Y-6900000D02*
G75*
G03*
X15470000Y-6900000I-50000J0D01*
G01*
X15624000Y-6850000D02*
X15724000Y-6950000D01*
X15724000Y-6850000D02*
X15624000Y-6950000D01*
X15724000Y-6900000D02*
G75*
G03*
X15724000Y-6900000I-50000J0D01*
G01*
X16010000Y-9610000D02*
X16110000Y-9710000D01*
X16110000Y-9610000D02*
X16010000Y-9710000D01*
X16110000Y-9660000D02*
G75*
G03*
X16110000Y-9660000I-50000J0D01*
G01*
X16010000Y-9864000D02*
X16110000Y-9964000D01*
X16110000Y-9864000D02*
X16010000Y-9964000D01*
X16110000Y-9914000D02*
G75*
G03*
X16110000Y-9914000I-50000J0D01*
G01*
X16010000Y-10118000D02*
X16110000Y-10218000D01*
X16110000Y-10118000D02*
X16010000Y-10218000D01*
X16110000Y-10168000D02*
G75*
G03*
X16110000Y-10168000I-50000J0D01*
G01*
X16010000Y-10372000D02*
X16110000Y-10472000D01*
X16110000Y-10372000D02*
X16010000Y-10472000D01*
X16110000Y-10422000D02*
G75*
G03*
X16110000Y-10422000I-50000J0D01*
G01*
X16010000Y-10626000D02*
X16110000Y-10726000D01*
X16110000Y-10626000D02*
X16010000Y-10726000D01*
X16110000Y-10676000D02*
G75*
G03*
X16110000Y-10676000I-50000J0D01*
G01*
X16010000Y-10880000D02*
X16110000Y-10980000D01*
X16110000Y-10880000D02*
X16010000Y-10980000D01*
X16110000Y-10930000D02*
G75*
G03*
X16110000Y-10930000I-50000J0D01*
G01*
X16010000Y-11134000D02*
X16110000Y-11234000D01*
X16110000Y-11134000D02*
X16010000Y-11234000D01*
X16110000Y-11184000D02*
G75*
G03*
X16110000Y-11184000I-50000J0D01*
G01*
X16010000Y-11388000D02*
X16110000Y-11488000D01*
X16110000Y-11388000D02*
X16010000Y-11488000D01*
X16110000Y-11438000D02*
G75*
G03*
X16110000Y-11438000I-50000J0D01*
G01*
D12*
X6783928Y-14468214D02*
X6783928Y-14168214D01*
X6855357Y-14168214D01*
X6898214Y-14182500D01*
X6926786Y-14211071D01*
X6941071Y-14239643D01*
X6955357Y-14296786D01*
X6955357Y-14339643D01*
X6941071Y-14396786D01*
X6926786Y-14425357D01*
X6898214Y-14453929D01*
X6855357Y-14468214D01*
X6783928Y-14468214D01*
X7083928Y-14468214D02*
X7083928Y-14268214D01*
X7083928Y-14325357D02*
X7098214Y-14296786D01*
X7112500Y-14282500D01*
X7141071Y-14268214D01*
X7169643Y-14268214D01*
X7269643Y-14468214D02*
X7269643Y-14268214D01*
X7269643Y-14168214D02*
X7255357Y-14182500D01*
X7269643Y-14196786D01*
X7283928Y-14182500D01*
X7269643Y-14168214D01*
X7269643Y-14196786D01*
X7455357Y-14468214D02*
X7426786Y-14453929D01*
X7412500Y-14425357D01*
X7412500Y-14168214D01*
X7612500Y-14468214D02*
X7583928Y-14453929D01*
X7569643Y-14425357D01*
X7569643Y-14168214D01*
X7955357Y-14468214D02*
X7955357Y-14168214D01*
X8055357Y-14382500D01*
X8155357Y-14168214D01*
X8155357Y-14468214D01*
X8426786Y-14468214D02*
X8426786Y-14311071D01*
X8412500Y-14282500D01*
X8383928Y-14268214D01*
X8326786Y-14268214D01*
X8298214Y-14282500D01*
X8426786Y-14453929D02*
X8398214Y-14468214D01*
X8326786Y-14468214D01*
X8298214Y-14453929D01*
X8283928Y-14425357D01*
X8283928Y-14396786D01*
X8298214Y-14368214D01*
X8326786Y-14353929D01*
X8398214Y-14353929D01*
X8426786Y-14339643D01*
X8569643Y-14268214D02*
X8569643Y-14568214D01*
X8569643Y-14282500D02*
X8598214Y-14268214D01*
X8655357Y-14268214D01*
X8683928Y-14282500D01*
X8698214Y-14296786D01*
X8712500Y-14325357D01*
X8712500Y-14411071D01*
X8698214Y-14439643D01*
X8683928Y-14453929D01*
X8655357Y-14468214D01*
X8598214Y-14468214D01*
X8569643Y-14453929D01*
X8841071Y-14439643D02*
X8855357Y-14453929D01*
X8841071Y-14468214D01*
X8826786Y-14453929D01*
X8841071Y-14439643D01*
X8841071Y-14468214D01*
X8841071Y-14282500D02*
X8855357Y-14296786D01*
X8841071Y-14311071D01*
X8826786Y-14296786D01*
X8841071Y-14282500D01*
X8841071Y-14311071D01*
X6467500Y-14947500D02*
X6497500Y-14977500D01*
X6497500Y-14947500D02*
X6467500Y-14977500D01*
X6841071Y-14798214D02*
X6869643Y-14798214D01*
X6898214Y-14812500D01*
X6912500Y-14826786D01*
X6926786Y-14855357D01*
X6941071Y-14912500D01*
X6941071Y-14983929D01*
X6926786Y-15041071D01*
X6912500Y-15069643D01*
X6898214Y-15083929D01*
X6869643Y-15098214D01*
X6841071Y-15098214D01*
X6812500Y-15083929D01*
X6798214Y-15069643D01*
X6783928Y-15041071D01*
X6769643Y-14983929D01*
X6769643Y-14912500D01*
X6783928Y-14855357D01*
X6798214Y-14826786D01*
X6812500Y-14812500D01*
X6841071Y-14798214D01*
X7069643Y-15069643D02*
X7083928Y-15083929D01*
X7069643Y-15098214D01*
X7055357Y-15083929D01*
X7069643Y-15069643D01*
X7069643Y-15098214D01*
X7183928Y-14798214D02*
X7369643Y-14798214D01*
X7269643Y-14912500D01*
X7312500Y-14912500D01*
X7341071Y-14926786D01*
X7355357Y-14941071D01*
X7369643Y-14969643D01*
X7369643Y-15041071D01*
X7355357Y-15069643D01*
X7341071Y-15083929D01*
X7312500Y-15098214D01*
X7226786Y-15098214D01*
X7198214Y-15083929D01*
X7183928Y-15069643D01*
X7555357Y-14798214D02*
X7583928Y-14798214D01*
X7612500Y-14812500D01*
X7626786Y-14826786D01*
X7641071Y-14855357D01*
X7655357Y-14912500D01*
X7655357Y-14983929D01*
X7641071Y-15041071D01*
X7626786Y-15069643D01*
X7612500Y-15083929D01*
X7583928Y-15098214D01*
X7555357Y-15098214D01*
X7526786Y-15083929D01*
X7512500Y-15069643D01*
X7498214Y-15041071D01*
X7483928Y-14983929D01*
X7483928Y-14912500D01*
X7498214Y-14855357D01*
X7512500Y-14826786D01*
X7526786Y-14812500D01*
X7555357Y-14798214D01*
X7841071Y-14798214D02*
X7869643Y-14798214D01*
X7898214Y-14812500D01*
X7912500Y-14826786D01*
X7926786Y-14855357D01*
X7941071Y-14912500D01*
X7941071Y-14983929D01*
X7926786Y-15041071D01*
X7912500Y-15069643D01*
X7898214Y-15083929D01*
X7869643Y-15098214D01*
X7841071Y-15098214D01*
X7812500Y-15083929D01*
X7798214Y-15069643D01*
X7783928Y-15041071D01*
X7769643Y-14983929D01*
X7769643Y-14912500D01*
X7783928Y-14855357D01*
X7798214Y-14826786D01*
X7812500Y-14812500D01*
X7841071Y-14798214D01*
X8069643Y-15098214D02*
X8069643Y-14898214D01*
X8069643Y-14926786D02*
X8083928Y-14912500D01*
X8112500Y-14898214D01*
X8155357Y-14898214D01*
X8183928Y-14912500D01*
X8198214Y-14941071D01*
X8198214Y-15098214D01*
X8198214Y-14941071D02*
X8212500Y-14912500D01*
X8241071Y-14898214D01*
X8283928Y-14898214D01*
X8312500Y-14912500D01*
X8326786Y-14941071D01*
X8326786Y-15098214D01*
X8469643Y-15098214D02*
X8469643Y-14898214D01*
X8469643Y-14926786D02*
X8483928Y-14912500D01*
X8512500Y-14898214D01*
X8555357Y-14898214D01*
X8583928Y-14912500D01*
X8598214Y-14941071D01*
X8598214Y-15098214D01*
X8598214Y-14941071D02*
X8612500Y-14912500D01*
X8641071Y-14898214D01*
X8683928Y-14898214D01*
X8712500Y-14912500D01*
X8726786Y-14941071D01*
X8726786Y-15098214D01*
X9312500Y-14783929D02*
X9055357Y-15169643D01*
X9698214Y-14798214D02*
X9726786Y-14798214D01*
X9755357Y-14812500D01*
X9769643Y-14826786D01*
X9783928Y-14855357D01*
X9798214Y-14912500D01*
X9798214Y-14983929D01*
X9783928Y-15041071D01*
X9769643Y-15069643D01*
X9755357Y-15083929D01*
X9726786Y-15098214D01*
X9698214Y-15098214D01*
X9669643Y-15083929D01*
X9655357Y-15069643D01*
X9641071Y-15041071D01*
X9626786Y-14983929D01*
X9626786Y-14912500D01*
X9641071Y-14855357D01*
X9655357Y-14826786D01*
X9669643Y-14812500D01*
X9698214Y-14798214D01*
X9926786Y-15069643D02*
X9941071Y-15083929D01*
X9926786Y-15098214D01*
X9912500Y-15083929D01*
X9926786Y-15069643D01*
X9926786Y-15098214D01*
X10126786Y-14798214D02*
X10155357Y-14798214D01*
X10183928Y-14812500D01*
X10198214Y-14826786D01*
X10212500Y-14855357D01*
X10226786Y-14912500D01*
X10226786Y-14983929D01*
X10212500Y-15041071D01*
X10198214Y-15069643D01*
X10183928Y-15083929D01*
X10155357Y-15098214D01*
X10126786Y-15098214D01*
X10098214Y-15083929D01*
X10083928Y-15069643D01*
X10069643Y-15041071D01*
X10055357Y-14983929D01*
X10055357Y-14912500D01*
X10069643Y-14855357D01*
X10083928Y-14826786D01*
X10098214Y-14812500D01*
X10126786Y-14798214D01*
X10512500Y-15098214D02*
X10341071Y-15098214D01*
X10426786Y-15098214D02*
X10426786Y-14798214D01*
X10398214Y-14841071D01*
X10369643Y-14869643D01*
X10341071Y-14883929D01*
X10798214Y-15098214D02*
X10626786Y-15098214D01*
X10712500Y-15098214D02*
X10712500Y-14798214D01*
X10683928Y-14841071D01*
X10655357Y-14869643D01*
X10626786Y-14883929D01*
X10969643Y-14926786D02*
X10941071Y-14912500D01*
X10926786Y-14898214D01*
X10912500Y-14869643D01*
X10912500Y-14855357D01*
X10926786Y-14826786D01*
X10941071Y-14812500D01*
X10969643Y-14798214D01*
X11026786Y-14798214D01*
X11055357Y-14812500D01*
X11069643Y-14826786D01*
X11083928Y-14855357D01*
X11083928Y-14869643D01*
X11069643Y-14898214D01*
X11055357Y-14912500D01*
X11026786Y-14926786D01*
X10969643Y-14926786D01*
X10941071Y-14941071D01*
X10926786Y-14955357D01*
X10912500Y-14983929D01*
X10912500Y-15041071D01*
X10926786Y-15069643D01*
X10941071Y-15083929D01*
X10969643Y-15098214D01*
X11026786Y-15098214D01*
X11055357Y-15083929D01*
X11069643Y-15069643D01*
X11083928Y-15041071D01*
X11083928Y-14983929D01*
X11069643Y-14955357D01*
X11055357Y-14941071D01*
X11026786Y-14926786D01*
X11198214Y-14798214D02*
X11198214Y-14855357D01*
X11312500Y-14798214D02*
X11312500Y-14855357D01*
X11755357Y-15212500D02*
X11741071Y-15198214D01*
X11712500Y-15155357D01*
X11698214Y-15126786D01*
X11683928Y-15083929D01*
X11669643Y-15012500D01*
X11669643Y-14955357D01*
X11683928Y-14883929D01*
X11698214Y-14841071D01*
X11712500Y-14812500D01*
X11741071Y-14769643D01*
X11755357Y-14755357D01*
X11998214Y-14898214D02*
X11998214Y-15098214D01*
X11926786Y-14783929D02*
X11855357Y-14998214D01*
X12041071Y-14998214D01*
X12126786Y-14798214D02*
X12312500Y-14798214D01*
X12212500Y-14912500D01*
X12255357Y-14912500D01*
X12283928Y-14926786D01*
X12298214Y-14941071D01*
X12312500Y-14969643D01*
X12312500Y-15041071D01*
X12298214Y-15069643D01*
X12283928Y-15083929D01*
X12255357Y-15098214D01*
X12169643Y-15098214D01*
X12141071Y-15083929D01*
X12126786Y-15069643D01*
X12669643Y-15098214D02*
X12669643Y-14798214D01*
X12798214Y-15098214D02*
X12798214Y-14941071D01*
X12783928Y-14912500D01*
X12755357Y-14898214D01*
X12712500Y-14898214D01*
X12683928Y-14912500D01*
X12669643Y-14926786D01*
X12983928Y-15098214D02*
X12955357Y-15083929D01*
X12941071Y-15069643D01*
X12926786Y-15041071D01*
X12926786Y-14955357D01*
X12941071Y-14926786D01*
X12955357Y-14912500D01*
X12983928Y-14898214D01*
X13026786Y-14898214D01*
X13055357Y-14912500D01*
X13069643Y-14926786D01*
X13083928Y-14955357D01*
X13083928Y-15041071D01*
X13069643Y-15069643D01*
X13055357Y-15083929D01*
X13026786Y-15098214D01*
X12983928Y-15098214D01*
X13255357Y-15098214D02*
X13226786Y-15083929D01*
X13212500Y-15055357D01*
X13212500Y-14798214D01*
X13483928Y-15083929D02*
X13455357Y-15098214D01*
X13398214Y-15098214D01*
X13369643Y-15083929D01*
X13355357Y-15055357D01*
X13355357Y-14941071D01*
X13369643Y-14912500D01*
X13398214Y-14898214D01*
X13455357Y-14898214D01*
X13483928Y-14912500D01*
X13498214Y-14941071D01*
X13498214Y-14969643D01*
X13355357Y-14998214D01*
X13612500Y-15083929D02*
X13641071Y-15098214D01*
X13698214Y-15098214D01*
X13726786Y-15083929D01*
X13741071Y-15055357D01*
X13741071Y-15041071D01*
X13726786Y-15012500D01*
X13698214Y-14998214D01*
X13655357Y-14998214D01*
X13626786Y-14983929D01*
X13612500Y-14955357D01*
X13612500Y-14941071D01*
X13626786Y-14912500D01*
X13655357Y-14898214D01*
X13698214Y-14898214D01*
X13726786Y-14912500D01*
X13841071Y-15212500D02*
X13855357Y-15198214D01*
X13883928Y-15155357D01*
X13898214Y-15126786D01*
X13912500Y-15083929D01*
X13926786Y-15012500D01*
X13926786Y-14955357D01*
X13912500Y-14883929D01*
X13898214Y-14841071D01*
X13883928Y-14812500D01*
X13855357Y-14769643D01*
X13841071Y-14755357D01*
X6497500Y-15358500D02*
G75*
G03*
X6497500Y-15358500I-25000J0D01*
G01*
X6841071Y-15194214D02*
X6869643Y-15194214D01*
X6898214Y-15208500D01*
X6912500Y-15222786D01*
X6926786Y-15251357D01*
X6941071Y-15308500D01*
X6941071Y-15379929D01*
X6926786Y-15437071D01*
X6912500Y-15465643D01*
X6898214Y-15479929D01*
X6869643Y-15494214D01*
X6841071Y-15494214D01*
X6812500Y-15479929D01*
X6798214Y-15465643D01*
X6783928Y-15437071D01*
X6769643Y-15379929D01*
X6769643Y-15308500D01*
X6783928Y-15251357D01*
X6798214Y-15222786D01*
X6812500Y-15208500D01*
X6841071Y-15194214D01*
X7069643Y-15465643D02*
X7083928Y-15479929D01*
X7069643Y-15494214D01*
X7055357Y-15479929D01*
X7069643Y-15465643D01*
X7069643Y-15494214D01*
X7355357Y-15194214D02*
X7212500Y-15194214D01*
X7198214Y-15337071D01*
X7212500Y-15322786D01*
X7241071Y-15308500D01*
X7312500Y-15308500D01*
X7341071Y-15322786D01*
X7355357Y-15337071D01*
X7369643Y-15365643D01*
X7369643Y-15437071D01*
X7355357Y-15465643D01*
X7341071Y-15479929D01*
X7312500Y-15494214D01*
X7241071Y-15494214D01*
X7212500Y-15479929D01*
X7198214Y-15465643D01*
X7555357Y-15194214D02*
X7583928Y-15194214D01*
X7612500Y-15208500D01*
X7626786Y-15222786D01*
X7641071Y-15251357D01*
X7655357Y-15308500D01*
X7655357Y-15379929D01*
X7641071Y-15437071D01*
X7626786Y-15465643D01*
X7612500Y-15479929D01*
X7583928Y-15494214D01*
X7555357Y-15494214D01*
X7526786Y-15479929D01*
X7512500Y-15465643D01*
X7498214Y-15437071D01*
X7483928Y-15379929D01*
X7483928Y-15308500D01*
X7498214Y-15251357D01*
X7512500Y-15222786D01*
X7526786Y-15208500D01*
X7555357Y-15194214D01*
X7841071Y-15194214D02*
X7869643Y-15194214D01*
X7898214Y-15208500D01*
X7912500Y-15222786D01*
X7926786Y-15251357D01*
X7941071Y-15308500D01*
X7941071Y-15379929D01*
X7926786Y-15437071D01*
X7912500Y-15465643D01*
X7898214Y-15479929D01*
X7869643Y-15494214D01*
X7841071Y-15494214D01*
X7812500Y-15479929D01*
X7798214Y-15465643D01*
X7783928Y-15437071D01*
X7769643Y-15379929D01*
X7769643Y-15308500D01*
X7783928Y-15251357D01*
X7798214Y-15222786D01*
X7812500Y-15208500D01*
X7841071Y-15194214D01*
X8069643Y-15494214D02*
X8069643Y-15294214D01*
X8069643Y-15322786D02*
X8083928Y-15308500D01*
X8112500Y-15294214D01*
X8155357Y-15294214D01*
X8183928Y-15308500D01*
X8198214Y-15337071D01*
X8198214Y-15494214D01*
X8198214Y-15337071D02*
X8212500Y-15308500D01*
X8241071Y-15294214D01*
X8283928Y-15294214D01*
X8312500Y-15308500D01*
X8326786Y-15337071D01*
X8326786Y-15494214D01*
X8469643Y-15494214D02*
X8469643Y-15294214D01*
X8469643Y-15322786D02*
X8483928Y-15308500D01*
X8512500Y-15294214D01*
X8555357Y-15294214D01*
X8583928Y-15308500D01*
X8598214Y-15337071D01*
X8598214Y-15494214D01*
X8598214Y-15337071D02*
X8612500Y-15308500D01*
X8641071Y-15294214D01*
X8683928Y-15294214D01*
X8712500Y-15308500D01*
X8726786Y-15337071D01*
X8726786Y-15494214D01*
X9312500Y-15179929D02*
X9055357Y-15565643D01*
X9698214Y-15194214D02*
X9726786Y-15194214D01*
X9755357Y-15208500D01*
X9769643Y-15222786D01*
X9783928Y-15251357D01*
X9798214Y-15308500D01*
X9798214Y-15379929D01*
X9783928Y-15437071D01*
X9769643Y-15465643D01*
X9755357Y-15479929D01*
X9726786Y-15494214D01*
X9698214Y-15494214D01*
X9669643Y-15479929D01*
X9655357Y-15465643D01*
X9641071Y-15437071D01*
X9626786Y-15379929D01*
X9626786Y-15308500D01*
X9641071Y-15251357D01*
X9655357Y-15222786D01*
X9669643Y-15208500D01*
X9698214Y-15194214D01*
X9926786Y-15465643D02*
X9941071Y-15479929D01*
X9926786Y-15494214D01*
X9912500Y-15479929D01*
X9926786Y-15465643D01*
X9926786Y-15494214D01*
X10126786Y-15194214D02*
X10155357Y-15194214D01*
X10183928Y-15208500D01*
X10198214Y-15222786D01*
X10212500Y-15251357D01*
X10226786Y-15308500D01*
X10226786Y-15379929D01*
X10212500Y-15437071D01*
X10198214Y-15465643D01*
X10183928Y-15479929D01*
X10155357Y-15494214D01*
X10126786Y-15494214D01*
X10098214Y-15479929D01*
X10083928Y-15465643D01*
X10069643Y-15437071D01*
X10055357Y-15379929D01*
X10055357Y-15308500D01*
X10069643Y-15251357D01*
X10083928Y-15222786D01*
X10098214Y-15208500D01*
X10126786Y-15194214D01*
X10512500Y-15494214D02*
X10341071Y-15494214D01*
X10426786Y-15494214D02*
X10426786Y-15194214D01*
X10398214Y-15237071D01*
X10369643Y-15265643D01*
X10341071Y-15279929D01*
X10655357Y-15494214D02*
X10712500Y-15494214D01*
X10741071Y-15479929D01*
X10755357Y-15465643D01*
X10783928Y-15422786D01*
X10798214Y-15365643D01*
X10798214Y-15251357D01*
X10783928Y-15222786D01*
X10769643Y-15208500D01*
X10741071Y-15194214D01*
X10683928Y-15194214D01*
X10655357Y-15208500D01*
X10641071Y-15222786D01*
X10626786Y-15251357D01*
X10626786Y-15322786D01*
X10641071Y-15351357D01*
X10655357Y-15365643D01*
X10683928Y-15379929D01*
X10741071Y-15379929D01*
X10769643Y-15365643D01*
X10783928Y-15351357D01*
X10798214Y-15322786D01*
X10898214Y-15194214D02*
X11098214Y-15194214D01*
X10969643Y-15494214D01*
X11198214Y-15194214D02*
X11198214Y-15251357D01*
X11312500Y-15194214D02*
X11312500Y-15251357D01*
X11755357Y-15608500D02*
X11741071Y-15594214D01*
X11712500Y-15551357D01*
X11698214Y-15522786D01*
X11683928Y-15479929D01*
X11669643Y-15408500D01*
X11669643Y-15351357D01*
X11683928Y-15279929D01*
X11698214Y-15237071D01*
X11712500Y-15208500D01*
X11741071Y-15165643D01*
X11755357Y-15151357D01*
X11926786Y-15194214D02*
X11955357Y-15194214D01*
X11983928Y-15208500D01*
X11998214Y-15222786D01*
X12012500Y-15251357D01*
X12026786Y-15308500D01*
X12026786Y-15379929D01*
X12012500Y-15437071D01*
X11998214Y-15465643D01*
X11983928Y-15479929D01*
X11955357Y-15494214D01*
X11926786Y-15494214D01*
X11898214Y-15479929D01*
X11883928Y-15465643D01*
X11869643Y-15437071D01*
X11855357Y-15379929D01*
X11855357Y-15308500D01*
X11869643Y-15251357D01*
X11883928Y-15222786D01*
X11898214Y-15208500D01*
X11926786Y-15194214D01*
X12383928Y-15494214D02*
X12383928Y-15194214D01*
X12512500Y-15494214D02*
X12512500Y-15337071D01*
X12498214Y-15308500D01*
X12469643Y-15294214D01*
X12426786Y-15294214D01*
X12398214Y-15308500D01*
X12383928Y-15322786D01*
X12698214Y-15494214D02*
X12669643Y-15479929D01*
X12655357Y-15465643D01*
X12641071Y-15437071D01*
X12641071Y-15351357D01*
X12655357Y-15322786D01*
X12669643Y-15308500D01*
X12698214Y-15294214D01*
X12741071Y-15294214D01*
X12769643Y-15308500D01*
X12783928Y-15322786D01*
X12798214Y-15351357D01*
X12798214Y-15437071D01*
X12783928Y-15465643D01*
X12769643Y-15479929D01*
X12741071Y-15494214D01*
X12698214Y-15494214D01*
X12969643Y-15494214D02*
X12941071Y-15479929D01*
X12926786Y-15451357D01*
X12926786Y-15194214D01*
X13198214Y-15479929D02*
X13169643Y-15494214D01*
X13112500Y-15494214D01*
X13083928Y-15479929D01*
X13069643Y-15451357D01*
X13069643Y-15337071D01*
X13083928Y-15308500D01*
X13112500Y-15294214D01*
X13169643Y-15294214D01*
X13198214Y-15308500D01*
X13212500Y-15337071D01*
X13212500Y-15365643D01*
X13069643Y-15394214D01*
X13326786Y-15479929D02*
X13355357Y-15494214D01*
X13412500Y-15494214D01*
X13441071Y-15479929D01*
X13455357Y-15451357D01*
X13455357Y-15437071D01*
X13441071Y-15408500D01*
X13412500Y-15394214D01*
X13369643Y-15394214D01*
X13341071Y-15379929D01*
X13326786Y-15351357D01*
X13326786Y-15337071D01*
X13341071Y-15308500D01*
X13369643Y-15294214D01*
X13412500Y-15294214D01*
X13441071Y-15308500D01*
X13812500Y-15379929D02*
X14041071Y-15379929D01*
X13926786Y-15494214D02*
X13926786Y-15265643D01*
X14398214Y-15222786D02*
X14412500Y-15208500D01*
X14441071Y-15194214D01*
X14512500Y-15194214D01*
X14541071Y-15208500D01*
X14555357Y-15222786D01*
X14569643Y-15251357D01*
X14569643Y-15279929D01*
X14555357Y-15322786D01*
X14383928Y-15494214D01*
X14569643Y-15494214D01*
X14912500Y-15479929D02*
X14941071Y-15494214D01*
X14998214Y-15494214D01*
X15026786Y-15479929D01*
X15041071Y-15451357D01*
X15041071Y-15437071D01*
X15026786Y-15408500D01*
X14998214Y-15394214D01*
X14955357Y-15394214D01*
X14926786Y-15379929D01*
X14912500Y-15351357D01*
X14912500Y-15337071D01*
X14926786Y-15308500D01*
X14955357Y-15294214D01*
X14998214Y-15294214D01*
X15026786Y-15308500D01*
X15212500Y-15494214D02*
X15183928Y-15479929D01*
X15169643Y-15451357D01*
X15169643Y-15194214D01*
X15369643Y-15494214D02*
X15341071Y-15479929D01*
X15326786Y-15465643D01*
X15312500Y-15437071D01*
X15312500Y-15351357D01*
X15326786Y-15322786D01*
X15341071Y-15308500D01*
X15369643Y-15294214D01*
X15412500Y-15294214D01*
X15441071Y-15308500D01*
X15455357Y-15322786D01*
X15469643Y-15351357D01*
X15469643Y-15437071D01*
X15455357Y-15465643D01*
X15441071Y-15479929D01*
X15412500Y-15494214D01*
X15369643Y-15494214D01*
X15555357Y-15294214D02*
X15669643Y-15294214D01*
X15598214Y-15194214D02*
X15598214Y-15451357D01*
X15612500Y-15479929D01*
X15641071Y-15494214D01*
X15669643Y-15494214D01*
X15755357Y-15479929D02*
X15783928Y-15494214D01*
X15841071Y-15494214D01*
X15869643Y-15479929D01*
X15883928Y-15451357D01*
X15883928Y-15437071D01*
X15869643Y-15408500D01*
X15841071Y-15394214D01*
X15798214Y-15394214D01*
X15769643Y-15379929D01*
X15755357Y-15351357D01*
X15755357Y-15337071D01*
X15769643Y-15308500D01*
X15798214Y-15294214D01*
X15841071Y-15294214D01*
X15869643Y-15308500D01*
X15983928Y-15608500D02*
X15998214Y-15594214D01*
X16026786Y-15551357D01*
X16041071Y-15522786D01*
X16055357Y-15479929D01*
X16069643Y-15408500D01*
X16069643Y-15351357D01*
X16055357Y-15279929D01*
X16041071Y-15237071D01*
X16026786Y-15208500D01*
X15998214Y-15165643D01*
X15983928Y-15151357D01*
X6470000Y-15727000D02*
X6470000Y-15782000D01*
X6442500Y-15754500D02*
X6497500Y-15754500D01*
X6841071Y-15590214D02*
X6869643Y-15590214D01*
X6898214Y-15604500D01*
X6912500Y-15618786D01*
X6926786Y-15647357D01*
X6941071Y-15704500D01*
X6941071Y-15775929D01*
X6926786Y-15833071D01*
X6912500Y-15861643D01*
X6898214Y-15875929D01*
X6869643Y-15890214D01*
X6841071Y-15890214D01*
X6812500Y-15875929D01*
X6798214Y-15861643D01*
X6783928Y-15833071D01*
X6769643Y-15775929D01*
X6769643Y-15704500D01*
X6783928Y-15647357D01*
X6798214Y-15618786D01*
X6812500Y-15604500D01*
X6841071Y-15590214D01*
X7069643Y-15861643D02*
X7083928Y-15875929D01*
X7069643Y-15890214D01*
X7055357Y-15875929D01*
X7069643Y-15861643D01*
X7069643Y-15890214D01*
X7355357Y-15590214D02*
X7212500Y-15590214D01*
X7198214Y-15733071D01*
X7212500Y-15718786D01*
X7241071Y-15704500D01*
X7312500Y-15704500D01*
X7341071Y-15718786D01*
X7355357Y-15733071D01*
X7369643Y-15761643D01*
X7369643Y-15833071D01*
X7355357Y-15861643D01*
X7341071Y-15875929D01*
X7312500Y-15890214D01*
X7241071Y-15890214D01*
X7212500Y-15875929D01*
X7198214Y-15861643D01*
X7641071Y-15590214D02*
X7498214Y-15590214D01*
X7483928Y-15733071D01*
X7498214Y-15718786D01*
X7526786Y-15704500D01*
X7598214Y-15704500D01*
X7626786Y-15718786D01*
X7641071Y-15733071D01*
X7655357Y-15761643D01*
X7655357Y-15833071D01*
X7641071Y-15861643D01*
X7626786Y-15875929D01*
X7598214Y-15890214D01*
X7526786Y-15890214D01*
X7498214Y-15875929D01*
X7483928Y-15861643D01*
X7841071Y-15590214D02*
X7869643Y-15590214D01*
X7898214Y-15604500D01*
X7912500Y-15618786D01*
X7926786Y-15647357D01*
X7941071Y-15704500D01*
X7941071Y-15775929D01*
X7926786Y-15833071D01*
X7912500Y-15861643D01*
X7898214Y-15875929D01*
X7869643Y-15890214D01*
X7841071Y-15890214D01*
X7812500Y-15875929D01*
X7798214Y-15861643D01*
X7783928Y-15833071D01*
X7769643Y-15775929D01*
X7769643Y-15704500D01*
X7783928Y-15647357D01*
X7798214Y-15618786D01*
X7812500Y-15604500D01*
X7841071Y-15590214D01*
X8069643Y-15890214D02*
X8069643Y-15690214D01*
X8069643Y-15718786D02*
X8083928Y-15704500D01*
X8112500Y-15690214D01*
X8155357Y-15690214D01*
X8183928Y-15704500D01*
X8198214Y-15733071D01*
X8198214Y-15890214D01*
X8198214Y-15733071D02*
X8212500Y-15704500D01*
X8241071Y-15690214D01*
X8283928Y-15690214D01*
X8312500Y-15704500D01*
X8326786Y-15733071D01*
X8326786Y-15890214D01*
X8469643Y-15890214D02*
X8469643Y-15690214D01*
X8469643Y-15718786D02*
X8483928Y-15704500D01*
X8512500Y-15690214D01*
X8555357Y-15690214D01*
X8583928Y-15704500D01*
X8598214Y-15733071D01*
X8598214Y-15890214D01*
X8598214Y-15733071D02*
X8612500Y-15704500D01*
X8641071Y-15690214D01*
X8683928Y-15690214D01*
X8712500Y-15704500D01*
X8726786Y-15733071D01*
X8726786Y-15890214D01*
X9312500Y-15575929D02*
X9055357Y-15961643D01*
X9698214Y-15590214D02*
X9726786Y-15590214D01*
X9755357Y-15604500D01*
X9769643Y-15618786D01*
X9783928Y-15647357D01*
X9798214Y-15704500D01*
X9798214Y-15775929D01*
X9783928Y-15833071D01*
X9769643Y-15861643D01*
X9755357Y-15875929D01*
X9726786Y-15890214D01*
X9698214Y-15890214D01*
X9669643Y-15875929D01*
X9655357Y-15861643D01*
X9641071Y-15833071D01*
X9626786Y-15775929D01*
X9626786Y-15704500D01*
X9641071Y-15647357D01*
X9655357Y-15618786D01*
X9669643Y-15604500D01*
X9698214Y-15590214D01*
X9926786Y-15861643D02*
X9941071Y-15875929D01*
X9926786Y-15890214D01*
X9912500Y-15875929D01*
X9926786Y-15861643D01*
X9926786Y-15890214D01*
X10126786Y-15590214D02*
X10155357Y-15590214D01*
X10183928Y-15604500D01*
X10198214Y-15618786D01*
X10212500Y-15647357D01*
X10226786Y-15704500D01*
X10226786Y-15775929D01*
X10212500Y-15833071D01*
X10198214Y-15861643D01*
X10183928Y-15875929D01*
X10155357Y-15890214D01*
X10126786Y-15890214D01*
X10098214Y-15875929D01*
X10083928Y-15861643D01*
X10069643Y-15833071D01*
X10055357Y-15775929D01*
X10055357Y-15704500D01*
X10069643Y-15647357D01*
X10083928Y-15618786D01*
X10098214Y-15604500D01*
X10126786Y-15590214D01*
X10341071Y-15618786D02*
X10355357Y-15604500D01*
X10383928Y-15590214D01*
X10455357Y-15590214D01*
X10483928Y-15604500D01*
X10498214Y-15618786D01*
X10512500Y-15647357D01*
X10512500Y-15675929D01*
X10498214Y-15718786D01*
X10326786Y-15890214D01*
X10512500Y-15890214D01*
X10798214Y-15890214D02*
X10626786Y-15890214D01*
X10712500Y-15890214D02*
X10712500Y-15590214D01*
X10683928Y-15633071D01*
X10655357Y-15661643D01*
X10626786Y-15675929D01*
X10898214Y-15590214D02*
X11098214Y-15590214D01*
X10969643Y-15890214D01*
X11198214Y-15590214D02*
X11198214Y-15647357D01*
X11312500Y-15590214D02*
X11312500Y-15647357D01*
X11755357Y-16004500D02*
X11741071Y-15990214D01*
X11712500Y-15947357D01*
X11698214Y-15918786D01*
X11683928Y-15875929D01*
X11669643Y-15804500D01*
X11669643Y-15747357D01*
X11683928Y-15675929D01*
X11698214Y-15633071D01*
X11712500Y-15604500D01*
X11741071Y-15561643D01*
X11755357Y-15547357D01*
X11926786Y-15590214D02*
X11955357Y-15590214D01*
X11983928Y-15604500D01*
X11998214Y-15618786D01*
X12012500Y-15647357D01*
X12026786Y-15704500D01*
X12026786Y-15775929D01*
X12012500Y-15833071D01*
X11998214Y-15861643D01*
X11983928Y-15875929D01*
X11955357Y-15890214D01*
X11926786Y-15890214D01*
X11898214Y-15875929D01*
X11883928Y-15861643D01*
X11869643Y-15833071D01*
X11855357Y-15775929D01*
X11855357Y-15704500D01*
X11869643Y-15647357D01*
X11883928Y-15618786D01*
X11898214Y-15604500D01*
X11926786Y-15590214D01*
X12383928Y-15890214D02*
X12383928Y-15590214D01*
X12512500Y-15890214D02*
X12512500Y-15733071D01*
X12498214Y-15704500D01*
X12469643Y-15690214D01*
X12426786Y-15690214D01*
X12398214Y-15704500D01*
X12383928Y-15718786D01*
X12698214Y-15890214D02*
X12669643Y-15875929D01*
X12655357Y-15861643D01*
X12641071Y-15833071D01*
X12641071Y-15747357D01*
X12655357Y-15718786D01*
X12669643Y-15704500D01*
X12698214Y-15690214D01*
X12741071Y-15690214D01*
X12769643Y-15704500D01*
X12783928Y-15718786D01*
X12798214Y-15747357D01*
X12798214Y-15833071D01*
X12783928Y-15861643D01*
X12769643Y-15875929D01*
X12741071Y-15890214D01*
X12698214Y-15890214D01*
X12969643Y-15890214D02*
X12941071Y-15875929D01*
X12926786Y-15847357D01*
X12926786Y-15590214D01*
X13198214Y-15875929D02*
X13169643Y-15890214D01*
X13112500Y-15890214D01*
X13083928Y-15875929D01*
X13069643Y-15847357D01*
X13069643Y-15733071D01*
X13083928Y-15704500D01*
X13112500Y-15690214D01*
X13169643Y-15690214D01*
X13198214Y-15704500D01*
X13212500Y-15733071D01*
X13212500Y-15761643D01*
X13069643Y-15790214D01*
X13326786Y-15875929D02*
X13355357Y-15890214D01*
X13412500Y-15890214D01*
X13441071Y-15875929D01*
X13455357Y-15847357D01*
X13455357Y-15833071D01*
X13441071Y-15804500D01*
X13412500Y-15790214D01*
X13369643Y-15790214D01*
X13341071Y-15775929D01*
X13326786Y-15747357D01*
X13326786Y-15733071D01*
X13341071Y-15704500D01*
X13369643Y-15690214D01*
X13412500Y-15690214D01*
X13441071Y-15704500D01*
X13812500Y-15775929D02*
X14041071Y-15775929D01*
X13926786Y-15890214D02*
X13926786Y-15661643D01*
X14398214Y-15618786D02*
X14412500Y-15604500D01*
X14441071Y-15590214D01*
X14512500Y-15590214D01*
X14541071Y-15604500D01*
X14555357Y-15618786D01*
X14569643Y-15647357D01*
X14569643Y-15675929D01*
X14555357Y-15718786D01*
X14383928Y-15890214D01*
X14569643Y-15890214D01*
X14912500Y-15875929D02*
X14941071Y-15890214D01*
X14998214Y-15890214D01*
X15026786Y-15875929D01*
X15041071Y-15847357D01*
X15041071Y-15833071D01*
X15026786Y-15804500D01*
X14998214Y-15790214D01*
X14955357Y-15790214D01*
X14926786Y-15775929D01*
X14912500Y-15747357D01*
X14912500Y-15733071D01*
X14926786Y-15704500D01*
X14955357Y-15690214D01*
X14998214Y-15690214D01*
X15026786Y-15704500D01*
X15212500Y-15890214D02*
X15183928Y-15875929D01*
X15169643Y-15847357D01*
X15169643Y-15590214D01*
X15369643Y-15890214D02*
X15341071Y-15875929D01*
X15326786Y-15861643D01*
X15312500Y-15833071D01*
X15312500Y-15747357D01*
X15326786Y-15718786D01*
X15341071Y-15704500D01*
X15369643Y-15690214D01*
X15412500Y-15690214D01*
X15441071Y-15704500D01*
X15455357Y-15718786D01*
X15469643Y-15747357D01*
X15469643Y-15833071D01*
X15455357Y-15861643D01*
X15441071Y-15875929D01*
X15412500Y-15890214D01*
X15369643Y-15890214D01*
X15555357Y-15690214D02*
X15669643Y-15690214D01*
X15598214Y-15590214D02*
X15598214Y-15847357D01*
X15612500Y-15875929D01*
X15641071Y-15890214D01*
X15669643Y-15890214D01*
X15755357Y-15875929D02*
X15783928Y-15890214D01*
X15841071Y-15890214D01*
X15869643Y-15875929D01*
X15883928Y-15847357D01*
X15883928Y-15833071D01*
X15869643Y-15804500D01*
X15841071Y-15790214D01*
X15798214Y-15790214D01*
X15769643Y-15775929D01*
X15755357Y-15747357D01*
X15755357Y-15733071D01*
X15769643Y-15704500D01*
X15798214Y-15690214D01*
X15841071Y-15690214D01*
X15869643Y-15704500D01*
X15983928Y-16004500D02*
X15998214Y-15990214D01*
X16026786Y-15947357D01*
X16041071Y-15918786D01*
X16055357Y-15875929D01*
X16069643Y-15804500D01*
X16069643Y-15747357D01*
X16055357Y-15675929D01*
X16041071Y-15633071D01*
X16026786Y-15604500D01*
X15998214Y-15561643D01*
X15983928Y-15547357D01*
X6485784Y-16178785D02*
X6485784Y-16122216D01*
X6429215Y-16122216D01*
X6429215Y-16178785D01*
X6485784Y-16178785D01*
X6841071Y-15986214D02*
X6869643Y-15986214D01*
X6898214Y-16000500D01*
X6912500Y-16014786D01*
X6926786Y-16043357D01*
X6941071Y-16100500D01*
X6941071Y-16171929D01*
X6926786Y-16229071D01*
X6912500Y-16257643D01*
X6898214Y-16271929D01*
X6869643Y-16286214D01*
X6841071Y-16286214D01*
X6812500Y-16271929D01*
X6798214Y-16257643D01*
X6783928Y-16229071D01*
X6769643Y-16171929D01*
X6769643Y-16100500D01*
X6783928Y-16043357D01*
X6798214Y-16014786D01*
X6812500Y-16000500D01*
X6841071Y-15986214D01*
X7069643Y-16257643D02*
X7083928Y-16271929D01*
X7069643Y-16286214D01*
X7055357Y-16271929D01*
X7069643Y-16257643D01*
X7069643Y-16286214D01*
X7255357Y-16114786D02*
X7226786Y-16100500D01*
X7212500Y-16086214D01*
X7198214Y-16057643D01*
X7198214Y-16043357D01*
X7212500Y-16014786D01*
X7226786Y-16000500D01*
X7255357Y-15986214D01*
X7312500Y-15986214D01*
X7341071Y-16000500D01*
X7355357Y-16014786D01*
X7369643Y-16043357D01*
X7369643Y-16057643D01*
X7355357Y-16086214D01*
X7341071Y-16100500D01*
X7312500Y-16114786D01*
X7255357Y-16114786D01*
X7226786Y-16129071D01*
X7212500Y-16143357D01*
X7198214Y-16171929D01*
X7198214Y-16229071D01*
X7212500Y-16257643D01*
X7226786Y-16271929D01*
X7255357Y-16286214D01*
X7312500Y-16286214D01*
X7341071Y-16271929D01*
X7355357Y-16257643D01*
X7369643Y-16229071D01*
X7369643Y-16171929D01*
X7355357Y-16143357D01*
X7341071Y-16129071D01*
X7312500Y-16114786D01*
X7555357Y-15986214D02*
X7583928Y-15986214D01*
X7612500Y-16000500D01*
X7626786Y-16014786D01*
X7641071Y-16043357D01*
X7655357Y-16100500D01*
X7655357Y-16171929D01*
X7641071Y-16229071D01*
X7626786Y-16257643D01*
X7612500Y-16271929D01*
X7583928Y-16286214D01*
X7555357Y-16286214D01*
X7526786Y-16271929D01*
X7512500Y-16257643D01*
X7498214Y-16229071D01*
X7483928Y-16171929D01*
X7483928Y-16100500D01*
X7498214Y-16043357D01*
X7512500Y-16014786D01*
X7526786Y-16000500D01*
X7555357Y-15986214D01*
X7841071Y-15986214D02*
X7869643Y-15986214D01*
X7898214Y-16000500D01*
X7912500Y-16014786D01*
X7926786Y-16043357D01*
X7941071Y-16100500D01*
X7941071Y-16171929D01*
X7926786Y-16229071D01*
X7912500Y-16257643D01*
X7898214Y-16271929D01*
X7869643Y-16286214D01*
X7841071Y-16286214D01*
X7812500Y-16271929D01*
X7798214Y-16257643D01*
X7783928Y-16229071D01*
X7769643Y-16171929D01*
X7769643Y-16100500D01*
X7783928Y-16043357D01*
X7798214Y-16014786D01*
X7812500Y-16000500D01*
X7841071Y-15986214D01*
X8069643Y-16286214D02*
X8069643Y-16086214D01*
X8069643Y-16114786D02*
X8083928Y-16100500D01*
X8112500Y-16086214D01*
X8155357Y-16086214D01*
X8183928Y-16100500D01*
X8198214Y-16129071D01*
X8198214Y-16286214D01*
X8198214Y-16129071D02*
X8212500Y-16100500D01*
X8241071Y-16086214D01*
X8283928Y-16086214D01*
X8312500Y-16100500D01*
X8326786Y-16129071D01*
X8326786Y-16286214D01*
X8469643Y-16286214D02*
X8469643Y-16086214D01*
X8469643Y-16114786D02*
X8483928Y-16100500D01*
X8512500Y-16086214D01*
X8555357Y-16086214D01*
X8583928Y-16100500D01*
X8598214Y-16129071D01*
X8598214Y-16286214D01*
X8598214Y-16129071D02*
X8612500Y-16100500D01*
X8641071Y-16086214D01*
X8683928Y-16086214D01*
X8712500Y-16100500D01*
X8726786Y-16129071D01*
X8726786Y-16286214D01*
X9312500Y-15971929D02*
X9055357Y-16357643D01*
X9698214Y-15986214D02*
X9726786Y-15986214D01*
X9755357Y-16000500D01*
X9769643Y-16014786D01*
X9783928Y-16043357D01*
X9798214Y-16100500D01*
X9798214Y-16171929D01*
X9783928Y-16229071D01*
X9769643Y-16257643D01*
X9755357Y-16271929D01*
X9726786Y-16286214D01*
X9698214Y-16286214D01*
X9669643Y-16271929D01*
X9655357Y-16257643D01*
X9641071Y-16229071D01*
X9626786Y-16171929D01*
X9626786Y-16100500D01*
X9641071Y-16043357D01*
X9655357Y-16014786D01*
X9669643Y-16000500D01*
X9698214Y-15986214D01*
X9926786Y-16257643D02*
X9941071Y-16271929D01*
X9926786Y-16286214D01*
X9912500Y-16271929D01*
X9926786Y-16257643D01*
X9926786Y-16286214D01*
X10126786Y-15986214D02*
X10155357Y-15986214D01*
X10183928Y-16000500D01*
X10198214Y-16014786D01*
X10212500Y-16043357D01*
X10226786Y-16100500D01*
X10226786Y-16171929D01*
X10212500Y-16229071D01*
X10198214Y-16257643D01*
X10183928Y-16271929D01*
X10155357Y-16286214D01*
X10126786Y-16286214D01*
X10098214Y-16271929D01*
X10083928Y-16257643D01*
X10069643Y-16229071D01*
X10055357Y-16171929D01*
X10055357Y-16100500D01*
X10069643Y-16043357D01*
X10083928Y-16014786D01*
X10098214Y-16000500D01*
X10126786Y-15986214D01*
X10326786Y-15986214D02*
X10512500Y-15986214D01*
X10412500Y-16100500D01*
X10455357Y-16100500D01*
X10483928Y-16114786D01*
X10498214Y-16129071D01*
X10512500Y-16157643D01*
X10512500Y-16229071D01*
X10498214Y-16257643D01*
X10483928Y-16271929D01*
X10455357Y-16286214D01*
X10369643Y-16286214D01*
X10341071Y-16271929D01*
X10326786Y-16257643D01*
X10798214Y-16286214D02*
X10626786Y-16286214D01*
X10712500Y-16286214D02*
X10712500Y-15986214D01*
X10683928Y-16029071D01*
X10655357Y-16057643D01*
X10626786Y-16071929D01*
X11069643Y-15986214D02*
X10926786Y-15986214D01*
X10912500Y-16129071D01*
X10926786Y-16114786D01*
X10955357Y-16100500D01*
X11026786Y-16100500D01*
X11055357Y-16114786D01*
X11069643Y-16129071D01*
X11083928Y-16157643D01*
X11083928Y-16229071D01*
X11069643Y-16257643D01*
X11055357Y-16271929D01*
X11026786Y-16286214D01*
X10955357Y-16286214D01*
X10926786Y-16271929D01*
X10912500Y-16257643D01*
X11198214Y-15986214D02*
X11198214Y-16043357D01*
X11312500Y-15986214D02*
X11312500Y-16043357D01*
X11755357Y-16400500D02*
X11741071Y-16386214D01*
X11712500Y-16343357D01*
X11698214Y-16314786D01*
X11683928Y-16271929D01*
X11669643Y-16200500D01*
X11669643Y-16143357D01*
X11683928Y-16071929D01*
X11698214Y-16029071D01*
X11712500Y-16000500D01*
X11741071Y-15957643D01*
X11755357Y-15943357D01*
X11926786Y-15986214D02*
X11955357Y-15986214D01*
X11983928Y-16000500D01*
X11998214Y-16014786D01*
X12012500Y-16043357D01*
X12026786Y-16100500D01*
X12026786Y-16171929D01*
X12012500Y-16229071D01*
X11998214Y-16257643D01*
X11983928Y-16271929D01*
X11955357Y-16286214D01*
X11926786Y-16286214D01*
X11898214Y-16271929D01*
X11883928Y-16257643D01*
X11869643Y-16229071D01*
X11855357Y-16171929D01*
X11855357Y-16100500D01*
X11869643Y-16043357D01*
X11883928Y-16014786D01*
X11898214Y-16000500D01*
X11926786Y-15986214D01*
X12383928Y-16286214D02*
X12383928Y-15986214D01*
X12512500Y-16286214D02*
X12512500Y-16129071D01*
X12498214Y-16100500D01*
X12469643Y-16086214D01*
X12426786Y-16086214D01*
X12398214Y-16100500D01*
X12383928Y-16114786D01*
X12698214Y-16286214D02*
X12669643Y-16271929D01*
X12655357Y-16257643D01*
X12641071Y-16229071D01*
X12641071Y-16143357D01*
X12655357Y-16114786D01*
X12669643Y-16100500D01*
X12698214Y-16086214D01*
X12741071Y-16086214D01*
X12769643Y-16100500D01*
X12783928Y-16114786D01*
X12798214Y-16143357D01*
X12798214Y-16229071D01*
X12783928Y-16257643D01*
X12769643Y-16271929D01*
X12741071Y-16286214D01*
X12698214Y-16286214D01*
X12969643Y-16286214D02*
X12941071Y-16271929D01*
X12926786Y-16243357D01*
X12926786Y-15986214D01*
X13198214Y-16271929D02*
X13169643Y-16286214D01*
X13112500Y-16286214D01*
X13083928Y-16271929D01*
X13069643Y-16243357D01*
X13069643Y-16129071D01*
X13083928Y-16100500D01*
X13112500Y-16086214D01*
X13169643Y-16086214D01*
X13198214Y-16100500D01*
X13212500Y-16129071D01*
X13212500Y-16157643D01*
X13069643Y-16186214D01*
X13326786Y-16271929D02*
X13355357Y-16286214D01*
X13412500Y-16286214D01*
X13441071Y-16271929D01*
X13455357Y-16243357D01*
X13455357Y-16229071D01*
X13441071Y-16200500D01*
X13412500Y-16186214D01*
X13369643Y-16186214D01*
X13341071Y-16171929D01*
X13326786Y-16143357D01*
X13326786Y-16129071D01*
X13341071Y-16100500D01*
X13369643Y-16086214D01*
X13412500Y-16086214D01*
X13441071Y-16100500D01*
X13812500Y-16171929D02*
X14041071Y-16171929D01*
X13926786Y-16286214D02*
X13926786Y-16057643D01*
X14383928Y-15986214D02*
X14569643Y-15986214D01*
X14469643Y-16100500D01*
X14512500Y-16100500D01*
X14541071Y-16114786D01*
X14555357Y-16129071D01*
X14569643Y-16157643D01*
X14569643Y-16229071D01*
X14555357Y-16257643D01*
X14541071Y-16271929D01*
X14512500Y-16286214D01*
X14426786Y-16286214D01*
X14398214Y-16271929D01*
X14383928Y-16257643D01*
X14912500Y-16271929D02*
X14941071Y-16286214D01*
X14998214Y-16286214D01*
X15026786Y-16271929D01*
X15041071Y-16243357D01*
X15041071Y-16229071D01*
X15026786Y-16200500D01*
X14998214Y-16186214D01*
X14955357Y-16186214D01*
X14926786Y-16171929D01*
X14912500Y-16143357D01*
X14912500Y-16129071D01*
X14926786Y-16100500D01*
X14955357Y-16086214D01*
X14998214Y-16086214D01*
X15026786Y-16100500D01*
X15212500Y-16286214D02*
X15183928Y-16271929D01*
X15169643Y-16243357D01*
X15169643Y-15986214D01*
X15369643Y-16286214D02*
X15341071Y-16271929D01*
X15326786Y-16257643D01*
X15312500Y-16229071D01*
X15312500Y-16143357D01*
X15326786Y-16114786D01*
X15341071Y-16100500D01*
X15369643Y-16086214D01*
X15412500Y-16086214D01*
X15441071Y-16100500D01*
X15455357Y-16114786D01*
X15469643Y-16143357D01*
X15469643Y-16229071D01*
X15455357Y-16257643D01*
X15441071Y-16271929D01*
X15412500Y-16286214D01*
X15369643Y-16286214D01*
X15555357Y-16086214D02*
X15669643Y-16086214D01*
X15598214Y-15986214D02*
X15598214Y-16243357D01*
X15612500Y-16271929D01*
X15641071Y-16286214D01*
X15669643Y-16286214D01*
X15755357Y-16271929D02*
X15783928Y-16286214D01*
X15841071Y-16286214D01*
X15869643Y-16271929D01*
X15883928Y-16243357D01*
X15883928Y-16229071D01*
X15869643Y-16200500D01*
X15841071Y-16186214D01*
X15798214Y-16186214D01*
X15769643Y-16171929D01*
X15755357Y-16143357D01*
X15755357Y-16129071D01*
X15769643Y-16100500D01*
X15798214Y-16086214D01*
X15841071Y-16086214D01*
X15869643Y-16100500D01*
X15983928Y-16400500D02*
X15998214Y-16386214D01*
X16026786Y-16343357D01*
X16041071Y-16314786D01*
X16055357Y-16271929D01*
X16069643Y-16200500D01*
X16069643Y-16143357D01*
X16055357Y-16071929D01*
X16041071Y-16029071D01*
X16026786Y-16000500D01*
X15998214Y-15957643D01*
X15983928Y-15943357D01*
X6448000Y-16596000D02*
X6497500Y-16546500D01*
X6448000Y-16497000D01*
X6398500Y-16546500D01*
X6448000Y-16596000D01*
X6841071Y-16382214D02*
X6869643Y-16382214D01*
X6898214Y-16396500D01*
X6912500Y-16410786D01*
X6926786Y-16439357D01*
X6941071Y-16496500D01*
X6941071Y-16567929D01*
X6926786Y-16625071D01*
X6912500Y-16653643D01*
X6898214Y-16667929D01*
X6869643Y-16682214D01*
X6841071Y-16682214D01*
X6812500Y-16667929D01*
X6798214Y-16653643D01*
X6783928Y-16625071D01*
X6769643Y-16567929D01*
X6769643Y-16496500D01*
X6783928Y-16439357D01*
X6798214Y-16410786D01*
X6812500Y-16396500D01*
X6841071Y-16382214D01*
X7069643Y-16653643D02*
X7083928Y-16667929D01*
X7069643Y-16682214D01*
X7055357Y-16667929D01*
X7069643Y-16653643D01*
X7069643Y-16682214D01*
X7226786Y-16682214D02*
X7283928Y-16682214D01*
X7312500Y-16667929D01*
X7326786Y-16653643D01*
X7355357Y-16610786D01*
X7369643Y-16553643D01*
X7369643Y-16439357D01*
X7355357Y-16410786D01*
X7341071Y-16396500D01*
X7312500Y-16382214D01*
X7255357Y-16382214D01*
X7226786Y-16396500D01*
X7212500Y-16410786D01*
X7198214Y-16439357D01*
X7198214Y-16510786D01*
X7212500Y-16539357D01*
X7226786Y-16553643D01*
X7255357Y-16567929D01*
X7312500Y-16567929D01*
X7341071Y-16553643D01*
X7355357Y-16539357D01*
X7369643Y-16510786D01*
X7512500Y-16682214D02*
X7569643Y-16682214D01*
X7598214Y-16667929D01*
X7612500Y-16653643D01*
X7641071Y-16610786D01*
X7655357Y-16553643D01*
X7655357Y-16439357D01*
X7641071Y-16410786D01*
X7626786Y-16396500D01*
X7598214Y-16382214D01*
X7541071Y-16382214D01*
X7512500Y-16396500D01*
X7498214Y-16410786D01*
X7483928Y-16439357D01*
X7483928Y-16510786D01*
X7498214Y-16539357D01*
X7512500Y-16553643D01*
X7541071Y-16567929D01*
X7598214Y-16567929D01*
X7626786Y-16553643D01*
X7641071Y-16539357D01*
X7655357Y-16510786D01*
X7841071Y-16382214D02*
X7869643Y-16382214D01*
X7898214Y-16396500D01*
X7912500Y-16410786D01*
X7926786Y-16439357D01*
X7941071Y-16496500D01*
X7941071Y-16567929D01*
X7926786Y-16625071D01*
X7912500Y-16653643D01*
X7898214Y-16667929D01*
X7869643Y-16682214D01*
X7841071Y-16682214D01*
X7812500Y-16667929D01*
X7798214Y-16653643D01*
X7783928Y-16625071D01*
X7769643Y-16567929D01*
X7769643Y-16496500D01*
X7783928Y-16439357D01*
X7798214Y-16410786D01*
X7812500Y-16396500D01*
X7841071Y-16382214D01*
X8069643Y-16682214D02*
X8069643Y-16482214D01*
X8069643Y-16510786D02*
X8083928Y-16496500D01*
X8112500Y-16482214D01*
X8155357Y-16482214D01*
X8183928Y-16496500D01*
X8198214Y-16525071D01*
X8198214Y-16682214D01*
X8198214Y-16525071D02*
X8212500Y-16496500D01*
X8241071Y-16482214D01*
X8283928Y-16482214D01*
X8312500Y-16496500D01*
X8326786Y-16525071D01*
X8326786Y-16682214D01*
X8469643Y-16682214D02*
X8469643Y-16482214D01*
X8469643Y-16510786D02*
X8483928Y-16496500D01*
X8512500Y-16482214D01*
X8555357Y-16482214D01*
X8583928Y-16496500D01*
X8598214Y-16525071D01*
X8598214Y-16682214D01*
X8598214Y-16525071D02*
X8612500Y-16496500D01*
X8641071Y-16482214D01*
X8683928Y-16482214D01*
X8712500Y-16496500D01*
X8726786Y-16525071D01*
X8726786Y-16682214D01*
X9312500Y-16367929D02*
X9055357Y-16753643D01*
X9698214Y-16382214D02*
X9726786Y-16382214D01*
X9755357Y-16396500D01*
X9769643Y-16410786D01*
X9783928Y-16439357D01*
X9798214Y-16496500D01*
X9798214Y-16567929D01*
X9783928Y-16625071D01*
X9769643Y-16653643D01*
X9755357Y-16667929D01*
X9726786Y-16682214D01*
X9698214Y-16682214D01*
X9669643Y-16667929D01*
X9655357Y-16653643D01*
X9641071Y-16625071D01*
X9626786Y-16567929D01*
X9626786Y-16496500D01*
X9641071Y-16439357D01*
X9655357Y-16410786D01*
X9669643Y-16396500D01*
X9698214Y-16382214D01*
X9926786Y-16653643D02*
X9941071Y-16667929D01*
X9926786Y-16682214D01*
X9912500Y-16667929D01*
X9926786Y-16653643D01*
X9926786Y-16682214D01*
X10126786Y-16382214D02*
X10155357Y-16382214D01*
X10183928Y-16396500D01*
X10198214Y-16410786D01*
X10212500Y-16439357D01*
X10226786Y-16496500D01*
X10226786Y-16567929D01*
X10212500Y-16625071D01*
X10198214Y-16653643D01*
X10183928Y-16667929D01*
X10155357Y-16682214D01*
X10126786Y-16682214D01*
X10098214Y-16667929D01*
X10083928Y-16653643D01*
X10069643Y-16625071D01*
X10055357Y-16567929D01*
X10055357Y-16496500D01*
X10069643Y-16439357D01*
X10083928Y-16410786D01*
X10098214Y-16396500D01*
X10126786Y-16382214D01*
X10326786Y-16382214D02*
X10512500Y-16382214D01*
X10412500Y-16496500D01*
X10455357Y-16496500D01*
X10483928Y-16510786D01*
X10498214Y-16525071D01*
X10512500Y-16553643D01*
X10512500Y-16625071D01*
X10498214Y-16653643D01*
X10483928Y-16667929D01*
X10455357Y-16682214D01*
X10369643Y-16682214D01*
X10341071Y-16667929D01*
X10326786Y-16653643D01*
X10655357Y-16682214D02*
X10712500Y-16682214D01*
X10741071Y-16667929D01*
X10755357Y-16653643D01*
X10783928Y-16610786D01*
X10798214Y-16553643D01*
X10798214Y-16439357D01*
X10783928Y-16410786D01*
X10769643Y-16396500D01*
X10741071Y-16382214D01*
X10683928Y-16382214D01*
X10655357Y-16396500D01*
X10641071Y-16410786D01*
X10626786Y-16439357D01*
X10626786Y-16510786D01*
X10641071Y-16539357D01*
X10655357Y-16553643D01*
X10683928Y-16567929D01*
X10741071Y-16567929D01*
X10769643Y-16553643D01*
X10783928Y-16539357D01*
X10798214Y-16510786D01*
X10983928Y-16382214D02*
X11012500Y-16382214D01*
X11041071Y-16396500D01*
X11055357Y-16410786D01*
X11069643Y-16439357D01*
X11083928Y-16496500D01*
X11083928Y-16567929D01*
X11069643Y-16625071D01*
X11055357Y-16653643D01*
X11041071Y-16667929D01*
X11012500Y-16682214D01*
X10983928Y-16682214D01*
X10955357Y-16667929D01*
X10941071Y-16653643D01*
X10926786Y-16625071D01*
X10912500Y-16567929D01*
X10912500Y-16496500D01*
X10926786Y-16439357D01*
X10941071Y-16410786D01*
X10955357Y-16396500D01*
X10983928Y-16382214D01*
X11198214Y-16382214D02*
X11198214Y-16439357D01*
X11312500Y-16382214D02*
X11312500Y-16439357D01*
X11755357Y-16796500D02*
X11741071Y-16782214D01*
X11712500Y-16739357D01*
X11698214Y-16710786D01*
X11683928Y-16667929D01*
X11669643Y-16596500D01*
X11669643Y-16539357D01*
X11683928Y-16467929D01*
X11698214Y-16425071D01*
X11712500Y-16396500D01*
X11741071Y-16353643D01*
X11755357Y-16339357D01*
X11912500Y-16510786D02*
X11883928Y-16496500D01*
X11869643Y-16482214D01*
X11855357Y-16453643D01*
X11855357Y-16439357D01*
X11869643Y-16410786D01*
X11883928Y-16396500D01*
X11912500Y-16382214D01*
X11969643Y-16382214D01*
X11998214Y-16396500D01*
X12012500Y-16410786D01*
X12026786Y-16439357D01*
X12026786Y-16453643D01*
X12012500Y-16482214D01*
X11998214Y-16496500D01*
X11969643Y-16510786D01*
X11912500Y-16510786D01*
X11883928Y-16525071D01*
X11869643Y-16539357D01*
X11855357Y-16567929D01*
X11855357Y-16625071D01*
X11869643Y-16653643D01*
X11883928Y-16667929D01*
X11912500Y-16682214D01*
X11969643Y-16682214D01*
X11998214Y-16667929D01*
X12012500Y-16653643D01*
X12026786Y-16625071D01*
X12026786Y-16567929D01*
X12012500Y-16539357D01*
X11998214Y-16525071D01*
X11969643Y-16510786D01*
X12383928Y-16682214D02*
X12383928Y-16382214D01*
X12512500Y-16682214D02*
X12512500Y-16525071D01*
X12498214Y-16496500D01*
X12469643Y-16482214D01*
X12426786Y-16482214D01*
X12398214Y-16496500D01*
X12383928Y-16510786D01*
X12698214Y-16682214D02*
X12669643Y-16667929D01*
X12655357Y-16653643D01*
X12641071Y-16625071D01*
X12641071Y-16539357D01*
X12655357Y-16510786D01*
X12669643Y-16496500D01*
X12698214Y-16482214D01*
X12741071Y-16482214D01*
X12769643Y-16496500D01*
X12783928Y-16510786D01*
X12798214Y-16539357D01*
X12798214Y-16625071D01*
X12783928Y-16653643D01*
X12769643Y-16667929D01*
X12741071Y-16682214D01*
X12698214Y-16682214D01*
X12969643Y-16682214D02*
X12941071Y-16667929D01*
X12926786Y-16639357D01*
X12926786Y-16382214D01*
X13198214Y-16667929D02*
X13169643Y-16682214D01*
X13112500Y-16682214D01*
X13083928Y-16667929D01*
X13069643Y-16639357D01*
X13069643Y-16525071D01*
X13083928Y-16496500D01*
X13112500Y-16482214D01*
X13169643Y-16482214D01*
X13198214Y-16496500D01*
X13212500Y-16525071D01*
X13212500Y-16553643D01*
X13069643Y-16582214D01*
X13326786Y-16667929D02*
X13355357Y-16682214D01*
X13412500Y-16682214D01*
X13441071Y-16667929D01*
X13455357Y-16639357D01*
X13455357Y-16625071D01*
X13441071Y-16596500D01*
X13412500Y-16582214D01*
X13369643Y-16582214D01*
X13341071Y-16567929D01*
X13326786Y-16539357D01*
X13326786Y-16525071D01*
X13341071Y-16496500D01*
X13369643Y-16482214D01*
X13412500Y-16482214D01*
X13441071Y-16496500D01*
X13555357Y-16796500D02*
X13569643Y-16782214D01*
X13598214Y-16739357D01*
X13612500Y-16710786D01*
X13626786Y-16667929D01*
X13641071Y-16596500D01*
X13641071Y-16539357D01*
X13626786Y-16467929D01*
X13612500Y-16425071D01*
X13598214Y-16396500D01*
X13569643Y-16353643D01*
X13555357Y-16339357D01*
X6397500Y-16892500D02*
X6497500Y-16992500D01*
X6497500Y-16892500D02*
X6397500Y-16992500D01*
X6497500Y-16942500D02*
G75*
G03*
X6497500Y-16942500I-50000J0D01*
G01*
X6941071Y-17078214D02*
X6769643Y-17078214D01*
X6855357Y-17078214D02*
X6855357Y-16778214D01*
X6826786Y-16821072D01*
X6798214Y-16849643D01*
X6769643Y-16863929D01*
X7069643Y-17049643D02*
X7083928Y-17063929D01*
X7069643Y-17078214D01*
X7055357Y-17063929D01*
X7069643Y-17049643D01*
X7069643Y-17078214D01*
X7269643Y-16778214D02*
X7298214Y-16778214D01*
X7326786Y-16792500D01*
X7341071Y-16806786D01*
X7355357Y-16835357D01*
X7369643Y-16892500D01*
X7369643Y-16963929D01*
X7355357Y-17021072D01*
X7341071Y-17049643D01*
X7326786Y-17063929D01*
X7298214Y-17078214D01*
X7269643Y-17078214D01*
X7241071Y-17063929D01*
X7226786Y-17049643D01*
X7212500Y-17021072D01*
X7198214Y-16963929D01*
X7198214Y-16892500D01*
X7212500Y-16835357D01*
X7226786Y-16806786D01*
X7241071Y-16792500D01*
X7269643Y-16778214D01*
X7555357Y-16778214D02*
X7583928Y-16778214D01*
X7612500Y-16792500D01*
X7626786Y-16806786D01*
X7641071Y-16835357D01*
X7655357Y-16892500D01*
X7655357Y-16963929D01*
X7641071Y-17021072D01*
X7626786Y-17049643D01*
X7612500Y-17063929D01*
X7583928Y-17078214D01*
X7555357Y-17078214D01*
X7526786Y-17063929D01*
X7512500Y-17049643D01*
X7498214Y-17021072D01*
X7483928Y-16963929D01*
X7483928Y-16892500D01*
X7498214Y-16835357D01*
X7512500Y-16806786D01*
X7526786Y-16792500D01*
X7555357Y-16778214D01*
X7841071Y-16778214D02*
X7869643Y-16778214D01*
X7898214Y-16792500D01*
X7912500Y-16806786D01*
X7926786Y-16835357D01*
X7941071Y-16892500D01*
X7941071Y-16963929D01*
X7926786Y-17021072D01*
X7912500Y-17049643D01*
X7898214Y-17063929D01*
X7869643Y-17078214D01*
X7841071Y-17078214D01*
X7812500Y-17063929D01*
X7798214Y-17049643D01*
X7783928Y-17021072D01*
X7769643Y-16963929D01*
X7769643Y-16892500D01*
X7783928Y-16835357D01*
X7798214Y-16806786D01*
X7812500Y-16792500D01*
X7841071Y-16778214D01*
X8069643Y-17078214D02*
X8069643Y-16878214D01*
X8069643Y-16906786D02*
X8083928Y-16892500D01*
X8112500Y-16878214D01*
X8155357Y-16878214D01*
X8183928Y-16892500D01*
X8198214Y-16921072D01*
X8198214Y-17078214D01*
X8198214Y-16921072D02*
X8212500Y-16892500D01*
X8241071Y-16878214D01*
X8283928Y-16878214D01*
X8312500Y-16892500D01*
X8326786Y-16921072D01*
X8326786Y-17078214D01*
X8469643Y-17078214D02*
X8469643Y-16878214D01*
X8469643Y-16906786D02*
X8483928Y-16892500D01*
X8512500Y-16878214D01*
X8555357Y-16878214D01*
X8583928Y-16892500D01*
X8598214Y-16921072D01*
X8598214Y-17078214D01*
X8598214Y-16921072D02*
X8612500Y-16892500D01*
X8641071Y-16878214D01*
X8683928Y-16878214D01*
X8712500Y-16892500D01*
X8726786Y-16921072D01*
X8726786Y-17078214D01*
X9312500Y-16763929D02*
X9055357Y-17149643D01*
X9698214Y-16778214D02*
X9726786Y-16778214D01*
X9755357Y-16792500D01*
X9769643Y-16806786D01*
X9783928Y-16835357D01*
X9798214Y-16892500D01*
X9798214Y-16963929D01*
X9783928Y-17021072D01*
X9769643Y-17049643D01*
X9755357Y-17063929D01*
X9726786Y-17078214D01*
X9698214Y-17078214D01*
X9669643Y-17063929D01*
X9655357Y-17049643D01*
X9641071Y-17021072D01*
X9626786Y-16963929D01*
X9626786Y-16892500D01*
X9641071Y-16835357D01*
X9655357Y-16806786D01*
X9669643Y-16792500D01*
X9698214Y-16778214D01*
X9926786Y-17049643D02*
X9941071Y-17063929D01*
X9926786Y-17078214D01*
X9912500Y-17063929D01*
X9926786Y-17049643D01*
X9926786Y-17078214D01*
X10126786Y-16778214D02*
X10155357Y-16778214D01*
X10183928Y-16792500D01*
X10198214Y-16806786D01*
X10212500Y-16835357D01*
X10226786Y-16892500D01*
X10226786Y-16963929D01*
X10212500Y-17021072D01*
X10198214Y-17049643D01*
X10183928Y-17063929D01*
X10155357Y-17078214D01*
X10126786Y-17078214D01*
X10098214Y-17063929D01*
X10083928Y-17049643D01*
X10069643Y-17021072D01*
X10055357Y-16963929D01*
X10055357Y-16892500D01*
X10069643Y-16835357D01*
X10083928Y-16806786D01*
X10098214Y-16792500D01*
X10126786Y-16778214D01*
X10326786Y-16778214D02*
X10512500Y-16778214D01*
X10412500Y-16892500D01*
X10455357Y-16892500D01*
X10483928Y-16906786D01*
X10498214Y-16921072D01*
X10512500Y-16949643D01*
X10512500Y-17021072D01*
X10498214Y-17049643D01*
X10483928Y-17063929D01*
X10455357Y-17078214D01*
X10369643Y-17078214D01*
X10341071Y-17063929D01*
X10326786Y-17049643D01*
X10655357Y-17078214D02*
X10712500Y-17078214D01*
X10741071Y-17063929D01*
X10755357Y-17049643D01*
X10783928Y-17006786D01*
X10798214Y-16949643D01*
X10798214Y-16835357D01*
X10783928Y-16806786D01*
X10769643Y-16792500D01*
X10741071Y-16778214D01*
X10683928Y-16778214D01*
X10655357Y-16792500D01*
X10641071Y-16806786D01*
X10626786Y-16835357D01*
X10626786Y-16906786D01*
X10641071Y-16935357D01*
X10655357Y-16949643D01*
X10683928Y-16963929D01*
X10741071Y-16963929D01*
X10769643Y-16949643D01*
X10783928Y-16935357D01*
X10798214Y-16906786D01*
X11055357Y-16878214D02*
X11055357Y-17078214D01*
X10983928Y-16763929D02*
X10912500Y-16978214D01*
X11098214Y-16978214D01*
X11198214Y-16778214D02*
X11198214Y-16835357D01*
X11312500Y-16778214D02*
X11312500Y-16835357D01*
X11755357Y-17192500D02*
X11741071Y-17178214D01*
X11712500Y-17135357D01*
X11698214Y-17106786D01*
X11683928Y-17063929D01*
X11669643Y-16992500D01*
X11669643Y-16935357D01*
X11683928Y-16863929D01*
X11698214Y-16821072D01*
X11712500Y-16792500D01*
X11741071Y-16749643D01*
X11755357Y-16735357D01*
X11841071Y-16778214D02*
X12041071Y-16778214D01*
X11912500Y-17078214D01*
X12283928Y-16778214D02*
X12226786Y-16778214D01*
X12198214Y-16792500D01*
X12183928Y-16806786D01*
X12155357Y-16849643D01*
X12141071Y-16906786D01*
X12141071Y-17021072D01*
X12155357Y-17049643D01*
X12169643Y-17063929D01*
X12198214Y-17078214D01*
X12255357Y-17078214D01*
X12283928Y-17063929D01*
X12298214Y-17049643D01*
X12312500Y-17021072D01*
X12312500Y-16949643D01*
X12298214Y-16921072D01*
X12283928Y-16906786D01*
X12255357Y-16892500D01*
X12198214Y-16892500D01*
X12169643Y-16906786D01*
X12155357Y-16921072D01*
X12141071Y-16949643D01*
X12669643Y-17078214D02*
X12669643Y-16778214D01*
X12798214Y-17078214D02*
X12798214Y-16921072D01*
X12783928Y-16892500D01*
X12755357Y-16878214D01*
X12712500Y-16878214D01*
X12683928Y-16892500D01*
X12669643Y-16906786D01*
X12983928Y-17078214D02*
X12955357Y-17063929D01*
X12941071Y-17049643D01*
X12926786Y-17021072D01*
X12926786Y-16935357D01*
X12941071Y-16906786D01*
X12955357Y-16892500D01*
X12983928Y-16878214D01*
X13026786Y-16878214D01*
X13055357Y-16892500D01*
X13069643Y-16906786D01*
X13083928Y-16935357D01*
X13083928Y-17021072D01*
X13069643Y-17049643D01*
X13055357Y-17063929D01*
X13026786Y-17078214D01*
X12983928Y-17078214D01*
X13255357Y-17078214D02*
X13226786Y-17063929D01*
X13212500Y-17035357D01*
X13212500Y-16778214D01*
X13483928Y-17063929D02*
X13455357Y-17078214D01*
X13398214Y-17078214D01*
X13369643Y-17063929D01*
X13355357Y-17035357D01*
X13355357Y-16921072D01*
X13369643Y-16892500D01*
X13398214Y-16878214D01*
X13455357Y-16878214D01*
X13483928Y-16892500D01*
X13498214Y-16921072D01*
X13498214Y-16949643D01*
X13355357Y-16978214D01*
X13612500Y-17063929D02*
X13641071Y-17078214D01*
X13698214Y-17078214D01*
X13726786Y-17063929D01*
X13741071Y-17035357D01*
X13741071Y-17021072D01*
X13726786Y-16992500D01*
X13698214Y-16978214D01*
X13655357Y-16978214D01*
X13626786Y-16963929D01*
X13612500Y-16935357D01*
X13612500Y-16921072D01*
X13626786Y-16892500D01*
X13655357Y-16878214D01*
X13698214Y-16878214D01*
X13726786Y-16892500D01*
X13841071Y-17192500D02*
X13855357Y-17178214D01*
X13883928Y-17135357D01*
X13898214Y-17106786D01*
X13912500Y-17063929D01*
X13926786Y-16992500D01*
X13926786Y-16935357D01*
X13912500Y-16863929D01*
X13898214Y-16821072D01*
X13883928Y-16792500D01*
X13855357Y-16749643D01*
X13841071Y-16735357D01*
M02*
