G04 #@! TF.GenerationSoftware,KiCad,Pcbnew,(5.1.10)-1*
G04 #@! TF.CreationDate,2022-01-02T12:56:15-07:00*
G04 #@! TF.ProjectId,SAMD21,53414d44-3231-42e6-9b69-6361645f7063,rev?*
G04 #@! TF.SameCoordinates,Original*
G04 #@! TF.FileFunction,Legend,Top*
G04 #@! TF.FilePolarity,Positive*
%FSLAX46Y46*%
G04 Gerber Fmt 4.6, Leading zero omitted, Abs format (unit mm)*
G04 Created by KiCad (PCBNEW (5.1.10)-1) date 2022-01-02 12:56:15*
%MOMM*%
%LPD*%
G01*
G04 APERTURE LIST*
%ADD10C,0.160000*%
%ADD11C,0.180000*%
%ADD12C,0.100000*%
%ADD13C,0.120000*%
%ADD14C,0.200000*%
%ADD15C,0.250000*%
%ADD16C,0.150000*%
%ADD17C,0.254000*%
%ADD18O,1.550000X0.890000*%
%ADD19R,1.550000X1.200000*%
%ADD20R,1.550000X1.500000*%
%ADD21O,0.950000X1.250000*%
%ADD22R,1.350000X0.400000*%
%ADD23R,4.400000X1.800000*%
%ADD24O,4.000000X1.800000*%
%ADD25O,1.800000X4.000000*%
%ADD26O,1.700000X1.700000*%
%ADD27R,1.700000X1.700000*%
%ADD28C,1.540000*%
%ADD29R,1.550000X1.000000*%
%ADD30C,0.900000*%
%ADD31R,2.500000X0.500000*%
%ADD32R,2.500000X2.000000*%
%ADD33R,1.500000X0.650000*%
%ADD34R,3.200000X1.850000*%
%ADD35R,0.900000X1.850000*%
%ADD36R,0.300000X1.475000*%
%ADD37R,1.475000X0.300000*%
%ADD38R,0.900000X1.200000*%
%ADD39R,1.200000X0.900000*%
G04 APERTURE END LIST*
D10*
X120900000Y-65061904D02*
X120852380Y-65157142D01*
X120852380Y-65300000D01*
X120900000Y-65442857D01*
X120995238Y-65538095D01*
X121090476Y-65585714D01*
X121280952Y-65633333D01*
X121423809Y-65633333D01*
X121614285Y-65585714D01*
X121709523Y-65538095D01*
X121804761Y-65442857D01*
X121852380Y-65300000D01*
X121852380Y-65204761D01*
X121804761Y-65061904D01*
X121757142Y-65014285D01*
X121423809Y-65014285D01*
X121423809Y-65204761D01*
X121852380Y-64585714D02*
X120852380Y-64585714D01*
X121852380Y-64014285D01*
X120852380Y-64014285D01*
X121852380Y-63538095D02*
X120852380Y-63538095D01*
X120852380Y-63300000D01*
X120900000Y-63157142D01*
X120995238Y-63061904D01*
X121090476Y-63014285D01*
X121280952Y-62966666D01*
X121423809Y-62966666D01*
X121614285Y-63014285D01*
X121709523Y-63061904D01*
X121804761Y-63157142D01*
X121852380Y-63300000D01*
X121852380Y-63538095D01*
X119302380Y-66442856D02*
X118302380Y-66442856D01*
X118302380Y-66061904D01*
X118350000Y-65966666D01*
X118397619Y-65919047D01*
X118492857Y-65871428D01*
X118635714Y-65871428D01*
X118730952Y-65919047D01*
X118778571Y-65966666D01*
X118826190Y-66061904D01*
X118826190Y-66442856D01*
X118778571Y-65109523D02*
X118826190Y-64966666D01*
X118873809Y-64919047D01*
X118969047Y-64871428D01*
X119111904Y-64871428D01*
X119207142Y-64919047D01*
X119254761Y-64966666D01*
X119302380Y-65061904D01*
X119302380Y-65442856D01*
X118302380Y-65442856D01*
X118302380Y-65109523D01*
X118350000Y-65014285D01*
X118397619Y-64966666D01*
X118492857Y-64919047D01*
X118588095Y-64919047D01*
X118683333Y-64966666D01*
X118730952Y-65014285D01*
X118778571Y-65109523D01*
X118778571Y-65442856D01*
X118397619Y-64490475D02*
X118350000Y-64442856D01*
X118302380Y-64347618D01*
X118302380Y-64109523D01*
X118350000Y-64014285D01*
X118397619Y-63966666D01*
X118492857Y-63919047D01*
X118588095Y-63919047D01*
X118730952Y-63966666D01*
X119302380Y-64538094D01*
X119302380Y-63919047D01*
X118302380Y-63585713D02*
X118302380Y-62966666D01*
X118683333Y-63299999D01*
X118683333Y-63157142D01*
X118730952Y-63061904D01*
X118778571Y-63014285D01*
X118873809Y-62966666D01*
X119111904Y-62966666D01*
X119207142Y-63014285D01*
X119254761Y-63061904D01*
X119302380Y-63157142D01*
X119302380Y-63442856D01*
X119254761Y-63538094D01*
X119207142Y-63585713D01*
X116752380Y-66300000D02*
X115752380Y-66300000D01*
X115752380Y-65919047D01*
X115800000Y-65823809D01*
X115847619Y-65776190D01*
X115942857Y-65728571D01*
X116085714Y-65728571D01*
X116180952Y-65776190D01*
X116228571Y-65823809D01*
X116276190Y-65919047D01*
X116276190Y-66300000D01*
X116466666Y-65347619D02*
X116466666Y-64871428D01*
X116752380Y-65442857D02*
X115752380Y-65109523D01*
X116752380Y-64776190D01*
X115847619Y-64490476D02*
X115800000Y-64442857D01*
X115752380Y-64347619D01*
X115752380Y-64109523D01*
X115800000Y-64014285D01*
X115847619Y-63966666D01*
X115942857Y-63919047D01*
X116038095Y-63919047D01*
X116180952Y-63966666D01*
X116752380Y-64538095D01*
X116752380Y-63919047D01*
X116180952Y-63347619D02*
X116133333Y-63442857D01*
X116085714Y-63490476D01*
X115990476Y-63538095D01*
X115942857Y-63538095D01*
X115847619Y-63490476D01*
X115800000Y-63442857D01*
X115752380Y-63347619D01*
X115752380Y-63157143D01*
X115800000Y-63061904D01*
X115847619Y-63014285D01*
X115942857Y-62966666D01*
X115990476Y-62966666D01*
X116085714Y-63014285D01*
X116133333Y-63061904D01*
X116180952Y-63157143D01*
X116180952Y-63347619D01*
X116228571Y-63442857D01*
X116276190Y-63490476D01*
X116371428Y-63538095D01*
X116561904Y-63538095D01*
X116657142Y-63490476D01*
X116704761Y-63442857D01*
X116752380Y-63347619D01*
X116752380Y-63157143D01*
X116704761Y-63061904D01*
X116657142Y-63014285D01*
X116561904Y-62966666D01*
X116371428Y-62966666D01*
X116276190Y-63014285D01*
X116228571Y-63061904D01*
X116180952Y-63157143D01*
X111652380Y-66442856D02*
X110652380Y-66442856D01*
X110652380Y-66061904D01*
X110700000Y-65966666D01*
X110747619Y-65919047D01*
X110842857Y-65871428D01*
X110985714Y-65871428D01*
X111080952Y-65919047D01*
X111128571Y-65966666D01*
X111176190Y-66061904D01*
X111176190Y-66442856D01*
X111128571Y-65109523D02*
X111176190Y-64966666D01*
X111223809Y-64919047D01*
X111319047Y-64871428D01*
X111461904Y-64871428D01*
X111557142Y-64919047D01*
X111604761Y-64966666D01*
X111652380Y-65061904D01*
X111652380Y-65442856D01*
X110652380Y-65442856D01*
X110652380Y-65109523D01*
X110700000Y-65014285D01*
X110747619Y-64966666D01*
X110842857Y-64919047D01*
X110938095Y-64919047D01*
X111033333Y-64966666D01*
X111080952Y-65014285D01*
X111128571Y-65109523D01*
X111128571Y-65442856D01*
X110652380Y-64252380D02*
X110652380Y-64157142D01*
X110700000Y-64061904D01*
X110747619Y-64014285D01*
X110842857Y-63966666D01*
X111033333Y-63919047D01*
X111271428Y-63919047D01*
X111461904Y-63966666D01*
X111557142Y-64014285D01*
X111604761Y-64061904D01*
X111652380Y-64157142D01*
X111652380Y-64252380D01*
X111604761Y-64347618D01*
X111557142Y-64395237D01*
X111461904Y-64442856D01*
X111271428Y-64490475D01*
X111033333Y-64490475D01*
X110842857Y-64442856D01*
X110747619Y-64395237D01*
X110700000Y-64347618D01*
X110652380Y-64252380D01*
X110652380Y-63585713D02*
X110652380Y-62966666D01*
X111033333Y-63299999D01*
X111033333Y-63157142D01*
X111080952Y-63061904D01*
X111128571Y-63014285D01*
X111223809Y-62966666D01*
X111461904Y-62966666D01*
X111557142Y-63014285D01*
X111604761Y-63061904D01*
X111652380Y-63157142D01*
X111652380Y-63442856D01*
X111604761Y-63538094D01*
X111557142Y-63585713D01*
X114202380Y-66300000D02*
X113202380Y-66300000D01*
X113202380Y-65919047D01*
X113250000Y-65823809D01*
X113297619Y-65776190D01*
X113392857Y-65728571D01*
X113535714Y-65728571D01*
X113630952Y-65776190D01*
X113678571Y-65823809D01*
X113726190Y-65919047D01*
X113726190Y-66300000D01*
X113916666Y-65347619D02*
X113916666Y-64871428D01*
X114202380Y-65442857D02*
X113202380Y-65109523D01*
X114202380Y-64776190D01*
X113202380Y-64538095D02*
X113202380Y-63919047D01*
X113583333Y-64252381D01*
X113583333Y-64109523D01*
X113630952Y-64014285D01*
X113678571Y-63966666D01*
X113773809Y-63919047D01*
X114011904Y-63919047D01*
X114107142Y-63966666D01*
X114154761Y-64014285D01*
X114202380Y-64109523D01*
X114202380Y-64395238D01*
X114154761Y-64490476D01*
X114107142Y-64538095D01*
X114202380Y-62966666D02*
X114202380Y-63538095D01*
X114202380Y-63252381D02*
X113202380Y-63252381D01*
X113345238Y-63347619D01*
X113440476Y-63442857D01*
X113488095Y-63538095D01*
X114277380Y-55642857D02*
X113277380Y-55642857D01*
X113277380Y-55261904D01*
X113325000Y-55166666D01*
X113372619Y-55119047D01*
X113467857Y-55071428D01*
X113610714Y-55071428D01*
X113705952Y-55119047D01*
X113753571Y-55166666D01*
X113801190Y-55261904D01*
X113801190Y-55642857D01*
X113991666Y-54690476D02*
X113991666Y-54214285D01*
X114277380Y-54785714D02*
X113277380Y-54452380D01*
X114277380Y-54119047D01*
X113277380Y-53880952D02*
X113277380Y-53261904D01*
X113658333Y-53595238D01*
X113658333Y-53452380D01*
X113705952Y-53357142D01*
X113753571Y-53309523D01*
X113848809Y-53261904D01*
X114086904Y-53261904D01*
X114182142Y-53309523D01*
X114229761Y-53357142D01*
X114277380Y-53452380D01*
X114277380Y-53738095D01*
X114229761Y-53833333D01*
X114182142Y-53880952D01*
X113277380Y-52642857D02*
X113277380Y-52547619D01*
X113325000Y-52452380D01*
X113372619Y-52404761D01*
X113467857Y-52357142D01*
X113658333Y-52309523D01*
X113896428Y-52309523D01*
X114086904Y-52357142D01*
X114182142Y-52404761D01*
X114229761Y-52452380D01*
X114277380Y-52547619D01*
X114277380Y-52642857D01*
X114229761Y-52738095D01*
X114182142Y-52785714D01*
X114086904Y-52833333D01*
X113896428Y-52880952D01*
X113658333Y-52880952D01*
X113467857Y-52833333D01*
X113372619Y-52785714D01*
X113325000Y-52738095D01*
X113277380Y-52642857D01*
X120852380Y-55738095D02*
X120852380Y-55119047D01*
X121233333Y-55452380D01*
X121233333Y-55309523D01*
X121280952Y-55214285D01*
X121328571Y-55166666D01*
X121423809Y-55119047D01*
X121661904Y-55119047D01*
X121757142Y-55166666D01*
X121804761Y-55214285D01*
X121852380Y-55309523D01*
X121852380Y-55595238D01*
X121804761Y-55690476D01*
X121757142Y-55738095D01*
X120852380Y-54833333D02*
X121852380Y-54500000D01*
X120852380Y-54166666D01*
X120852380Y-53928571D02*
X120852380Y-53309523D01*
X121233333Y-53642857D01*
X121233333Y-53500000D01*
X121280952Y-53404761D01*
X121328571Y-53357142D01*
X121423809Y-53309523D01*
X121661904Y-53309523D01*
X121757142Y-53357142D01*
X121804761Y-53404761D01*
X121852380Y-53500000D01*
X121852380Y-53785714D01*
X121804761Y-53880952D01*
X121757142Y-53928571D01*
X119327380Y-55642856D02*
X118327380Y-55642856D01*
X118327380Y-55261904D01*
X118375000Y-55166666D01*
X118422619Y-55119047D01*
X118517857Y-55071428D01*
X118660714Y-55071428D01*
X118755952Y-55119047D01*
X118803571Y-55166666D01*
X118851190Y-55261904D01*
X118851190Y-55642856D01*
X118803571Y-54309523D02*
X118851190Y-54166666D01*
X118898809Y-54119047D01*
X118994047Y-54071428D01*
X119136904Y-54071428D01*
X119232142Y-54119047D01*
X119279761Y-54166666D01*
X119327380Y-54261904D01*
X119327380Y-54642856D01*
X118327380Y-54642856D01*
X118327380Y-54309523D01*
X118375000Y-54214285D01*
X118422619Y-54166666D01*
X118517857Y-54119047D01*
X118613095Y-54119047D01*
X118708333Y-54166666D01*
X118755952Y-54214285D01*
X118803571Y-54309523D01*
X118803571Y-54642856D01*
X118422619Y-53690475D02*
X118375000Y-53642856D01*
X118327380Y-53547618D01*
X118327380Y-53309523D01*
X118375000Y-53214285D01*
X118422619Y-53166666D01*
X118517857Y-53119047D01*
X118613095Y-53119047D01*
X118755952Y-53166666D01*
X119327380Y-53738094D01*
X119327380Y-53119047D01*
X118422619Y-52738094D02*
X118375000Y-52690475D01*
X118327380Y-52595237D01*
X118327380Y-52357142D01*
X118375000Y-52261904D01*
X118422619Y-52214285D01*
X118517857Y-52166666D01*
X118613095Y-52166666D01*
X118755952Y-52214285D01*
X119327380Y-52785713D01*
X119327380Y-52166666D01*
X116802380Y-55642857D02*
X115802380Y-55642857D01*
X115802380Y-55261904D01*
X115850000Y-55166666D01*
X115897619Y-55119047D01*
X115992857Y-55071428D01*
X116135714Y-55071428D01*
X116230952Y-55119047D01*
X116278571Y-55166666D01*
X116326190Y-55261904D01*
X116326190Y-55642857D01*
X116516666Y-54690476D02*
X116516666Y-54214285D01*
X116802380Y-54785714D02*
X115802380Y-54452380D01*
X116802380Y-54119047D01*
X115897619Y-53833333D02*
X115850000Y-53785714D01*
X115802380Y-53690476D01*
X115802380Y-53452380D01*
X115850000Y-53357142D01*
X115897619Y-53309523D01*
X115992857Y-53261904D01*
X116088095Y-53261904D01*
X116230952Y-53309523D01*
X116802380Y-53880952D01*
X116802380Y-53261904D01*
X115802380Y-52928571D02*
X115802380Y-52261904D01*
X116802380Y-52690476D01*
X111752380Y-55642856D02*
X110752380Y-55642856D01*
X110752380Y-55261904D01*
X110800000Y-55166666D01*
X110847619Y-55119047D01*
X110942857Y-55071428D01*
X111085714Y-55071428D01*
X111180952Y-55119047D01*
X111228571Y-55166666D01*
X111276190Y-55261904D01*
X111276190Y-55642856D01*
X111228571Y-54309523D02*
X111276190Y-54166666D01*
X111323809Y-54119047D01*
X111419047Y-54071428D01*
X111561904Y-54071428D01*
X111657142Y-54119047D01*
X111704761Y-54166666D01*
X111752380Y-54261904D01*
X111752380Y-54642856D01*
X110752380Y-54642856D01*
X110752380Y-54309523D01*
X110800000Y-54214285D01*
X110847619Y-54166666D01*
X110942857Y-54119047D01*
X111038095Y-54119047D01*
X111133333Y-54166666D01*
X111180952Y-54214285D01*
X111228571Y-54309523D01*
X111228571Y-54642856D01*
X110752380Y-53452380D02*
X110752380Y-53357142D01*
X110800000Y-53261904D01*
X110847619Y-53214285D01*
X110942857Y-53166666D01*
X111133333Y-53119047D01*
X111371428Y-53119047D01*
X111561904Y-53166666D01*
X111657142Y-53214285D01*
X111704761Y-53261904D01*
X111752380Y-53357142D01*
X111752380Y-53452380D01*
X111704761Y-53547618D01*
X111657142Y-53595237D01*
X111561904Y-53642856D01*
X111371428Y-53690475D01*
X111133333Y-53690475D01*
X110942857Y-53642856D01*
X110847619Y-53595237D01*
X110800000Y-53547618D01*
X110752380Y-53452380D01*
X110847619Y-52738094D02*
X110800000Y-52690475D01*
X110752380Y-52595237D01*
X110752380Y-52357142D01*
X110800000Y-52261904D01*
X110847619Y-52214285D01*
X110942857Y-52166666D01*
X111038095Y-52166666D01*
X111180952Y-52214285D01*
X111752380Y-52785713D01*
X111752380Y-52166666D01*
X122052380Y-108742857D02*
X121052380Y-108742857D01*
X121052380Y-108361904D01*
X121100000Y-108266666D01*
X121147619Y-108219047D01*
X121242857Y-108171428D01*
X121385714Y-108171428D01*
X121480952Y-108219047D01*
X121528571Y-108266666D01*
X121576190Y-108361904D01*
X121576190Y-108742857D01*
X121766666Y-107790476D02*
X121766666Y-107314285D01*
X122052380Y-107885714D02*
X121052380Y-107552380D01*
X122052380Y-107219047D01*
X122052380Y-106361904D02*
X122052380Y-106933333D01*
X122052380Y-106647619D02*
X121052380Y-106647619D01*
X121195238Y-106742857D01*
X121290476Y-106838095D01*
X121338095Y-106933333D01*
X121052380Y-105457142D02*
X121052380Y-105933333D01*
X121528571Y-105980952D01*
X121480952Y-105933333D01*
X121433333Y-105838095D01*
X121433333Y-105600000D01*
X121480952Y-105504761D01*
X121528571Y-105457142D01*
X121623809Y-105409523D01*
X121861904Y-105409523D01*
X121957142Y-105457142D01*
X122004761Y-105504761D01*
X122052380Y-105600000D01*
X122052380Y-105838095D01*
X122004761Y-105933333D01*
X121957142Y-105980952D01*
X119512380Y-108742857D02*
X118512380Y-108742857D01*
X118512380Y-108361904D01*
X118560000Y-108266666D01*
X118607619Y-108219047D01*
X118702857Y-108171428D01*
X118845714Y-108171428D01*
X118940952Y-108219047D01*
X118988571Y-108266666D01*
X119036190Y-108361904D01*
X119036190Y-108742857D01*
X119226666Y-107790476D02*
X119226666Y-107314285D01*
X119512380Y-107885714D02*
X118512380Y-107552380D01*
X119512380Y-107219047D01*
X119512380Y-106361904D02*
X119512380Y-106933333D01*
X119512380Y-106647619D02*
X118512380Y-106647619D01*
X118655238Y-106742857D01*
X118750476Y-106838095D01*
X118798095Y-106933333D01*
X118512380Y-106028571D02*
X118512380Y-105409523D01*
X118893333Y-105742857D01*
X118893333Y-105600000D01*
X118940952Y-105504761D01*
X118988571Y-105457142D01*
X119083809Y-105409523D01*
X119321904Y-105409523D01*
X119417142Y-105457142D01*
X119464761Y-105504761D01*
X119512380Y-105600000D01*
X119512380Y-105885714D01*
X119464761Y-105980952D01*
X119417142Y-106028571D01*
X116972380Y-108742856D02*
X115972380Y-108742856D01*
X115972380Y-108361904D01*
X116020000Y-108266666D01*
X116067619Y-108219047D01*
X116162857Y-108171428D01*
X116305714Y-108171428D01*
X116400952Y-108219047D01*
X116448571Y-108266666D01*
X116496190Y-108361904D01*
X116496190Y-108742856D01*
X116448571Y-107409523D02*
X116496190Y-107266666D01*
X116543809Y-107219047D01*
X116639047Y-107171428D01*
X116781904Y-107171428D01*
X116877142Y-107219047D01*
X116924761Y-107266666D01*
X116972380Y-107361904D01*
X116972380Y-107742856D01*
X115972380Y-107742856D01*
X115972380Y-107409523D01*
X116020000Y-107314285D01*
X116067619Y-107266666D01*
X116162857Y-107219047D01*
X116258095Y-107219047D01*
X116353333Y-107266666D01*
X116400952Y-107314285D01*
X116448571Y-107409523D01*
X116448571Y-107742856D01*
X116972380Y-106219047D02*
X116972380Y-106790475D01*
X116972380Y-106504761D02*
X115972380Y-106504761D01*
X116115238Y-106599999D01*
X116210476Y-106695237D01*
X116258095Y-106790475D01*
X116972380Y-105266666D02*
X116972380Y-105838094D01*
X116972380Y-105552380D02*
X115972380Y-105552380D01*
X116115238Y-105647618D01*
X116210476Y-105742856D01*
X116258095Y-105838094D01*
X114432380Y-108742857D02*
X113432380Y-108742857D01*
X113432380Y-108361904D01*
X113480000Y-108266666D01*
X113527619Y-108219047D01*
X113622857Y-108171428D01*
X113765714Y-108171428D01*
X113860952Y-108219047D01*
X113908571Y-108266666D01*
X113956190Y-108361904D01*
X113956190Y-108742857D01*
X114146666Y-107790476D02*
X114146666Y-107314285D01*
X114432380Y-107885714D02*
X113432380Y-107552380D01*
X114432380Y-107219047D01*
X114432380Y-106361904D02*
X114432380Y-106933333D01*
X114432380Y-106647619D02*
X113432380Y-106647619D01*
X113575238Y-106742857D01*
X113670476Y-106838095D01*
X113718095Y-106933333D01*
X114432380Y-105409523D02*
X114432380Y-105980952D01*
X114432380Y-105695238D02*
X113432380Y-105695238D01*
X113575238Y-105790476D01*
X113670476Y-105885714D01*
X113718095Y-105980952D01*
X111892380Y-108742857D02*
X110892380Y-108742857D01*
X110892380Y-108361904D01*
X110940000Y-108266666D01*
X110987619Y-108219047D01*
X111082857Y-108171428D01*
X111225714Y-108171428D01*
X111320952Y-108219047D01*
X111368571Y-108266666D01*
X111416190Y-108361904D01*
X111416190Y-108742857D01*
X111606666Y-107790476D02*
X111606666Y-107314285D01*
X111892380Y-107885714D02*
X110892380Y-107552380D01*
X111892380Y-107219047D01*
X110892380Y-106695238D02*
X110892380Y-106600000D01*
X110940000Y-106504761D01*
X110987619Y-106457142D01*
X111082857Y-106409523D01*
X111273333Y-106361904D01*
X111511428Y-106361904D01*
X111701904Y-106409523D01*
X111797142Y-106457142D01*
X111844761Y-106504761D01*
X111892380Y-106600000D01*
X111892380Y-106695238D01*
X111844761Y-106790476D01*
X111797142Y-106838095D01*
X111701904Y-106885714D01*
X111511428Y-106933333D01*
X111273333Y-106933333D01*
X111082857Y-106885714D01*
X110987619Y-106838095D01*
X110940000Y-106790476D01*
X110892380Y-106695238D01*
X111892380Y-105885714D02*
X111892380Y-105695238D01*
X111844761Y-105600000D01*
X111797142Y-105552380D01*
X111654285Y-105457142D01*
X111463809Y-105409523D01*
X111082857Y-105409523D01*
X110987619Y-105457142D01*
X110940000Y-105504761D01*
X110892380Y-105600000D01*
X110892380Y-105790476D01*
X110940000Y-105885714D01*
X110987619Y-105933333D01*
X111082857Y-105980952D01*
X111320952Y-105980952D01*
X111416190Y-105933333D01*
X111463809Y-105885714D01*
X111511428Y-105790476D01*
X111511428Y-105600000D01*
X111463809Y-105504761D01*
X111416190Y-105457142D01*
X111320952Y-105409523D01*
X108400000Y-108219047D02*
X108352380Y-108314285D01*
X108352380Y-108457143D01*
X108400000Y-108600000D01*
X108495238Y-108695238D01*
X108590476Y-108742857D01*
X108780952Y-108790476D01*
X108923809Y-108790476D01*
X109114285Y-108742857D01*
X109209523Y-108695238D01*
X109304761Y-108600000D01*
X109352380Y-108457143D01*
X109352380Y-108361904D01*
X109304761Y-108219047D01*
X109257142Y-108171428D01*
X108923809Y-108171428D01*
X108923809Y-108361904D01*
X109352380Y-107742857D02*
X108352380Y-107742857D01*
X109352380Y-107171428D01*
X108352380Y-107171428D01*
X109352380Y-106695238D02*
X108352380Y-106695238D01*
X108352380Y-106457143D01*
X108400000Y-106314285D01*
X108495238Y-106219047D01*
X108590476Y-106171428D01*
X108780952Y-106123809D01*
X108923809Y-106123809D01*
X109114285Y-106171428D01*
X109209523Y-106219047D01*
X109304761Y-106314285D01*
X109352380Y-106457143D01*
X109352380Y-106695238D01*
X119512380Y-119342857D02*
X118512380Y-119342857D01*
X118512380Y-118961904D01*
X118560000Y-118866666D01*
X118607619Y-118819047D01*
X118702857Y-118771428D01*
X118845714Y-118771428D01*
X118940952Y-118819047D01*
X118988571Y-118866666D01*
X119036190Y-118961904D01*
X119036190Y-119342857D01*
X119226666Y-118390476D02*
X119226666Y-117914285D01*
X119512380Y-118485714D02*
X118512380Y-118152380D01*
X119512380Y-117819047D01*
X119512380Y-116961904D02*
X119512380Y-117533333D01*
X119512380Y-117247619D02*
X118512380Y-117247619D01*
X118655238Y-117342857D01*
X118750476Y-117438095D01*
X118798095Y-117533333D01*
X118607619Y-116580952D02*
X118560000Y-116533333D01*
X118512380Y-116438095D01*
X118512380Y-116200000D01*
X118560000Y-116104761D01*
X118607619Y-116057142D01*
X118702857Y-116009523D01*
X118798095Y-116009523D01*
X118940952Y-116057142D01*
X119512380Y-116628571D01*
X119512380Y-116009523D01*
X122052380Y-119342857D02*
X121052380Y-119342857D01*
X121052380Y-118961904D01*
X121100000Y-118866666D01*
X121147619Y-118819047D01*
X121242857Y-118771428D01*
X121385714Y-118771428D01*
X121480952Y-118819047D01*
X121528571Y-118866666D01*
X121576190Y-118961904D01*
X121576190Y-119342857D01*
X121766666Y-118390476D02*
X121766666Y-117914285D01*
X122052380Y-118485714D02*
X121052380Y-118152380D01*
X122052380Y-117819047D01*
X122052380Y-116961904D02*
X122052380Y-117533333D01*
X122052380Y-117247619D02*
X121052380Y-117247619D01*
X121195238Y-117342857D01*
X121290476Y-117438095D01*
X121338095Y-117533333D01*
X121385714Y-116104761D02*
X122052380Y-116104761D01*
X121004761Y-116342857D02*
X121719047Y-116580952D01*
X121719047Y-115961904D01*
X116972380Y-119485713D02*
X115972380Y-119485713D01*
X115972380Y-119104761D01*
X116020000Y-119009523D01*
X116067619Y-118961904D01*
X116162857Y-118914285D01*
X116305714Y-118914285D01*
X116400952Y-118961904D01*
X116448571Y-119009523D01*
X116496190Y-119104761D01*
X116496190Y-119485713D01*
X116448571Y-118152380D02*
X116496190Y-118009523D01*
X116543809Y-117961904D01*
X116639047Y-117914285D01*
X116781904Y-117914285D01*
X116877142Y-117961904D01*
X116924761Y-118009523D01*
X116972380Y-118104761D01*
X116972380Y-118485713D01*
X115972380Y-118485713D01*
X115972380Y-118152380D01*
X116020000Y-118057142D01*
X116067619Y-118009523D01*
X116162857Y-117961904D01*
X116258095Y-117961904D01*
X116353333Y-118009523D01*
X116400952Y-118057142D01*
X116448571Y-118152380D01*
X116448571Y-118485713D01*
X116972380Y-116961904D02*
X116972380Y-117533332D01*
X116972380Y-117247618D02*
X115972380Y-117247618D01*
X116115238Y-117342856D01*
X116210476Y-117438094D01*
X116258095Y-117533332D01*
X115972380Y-116342856D02*
X115972380Y-116247618D01*
X116020000Y-116152380D01*
X116067619Y-116104761D01*
X116162857Y-116057142D01*
X116353333Y-116009523D01*
X116591428Y-116009523D01*
X116781904Y-116057142D01*
X116877142Y-116104761D01*
X116924761Y-116152380D01*
X116972380Y-116247618D01*
X116972380Y-116342856D01*
X116924761Y-116438094D01*
X116877142Y-116485713D01*
X116781904Y-116533332D01*
X116591428Y-116580951D01*
X116353333Y-116580951D01*
X116162857Y-116533332D01*
X116067619Y-116485713D01*
X116020000Y-116438094D01*
X115972380Y-116342856D01*
X114432380Y-119342857D02*
X113432380Y-119342857D01*
X113432380Y-118961904D01*
X113480000Y-118866666D01*
X113527619Y-118819047D01*
X113622857Y-118771428D01*
X113765714Y-118771428D01*
X113860952Y-118819047D01*
X113908571Y-118866666D01*
X113956190Y-118961904D01*
X113956190Y-119342857D01*
X114146666Y-118390476D02*
X114146666Y-117914285D01*
X114432380Y-118485714D02*
X113432380Y-118152380D01*
X114432380Y-117819047D01*
X114432380Y-116961904D02*
X114432380Y-117533333D01*
X114432380Y-117247619D02*
X113432380Y-117247619D01*
X113575238Y-117342857D01*
X113670476Y-117438095D01*
X113718095Y-117533333D01*
X113432380Y-116342857D02*
X113432380Y-116247619D01*
X113480000Y-116152380D01*
X113527619Y-116104761D01*
X113622857Y-116057142D01*
X113813333Y-116009523D01*
X114051428Y-116009523D01*
X114241904Y-116057142D01*
X114337142Y-116104761D01*
X114384761Y-116152380D01*
X114432380Y-116247619D01*
X114432380Y-116342857D01*
X114384761Y-116438095D01*
X114337142Y-116485714D01*
X114241904Y-116533333D01*
X114051428Y-116580952D01*
X113813333Y-116580952D01*
X113622857Y-116533333D01*
X113527619Y-116485714D01*
X113480000Y-116438095D01*
X113432380Y-116342857D01*
X111892380Y-119342857D02*
X110892380Y-119342857D01*
X110892380Y-118961904D01*
X110940000Y-118866666D01*
X110987619Y-118819047D01*
X111082857Y-118771428D01*
X111225714Y-118771428D01*
X111320952Y-118819047D01*
X111368571Y-118866666D01*
X111416190Y-118961904D01*
X111416190Y-119342857D01*
X111606666Y-118390476D02*
X111606666Y-117914285D01*
X111892380Y-118485714D02*
X110892380Y-118152380D01*
X111892380Y-117819047D01*
X110892380Y-117295238D02*
X110892380Y-117200000D01*
X110940000Y-117104761D01*
X110987619Y-117057142D01*
X111082857Y-117009523D01*
X111273333Y-116961904D01*
X111511428Y-116961904D01*
X111701904Y-117009523D01*
X111797142Y-117057142D01*
X111844761Y-117104761D01*
X111892380Y-117200000D01*
X111892380Y-117295238D01*
X111844761Y-117390476D01*
X111797142Y-117438095D01*
X111701904Y-117485714D01*
X111511428Y-117533333D01*
X111273333Y-117533333D01*
X111082857Y-117485714D01*
X110987619Y-117438095D01*
X110940000Y-117390476D01*
X110892380Y-117295238D01*
X111320952Y-116390476D02*
X111273333Y-116485714D01*
X111225714Y-116533333D01*
X111130476Y-116580952D01*
X111082857Y-116580952D01*
X110987619Y-116533333D01*
X110940000Y-116485714D01*
X110892380Y-116390476D01*
X110892380Y-116200000D01*
X110940000Y-116104761D01*
X110987619Y-116057142D01*
X111082857Y-116009523D01*
X111130476Y-116009523D01*
X111225714Y-116057142D01*
X111273333Y-116104761D01*
X111320952Y-116200000D01*
X111320952Y-116390476D01*
X111368571Y-116485714D01*
X111416190Y-116533333D01*
X111511428Y-116580952D01*
X111701904Y-116580952D01*
X111797142Y-116533333D01*
X111844761Y-116485714D01*
X111892380Y-116390476D01*
X111892380Y-116200000D01*
X111844761Y-116104761D01*
X111797142Y-116057142D01*
X111701904Y-116009523D01*
X111511428Y-116009523D01*
X111416190Y-116057142D01*
X111368571Y-116104761D01*
X111320952Y-116200000D01*
X108352380Y-118438095D02*
X108352380Y-117819047D01*
X108733333Y-118152380D01*
X108733333Y-118009523D01*
X108780952Y-117914285D01*
X108828571Y-117866666D01*
X108923809Y-117819047D01*
X109161904Y-117819047D01*
X109257142Y-117866666D01*
X109304761Y-117914285D01*
X109352380Y-118009523D01*
X109352380Y-118295238D01*
X109304761Y-118390476D01*
X109257142Y-118438095D01*
X108352380Y-117533333D02*
X109352380Y-117200000D01*
X108352380Y-116866666D01*
X108352380Y-116628571D02*
X108352380Y-116009523D01*
X108733333Y-116342857D01*
X108733333Y-116200000D01*
X108780952Y-116104761D01*
X108828571Y-116057142D01*
X108923809Y-116009523D01*
X109161904Y-116009523D01*
X109257142Y-116057142D01*
X109304761Y-116104761D01*
X109352380Y-116200000D01*
X109352380Y-116485714D01*
X109304761Y-116580952D01*
X109257142Y-116628571D01*
X135457142Y-79652380D02*
X135457142Y-78652380D01*
X135838095Y-78652380D01*
X135933333Y-78700000D01*
X135980952Y-78747619D01*
X136028571Y-78842857D01*
X136028571Y-78985714D01*
X135980952Y-79080952D01*
X135933333Y-79128571D01*
X135838095Y-79176190D01*
X135457142Y-79176190D01*
X136409523Y-79366666D02*
X136885714Y-79366666D01*
X136314285Y-79652380D02*
X136647619Y-78652380D01*
X136980952Y-79652380D01*
X137266666Y-78747619D02*
X137314285Y-78700000D01*
X137409523Y-78652380D01*
X137647619Y-78652380D01*
X137742857Y-78700000D01*
X137790476Y-78747619D01*
X137838095Y-78842857D01*
X137838095Y-78938095D01*
X137790476Y-79080952D01*
X137219047Y-79652380D01*
X137838095Y-79652380D01*
X138742857Y-78652380D02*
X138266666Y-78652380D01*
X138219047Y-79128571D01*
X138266666Y-79080952D01*
X138361904Y-79033333D01*
X138600000Y-79033333D01*
X138695238Y-79080952D01*
X138742857Y-79128571D01*
X138790476Y-79223809D01*
X138790476Y-79461904D01*
X138742857Y-79557142D01*
X138695238Y-79604761D01*
X138600000Y-79652380D01*
X138361904Y-79652380D01*
X138266666Y-79604761D01*
X138219047Y-79557142D01*
X135457142Y-82172380D02*
X135457142Y-81172380D01*
X135838095Y-81172380D01*
X135933333Y-81220000D01*
X135980952Y-81267619D01*
X136028571Y-81362857D01*
X136028571Y-81505714D01*
X135980952Y-81600952D01*
X135933333Y-81648571D01*
X135838095Y-81696190D01*
X135457142Y-81696190D01*
X136409523Y-81886666D02*
X136885714Y-81886666D01*
X136314285Y-82172380D02*
X136647619Y-81172380D01*
X136980952Y-82172380D01*
X137266666Y-81267619D02*
X137314285Y-81220000D01*
X137409523Y-81172380D01*
X137647619Y-81172380D01*
X137742857Y-81220000D01*
X137790476Y-81267619D01*
X137838095Y-81362857D01*
X137838095Y-81458095D01*
X137790476Y-81600952D01*
X137219047Y-82172380D01*
X137838095Y-82172380D01*
X138171428Y-81172380D02*
X138790476Y-81172380D01*
X138457142Y-81553333D01*
X138600000Y-81553333D01*
X138695238Y-81600952D01*
X138742857Y-81648571D01*
X138790476Y-81743809D01*
X138790476Y-81981904D01*
X138742857Y-82077142D01*
X138695238Y-82124761D01*
X138600000Y-82172380D01*
X138314285Y-82172380D01*
X138219047Y-82124761D01*
X138171428Y-82077142D01*
X135457142Y-84692380D02*
X135457142Y-83692380D01*
X135838095Y-83692380D01*
X135933333Y-83740000D01*
X135980952Y-83787619D01*
X136028571Y-83882857D01*
X136028571Y-84025714D01*
X135980952Y-84120952D01*
X135933333Y-84168571D01*
X135838095Y-84216190D01*
X135457142Y-84216190D01*
X136409523Y-84406666D02*
X136885714Y-84406666D01*
X136314285Y-84692380D02*
X136647619Y-83692380D01*
X136980952Y-84692380D01*
X137266666Y-83787619D02*
X137314285Y-83740000D01*
X137409523Y-83692380D01*
X137647619Y-83692380D01*
X137742857Y-83740000D01*
X137790476Y-83787619D01*
X137838095Y-83882857D01*
X137838095Y-83978095D01*
X137790476Y-84120952D01*
X137219047Y-84692380D01*
X137838095Y-84692380D01*
X138790476Y-84692380D02*
X138219047Y-84692380D01*
X138504761Y-84692380D02*
X138504761Y-83692380D01*
X138409523Y-83835238D01*
X138314285Y-83930476D01*
X138219047Y-83978095D01*
X135457142Y-87212380D02*
X135457142Y-86212380D01*
X135838095Y-86212380D01*
X135933333Y-86260000D01*
X135980952Y-86307619D01*
X136028571Y-86402857D01*
X136028571Y-86545714D01*
X135980952Y-86640952D01*
X135933333Y-86688571D01*
X135838095Y-86736190D01*
X135457142Y-86736190D01*
X136409523Y-86926666D02*
X136885714Y-86926666D01*
X136314285Y-87212380D02*
X136647619Y-86212380D01*
X136980952Y-87212380D01*
X137838095Y-87212380D02*
X137266666Y-87212380D01*
X137552380Y-87212380D02*
X137552380Y-86212380D01*
X137457142Y-86355238D01*
X137361904Y-86450476D01*
X137266666Y-86498095D01*
X138314285Y-87212380D02*
X138504761Y-87212380D01*
X138600000Y-87164761D01*
X138647619Y-87117142D01*
X138742857Y-86974285D01*
X138790476Y-86783809D01*
X138790476Y-86402857D01*
X138742857Y-86307619D01*
X138695238Y-86260000D01*
X138600000Y-86212380D01*
X138409523Y-86212380D01*
X138314285Y-86260000D01*
X138266666Y-86307619D01*
X138219047Y-86402857D01*
X138219047Y-86640952D01*
X138266666Y-86736190D01*
X138314285Y-86783809D01*
X138409523Y-86831428D01*
X138600000Y-86831428D01*
X138695238Y-86783809D01*
X138742857Y-86736190D01*
X138790476Y-86640952D01*
X135457142Y-89732380D02*
X135457142Y-88732380D01*
X135838095Y-88732380D01*
X135933333Y-88780000D01*
X135980952Y-88827619D01*
X136028571Y-88922857D01*
X136028571Y-89065714D01*
X135980952Y-89160952D01*
X135933333Y-89208571D01*
X135838095Y-89256190D01*
X135457142Y-89256190D01*
X136409523Y-89446666D02*
X136885714Y-89446666D01*
X136314285Y-89732380D02*
X136647619Y-88732380D01*
X136980952Y-89732380D01*
X137838095Y-89732380D02*
X137266666Y-89732380D01*
X137552380Y-89732380D02*
X137552380Y-88732380D01*
X137457142Y-88875238D01*
X137361904Y-88970476D01*
X137266666Y-89018095D01*
X138171428Y-88732380D02*
X138838095Y-88732380D01*
X138409523Y-89732380D01*
X146157142Y-79552380D02*
X146157142Y-78552380D01*
X146538095Y-78552380D01*
X146633333Y-78600000D01*
X146680952Y-78647619D01*
X146728571Y-78742857D01*
X146728571Y-78885714D01*
X146680952Y-78980952D01*
X146633333Y-79028571D01*
X146538095Y-79076190D01*
X146157142Y-79076190D01*
X147109523Y-79266666D02*
X147585714Y-79266666D01*
X147014285Y-79552380D02*
X147347619Y-78552380D01*
X147680952Y-79552380D01*
X147966666Y-78647619D02*
X148014285Y-78600000D01*
X148109523Y-78552380D01*
X148347619Y-78552380D01*
X148442857Y-78600000D01*
X148490476Y-78647619D01*
X148538095Y-78742857D01*
X148538095Y-78838095D01*
X148490476Y-78980952D01*
X147919047Y-79552380D01*
X148538095Y-79552380D01*
X149395238Y-78885714D02*
X149395238Y-79552380D01*
X149157142Y-78504761D02*
X148919047Y-79219047D01*
X149538095Y-79219047D01*
X146157142Y-82092380D02*
X146157142Y-81092380D01*
X146538095Y-81092380D01*
X146633333Y-81140000D01*
X146680952Y-81187619D01*
X146728571Y-81282857D01*
X146728571Y-81425714D01*
X146680952Y-81520952D01*
X146633333Y-81568571D01*
X146538095Y-81616190D01*
X146157142Y-81616190D01*
X147109523Y-81806666D02*
X147585714Y-81806666D01*
X147014285Y-82092380D02*
X147347619Y-81092380D01*
X147680952Y-82092380D01*
X147966666Y-81187619D02*
X148014285Y-81140000D01*
X148109523Y-81092380D01*
X148347619Y-81092380D01*
X148442857Y-81140000D01*
X148490476Y-81187619D01*
X148538095Y-81282857D01*
X148538095Y-81378095D01*
X148490476Y-81520952D01*
X147919047Y-82092380D01*
X148538095Y-82092380D01*
X148919047Y-81187619D02*
X148966666Y-81140000D01*
X149061904Y-81092380D01*
X149300000Y-81092380D01*
X149395238Y-81140000D01*
X149442857Y-81187619D01*
X149490476Y-81282857D01*
X149490476Y-81378095D01*
X149442857Y-81520952D01*
X148871428Y-82092380D01*
X149490476Y-82092380D01*
X146157142Y-84632380D02*
X146157142Y-83632380D01*
X146538095Y-83632380D01*
X146633333Y-83680000D01*
X146680952Y-83727619D01*
X146728571Y-83822857D01*
X146728571Y-83965714D01*
X146680952Y-84060952D01*
X146633333Y-84108571D01*
X146538095Y-84156190D01*
X146157142Y-84156190D01*
X147109523Y-84346666D02*
X147585714Y-84346666D01*
X147014285Y-84632380D02*
X147347619Y-83632380D01*
X147680952Y-84632380D01*
X147966666Y-83727619D02*
X148014285Y-83680000D01*
X148109523Y-83632380D01*
X148347619Y-83632380D01*
X148442857Y-83680000D01*
X148490476Y-83727619D01*
X148538095Y-83822857D01*
X148538095Y-83918095D01*
X148490476Y-84060952D01*
X147919047Y-84632380D01*
X148538095Y-84632380D01*
X149157142Y-83632380D02*
X149252380Y-83632380D01*
X149347619Y-83680000D01*
X149395238Y-83727619D01*
X149442857Y-83822857D01*
X149490476Y-84013333D01*
X149490476Y-84251428D01*
X149442857Y-84441904D01*
X149395238Y-84537142D01*
X149347619Y-84584761D01*
X149252380Y-84632380D01*
X149157142Y-84632380D01*
X149061904Y-84584761D01*
X149014285Y-84537142D01*
X148966666Y-84441904D01*
X148919047Y-84251428D01*
X148919047Y-84013333D01*
X148966666Y-83822857D01*
X149014285Y-83727619D01*
X149061904Y-83680000D01*
X149157142Y-83632380D01*
X146157142Y-87172380D02*
X146157142Y-86172380D01*
X146538095Y-86172380D01*
X146633333Y-86220000D01*
X146680952Y-86267619D01*
X146728571Y-86362857D01*
X146728571Y-86505714D01*
X146680952Y-86600952D01*
X146633333Y-86648571D01*
X146538095Y-86696190D01*
X146157142Y-86696190D01*
X147109523Y-86886666D02*
X147585714Y-86886666D01*
X147014285Y-87172380D02*
X147347619Y-86172380D01*
X147680952Y-87172380D01*
X148538095Y-87172380D02*
X147966666Y-87172380D01*
X148252380Y-87172380D02*
X148252380Y-86172380D01*
X148157142Y-86315238D01*
X148061904Y-86410476D01*
X147966666Y-86458095D01*
X149109523Y-86600952D02*
X149014285Y-86553333D01*
X148966666Y-86505714D01*
X148919047Y-86410476D01*
X148919047Y-86362857D01*
X148966666Y-86267619D01*
X149014285Y-86220000D01*
X149109523Y-86172380D01*
X149300000Y-86172380D01*
X149395238Y-86220000D01*
X149442857Y-86267619D01*
X149490476Y-86362857D01*
X149490476Y-86410476D01*
X149442857Y-86505714D01*
X149395238Y-86553333D01*
X149300000Y-86600952D01*
X149109523Y-86600952D01*
X149014285Y-86648571D01*
X148966666Y-86696190D01*
X148919047Y-86791428D01*
X148919047Y-86981904D01*
X148966666Y-87077142D01*
X149014285Y-87124761D01*
X149109523Y-87172380D01*
X149300000Y-87172380D01*
X149395238Y-87124761D01*
X149442857Y-87077142D01*
X149490476Y-86981904D01*
X149490476Y-86791428D01*
X149442857Y-86696190D01*
X149395238Y-86648571D01*
X149300000Y-86600952D01*
X146157142Y-89712380D02*
X146157142Y-88712380D01*
X146538095Y-88712380D01*
X146633333Y-88760000D01*
X146680952Y-88807619D01*
X146728571Y-88902857D01*
X146728571Y-89045714D01*
X146680952Y-89140952D01*
X146633333Y-89188571D01*
X146538095Y-89236190D01*
X146157142Y-89236190D01*
X147109523Y-89426666D02*
X147585714Y-89426666D01*
X147014285Y-89712380D02*
X147347619Y-88712380D01*
X147680952Y-89712380D01*
X148538095Y-89712380D02*
X147966666Y-89712380D01*
X148252380Y-89712380D02*
X148252380Y-88712380D01*
X148157142Y-88855238D01*
X148061904Y-88950476D01*
X147966666Y-88998095D01*
X149395238Y-88712380D02*
X149204761Y-88712380D01*
X149109523Y-88760000D01*
X149061904Y-88807619D01*
X148966666Y-88950476D01*
X148919047Y-89140952D01*
X148919047Y-89521904D01*
X148966666Y-89617142D01*
X149014285Y-89664761D01*
X149109523Y-89712380D01*
X149300000Y-89712380D01*
X149395238Y-89664761D01*
X149442857Y-89617142D01*
X149490476Y-89521904D01*
X149490476Y-89283809D01*
X149442857Y-89188571D01*
X149395238Y-89140952D01*
X149300000Y-89093333D01*
X149109523Y-89093333D01*
X149014285Y-89140952D01*
X148966666Y-89188571D01*
X148919047Y-89283809D01*
X146061904Y-91252380D02*
X146680952Y-91252380D01*
X146347619Y-91633333D01*
X146490476Y-91633333D01*
X146585714Y-91680952D01*
X146633333Y-91728571D01*
X146680952Y-91823809D01*
X146680952Y-92061904D01*
X146633333Y-92157142D01*
X146585714Y-92204761D01*
X146490476Y-92252380D01*
X146204761Y-92252380D01*
X146109523Y-92204761D01*
X146061904Y-92157142D01*
X146966666Y-91252380D02*
X147300000Y-92252380D01*
X147633333Y-91252380D01*
X147871428Y-91252380D02*
X148490476Y-91252380D01*
X148157142Y-91633333D01*
X148300000Y-91633333D01*
X148395238Y-91680952D01*
X148442857Y-91728571D01*
X148490476Y-91823809D01*
X148490476Y-92061904D01*
X148442857Y-92157142D01*
X148395238Y-92204761D01*
X148300000Y-92252380D01*
X148014285Y-92252380D01*
X147919047Y-92204761D01*
X147871428Y-92157142D01*
X136695238Y-91300000D02*
X136600000Y-91252380D01*
X136457143Y-91252380D01*
X136314285Y-91300000D01*
X136219047Y-91395238D01*
X136171428Y-91490476D01*
X136123809Y-91680952D01*
X136123809Y-91823809D01*
X136171428Y-92014285D01*
X136219047Y-92109523D01*
X136314285Y-92204761D01*
X136457143Y-92252380D01*
X136552381Y-92252380D01*
X136695238Y-92204761D01*
X136742857Y-92157142D01*
X136742857Y-91823809D01*
X136552381Y-91823809D01*
X137171428Y-92252380D02*
X137171428Y-91252380D01*
X137742857Y-92252380D01*
X137742857Y-91252380D01*
X138219047Y-92252380D02*
X138219047Y-91252380D01*
X138457143Y-91252380D01*
X138600000Y-91300000D01*
X138695238Y-91395238D01*
X138742857Y-91490476D01*
X138790476Y-91680952D01*
X138790476Y-91823809D01*
X138742857Y-92014285D01*
X138695238Y-92109523D01*
X138600000Y-92204761D01*
X138457143Y-92252380D01*
X138219047Y-92252380D01*
X82761904Y-80752380D02*
X83380952Y-80752380D01*
X83047619Y-81133333D01*
X83190476Y-81133333D01*
X83285714Y-81180952D01*
X83333333Y-81228571D01*
X83380952Y-81323809D01*
X83380952Y-81561904D01*
X83333333Y-81657142D01*
X83285714Y-81704761D01*
X83190476Y-81752380D01*
X82904761Y-81752380D01*
X82809523Y-81704761D01*
X82761904Y-81657142D01*
X83666666Y-80752380D02*
X84000000Y-81752380D01*
X84333333Y-80752380D01*
X84571428Y-80752380D02*
X85190476Y-80752380D01*
X84857142Y-81133333D01*
X85000000Y-81133333D01*
X85095238Y-81180952D01*
X85142857Y-81228571D01*
X85190476Y-81323809D01*
X85190476Y-81561904D01*
X85142857Y-81657142D01*
X85095238Y-81704761D01*
X85000000Y-81752380D01*
X84714285Y-81752380D01*
X84619047Y-81704761D01*
X84571428Y-81657142D01*
X92780952Y-80800000D02*
X92685714Y-80752380D01*
X92542857Y-80752380D01*
X92399999Y-80800000D01*
X92304761Y-80895238D01*
X92257142Y-80990476D01*
X92209523Y-81180952D01*
X92209523Y-81323809D01*
X92257142Y-81514285D01*
X92304761Y-81609523D01*
X92399999Y-81704761D01*
X92542857Y-81752380D01*
X92638095Y-81752380D01*
X92780952Y-81704761D01*
X92828571Y-81657142D01*
X92828571Y-81323809D01*
X92638095Y-81323809D01*
X93257142Y-81752380D02*
X93257142Y-80752380D01*
X93828571Y-81752380D01*
X93828571Y-80752380D01*
X94304761Y-81752380D02*
X94304761Y-80752380D01*
X94542857Y-80752380D01*
X94685714Y-80800000D01*
X94780952Y-80895238D01*
X94828571Y-80990476D01*
X94876190Y-81180952D01*
X94876190Y-81323809D01*
X94828571Y-81514285D01*
X94780952Y-81609523D01*
X94685714Y-81704761D01*
X94542857Y-81752380D01*
X94304761Y-81752380D01*
X92257142Y-84292380D02*
X92257142Y-83292380D01*
X92638095Y-83292380D01*
X92733333Y-83340000D01*
X92780952Y-83387619D01*
X92828571Y-83482857D01*
X92828571Y-83625714D01*
X92780952Y-83720952D01*
X92733333Y-83768571D01*
X92638095Y-83816190D01*
X92257142Y-83816190D01*
X93209523Y-84006666D02*
X93685714Y-84006666D01*
X93114285Y-84292380D02*
X93447619Y-83292380D01*
X93780952Y-84292380D01*
X94304761Y-83292380D02*
X94400000Y-83292380D01*
X94495238Y-83340000D01*
X94542857Y-83387619D01*
X94590476Y-83482857D01*
X94638095Y-83673333D01*
X94638095Y-83911428D01*
X94590476Y-84101904D01*
X94542857Y-84197142D01*
X94495238Y-84244761D01*
X94400000Y-84292380D01*
X94304761Y-84292380D01*
X94209523Y-84244761D01*
X94161904Y-84197142D01*
X94114285Y-84101904D01*
X94066666Y-83911428D01*
X94066666Y-83673333D01*
X94114285Y-83482857D01*
X94161904Y-83387619D01*
X94209523Y-83340000D01*
X94304761Y-83292380D01*
X95590476Y-84292380D02*
X95019047Y-84292380D01*
X95304761Y-84292380D02*
X95304761Y-83292380D01*
X95209523Y-83435238D01*
X95114285Y-83530476D01*
X95019047Y-83578095D01*
X81857142Y-84292380D02*
X81857142Y-83292380D01*
X82238095Y-83292380D01*
X82333333Y-83340000D01*
X82380952Y-83387619D01*
X82428571Y-83482857D01*
X82428571Y-83625714D01*
X82380952Y-83720952D01*
X82333333Y-83768571D01*
X82238095Y-83816190D01*
X81857142Y-83816190D01*
X82809523Y-84006666D02*
X83285714Y-84006666D01*
X82714285Y-84292380D02*
X83047619Y-83292380D01*
X83380952Y-84292380D01*
X83904761Y-83292380D02*
X84000000Y-83292380D01*
X84095238Y-83340000D01*
X84142857Y-83387619D01*
X84190476Y-83482857D01*
X84238095Y-83673333D01*
X84238095Y-83911428D01*
X84190476Y-84101904D01*
X84142857Y-84197142D01*
X84095238Y-84244761D01*
X84000000Y-84292380D01*
X83904761Y-84292380D01*
X83809523Y-84244761D01*
X83761904Y-84197142D01*
X83714285Y-84101904D01*
X83666666Y-83911428D01*
X83666666Y-83673333D01*
X83714285Y-83482857D01*
X83761904Y-83387619D01*
X83809523Y-83340000D01*
X83904761Y-83292380D01*
X84857142Y-83292380D02*
X84952380Y-83292380D01*
X85047619Y-83340000D01*
X85095238Y-83387619D01*
X85142857Y-83482857D01*
X85190476Y-83673333D01*
X85190476Y-83911428D01*
X85142857Y-84101904D01*
X85095238Y-84197142D01*
X85047619Y-84244761D01*
X84952380Y-84292380D01*
X84857142Y-84292380D01*
X84761904Y-84244761D01*
X84714285Y-84197142D01*
X84666666Y-84101904D01*
X84619047Y-83911428D01*
X84619047Y-83673333D01*
X84666666Y-83482857D01*
X84714285Y-83387619D01*
X84761904Y-83340000D01*
X84857142Y-83292380D01*
X92257142Y-94452380D02*
X92257142Y-93452380D01*
X92638095Y-93452380D01*
X92733333Y-93500000D01*
X92780952Y-93547619D01*
X92828571Y-93642857D01*
X92828571Y-93785714D01*
X92780952Y-93880952D01*
X92733333Y-93928571D01*
X92638095Y-93976190D01*
X92257142Y-93976190D01*
X93209523Y-94166666D02*
X93685714Y-94166666D01*
X93114285Y-94452380D02*
X93447619Y-93452380D01*
X93780952Y-94452380D01*
X94304761Y-93452380D02*
X94400000Y-93452380D01*
X94495238Y-93500000D01*
X94542857Y-93547619D01*
X94590476Y-93642857D01*
X94638095Y-93833333D01*
X94638095Y-94071428D01*
X94590476Y-94261904D01*
X94542857Y-94357142D01*
X94495238Y-94404761D01*
X94400000Y-94452380D01*
X94304761Y-94452380D01*
X94209523Y-94404761D01*
X94161904Y-94357142D01*
X94114285Y-94261904D01*
X94066666Y-94071428D01*
X94066666Y-93833333D01*
X94114285Y-93642857D01*
X94161904Y-93547619D01*
X94209523Y-93500000D01*
X94304761Y-93452380D01*
X94971428Y-93452380D02*
X95638095Y-93452380D01*
X95209523Y-94452380D01*
X81857142Y-94452380D02*
X81857142Y-93452380D01*
X82238095Y-93452380D01*
X82333333Y-93500000D01*
X82380952Y-93547619D01*
X82428571Y-93642857D01*
X82428571Y-93785714D01*
X82380952Y-93880952D01*
X82333333Y-93928571D01*
X82238095Y-93976190D01*
X81857142Y-93976190D01*
X82809523Y-94166666D02*
X83285714Y-94166666D01*
X82714285Y-94452380D02*
X83047619Y-93452380D01*
X83380952Y-94452380D01*
X83904761Y-93452380D02*
X84000000Y-93452380D01*
X84095238Y-93500000D01*
X84142857Y-93547619D01*
X84190476Y-93642857D01*
X84238095Y-93833333D01*
X84238095Y-94071428D01*
X84190476Y-94261904D01*
X84142857Y-94357142D01*
X84095238Y-94404761D01*
X84000000Y-94452380D01*
X83904761Y-94452380D01*
X83809523Y-94404761D01*
X83761904Y-94357142D01*
X83714285Y-94261904D01*
X83666666Y-94071428D01*
X83666666Y-93833333D01*
X83714285Y-93642857D01*
X83761904Y-93547619D01*
X83809523Y-93500000D01*
X83904761Y-93452380D01*
X85095238Y-93452380D02*
X84904761Y-93452380D01*
X84809523Y-93500000D01*
X84761904Y-93547619D01*
X84666666Y-93690476D01*
X84619047Y-93880952D01*
X84619047Y-94261904D01*
X84666666Y-94357142D01*
X84714285Y-94404761D01*
X84809523Y-94452380D01*
X85000000Y-94452380D01*
X85095238Y-94404761D01*
X85142857Y-94357142D01*
X85190476Y-94261904D01*
X85190476Y-94023809D01*
X85142857Y-93928571D01*
X85095238Y-93880952D01*
X85000000Y-93833333D01*
X84809523Y-93833333D01*
X84714285Y-93880952D01*
X84666666Y-93928571D01*
X84619047Y-94023809D01*
X92257142Y-91912380D02*
X92257142Y-90912380D01*
X92638095Y-90912380D01*
X92733333Y-90960000D01*
X92780952Y-91007619D01*
X92828571Y-91102857D01*
X92828571Y-91245714D01*
X92780952Y-91340952D01*
X92733333Y-91388571D01*
X92638095Y-91436190D01*
X92257142Y-91436190D01*
X93209523Y-91626666D02*
X93685714Y-91626666D01*
X93114285Y-91912380D02*
X93447619Y-90912380D01*
X93780952Y-91912380D01*
X94304761Y-90912380D02*
X94400000Y-90912380D01*
X94495238Y-90960000D01*
X94542857Y-91007619D01*
X94590476Y-91102857D01*
X94638095Y-91293333D01*
X94638095Y-91531428D01*
X94590476Y-91721904D01*
X94542857Y-91817142D01*
X94495238Y-91864761D01*
X94400000Y-91912380D01*
X94304761Y-91912380D01*
X94209523Y-91864761D01*
X94161904Y-91817142D01*
X94114285Y-91721904D01*
X94066666Y-91531428D01*
X94066666Y-91293333D01*
X94114285Y-91102857D01*
X94161904Y-91007619D01*
X94209523Y-90960000D01*
X94304761Y-90912380D01*
X95542857Y-90912380D02*
X95066666Y-90912380D01*
X95019047Y-91388571D01*
X95066666Y-91340952D01*
X95161904Y-91293333D01*
X95400000Y-91293333D01*
X95495238Y-91340952D01*
X95542857Y-91388571D01*
X95590476Y-91483809D01*
X95590476Y-91721904D01*
X95542857Y-91817142D01*
X95495238Y-91864761D01*
X95400000Y-91912380D01*
X95161904Y-91912380D01*
X95066666Y-91864761D01*
X95019047Y-91817142D01*
X81857142Y-91912380D02*
X81857142Y-90912380D01*
X82238095Y-90912380D01*
X82333333Y-90960000D01*
X82380952Y-91007619D01*
X82428571Y-91102857D01*
X82428571Y-91245714D01*
X82380952Y-91340952D01*
X82333333Y-91388571D01*
X82238095Y-91436190D01*
X81857142Y-91436190D01*
X82809523Y-91626666D02*
X83285714Y-91626666D01*
X82714285Y-91912380D02*
X83047619Y-90912380D01*
X83380952Y-91912380D01*
X83904761Y-90912380D02*
X84000000Y-90912380D01*
X84095238Y-90960000D01*
X84142857Y-91007619D01*
X84190476Y-91102857D01*
X84238095Y-91293333D01*
X84238095Y-91531428D01*
X84190476Y-91721904D01*
X84142857Y-91817142D01*
X84095238Y-91864761D01*
X84000000Y-91912380D01*
X83904761Y-91912380D01*
X83809523Y-91864761D01*
X83761904Y-91817142D01*
X83714285Y-91721904D01*
X83666666Y-91531428D01*
X83666666Y-91293333D01*
X83714285Y-91102857D01*
X83761904Y-91007619D01*
X83809523Y-90960000D01*
X83904761Y-90912380D01*
X85095238Y-91245714D02*
X85095238Y-91912380D01*
X84857142Y-90864761D02*
X84619047Y-91579047D01*
X85238095Y-91579047D01*
X92257143Y-89372380D02*
X92257143Y-88372380D01*
X92638095Y-88372380D01*
X92733333Y-88420000D01*
X92780952Y-88467619D01*
X92828571Y-88562857D01*
X92828571Y-88705714D01*
X92780952Y-88800952D01*
X92733333Y-88848571D01*
X92638095Y-88896190D01*
X92257143Y-88896190D01*
X93590476Y-88848571D02*
X93733333Y-88896190D01*
X93780952Y-88943809D01*
X93828571Y-89039047D01*
X93828571Y-89181904D01*
X93780952Y-89277142D01*
X93733333Y-89324761D01*
X93638095Y-89372380D01*
X93257143Y-89372380D01*
X93257143Y-88372380D01*
X93590476Y-88372380D01*
X93685714Y-88420000D01*
X93733333Y-88467619D01*
X93780952Y-88562857D01*
X93780952Y-88658095D01*
X93733333Y-88753333D01*
X93685714Y-88800952D01*
X93590476Y-88848571D01*
X93257143Y-88848571D01*
X94447619Y-88372380D02*
X94542857Y-88372380D01*
X94638095Y-88420000D01*
X94685714Y-88467619D01*
X94733333Y-88562857D01*
X94780952Y-88753333D01*
X94780952Y-88991428D01*
X94733333Y-89181904D01*
X94685714Y-89277142D01*
X94638095Y-89324761D01*
X94542857Y-89372380D01*
X94447619Y-89372380D01*
X94352381Y-89324761D01*
X94304762Y-89277142D01*
X94257143Y-89181904D01*
X94209524Y-88991428D01*
X94209524Y-88753333D01*
X94257143Y-88562857D01*
X94304762Y-88467619D01*
X94352381Y-88420000D01*
X94447619Y-88372380D01*
X95257143Y-89372380D02*
X95447619Y-89372380D01*
X95542857Y-89324761D01*
X95590476Y-89277142D01*
X95685714Y-89134285D01*
X95733333Y-88943809D01*
X95733333Y-88562857D01*
X95685714Y-88467619D01*
X95638095Y-88420000D01*
X95542857Y-88372380D01*
X95352381Y-88372380D01*
X95257143Y-88420000D01*
X95209524Y-88467619D01*
X95161905Y-88562857D01*
X95161905Y-88800952D01*
X95209524Y-88896190D01*
X95257143Y-88943809D01*
X95352381Y-88991428D01*
X95542857Y-88991428D01*
X95638095Y-88943809D01*
X95685714Y-88896190D01*
X95733333Y-88800952D01*
X81714286Y-89372380D02*
X81714286Y-88372380D01*
X82095238Y-88372380D01*
X82190476Y-88420000D01*
X82238095Y-88467619D01*
X82285714Y-88562857D01*
X82285714Y-88705714D01*
X82238095Y-88800952D01*
X82190476Y-88848571D01*
X82095238Y-88896190D01*
X81714286Y-88896190D01*
X83047619Y-88848571D02*
X83190476Y-88896190D01*
X83238095Y-88943809D01*
X83285714Y-89039047D01*
X83285714Y-89181904D01*
X83238095Y-89277142D01*
X83190476Y-89324761D01*
X83095238Y-89372380D01*
X82714286Y-89372380D01*
X82714286Y-88372380D01*
X83047619Y-88372380D01*
X83142857Y-88420000D01*
X83190476Y-88467619D01*
X83238095Y-88562857D01*
X83238095Y-88658095D01*
X83190476Y-88753333D01*
X83142857Y-88800952D01*
X83047619Y-88848571D01*
X82714286Y-88848571D01*
X83904762Y-88372380D02*
X84000000Y-88372380D01*
X84095238Y-88420000D01*
X84142857Y-88467619D01*
X84190476Y-88562857D01*
X84238095Y-88753333D01*
X84238095Y-88991428D01*
X84190476Y-89181904D01*
X84142857Y-89277142D01*
X84095238Y-89324761D01*
X84000000Y-89372380D01*
X83904762Y-89372380D01*
X83809524Y-89324761D01*
X83761905Y-89277142D01*
X83714286Y-89181904D01*
X83666667Y-88991428D01*
X83666667Y-88753333D01*
X83714286Y-88562857D01*
X83761905Y-88467619D01*
X83809524Y-88420000D01*
X83904762Y-88372380D01*
X84809524Y-88800952D02*
X84714286Y-88753333D01*
X84666667Y-88705714D01*
X84619048Y-88610476D01*
X84619048Y-88562857D01*
X84666667Y-88467619D01*
X84714286Y-88420000D01*
X84809524Y-88372380D01*
X85000000Y-88372380D01*
X85095238Y-88420000D01*
X85142857Y-88467619D01*
X85190476Y-88562857D01*
X85190476Y-88610476D01*
X85142857Y-88705714D01*
X85095238Y-88753333D01*
X85000000Y-88800952D01*
X84809524Y-88800952D01*
X84714286Y-88848571D01*
X84666667Y-88896190D01*
X84619048Y-88991428D01*
X84619048Y-89181904D01*
X84666667Y-89277142D01*
X84714286Y-89324761D01*
X84809524Y-89372380D01*
X85000000Y-89372380D01*
X85095238Y-89324761D01*
X85142857Y-89277142D01*
X85190476Y-89181904D01*
X85190476Y-88991428D01*
X85142857Y-88896190D01*
X85095238Y-88848571D01*
X85000000Y-88800952D01*
X92257142Y-86832380D02*
X92257142Y-85832380D01*
X92638095Y-85832380D01*
X92733333Y-85880000D01*
X92780952Y-85927619D01*
X92828571Y-86022857D01*
X92828571Y-86165714D01*
X92780952Y-86260952D01*
X92733333Y-86308571D01*
X92638095Y-86356190D01*
X92257142Y-86356190D01*
X93209523Y-86546666D02*
X93685714Y-86546666D01*
X93114285Y-86832380D02*
X93447619Y-85832380D01*
X93780952Y-86832380D01*
X94304761Y-85832380D02*
X94400000Y-85832380D01*
X94495238Y-85880000D01*
X94542857Y-85927619D01*
X94590476Y-86022857D01*
X94638095Y-86213333D01*
X94638095Y-86451428D01*
X94590476Y-86641904D01*
X94542857Y-86737142D01*
X94495238Y-86784761D01*
X94400000Y-86832380D01*
X94304761Y-86832380D01*
X94209523Y-86784761D01*
X94161904Y-86737142D01*
X94114285Y-86641904D01*
X94066666Y-86451428D01*
X94066666Y-86213333D01*
X94114285Y-86022857D01*
X94161904Y-85927619D01*
X94209523Y-85880000D01*
X94304761Y-85832380D01*
X94971428Y-85832380D02*
X95590476Y-85832380D01*
X95257142Y-86213333D01*
X95400000Y-86213333D01*
X95495238Y-86260952D01*
X95542857Y-86308571D01*
X95590476Y-86403809D01*
X95590476Y-86641904D01*
X95542857Y-86737142D01*
X95495238Y-86784761D01*
X95400000Y-86832380D01*
X95114285Y-86832380D01*
X95019047Y-86784761D01*
X94971428Y-86737142D01*
X81857142Y-86832380D02*
X81857142Y-85832380D01*
X82238095Y-85832380D01*
X82333333Y-85880000D01*
X82380952Y-85927619D01*
X82428571Y-86022857D01*
X82428571Y-86165714D01*
X82380952Y-86260952D01*
X82333333Y-86308571D01*
X82238095Y-86356190D01*
X81857142Y-86356190D01*
X82809523Y-86546666D02*
X83285714Y-86546666D01*
X82714285Y-86832380D02*
X83047619Y-85832380D01*
X83380952Y-86832380D01*
X83904761Y-85832380D02*
X84000000Y-85832380D01*
X84095238Y-85880000D01*
X84142857Y-85927619D01*
X84190476Y-86022857D01*
X84238095Y-86213333D01*
X84238095Y-86451428D01*
X84190476Y-86641904D01*
X84142857Y-86737142D01*
X84095238Y-86784761D01*
X84000000Y-86832380D01*
X83904761Y-86832380D01*
X83809523Y-86784761D01*
X83761904Y-86737142D01*
X83714285Y-86641904D01*
X83666666Y-86451428D01*
X83666666Y-86213333D01*
X83714285Y-86022857D01*
X83761904Y-85927619D01*
X83809523Y-85880000D01*
X83904761Y-85832380D01*
X84619047Y-85927619D02*
X84666666Y-85880000D01*
X84761904Y-85832380D01*
X85000000Y-85832380D01*
X85095238Y-85880000D01*
X85142857Y-85927619D01*
X85190476Y-86022857D01*
X85190476Y-86118095D01*
X85142857Y-86260952D01*
X84571428Y-86832380D01*
X85190476Y-86832380D01*
X106809523Y-126704761D02*
X106952380Y-126752380D01*
X107190476Y-126752380D01*
X107285714Y-126704761D01*
X107333333Y-126657142D01*
X107380952Y-126561904D01*
X107380952Y-126466666D01*
X107333333Y-126371428D01*
X107285714Y-126323809D01*
X107190476Y-126276190D01*
X107000000Y-126228571D01*
X106904761Y-126180952D01*
X106857142Y-126133333D01*
X106809523Y-126038095D01*
X106809523Y-125942857D01*
X106857142Y-125847619D01*
X106904761Y-125800000D01*
X107000000Y-125752380D01*
X107238095Y-125752380D01*
X107380952Y-125800000D01*
X108380952Y-126657142D02*
X108333333Y-126704761D01*
X108190476Y-126752380D01*
X108095238Y-126752380D01*
X107952380Y-126704761D01*
X107857142Y-126609523D01*
X107809523Y-126514285D01*
X107761904Y-126323809D01*
X107761904Y-126180952D01*
X107809523Y-125990476D01*
X107857142Y-125895238D01*
X107952380Y-125800000D01*
X108095238Y-125752380D01*
X108190476Y-125752380D01*
X108333333Y-125800000D01*
X108380952Y-125847619D01*
X109285714Y-126752380D02*
X108809523Y-126752380D01*
X108809523Y-125752380D01*
X117066667Y-126704761D02*
X117209524Y-126752380D01*
X117447619Y-126752380D01*
X117542857Y-126704761D01*
X117590476Y-126657142D01*
X117638095Y-126561904D01*
X117638095Y-126466666D01*
X117590476Y-126371428D01*
X117542857Y-126323809D01*
X117447619Y-126276190D01*
X117257143Y-126228571D01*
X117161905Y-126180952D01*
X117114286Y-126133333D01*
X117066667Y-126038095D01*
X117066667Y-125942857D01*
X117114286Y-125847619D01*
X117161905Y-125800000D01*
X117257143Y-125752380D01*
X117495238Y-125752380D01*
X117638095Y-125800000D01*
X118066667Y-126752380D02*
X118066667Y-125752380D01*
X118304762Y-125752380D01*
X118447619Y-125800000D01*
X118542857Y-125895238D01*
X118590476Y-125990476D01*
X118638095Y-126180952D01*
X118638095Y-126323809D01*
X118590476Y-126514285D01*
X118542857Y-126609523D01*
X118447619Y-126704761D01*
X118304762Y-126752380D01*
X118066667Y-126752380D01*
X119019048Y-126466666D02*
X119495238Y-126466666D01*
X118923810Y-126752380D02*
X119257143Y-125752380D01*
X119590476Y-126752380D01*
X117638095Y-123300000D02*
X117542857Y-123252380D01*
X117400000Y-123252380D01*
X117257142Y-123300000D01*
X117161904Y-123395238D01*
X117114285Y-123490476D01*
X117066666Y-123680952D01*
X117066666Y-123823809D01*
X117114285Y-124014285D01*
X117161904Y-124109523D01*
X117257142Y-124204761D01*
X117400000Y-124252380D01*
X117495238Y-124252380D01*
X117638095Y-124204761D01*
X117685714Y-124157142D01*
X117685714Y-123823809D01*
X117495238Y-123823809D01*
X118114285Y-124252380D02*
X118114285Y-123252380D01*
X118685714Y-124252380D01*
X118685714Y-123252380D01*
X119161904Y-124252380D02*
X119161904Y-123252380D01*
X119400000Y-123252380D01*
X119542857Y-123300000D01*
X119638095Y-123395238D01*
X119685714Y-123490476D01*
X119733333Y-123680952D01*
X119733333Y-123823809D01*
X119685714Y-124014285D01*
X119638095Y-124109523D01*
X119542857Y-124204761D01*
X119400000Y-124252380D01*
X119161904Y-124252380D01*
X106761904Y-123252380D02*
X107380952Y-123252380D01*
X107047619Y-123633333D01*
X107190476Y-123633333D01*
X107285714Y-123680952D01*
X107333333Y-123728571D01*
X107380952Y-123823809D01*
X107380952Y-124061904D01*
X107333333Y-124157142D01*
X107285714Y-124204761D01*
X107190476Y-124252380D01*
X106904761Y-124252380D01*
X106809523Y-124204761D01*
X106761904Y-124157142D01*
X107666666Y-123252380D02*
X108000000Y-124252380D01*
X108333333Y-123252380D01*
X108571428Y-123252380D02*
X109190476Y-123252380D01*
X108857142Y-123633333D01*
X109000000Y-123633333D01*
X109095238Y-123680952D01*
X109142857Y-123728571D01*
X109190476Y-123823809D01*
X109190476Y-124061904D01*
X109142857Y-124157142D01*
X109095238Y-124204761D01*
X109000000Y-124252380D01*
X108714285Y-124252380D01*
X108619047Y-124204761D01*
X108571428Y-124157142D01*
X101319048Y-55252380D02*
X101890476Y-55252380D01*
X101604762Y-56252380D02*
X101604762Y-55252380D01*
X102128572Y-55252380D02*
X102795238Y-56252380D01*
X102795238Y-55252380D02*
X102128572Y-56252380D01*
X102033333Y-52452380D02*
X101700000Y-51976190D01*
X101461904Y-52452380D02*
X101461904Y-51452380D01*
X101842857Y-51452380D01*
X101938095Y-51500000D01*
X101985714Y-51547619D01*
X102033333Y-51642857D01*
X102033333Y-51785714D01*
X101985714Y-51880952D01*
X101938095Y-51928571D01*
X101842857Y-51976190D01*
X101461904Y-51976190D01*
X102366666Y-51452380D02*
X103033333Y-52452380D01*
X103033333Y-51452380D02*
X102366666Y-52452380D01*
X156161904Y-89052380D02*
X155828571Y-88576190D01*
X155590476Y-89052380D02*
X155590476Y-88052380D01*
X155971428Y-88052380D01*
X156066666Y-88100000D01*
X156114285Y-88147619D01*
X156161904Y-88242857D01*
X156161904Y-88385714D01*
X156114285Y-88480952D01*
X156066666Y-88528571D01*
X155971428Y-88576190D01*
X155590476Y-88576190D01*
X156971428Y-89004761D02*
X156876190Y-89052380D01*
X156685714Y-89052380D01*
X156590476Y-89004761D01*
X156542857Y-88909523D01*
X156542857Y-88528571D01*
X156590476Y-88433333D01*
X156685714Y-88385714D01*
X156876190Y-88385714D01*
X156971428Y-88433333D01*
X157019047Y-88528571D01*
X157019047Y-88623809D01*
X156542857Y-88719047D01*
X157400000Y-89004761D02*
X157495238Y-89052380D01*
X157685714Y-89052380D01*
X157780952Y-89004761D01*
X157828571Y-88909523D01*
X157828571Y-88861904D01*
X157780952Y-88766666D01*
X157685714Y-88719047D01*
X157542857Y-88719047D01*
X157447619Y-88671428D01*
X157400000Y-88576190D01*
X157400000Y-88528571D01*
X157447619Y-88433333D01*
X157542857Y-88385714D01*
X157685714Y-88385714D01*
X157780952Y-88433333D01*
X158638095Y-89004761D02*
X158542857Y-89052380D01*
X158352380Y-89052380D01*
X158257142Y-89004761D01*
X158209523Y-88909523D01*
X158209523Y-88528571D01*
X158257142Y-88433333D01*
X158352380Y-88385714D01*
X158542857Y-88385714D01*
X158638095Y-88433333D01*
X158685714Y-88528571D01*
X158685714Y-88623809D01*
X158209523Y-88719047D01*
X158971428Y-88385714D02*
X159352380Y-88385714D01*
X159114285Y-88052380D02*
X159114285Y-88909523D01*
X159161904Y-89004761D01*
X159257142Y-89052380D01*
X159352380Y-89052380D01*
D11*
X147335714Y-133278571D02*
X147335714Y-131778571D01*
X147907142Y-131778571D01*
X148050000Y-131850000D01*
X148121428Y-131921428D01*
X148192857Y-132064285D01*
X148192857Y-132278571D01*
X148121428Y-132421428D01*
X148050000Y-132492857D01*
X147907142Y-132564285D01*
X147335714Y-132564285D01*
X148764285Y-132850000D02*
X149478571Y-132850000D01*
X148621428Y-133278571D02*
X149121428Y-131778571D01*
X149621428Y-133278571D01*
X150907142Y-133278571D02*
X150050000Y-133278571D01*
X150478571Y-133278571D02*
X150478571Y-131778571D01*
X150335714Y-131992857D01*
X150192857Y-132135714D01*
X150050000Y-132207142D01*
X152192857Y-131778571D02*
X151907142Y-131778571D01*
X151764285Y-131850000D01*
X151692857Y-131921428D01*
X151550000Y-132135714D01*
X151478571Y-132421428D01*
X151478571Y-132992857D01*
X151550000Y-133135714D01*
X151621428Y-133207142D01*
X151764285Y-133278571D01*
X152050000Y-133278571D01*
X152192857Y-133207142D01*
X152264285Y-133135714D01*
X152335714Y-132992857D01*
X152335714Y-132635714D01*
X152264285Y-132492857D01*
X152192857Y-132421428D01*
X152050000Y-132350000D01*
X151764285Y-132350000D01*
X151621428Y-132421428D01*
X151550000Y-132492857D01*
X151478571Y-132635714D01*
X131935714Y-133423809D02*
X131935714Y-131823809D01*
X132507142Y-131823809D01*
X132650000Y-131900000D01*
X132721428Y-131976190D01*
X132792857Y-132128571D01*
X132792857Y-132357142D01*
X132721428Y-132509523D01*
X132650000Y-132585714D01*
X132507142Y-132661904D01*
X131935714Y-132661904D01*
X133364285Y-132966666D02*
X134078571Y-132966666D01*
X133221428Y-133423809D02*
X133721428Y-131823809D01*
X134221428Y-133423809D01*
X135507142Y-133423809D02*
X134650000Y-133423809D01*
X135078571Y-133423809D02*
X135078571Y-131823809D01*
X134935714Y-132052380D01*
X134792857Y-132204761D01*
X134650000Y-132280952D01*
X136007142Y-131823809D02*
X137007142Y-131823809D01*
X136364285Y-133423809D01*
D10*
X93061904Y-130352380D02*
X93680952Y-130352380D01*
X93347619Y-130733333D01*
X93490476Y-130733333D01*
X93585714Y-130780952D01*
X93633333Y-130828571D01*
X93680952Y-130923809D01*
X93680952Y-131161904D01*
X93633333Y-131257142D01*
X93585714Y-131304761D01*
X93490476Y-131352380D01*
X93204761Y-131352380D01*
X93109523Y-131304761D01*
X93061904Y-131257142D01*
X93966666Y-130352380D02*
X94300000Y-131352380D01*
X94633333Y-130352380D01*
X94871428Y-130352380D02*
X95490476Y-130352380D01*
X95157142Y-130733333D01*
X95300000Y-130733333D01*
X95395238Y-130780952D01*
X95442857Y-130828571D01*
X95490476Y-130923809D01*
X95490476Y-131161904D01*
X95442857Y-131257142D01*
X95395238Y-131304761D01*
X95300000Y-131352380D01*
X95014285Y-131352380D01*
X94919047Y-131304761D01*
X94871428Y-131257142D01*
X83304761Y-130352380D02*
X83923809Y-130352380D01*
X83590476Y-130733333D01*
X83733333Y-130733333D01*
X83828571Y-130780952D01*
X83876190Y-130828571D01*
X83923809Y-130923809D01*
X83923809Y-131161904D01*
X83876190Y-131257142D01*
X83828571Y-131304761D01*
X83733333Y-131352380D01*
X83447618Y-131352380D01*
X83352380Y-131304761D01*
X83304761Y-131257142D01*
X84209523Y-130352380D02*
X84542857Y-131352380D01*
X84876190Y-130352380D01*
X85114285Y-130352380D02*
X85733333Y-130352380D01*
X85399999Y-130733333D01*
X85542857Y-130733333D01*
X85638095Y-130780952D01*
X85685714Y-130828571D01*
X85733333Y-130923809D01*
X85733333Y-131161904D01*
X85685714Y-131257142D01*
X85638095Y-131304761D01*
X85542857Y-131352380D01*
X85257142Y-131352380D01*
X85161904Y-131304761D01*
X85114285Y-131257142D01*
X93680952Y-127800000D02*
X93585714Y-127752380D01*
X93442857Y-127752380D01*
X93299999Y-127800000D01*
X93204761Y-127895238D01*
X93157142Y-127990476D01*
X93109523Y-128180952D01*
X93109523Y-128323809D01*
X93157142Y-128514285D01*
X93204761Y-128609523D01*
X93299999Y-128704761D01*
X93442857Y-128752380D01*
X93538095Y-128752380D01*
X93680952Y-128704761D01*
X93728571Y-128657142D01*
X93728571Y-128323809D01*
X93538095Y-128323809D01*
X94157142Y-128752380D02*
X94157142Y-127752380D01*
X94728571Y-128752380D01*
X94728571Y-127752380D01*
X95204761Y-128752380D02*
X95204761Y-127752380D01*
X95442857Y-127752380D01*
X95585714Y-127800000D01*
X95680952Y-127895238D01*
X95728571Y-127990476D01*
X95776190Y-128180952D01*
X95776190Y-128323809D01*
X95728571Y-128514285D01*
X95680952Y-128609523D01*
X95585714Y-128704761D01*
X95442857Y-128752380D01*
X95204761Y-128752380D01*
X83638095Y-127800000D02*
X83542857Y-127752380D01*
X83400000Y-127752380D01*
X83257142Y-127800000D01*
X83161904Y-127895238D01*
X83114285Y-127990476D01*
X83066666Y-128180952D01*
X83066666Y-128323809D01*
X83114285Y-128514285D01*
X83161904Y-128609523D01*
X83257142Y-128704761D01*
X83400000Y-128752380D01*
X83495238Y-128752380D01*
X83638095Y-128704761D01*
X83685714Y-128657142D01*
X83685714Y-128323809D01*
X83495238Y-128323809D01*
X84114285Y-128752380D02*
X84114285Y-127752380D01*
X84685714Y-128752380D01*
X84685714Y-127752380D01*
X85161904Y-128752380D02*
X85161904Y-127752380D01*
X85400000Y-127752380D01*
X85542857Y-127800000D01*
X85638095Y-127895238D01*
X85685714Y-127990476D01*
X85733333Y-128180952D01*
X85733333Y-128323809D01*
X85685714Y-128514285D01*
X85638095Y-128609523D01*
X85542857Y-128704761D01*
X85400000Y-128752380D01*
X85161904Y-128752380D01*
X93014285Y-125152380D02*
X93347618Y-126152380D01*
X93680952Y-125152380D01*
X94014285Y-126152380D02*
X94014285Y-125485714D01*
X94014285Y-125152380D02*
X93966666Y-125200000D01*
X94014285Y-125247619D01*
X94061904Y-125200000D01*
X94014285Y-125152380D01*
X94014285Y-125247619D01*
X94490475Y-125485714D02*
X94490475Y-126152380D01*
X94490475Y-125580952D02*
X94538095Y-125533333D01*
X94633333Y-125485714D01*
X94776190Y-125485714D01*
X94871428Y-125533333D01*
X94919047Y-125628571D01*
X94919047Y-126152380D01*
X83780952Y-125152380D02*
X84114285Y-126152380D01*
X84447619Y-125152380D01*
X84780952Y-126152380D02*
X84780952Y-125485714D01*
X84780952Y-125152380D02*
X84733333Y-125200000D01*
X84780952Y-125247619D01*
X84828571Y-125200000D01*
X84780952Y-125152380D01*
X84780952Y-125247619D01*
X85257142Y-125485714D02*
X85257142Y-126152380D01*
X85257142Y-125580952D02*
X85304762Y-125533333D01*
X85400000Y-125485714D01*
X85542857Y-125485714D01*
X85638095Y-125533333D01*
X85685714Y-125628571D01*
X85685714Y-126152380D01*
D12*
G36*
X161900000Y-119300000D02*
G01*
X159250000Y-119300000D01*
X160600000Y-117200000D01*
X161900000Y-119300000D01*
G37*
X161900000Y-119300000D02*
X159250000Y-119300000D01*
X160600000Y-117200000D01*
X161900000Y-119300000D01*
D13*
X159360000Y-57710000D02*
X158910000Y-57710000D01*
X158910000Y-57260000D02*
X158910000Y-57710000D01*
X159590000Y-59710000D02*
X159590000Y-59290000D01*
X161570000Y-59710000D02*
X159590000Y-59710000D01*
X163940000Y-59710000D02*
X163540000Y-59710000D01*
X163540000Y-52190000D02*
X163940000Y-52190000D01*
X159590000Y-52190000D02*
X159590000Y-52610000D01*
X161570000Y-52190000D02*
X159590000Y-52190000D01*
X77650000Y-129650000D02*
X77650000Y-138150000D01*
X77650000Y-138150000D02*
X68450000Y-138150000D01*
X68450000Y-138150000D02*
X68450000Y-123450000D01*
X75550000Y-123450000D02*
X77650000Y-123450000D01*
X77650000Y-123450000D02*
X77650000Y-125250000D01*
X69850000Y-123150000D02*
X68150000Y-123150000D01*
X68150000Y-123150000D02*
X68150000Y-124750000D01*
X68450000Y-123450000D02*
X70550000Y-123450000D01*
X148260000Y-49085000D02*
X148260000Y-46400000D01*
X146340000Y-49085000D02*
X148260000Y-49085000D01*
X146340000Y-46400000D02*
X146340000Y-49085000D01*
X143993332Y-49085000D02*
X143993332Y-46400000D01*
X142073332Y-49085000D02*
X143993332Y-49085000D01*
X142073332Y-46400000D02*
X142073332Y-49085000D01*
X139726666Y-49085000D02*
X139726666Y-46400000D01*
X137806666Y-49085000D02*
X139726666Y-49085000D01*
X137806666Y-46400000D02*
X137806666Y-49085000D01*
X135460000Y-49085000D02*
X135460000Y-46400000D01*
X133540000Y-49085000D02*
X135460000Y-49085000D01*
X133540000Y-46400000D02*
X133540000Y-49085000D01*
X92030000Y-124490000D02*
X86830000Y-124490000D01*
X92030000Y-129630000D02*
X92030000Y-124490000D01*
X86830000Y-132230000D02*
X86830000Y-124490000D01*
X92030000Y-129630000D02*
X89430000Y-129630000D01*
X89430000Y-129630000D02*
X89430000Y-132230000D01*
X89430000Y-132230000D02*
X86830000Y-132230000D01*
X92030000Y-130900000D02*
X92030000Y-132230000D01*
X92030000Y-132230000D02*
X90700000Y-132230000D01*
X145070000Y-77790000D02*
X139870000Y-77790000D01*
X145070000Y-90550000D02*
X145070000Y-77790000D01*
X139870000Y-93150000D02*
X139870000Y-77790000D01*
X145070000Y-90550000D02*
X142470000Y-90550000D01*
X142470000Y-90550000D02*
X142470000Y-93150000D01*
X142470000Y-93150000D02*
X139870000Y-93150000D01*
X145070000Y-91820000D02*
X145070000Y-93150000D01*
X145070000Y-93150000D02*
X143740000Y-93150000D01*
D12*
X136850000Y-123155000D02*
X132050000Y-123155000D01*
X136850000Y-129150000D02*
X132050000Y-129150000D01*
X137450000Y-124950000D02*
X137450000Y-127350000D01*
X131455000Y-124950000D02*
X131450000Y-127350000D01*
X129850000Y-123750000D02*
X129850000Y-123750000D01*
X129950000Y-123750000D02*
X129950000Y-123750000D01*
X129850000Y-123750000D02*
G75*
G02*
X129950000Y-123750000I50000J0D01*
G01*
X129950000Y-123750000D02*
G75*
G02*
X129850000Y-123750000I-50000J0D01*
G01*
X151950000Y-123155000D02*
X147150000Y-123155000D01*
X151950000Y-129150000D02*
X147150000Y-129150000D01*
X152550000Y-124950000D02*
X152550000Y-127350000D01*
X146555000Y-124950000D02*
X146550000Y-127350000D01*
X144950000Y-123750000D02*
X144950000Y-123750000D01*
X145050000Y-123750000D02*
X145050000Y-123750000D01*
X144950000Y-123750000D02*
G75*
G02*
X145050000Y-123750000I50000J0D01*
G01*
X145050000Y-123750000D02*
G75*
G02*
X144950000Y-123750000I-50000J0D01*
G01*
X159100000Y-86450000D02*
X155500000Y-86450000D01*
X159550000Y-85100000D02*
X159550000Y-83300000D01*
X155050000Y-85100000D02*
X155050000Y-83300000D01*
X159100000Y-81950000D02*
X155500000Y-81950000D01*
X161300000Y-86000000D02*
X161300000Y-86000000D01*
X161300000Y-85900000D02*
X161300000Y-85900000D01*
X161300000Y-86000000D02*
G75*
G02*
X161300000Y-85900000I0J50000D01*
G01*
X161300000Y-85900000D02*
G75*
G02*
X161300000Y-86000000I0J-50000D01*
G01*
D13*
X151562742Y-106477500D02*
X152037258Y-106477500D01*
X151562742Y-107522500D02*
X152037258Y-107522500D01*
X111637258Y-130422500D02*
X111162742Y-130422500D01*
X111637258Y-129377500D02*
X111162742Y-129377500D01*
X94137742Y-51437500D02*
X94612258Y-51437500D01*
X94137742Y-52482500D02*
X94612258Y-52482500D01*
X94137742Y-55137500D02*
X94612258Y-55137500D01*
X94137742Y-56182500D02*
X94612258Y-56182500D01*
X115062742Y-129377500D02*
X115537258Y-129377500D01*
X115062742Y-130422500D02*
X115537258Y-130422500D01*
X93537258Y-47822500D02*
X93062742Y-47822500D01*
X93537258Y-46777500D02*
X93062742Y-46777500D01*
X147822500Y-52162742D02*
X147822500Y-52637258D01*
X146777500Y-52162742D02*
X146777500Y-52637258D01*
X143522500Y-52162742D02*
X143522500Y-52637258D01*
X142477500Y-52162742D02*
X142477500Y-52637258D01*
X139222500Y-52162742D02*
X139222500Y-52637258D01*
X138177500Y-52162742D02*
X138177500Y-52637258D01*
X134922500Y-52162742D02*
X134922500Y-52637258D01*
X133877500Y-52162742D02*
X133877500Y-52637258D01*
X156162742Y-75377500D02*
X156637258Y-75377500D01*
X156162742Y-76422500D02*
X156637258Y-76422500D01*
X156537258Y-73122500D02*
X156062742Y-73122500D01*
X156537258Y-72077500D02*
X156062742Y-72077500D01*
X85322500Y-116662742D02*
X85322500Y-117137258D01*
X84277500Y-116662742D02*
X84277500Y-117137258D01*
X159362742Y-90077500D02*
X159837258Y-90077500D01*
X159362742Y-91122500D02*
X159837258Y-91122500D01*
X104262779Y-85410000D02*
X103937221Y-85410000D01*
X104262779Y-84390000D02*
X103937221Y-84390000D01*
X162040000Y-95270000D02*
X162040000Y-115710000D01*
X162040000Y-115710000D02*
X164700000Y-115710000D01*
X164700000Y-115710000D02*
X164700000Y-95270000D01*
X164700000Y-95270000D02*
X162040000Y-95270000D01*
X164700000Y-96220000D02*
X170700000Y-96220000D01*
X170700000Y-96220000D02*
X170700000Y-96980000D01*
X170700000Y-96980000D02*
X164700000Y-96980000D01*
X164700000Y-96280000D02*
X170700000Y-96280000D01*
X164700000Y-96400000D02*
X170700000Y-96400000D01*
X164700000Y-96520000D02*
X170700000Y-96520000D01*
X164700000Y-96640000D02*
X170700000Y-96640000D01*
X164700000Y-96760000D02*
X170700000Y-96760000D01*
X164700000Y-96880000D02*
X170700000Y-96880000D01*
X161710000Y-96220000D02*
X162040000Y-96220000D01*
X161710000Y-96980000D02*
X162040000Y-96980000D01*
X162040000Y-97870000D02*
X164700000Y-97870000D01*
X164700000Y-98760000D02*
X170700000Y-98760000D01*
X170700000Y-98760000D02*
X170700000Y-99520000D01*
X170700000Y-99520000D02*
X164700000Y-99520000D01*
X161642929Y-98760000D02*
X162040000Y-98760000D01*
X161642929Y-99520000D02*
X162040000Y-99520000D01*
X162040000Y-100410000D02*
X164700000Y-100410000D01*
X164700000Y-101300000D02*
X170700000Y-101300000D01*
X170700000Y-101300000D02*
X170700000Y-102060000D01*
X170700000Y-102060000D02*
X164700000Y-102060000D01*
X161642929Y-101300000D02*
X162040000Y-101300000D01*
X161642929Y-102060000D02*
X162040000Y-102060000D01*
X162040000Y-102950000D02*
X164700000Y-102950000D01*
X164700000Y-103840000D02*
X170700000Y-103840000D01*
X170700000Y-103840000D02*
X170700000Y-104600000D01*
X170700000Y-104600000D02*
X164700000Y-104600000D01*
X161642929Y-103840000D02*
X162040000Y-103840000D01*
X161642929Y-104600000D02*
X162040000Y-104600000D01*
X162040000Y-105490000D02*
X164700000Y-105490000D01*
X164700000Y-106380000D02*
X170700000Y-106380000D01*
X170700000Y-106380000D02*
X170700000Y-107140000D01*
X170700000Y-107140000D02*
X164700000Y-107140000D01*
X161642929Y-106380000D02*
X162040000Y-106380000D01*
X161642929Y-107140000D02*
X162040000Y-107140000D01*
X162040000Y-108030000D02*
X164700000Y-108030000D01*
X164700000Y-108920000D02*
X170700000Y-108920000D01*
X170700000Y-108920000D02*
X170700000Y-109680000D01*
X170700000Y-109680000D02*
X164700000Y-109680000D01*
X161642929Y-108920000D02*
X162040000Y-108920000D01*
X161642929Y-109680000D02*
X162040000Y-109680000D01*
X162040000Y-110570000D02*
X164700000Y-110570000D01*
X164700000Y-111460000D02*
X170700000Y-111460000D01*
X170700000Y-111460000D02*
X170700000Y-112220000D01*
X170700000Y-112220000D02*
X164700000Y-112220000D01*
X161642929Y-111460000D02*
X162040000Y-111460000D01*
X161642929Y-112220000D02*
X162040000Y-112220000D01*
X162040000Y-113110000D02*
X164700000Y-113110000D01*
X164700000Y-114000000D02*
X170700000Y-114000000D01*
X170700000Y-114000000D02*
X170700000Y-114760000D01*
X170700000Y-114760000D02*
X164700000Y-114760000D01*
X161642929Y-114000000D02*
X162040000Y-114000000D01*
X161642929Y-114760000D02*
X162040000Y-114760000D01*
X159330000Y-96600000D02*
X159330000Y-95330000D01*
X159330000Y-95330000D02*
X160600000Y-95330000D01*
X109910000Y-56730000D02*
X109910000Y-61930000D01*
X120130000Y-56730000D02*
X109910000Y-56730000D01*
X122730000Y-61930000D02*
X109910000Y-61930000D01*
X120130000Y-56730000D02*
X120130000Y-59330000D01*
X120130000Y-59330000D02*
X122730000Y-59330000D01*
X122730000Y-59330000D02*
X122730000Y-61930000D01*
X121400000Y-56730000D02*
X122730000Y-56730000D01*
X122730000Y-56730000D02*
X122730000Y-58060000D01*
X149570000Y-115730000D02*
X152230000Y-115730000D01*
X149570000Y-113130000D02*
X149570000Y-115730000D01*
X152230000Y-113130000D02*
X152230000Y-115730000D01*
X149570000Y-113130000D02*
X152230000Y-113130000D01*
X149570000Y-111860000D02*
X149570000Y-110530000D01*
X149570000Y-110530000D02*
X150900000Y-110530000D01*
X122970000Y-114970000D02*
X122970000Y-109770000D01*
X110210000Y-114970000D02*
X122970000Y-114970000D01*
X107610000Y-109770000D02*
X122970000Y-109770000D01*
X110210000Y-114970000D02*
X110210000Y-112370000D01*
X110210000Y-112370000D02*
X107610000Y-112370000D01*
X107610000Y-112370000D02*
X107610000Y-109770000D01*
X108940000Y-114970000D02*
X107610000Y-114970000D01*
X107610000Y-114970000D02*
X107610000Y-113640000D01*
X86070000Y-95330000D02*
X91270000Y-95330000D01*
X86070000Y-82570000D02*
X86070000Y-95330000D01*
X91270000Y-79970000D02*
X91270000Y-95330000D01*
X86070000Y-82570000D02*
X88670000Y-82570000D01*
X88670000Y-82570000D02*
X88670000Y-79970000D01*
X88670000Y-79970000D02*
X91270000Y-79970000D01*
X86070000Y-81300000D02*
X86070000Y-79970000D01*
X86070000Y-79970000D02*
X87400000Y-79970000D01*
X115870000Y-138030000D02*
X115870000Y-132830000D01*
X113270000Y-138030000D02*
X115870000Y-138030000D01*
X110670000Y-132830000D02*
X115870000Y-132830000D01*
X113270000Y-138030000D02*
X113270000Y-135430000D01*
X113270000Y-135430000D02*
X110670000Y-135430000D01*
X110670000Y-135430000D02*
X110670000Y-132830000D01*
X112000000Y-138030000D02*
X110670000Y-138030000D01*
X110670000Y-138030000D02*
X110670000Y-136700000D01*
X110570000Y-127670000D02*
X115770000Y-127670000D01*
X110570000Y-125070000D02*
X110570000Y-127670000D01*
X115770000Y-122470000D02*
X115770000Y-127670000D01*
X110570000Y-125070000D02*
X113170000Y-125070000D01*
X113170000Y-125070000D02*
X113170000Y-122470000D01*
X113170000Y-122470000D02*
X115770000Y-122470000D01*
X110570000Y-123800000D02*
X110570000Y-122470000D01*
X110570000Y-122470000D02*
X111900000Y-122470000D01*
X143430000Y-57870000D02*
X143430000Y-60530000D01*
X146030000Y-57870000D02*
X143430000Y-57870000D01*
X146030000Y-60530000D02*
X143430000Y-60530000D01*
X146030000Y-57870000D02*
X146030000Y-60530000D01*
X147300000Y-57870000D02*
X148630000Y-57870000D01*
X148630000Y-57870000D02*
X148630000Y-59200000D01*
X68950000Y-47040000D02*
X71550000Y-47040000D01*
X71550000Y-54960000D02*
X68950000Y-54960000D01*
X73860000Y-47800000D02*
X73860000Y-48950000D01*
X73860000Y-48950000D02*
X74450000Y-48950000D01*
X74450000Y-48950000D02*
X74450000Y-49650000D01*
X73860000Y-53050000D02*
X73860000Y-54200000D01*
X66050000Y-47040000D02*
X64390000Y-47040000D01*
X64390000Y-47040000D02*
X64390000Y-54960000D01*
X64390000Y-54960000D02*
X66050000Y-54960000D01*
X133030000Y-57870000D02*
X133030000Y-60530000D01*
X135630000Y-57870000D02*
X133030000Y-57870000D01*
X135630000Y-60530000D02*
X133030000Y-60530000D01*
X135630000Y-57870000D02*
X135630000Y-60530000D01*
X136900000Y-57870000D02*
X138230000Y-57870000D01*
X138230000Y-57870000D02*
X138230000Y-59200000D01*
X158070000Y-70330000D02*
X158070000Y-67670000D01*
X155470000Y-70330000D02*
X158070000Y-70330000D01*
X155470000Y-67670000D02*
X158070000Y-67670000D01*
X155470000Y-70330000D02*
X155470000Y-67670000D01*
X154200000Y-70330000D02*
X152870000Y-70330000D01*
X152870000Y-70330000D02*
X152870000Y-69000000D01*
D14*
X87400000Y-56625000D02*
X84200000Y-56625000D01*
X84200000Y-56625000D02*
X84200000Y-47975000D01*
X84200000Y-47975000D02*
X87400000Y-47975000D01*
X87400000Y-47975000D02*
X87400000Y-56625000D01*
X89250000Y-56785000D02*
X87750000Y-56785000D01*
X69250000Y-116650000D02*
X69250000Y-113150000D01*
X69250000Y-113150000D02*
X75750000Y-113150000D01*
X75750000Y-113150000D02*
X75750000Y-116650000D01*
X75750000Y-116650000D02*
X69250000Y-116650000D01*
X69400000Y-118925000D02*
X69400000Y-117075000D01*
X111850000Y-81850000D02*
X118150000Y-81850000D01*
X118150000Y-81850000D02*
X118150000Y-88150000D01*
X118150000Y-88150000D02*
X111850000Y-88150000D01*
X111850000Y-88150000D02*
X111850000Y-81850000D01*
D15*
X110400000Y-81500000D02*
G75*
G03*
X110400000Y-81500000I-125000J0D01*
G01*
D13*
X99500000Y-51265000D02*
X97215000Y-51265000D01*
X97215000Y-51265000D02*
X97215000Y-52735000D01*
X97215000Y-52735000D02*
X99500000Y-52735000D01*
X99500000Y-54965000D02*
X97215000Y-54965000D01*
X97215000Y-54965000D02*
X97215000Y-56435000D01*
X97215000Y-56435000D02*
X99500000Y-56435000D01*
X82750000Y-44200000D02*
X82750000Y-42200000D01*
X82750000Y-42200000D02*
X78850000Y-42200000D01*
X82750000Y-44200000D02*
X78850000Y-44200000D01*
X160800000Y-76450000D02*
X162800000Y-76450000D01*
X162800000Y-76450000D02*
X162800000Y-72550000D01*
X160800000Y-76450000D02*
X160800000Y-72550000D01*
X84065000Y-112100000D02*
X84065000Y-114385000D01*
X84065000Y-114385000D02*
X85535000Y-114385000D01*
X85535000Y-114385000D02*
X85535000Y-112100000D01*
X90159420Y-57990000D02*
X90440580Y-57990000D01*
X90159420Y-59010000D02*
X90440580Y-59010000D01*
X80210000Y-49759420D02*
X80210000Y-50040580D01*
X79190000Y-49759420D02*
X79190000Y-50040580D01*
X115040000Y-77927836D02*
X115040000Y-77712164D01*
X115760000Y-77927836D02*
X115760000Y-77712164D01*
X107292164Y-83940000D02*
X107507836Y-83940000D01*
X107292164Y-84660000D02*
X107507836Y-84660000D01*
X79310000Y-112459420D02*
X79310000Y-112740580D01*
X78290000Y-112459420D02*
X78290000Y-112740580D01*
X113940000Y-77907836D02*
X113940000Y-77692164D01*
X114660000Y-77907836D02*
X114660000Y-77692164D01*
X78938748Y-117565000D02*
X79461252Y-117565000D01*
X78938748Y-119035000D02*
X79461252Y-119035000D01*
X121392164Y-81240000D02*
X121607836Y-81240000D01*
X121392164Y-81960000D02*
X121607836Y-81960000D01*
X114660000Y-91792164D02*
X114660000Y-92007836D01*
X113940000Y-91792164D02*
X113940000Y-92007836D01*
D16*
X157202380Y-56283333D02*
X157916666Y-56283333D01*
X158059523Y-56330952D01*
X158154761Y-56426190D01*
X158202380Y-56569047D01*
X158202380Y-56664285D01*
X157202380Y-55330952D02*
X157202380Y-55807142D01*
X157678571Y-55854761D01*
X157630952Y-55807142D01*
X157583333Y-55711904D01*
X157583333Y-55473809D01*
X157630952Y-55378571D01*
X157678571Y-55330952D01*
X157773809Y-55283333D01*
X158011904Y-55283333D01*
X158107142Y-55330952D01*
X158154761Y-55378571D01*
X158202380Y-55473809D01*
X158202380Y-55711904D01*
X158154761Y-55807142D01*
X158107142Y-55854761D01*
X72716666Y-121402380D02*
X72716666Y-122116666D01*
X72669047Y-122259523D01*
X72573809Y-122354761D01*
X72430952Y-122402380D01*
X72335714Y-122402380D01*
X73716666Y-122402380D02*
X73145238Y-122402380D01*
X73430952Y-122402380D02*
X73430952Y-121402380D01*
X73335714Y-121545238D01*
X73240476Y-121640476D01*
X73145238Y-121688095D01*
X146561904Y-45152380D02*
X146561904Y-44152380D01*
X146800000Y-44152380D01*
X146942857Y-44200000D01*
X147038095Y-44295238D01*
X147085714Y-44390476D01*
X147133333Y-44580952D01*
X147133333Y-44723809D01*
X147085714Y-44914285D01*
X147038095Y-45009523D01*
X146942857Y-45104761D01*
X146800000Y-45152380D01*
X146561904Y-45152380D01*
X147466666Y-44152380D02*
X148133333Y-44152380D01*
X147704761Y-45152380D01*
X142261904Y-45152380D02*
X142261904Y-44152380D01*
X142500000Y-44152380D01*
X142642857Y-44200000D01*
X142738095Y-44295238D01*
X142785714Y-44390476D01*
X142833333Y-44580952D01*
X142833333Y-44723809D01*
X142785714Y-44914285D01*
X142738095Y-45009523D01*
X142642857Y-45104761D01*
X142500000Y-45152380D01*
X142261904Y-45152380D01*
X143690476Y-44152380D02*
X143500000Y-44152380D01*
X143404761Y-44200000D01*
X143357142Y-44247619D01*
X143261904Y-44390476D01*
X143214285Y-44580952D01*
X143214285Y-44961904D01*
X143261904Y-45057142D01*
X143309523Y-45104761D01*
X143404761Y-45152380D01*
X143595238Y-45152380D01*
X143690476Y-45104761D01*
X143738095Y-45057142D01*
X143785714Y-44961904D01*
X143785714Y-44723809D01*
X143738095Y-44628571D01*
X143690476Y-44580952D01*
X143595238Y-44533333D01*
X143404761Y-44533333D01*
X143309523Y-44580952D01*
X143261904Y-44628571D01*
X143214285Y-44723809D01*
X137961904Y-45152380D02*
X137961904Y-44152380D01*
X138200000Y-44152380D01*
X138342857Y-44200000D01*
X138438095Y-44295238D01*
X138485714Y-44390476D01*
X138533333Y-44580952D01*
X138533333Y-44723809D01*
X138485714Y-44914285D01*
X138438095Y-45009523D01*
X138342857Y-45104761D01*
X138200000Y-45152380D01*
X137961904Y-45152380D01*
X139438095Y-44152380D02*
X138961904Y-44152380D01*
X138914285Y-44628571D01*
X138961904Y-44580952D01*
X139057142Y-44533333D01*
X139295238Y-44533333D01*
X139390476Y-44580952D01*
X139438095Y-44628571D01*
X139485714Y-44723809D01*
X139485714Y-44961904D01*
X139438095Y-45057142D01*
X139390476Y-45104761D01*
X139295238Y-45152380D01*
X139057142Y-45152380D01*
X138961904Y-45104761D01*
X138914285Y-45057142D01*
X133761904Y-45152380D02*
X133761904Y-44152380D01*
X134000000Y-44152380D01*
X134142857Y-44200000D01*
X134238095Y-44295238D01*
X134285714Y-44390476D01*
X134333333Y-44580952D01*
X134333333Y-44723809D01*
X134285714Y-44914285D01*
X134238095Y-45009523D01*
X134142857Y-45104761D01*
X134000000Y-45152380D01*
X133761904Y-45152380D01*
X134714285Y-44247619D02*
X134761904Y-44200000D01*
X134857142Y-44152380D01*
X135095238Y-44152380D01*
X135190476Y-44200000D01*
X135238095Y-44247619D01*
X135285714Y-44342857D01*
X135285714Y-44438095D01*
X135238095Y-44580952D01*
X134666666Y-45152380D01*
X135285714Y-45152380D01*
X89096666Y-133452380D02*
X89096666Y-134166666D01*
X89049047Y-134309523D01*
X88953809Y-134404761D01*
X88810952Y-134452380D01*
X88715714Y-134452380D01*
X89525238Y-133547619D02*
X89572857Y-133500000D01*
X89668095Y-133452380D01*
X89906190Y-133452380D01*
X90001428Y-133500000D01*
X90049047Y-133547619D01*
X90096666Y-133642857D01*
X90096666Y-133738095D01*
X90049047Y-133880952D01*
X89477619Y-134452380D01*
X90096666Y-134452380D01*
X141660476Y-93602380D02*
X141660476Y-94316666D01*
X141612857Y-94459523D01*
X141517619Y-94554761D01*
X141374761Y-94602380D01*
X141279523Y-94602380D01*
X142660476Y-94602380D02*
X142089047Y-94602380D01*
X142374761Y-94602380D02*
X142374761Y-93602380D01*
X142279523Y-93745238D01*
X142184285Y-93840476D01*
X142089047Y-93888095D01*
X143041428Y-93697619D02*
X143089047Y-93650000D01*
X143184285Y-93602380D01*
X143422380Y-93602380D01*
X143517619Y-93650000D01*
X143565238Y-93697619D01*
X143612857Y-93792857D01*
X143612857Y-93888095D01*
X143565238Y-94030952D01*
X142993809Y-94602380D01*
X143612857Y-94602380D01*
D17*
X132756666Y-126664047D02*
X132938095Y-126724523D01*
X133240476Y-126724523D01*
X133361428Y-126664047D01*
X133421904Y-126603571D01*
X133482380Y-126482619D01*
X133482380Y-126361666D01*
X133421904Y-126240714D01*
X133361428Y-126180238D01*
X133240476Y-126119761D01*
X132998571Y-126059285D01*
X132877619Y-125998809D01*
X132817142Y-125938333D01*
X132756666Y-125817380D01*
X132756666Y-125696428D01*
X132817142Y-125575476D01*
X132877619Y-125515000D01*
X132998571Y-125454523D01*
X133300952Y-125454523D01*
X133482380Y-125515000D01*
X133905714Y-125454523D02*
X134208095Y-126724523D01*
X134450000Y-125817380D01*
X134691904Y-126724523D01*
X134994285Y-125454523D01*
X135357142Y-125454523D02*
X136143333Y-125454523D01*
X135720000Y-125938333D01*
X135901428Y-125938333D01*
X136022380Y-125998809D01*
X136082857Y-126059285D01*
X136143333Y-126180238D01*
X136143333Y-126482619D01*
X136082857Y-126603571D01*
X136022380Y-126664047D01*
X135901428Y-126724523D01*
X135538571Y-126724523D01*
X135417619Y-126664047D01*
X135357142Y-126603571D01*
X147856666Y-126664047D02*
X148038095Y-126724523D01*
X148340476Y-126724523D01*
X148461428Y-126664047D01*
X148521904Y-126603571D01*
X148582380Y-126482619D01*
X148582380Y-126361666D01*
X148521904Y-126240714D01*
X148461428Y-126180238D01*
X148340476Y-126119761D01*
X148098571Y-126059285D01*
X147977619Y-125998809D01*
X147917142Y-125938333D01*
X147856666Y-125817380D01*
X147856666Y-125696428D01*
X147917142Y-125575476D01*
X147977619Y-125515000D01*
X148098571Y-125454523D01*
X148400952Y-125454523D01*
X148582380Y-125515000D01*
X149005714Y-125454523D02*
X149308095Y-126724523D01*
X149550000Y-125817380D01*
X149791904Y-126724523D01*
X150094285Y-125454523D01*
X150517619Y-125575476D02*
X150578095Y-125515000D01*
X150699047Y-125454523D01*
X151001428Y-125454523D01*
X151122380Y-125515000D01*
X151182857Y-125575476D01*
X151243333Y-125696428D01*
X151243333Y-125817380D01*
X151182857Y-125998809D01*
X150457142Y-126724523D01*
X151243333Y-126724523D01*
X155931666Y-84714047D02*
X156113095Y-84774523D01*
X156415476Y-84774523D01*
X156536428Y-84714047D01*
X156596904Y-84653571D01*
X156657380Y-84532619D01*
X156657380Y-84411666D01*
X156596904Y-84290714D01*
X156536428Y-84230238D01*
X156415476Y-84169761D01*
X156173571Y-84109285D01*
X156052619Y-84048809D01*
X155992142Y-83988333D01*
X155931666Y-83867380D01*
X155931666Y-83746428D01*
X155992142Y-83625476D01*
X156052619Y-83565000D01*
X156173571Y-83504523D01*
X156475952Y-83504523D01*
X156657380Y-83565000D01*
X157080714Y-83504523D02*
X157383095Y-84774523D01*
X157625000Y-83867380D01*
X157866904Y-84774523D01*
X158169285Y-83504523D01*
X159318333Y-84774523D02*
X158592619Y-84774523D01*
X158955476Y-84774523D02*
X158955476Y-83504523D01*
X158834523Y-83685952D01*
X158713571Y-83806904D01*
X158592619Y-83867380D01*
D16*
X151157142Y-106022380D02*
X150823809Y-105546190D01*
X150585714Y-106022380D02*
X150585714Y-105022380D01*
X150966666Y-105022380D01*
X151061904Y-105070000D01*
X151109523Y-105117619D01*
X151157142Y-105212857D01*
X151157142Y-105355714D01*
X151109523Y-105450952D01*
X151061904Y-105498571D01*
X150966666Y-105546190D01*
X150585714Y-105546190D01*
X152109523Y-106022380D02*
X151538095Y-106022380D01*
X151823809Y-106022380D02*
X151823809Y-105022380D01*
X151728571Y-105165238D01*
X151633333Y-105260476D01*
X151538095Y-105308095D01*
X152966666Y-105355714D02*
X152966666Y-106022380D01*
X152728571Y-104974761D02*
X152490476Y-105689047D01*
X153109523Y-105689047D01*
X107357142Y-130452380D02*
X107023809Y-129976190D01*
X106785714Y-130452380D02*
X106785714Y-129452380D01*
X107166666Y-129452380D01*
X107261904Y-129500000D01*
X107309523Y-129547619D01*
X107357142Y-129642857D01*
X107357142Y-129785714D01*
X107309523Y-129880952D01*
X107261904Y-129928571D01*
X107166666Y-129976190D01*
X106785714Y-129976190D01*
X108309523Y-130452380D02*
X107738095Y-130452380D01*
X108023809Y-130452380D02*
X108023809Y-129452380D01*
X107928571Y-129595238D01*
X107833333Y-129690476D01*
X107738095Y-129738095D01*
X108642857Y-129452380D02*
X109261904Y-129452380D01*
X108928571Y-129833333D01*
X109071428Y-129833333D01*
X109166666Y-129880952D01*
X109214285Y-129928571D01*
X109261904Y-130023809D01*
X109261904Y-130261904D01*
X109214285Y-130357142D01*
X109166666Y-130404761D01*
X109071428Y-130452380D01*
X108785714Y-130452380D01*
X108690476Y-130404761D01*
X108642857Y-130357142D01*
X93732142Y-50852380D02*
X93398809Y-50376190D01*
X93160714Y-50852380D02*
X93160714Y-49852380D01*
X93541666Y-49852380D01*
X93636904Y-49900000D01*
X93684523Y-49947619D01*
X93732142Y-50042857D01*
X93732142Y-50185714D01*
X93684523Y-50280952D01*
X93636904Y-50328571D01*
X93541666Y-50376190D01*
X93160714Y-50376190D01*
X94684523Y-50852380D02*
X94113095Y-50852380D01*
X94398809Y-50852380D02*
X94398809Y-49852380D01*
X94303571Y-49995238D01*
X94208333Y-50090476D01*
X94113095Y-50138095D01*
X95065476Y-49947619D02*
X95113095Y-49900000D01*
X95208333Y-49852380D01*
X95446428Y-49852380D01*
X95541666Y-49900000D01*
X95589285Y-49947619D01*
X95636904Y-50042857D01*
X95636904Y-50138095D01*
X95589285Y-50280952D01*
X95017857Y-50852380D01*
X95636904Y-50852380D01*
X93732142Y-54552380D02*
X93398809Y-54076190D01*
X93160714Y-54552380D02*
X93160714Y-53552380D01*
X93541666Y-53552380D01*
X93636904Y-53600000D01*
X93684523Y-53647619D01*
X93732142Y-53742857D01*
X93732142Y-53885714D01*
X93684523Y-53980952D01*
X93636904Y-54028571D01*
X93541666Y-54076190D01*
X93160714Y-54076190D01*
X94684523Y-54552380D02*
X94113095Y-54552380D01*
X94398809Y-54552380D02*
X94398809Y-53552380D01*
X94303571Y-53695238D01*
X94208333Y-53790476D01*
X94113095Y-53838095D01*
X95636904Y-54552380D02*
X95065476Y-54552380D01*
X95351190Y-54552380D02*
X95351190Y-53552380D01*
X95255952Y-53695238D01*
X95160714Y-53790476D01*
X95065476Y-53838095D01*
X117857142Y-130452380D02*
X117523809Y-129976190D01*
X117285714Y-130452380D02*
X117285714Y-129452380D01*
X117666666Y-129452380D01*
X117761904Y-129500000D01*
X117809523Y-129547619D01*
X117857142Y-129642857D01*
X117857142Y-129785714D01*
X117809523Y-129880952D01*
X117761904Y-129928571D01*
X117666666Y-129976190D01*
X117285714Y-129976190D01*
X118809523Y-130452380D02*
X118238095Y-130452380D01*
X118523809Y-130452380D02*
X118523809Y-129452380D01*
X118428571Y-129595238D01*
X118333333Y-129690476D01*
X118238095Y-129738095D01*
X119428571Y-129452380D02*
X119523809Y-129452380D01*
X119619047Y-129500000D01*
X119666666Y-129547619D01*
X119714285Y-129642857D01*
X119761904Y-129833333D01*
X119761904Y-130071428D01*
X119714285Y-130261904D01*
X119666666Y-130357142D01*
X119619047Y-130404761D01*
X119523809Y-130452380D01*
X119428571Y-130452380D01*
X119333333Y-130404761D01*
X119285714Y-130357142D01*
X119238095Y-130261904D01*
X119190476Y-130071428D01*
X119190476Y-129833333D01*
X119238095Y-129642857D01*
X119285714Y-129547619D01*
X119333333Y-129500000D01*
X119428571Y-129452380D01*
X93033333Y-46152380D02*
X92700000Y-45676190D01*
X92461904Y-46152380D02*
X92461904Y-45152380D01*
X92842857Y-45152380D01*
X92938095Y-45200000D01*
X92985714Y-45247619D01*
X93033333Y-45342857D01*
X93033333Y-45485714D01*
X92985714Y-45580952D01*
X92938095Y-45628571D01*
X92842857Y-45676190D01*
X92461904Y-45676190D01*
X93509523Y-46152380D02*
X93700000Y-46152380D01*
X93795238Y-46104761D01*
X93842857Y-46057142D01*
X93938095Y-45914285D01*
X93985714Y-45723809D01*
X93985714Y-45342857D01*
X93938095Y-45247619D01*
X93890476Y-45200000D01*
X93795238Y-45152380D01*
X93604761Y-45152380D01*
X93509523Y-45200000D01*
X93461904Y-45247619D01*
X93414285Y-45342857D01*
X93414285Y-45580952D01*
X93461904Y-45676190D01*
X93509523Y-45723809D01*
X93604761Y-45771428D01*
X93795238Y-45771428D01*
X93890476Y-45723809D01*
X93938095Y-45676190D01*
X93985714Y-45580952D01*
X147133333Y-55252380D02*
X146800000Y-54776190D01*
X146561904Y-55252380D02*
X146561904Y-54252380D01*
X146942857Y-54252380D01*
X147038095Y-54300000D01*
X147085714Y-54347619D01*
X147133333Y-54442857D01*
X147133333Y-54585714D01*
X147085714Y-54680952D01*
X147038095Y-54728571D01*
X146942857Y-54776190D01*
X146561904Y-54776190D01*
X147704761Y-54680952D02*
X147609523Y-54633333D01*
X147561904Y-54585714D01*
X147514285Y-54490476D01*
X147514285Y-54442857D01*
X147561904Y-54347619D01*
X147609523Y-54300000D01*
X147704761Y-54252380D01*
X147895238Y-54252380D01*
X147990476Y-54300000D01*
X148038095Y-54347619D01*
X148085714Y-54442857D01*
X148085714Y-54490476D01*
X148038095Y-54585714D01*
X147990476Y-54633333D01*
X147895238Y-54680952D01*
X147704761Y-54680952D01*
X147609523Y-54728571D01*
X147561904Y-54776190D01*
X147514285Y-54871428D01*
X147514285Y-55061904D01*
X147561904Y-55157142D01*
X147609523Y-55204761D01*
X147704761Y-55252380D01*
X147895238Y-55252380D01*
X147990476Y-55204761D01*
X148038095Y-55157142D01*
X148085714Y-55061904D01*
X148085714Y-54871428D01*
X148038095Y-54776190D01*
X147990476Y-54728571D01*
X147895238Y-54680952D01*
X142833333Y-55252380D02*
X142500000Y-54776190D01*
X142261904Y-55252380D02*
X142261904Y-54252380D01*
X142642857Y-54252380D01*
X142738095Y-54300000D01*
X142785714Y-54347619D01*
X142833333Y-54442857D01*
X142833333Y-54585714D01*
X142785714Y-54680952D01*
X142738095Y-54728571D01*
X142642857Y-54776190D01*
X142261904Y-54776190D01*
X143166666Y-54252380D02*
X143833333Y-54252380D01*
X143404761Y-55252380D01*
X138533333Y-55252380D02*
X138200000Y-54776190D01*
X137961904Y-55252380D02*
X137961904Y-54252380D01*
X138342857Y-54252380D01*
X138438095Y-54300000D01*
X138485714Y-54347619D01*
X138533333Y-54442857D01*
X138533333Y-54585714D01*
X138485714Y-54680952D01*
X138438095Y-54728571D01*
X138342857Y-54776190D01*
X137961904Y-54776190D01*
X139390476Y-54252380D02*
X139200000Y-54252380D01*
X139104761Y-54300000D01*
X139057142Y-54347619D01*
X138961904Y-54490476D01*
X138914285Y-54680952D01*
X138914285Y-55061904D01*
X138961904Y-55157142D01*
X139009523Y-55204761D01*
X139104761Y-55252380D01*
X139295238Y-55252380D01*
X139390476Y-55204761D01*
X139438095Y-55157142D01*
X139485714Y-55061904D01*
X139485714Y-54823809D01*
X139438095Y-54728571D01*
X139390476Y-54680952D01*
X139295238Y-54633333D01*
X139104761Y-54633333D01*
X139009523Y-54680952D01*
X138961904Y-54728571D01*
X138914285Y-54823809D01*
X134233333Y-55252380D02*
X133900000Y-54776190D01*
X133661904Y-55252380D02*
X133661904Y-54252380D01*
X134042857Y-54252380D01*
X134138095Y-54300000D01*
X134185714Y-54347619D01*
X134233333Y-54442857D01*
X134233333Y-54585714D01*
X134185714Y-54680952D01*
X134138095Y-54728571D01*
X134042857Y-54776190D01*
X133661904Y-54776190D01*
X135138095Y-54252380D02*
X134661904Y-54252380D01*
X134614285Y-54728571D01*
X134661904Y-54680952D01*
X134757142Y-54633333D01*
X134995238Y-54633333D01*
X135090476Y-54680952D01*
X135138095Y-54728571D01*
X135185714Y-54823809D01*
X135185714Y-55061904D01*
X135138095Y-55157142D01*
X135090476Y-55204761D01*
X134995238Y-55252380D01*
X134757142Y-55252380D01*
X134661904Y-55204761D01*
X134614285Y-55157142D01*
X156333333Y-78252380D02*
X156000000Y-77776190D01*
X155761904Y-78252380D02*
X155761904Y-77252380D01*
X156142857Y-77252380D01*
X156238095Y-77300000D01*
X156285714Y-77347619D01*
X156333333Y-77442857D01*
X156333333Y-77585714D01*
X156285714Y-77680952D01*
X156238095Y-77728571D01*
X156142857Y-77776190D01*
X155761904Y-77776190D01*
X157190476Y-77585714D02*
X157190476Y-78252380D01*
X156952380Y-77204761D02*
X156714285Y-77919047D01*
X157333333Y-77919047D01*
X156333333Y-74752380D02*
X156000000Y-74276190D01*
X155761904Y-74752380D02*
X155761904Y-73752380D01*
X156142857Y-73752380D01*
X156238095Y-73800000D01*
X156285714Y-73847619D01*
X156333333Y-73942857D01*
X156333333Y-74085714D01*
X156285714Y-74180952D01*
X156238095Y-74228571D01*
X156142857Y-74276190D01*
X155761904Y-74276190D01*
X156666666Y-73752380D02*
X157285714Y-73752380D01*
X156952380Y-74133333D01*
X157095238Y-74133333D01*
X157190476Y-74180952D01*
X157238095Y-74228571D01*
X157285714Y-74323809D01*
X157285714Y-74561904D01*
X157238095Y-74657142D01*
X157190476Y-74704761D01*
X157095238Y-74752380D01*
X156809523Y-74752380D01*
X156714285Y-74704761D01*
X156666666Y-74657142D01*
X84633333Y-119952380D02*
X84300000Y-119476190D01*
X84061904Y-119952380D02*
X84061904Y-118952380D01*
X84442857Y-118952380D01*
X84538095Y-119000000D01*
X84585714Y-119047619D01*
X84633333Y-119142857D01*
X84633333Y-119285714D01*
X84585714Y-119380952D01*
X84538095Y-119428571D01*
X84442857Y-119476190D01*
X84061904Y-119476190D01*
X85014285Y-119047619D02*
X85061904Y-119000000D01*
X85157142Y-118952380D01*
X85395238Y-118952380D01*
X85490476Y-119000000D01*
X85538095Y-119047619D01*
X85585714Y-119142857D01*
X85585714Y-119238095D01*
X85538095Y-119380952D01*
X84966666Y-119952380D01*
X85585714Y-119952380D01*
X162133333Y-91252380D02*
X161800000Y-90776190D01*
X161561904Y-91252380D02*
X161561904Y-90252380D01*
X161942857Y-90252380D01*
X162038095Y-90300000D01*
X162085714Y-90347619D01*
X162133333Y-90442857D01*
X162133333Y-90585714D01*
X162085714Y-90680952D01*
X162038095Y-90728571D01*
X161942857Y-90776190D01*
X161561904Y-90776190D01*
X163085714Y-91252380D02*
X162514285Y-91252380D01*
X162800000Y-91252380D02*
X162800000Y-90252380D01*
X162704761Y-90395238D01*
X162609523Y-90490476D01*
X162514285Y-90538095D01*
X103933333Y-86952380D02*
X103457142Y-86952380D01*
X103457142Y-85952380D01*
X104790476Y-86952380D02*
X104219047Y-86952380D01*
X104504761Y-86952380D02*
X104504761Y-85952380D01*
X104409523Y-86095238D01*
X104314285Y-86190476D01*
X104219047Y-86238095D01*
X163990476Y-92952380D02*
X163990476Y-93666666D01*
X163942857Y-93809523D01*
X163847619Y-93904761D01*
X163704761Y-93952380D01*
X163609523Y-93952380D01*
X164990476Y-93952380D02*
X164419047Y-93952380D01*
X164704761Y-93952380D02*
X164704761Y-92952380D01*
X164609523Y-93095238D01*
X164514285Y-93190476D01*
X164419047Y-93238095D01*
X165895238Y-92952380D02*
X165419047Y-92952380D01*
X165371428Y-93428571D01*
X165419047Y-93380952D01*
X165514285Y-93333333D01*
X165752380Y-93333333D01*
X165847619Y-93380952D01*
X165895238Y-93428571D01*
X165942857Y-93523809D01*
X165942857Y-93761904D01*
X165895238Y-93857142D01*
X165847619Y-93904761D01*
X165752380Y-93952380D01*
X165514285Y-93952380D01*
X165419047Y-93904761D01*
X165371428Y-93857142D01*
X123182380Y-60139523D02*
X123896666Y-60139523D01*
X124039523Y-60187142D01*
X124134761Y-60282380D01*
X124182380Y-60425238D01*
X124182380Y-60520476D01*
X124182380Y-59139523D02*
X124182380Y-59710952D01*
X124182380Y-59425238D02*
X123182380Y-59425238D01*
X123325238Y-59520476D01*
X123420476Y-59615714D01*
X123468095Y-59710952D01*
X123515714Y-58282380D02*
X124182380Y-58282380D01*
X123134761Y-58520476D02*
X123849047Y-58758571D01*
X123849047Y-58139523D01*
X146490476Y-112752380D02*
X146490476Y-113466666D01*
X146442857Y-113609523D01*
X146347619Y-113704761D01*
X146204761Y-113752380D01*
X146109523Y-113752380D01*
X147490476Y-113752380D02*
X146919047Y-113752380D01*
X147204761Y-113752380D02*
X147204761Y-112752380D01*
X147109523Y-112895238D01*
X147014285Y-112990476D01*
X146919047Y-113038095D01*
X147823809Y-112752380D02*
X148442857Y-112752380D01*
X148109523Y-113133333D01*
X148252380Y-113133333D01*
X148347619Y-113180952D01*
X148395238Y-113228571D01*
X148442857Y-113323809D01*
X148442857Y-113561904D01*
X148395238Y-113657142D01*
X148347619Y-113704761D01*
X148252380Y-113752380D01*
X147966666Y-113752380D01*
X147871428Y-113704761D01*
X147823809Y-113657142D01*
X106062380Y-113179523D02*
X106776666Y-113179523D01*
X106919523Y-113227142D01*
X107014761Y-113322380D01*
X107062380Y-113465238D01*
X107062380Y-113560476D01*
X107062380Y-112179523D02*
X107062380Y-112750952D01*
X107062380Y-112465238D02*
X106062380Y-112465238D01*
X106205238Y-112560476D01*
X106300476Y-112655714D01*
X106348095Y-112750952D01*
X107062380Y-111227142D02*
X107062380Y-111798571D01*
X107062380Y-111512857D02*
X106062380Y-111512857D01*
X106205238Y-111608095D01*
X106300476Y-111703333D01*
X106348095Y-111798571D01*
X87860476Y-78422380D02*
X87860476Y-79136666D01*
X87812857Y-79279523D01*
X87717619Y-79374761D01*
X87574761Y-79422380D01*
X87479523Y-79422380D01*
X88860476Y-79422380D02*
X88289047Y-79422380D01*
X88574761Y-79422380D02*
X88574761Y-78422380D01*
X88479523Y-78565238D01*
X88384285Y-78660476D01*
X88289047Y-78708095D01*
X89479523Y-78422380D02*
X89574761Y-78422380D01*
X89670000Y-78470000D01*
X89717619Y-78517619D01*
X89765238Y-78612857D01*
X89812857Y-78803333D01*
X89812857Y-79041428D01*
X89765238Y-79231904D01*
X89717619Y-79327142D01*
X89670000Y-79374761D01*
X89574761Y-79422380D01*
X89479523Y-79422380D01*
X89384285Y-79374761D01*
X89336666Y-79327142D01*
X89289047Y-79231904D01*
X89241428Y-79041428D01*
X89241428Y-78803333D01*
X89289047Y-78612857D01*
X89336666Y-78517619D01*
X89384285Y-78470000D01*
X89479523Y-78422380D01*
X108266666Y-134952380D02*
X108266666Y-135666666D01*
X108219047Y-135809523D01*
X108123809Y-135904761D01*
X107980952Y-135952380D01*
X107885714Y-135952380D01*
X108790476Y-135952380D02*
X108980952Y-135952380D01*
X109076190Y-135904761D01*
X109123809Y-135857142D01*
X109219047Y-135714285D01*
X109266666Y-135523809D01*
X109266666Y-135142857D01*
X109219047Y-135047619D01*
X109171428Y-135000000D01*
X109076190Y-134952380D01*
X108885714Y-134952380D01*
X108790476Y-135000000D01*
X108742857Y-135047619D01*
X108695238Y-135142857D01*
X108695238Y-135380952D01*
X108742857Y-135476190D01*
X108790476Y-135523809D01*
X108885714Y-135571428D01*
X109076190Y-135571428D01*
X109171428Y-135523809D01*
X109219047Y-135476190D01*
X109266666Y-135380952D01*
X112866666Y-120152380D02*
X112866666Y-120866666D01*
X112819047Y-121009523D01*
X112723809Y-121104761D01*
X112580952Y-121152380D01*
X112485714Y-121152380D01*
X113485714Y-120580952D02*
X113390476Y-120533333D01*
X113342857Y-120485714D01*
X113295238Y-120390476D01*
X113295238Y-120342857D01*
X113342857Y-120247619D01*
X113390476Y-120200000D01*
X113485714Y-120152380D01*
X113676190Y-120152380D01*
X113771428Y-120200000D01*
X113819047Y-120247619D01*
X113866666Y-120342857D01*
X113866666Y-120390476D01*
X113819047Y-120485714D01*
X113771428Y-120533333D01*
X113676190Y-120580952D01*
X113485714Y-120580952D01*
X113390476Y-120628571D01*
X113342857Y-120676190D01*
X113295238Y-120771428D01*
X113295238Y-120961904D01*
X113342857Y-121057142D01*
X113390476Y-121104761D01*
X113485714Y-121152380D01*
X113676190Y-121152380D01*
X113771428Y-121104761D01*
X113819047Y-121057142D01*
X113866666Y-120961904D01*
X113866666Y-120771428D01*
X113819047Y-120676190D01*
X113771428Y-120628571D01*
X113676190Y-120580952D01*
X145666666Y-55652380D02*
X145666666Y-56366666D01*
X145619047Y-56509523D01*
X145523809Y-56604761D01*
X145380952Y-56652380D01*
X145285714Y-56652380D01*
X146047619Y-55652380D02*
X146714285Y-55652380D01*
X146285714Y-56652380D01*
X69966666Y-57552380D02*
X69966666Y-58266666D01*
X69919047Y-58409523D01*
X69823809Y-58504761D01*
X69680952Y-58552380D01*
X69585714Y-58552380D01*
X70871428Y-57552380D02*
X70680952Y-57552380D01*
X70585714Y-57600000D01*
X70538095Y-57647619D01*
X70442857Y-57790476D01*
X70395238Y-57980952D01*
X70395238Y-58361904D01*
X70442857Y-58457142D01*
X70490476Y-58504761D01*
X70585714Y-58552380D01*
X70776190Y-58552380D01*
X70871428Y-58504761D01*
X70919047Y-58457142D01*
X70966666Y-58361904D01*
X70966666Y-58123809D01*
X70919047Y-58028571D01*
X70871428Y-57980952D01*
X70776190Y-57933333D01*
X70585714Y-57933333D01*
X70490476Y-57980952D01*
X70442857Y-58028571D01*
X70395238Y-58123809D01*
X135566666Y-55852380D02*
X135566666Y-56566666D01*
X135519047Y-56709523D01*
X135423809Y-56804761D01*
X135280952Y-56852380D01*
X135185714Y-56852380D01*
X136471428Y-56185714D02*
X136471428Y-56852380D01*
X136233333Y-55804761D02*
X135995238Y-56519047D01*
X136614285Y-56519047D01*
X150766666Y-68552380D02*
X150766666Y-69266666D01*
X150719047Y-69409523D01*
X150623809Y-69504761D01*
X150480952Y-69552380D01*
X150385714Y-69552380D01*
X151147619Y-68552380D02*
X151766666Y-68552380D01*
X151433333Y-68933333D01*
X151576190Y-68933333D01*
X151671428Y-68980952D01*
X151719047Y-69028571D01*
X151766666Y-69123809D01*
X151766666Y-69361904D01*
X151719047Y-69457142D01*
X151671428Y-69504761D01*
X151576190Y-69552380D01*
X151290476Y-69552380D01*
X151195238Y-69504761D01*
X151147619Y-69457142D01*
D17*
X86374523Y-53539761D02*
X85104523Y-53539761D01*
X86253571Y-52209285D02*
X86314047Y-52269761D01*
X86374523Y-52451190D01*
X86374523Y-52572142D01*
X86314047Y-52753571D01*
X86193095Y-52874523D01*
X86072142Y-52935000D01*
X85830238Y-52995476D01*
X85648809Y-52995476D01*
X85406904Y-52935000D01*
X85285952Y-52874523D01*
X85165000Y-52753571D01*
X85104523Y-52572142D01*
X85104523Y-52451190D01*
X85165000Y-52269761D01*
X85225476Y-52209285D01*
X85104523Y-51785952D02*
X85104523Y-50999761D01*
X85588333Y-51423095D01*
X85588333Y-51241666D01*
X85648809Y-51120714D01*
X85709285Y-51060238D01*
X85830238Y-50999761D01*
X86132619Y-50999761D01*
X86253571Y-51060238D01*
X86314047Y-51120714D01*
X86374523Y-51241666D01*
X86374523Y-51604523D01*
X86314047Y-51725476D01*
X86253571Y-51785952D01*
X73074523Y-116139761D02*
X71804523Y-116139761D01*
X72953571Y-114809285D02*
X73014047Y-114869761D01*
X73074523Y-115051190D01*
X73074523Y-115172142D01*
X73014047Y-115353571D01*
X72893095Y-115474523D01*
X72772142Y-115535000D01*
X72530238Y-115595476D01*
X72348809Y-115595476D01*
X72106904Y-115535000D01*
X71985952Y-115474523D01*
X71865000Y-115353571D01*
X71804523Y-115172142D01*
X71804523Y-115051190D01*
X71865000Y-114869761D01*
X71925476Y-114809285D01*
X71925476Y-114325476D02*
X71865000Y-114265000D01*
X71804523Y-114144047D01*
X71804523Y-113841666D01*
X71865000Y-113720714D01*
X71925476Y-113660238D01*
X72046428Y-113599761D01*
X72167380Y-113599761D01*
X72348809Y-113660238D01*
X73074523Y-114385952D01*
X73074523Y-113599761D01*
X113760238Y-85574523D02*
X113760238Y-84304523D01*
X115090714Y-85453571D02*
X115030238Y-85514047D01*
X114848809Y-85574523D01*
X114727857Y-85574523D01*
X114546428Y-85514047D01*
X114425476Y-85393095D01*
X114365000Y-85272142D01*
X114304523Y-85030238D01*
X114304523Y-84848809D01*
X114365000Y-84606904D01*
X114425476Y-84485952D01*
X114546428Y-84365000D01*
X114727857Y-84304523D01*
X114848809Y-84304523D01*
X115030238Y-84365000D01*
X115090714Y-84425476D01*
X116300238Y-85574523D02*
X115574523Y-85574523D01*
X115937380Y-85574523D02*
X115937380Y-84304523D01*
X115816428Y-84485952D01*
X115695476Y-84606904D01*
X115574523Y-84667380D01*
D16*
X97361904Y-50952380D02*
X97361904Y-49952380D01*
X97600000Y-49952380D01*
X97742857Y-50000000D01*
X97838095Y-50095238D01*
X97885714Y-50190476D01*
X97933333Y-50380952D01*
X97933333Y-50523809D01*
X97885714Y-50714285D01*
X97838095Y-50809523D01*
X97742857Y-50904761D01*
X97600000Y-50952380D01*
X97361904Y-50952380D01*
X98409523Y-50952380D02*
X98600000Y-50952380D01*
X98695238Y-50904761D01*
X98742857Y-50857142D01*
X98838095Y-50714285D01*
X98885714Y-50523809D01*
X98885714Y-50142857D01*
X98838095Y-50047619D01*
X98790476Y-50000000D01*
X98695238Y-49952380D01*
X98504761Y-49952380D01*
X98409523Y-50000000D01*
X98361904Y-50047619D01*
X98314285Y-50142857D01*
X98314285Y-50380952D01*
X98361904Y-50476190D01*
X98409523Y-50523809D01*
X98504761Y-50571428D01*
X98695238Y-50571428D01*
X98790476Y-50523809D01*
X98838095Y-50476190D01*
X98885714Y-50380952D01*
X97361904Y-54452380D02*
X97361904Y-53452380D01*
X97600000Y-53452380D01*
X97742857Y-53500000D01*
X97838095Y-53595238D01*
X97885714Y-53690476D01*
X97933333Y-53880952D01*
X97933333Y-54023809D01*
X97885714Y-54214285D01*
X97838095Y-54309523D01*
X97742857Y-54404761D01*
X97600000Y-54452380D01*
X97361904Y-54452380D01*
X98504761Y-53880952D02*
X98409523Y-53833333D01*
X98361904Y-53785714D01*
X98314285Y-53690476D01*
X98314285Y-53642857D01*
X98361904Y-53547619D01*
X98409523Y-53500000D01*
X98504761Y-53452380D01*
X98695238Y-53452380D01*
X98790476Y-53500000D01*
X98838095Y-53547619D01*
X98885714Y-53642857D01*
X98885714Y-53690476D01*
X98838095Y-53785714D01*
X98790476Y-53833333D01*
X98695238Y-53880952D01*
X98504761Y-53880952D01*
X98409523Y-53928571D01*
X98361904Y-53976190D01*
X98314285Y-54071428D01*
X98314285Y-54261904D01*
X98361904Y-54357142D01*
X98409523Y-54404761D01*
X98504761Y-54452380D01*
X98695238Y-54452380D01*
X98790476Y-54404761D01*
X98838095Y-54357142D01*
X98885714Y-54261904D01*
X98885714Y-54071428D01*
X98838095Y-53976190D01*
X98790476Y-53928571D01*
X98695238Y-53880952D01*
X79761904Y-45652380D02*
X79761904Y-44652380D01*
X80000000Y-44652380D01*
X80142857Y-44700000D01*
X80238095Y-44795238D01*
X80285714Y-44890476D01*
X80333333Y-45080952D01*
X80333333Y-45223809D01*
X80285714Y-45414285D01*
X80238095Y-45509523D01*
X80142857Y-45604761D01*
X80000000Y-45652380D01*
X79761904Y-45652380D01*
X81190476Y-44985714D02*
X81190476Y-45652380D01*
X80952380Y-44604761D02*
X80714285Y-45319047D01*
X81333333Y-45319047D01*
X161161904Y-71052380D02*
X161161904Y-70052380D01*
X161400000Y-70052380D01*
X161542857Y-70100000D01*
X161638095Y-70195238D01*
X161685714Y-70290476D01*
X161733333Y-70480952D01*
X161733333Y-70623809D01*
X161685714Y-70814285D01*
X161638095Y-70909523D01*
X161542857Y-71004761D01*
X161400000Y-71052380D01*
X161161904Y-71052380D01*
X162066666Y-70052380D02*
X162685714Y-70052380D01*
X162352380Y-70433333D01*
X162495238Y-70433333D01*
X162590476Y-70480952D01*
X162638095Y-70528571D01*
X162685714Y-70623809D01*
X162685714Y-70861904D01*
X162638095Y-70957142D01*
X162590476Y-71004761D01*
X162495238Y-71052380D01*
X162209523Y-71052380D01*
X162114285Y-71004761D01*
X162066666Y-70957142D01*
X84061904Y-110852380D02*
X84061904Y-109852380D01*
X84300000Y-109852380D01*
X84442857Y-109900000D01*
X84538095Y-109995238D01*
X84585714Y-110090476D01*
X84633333Y-110280952D01*
X84633333Y-110423809D01*
X84585714Y-110614285D01*
X84538095Y-110709523D01*
X84442857Y-110804761D01*
X84300000Y-110852380D01*
X84061904Y-110852380D01*
X85585714Y-110852380D02*
X85014285Y-110852380D01*
X85300000Y-110852380D02*
X85300000Y-109852380D01*
X85204761Y-109995238D01*
X85109523Y-110090476D01*
X85014285Y-110138095D01*
X90733333Y-57357142D02*
X90685714Y-57404761D01*
X90542857Y-57452380D01*
X90447619Y-57452380D01*
X90304761Y-57404761D01*
X90209523Y-57309523D01*
X90161904Y-57214285D01*
X90114285Y-57023809D01*
X90114285Y-56880952D01*
X90161904Y-56690476D01*
X90209523Y-56595238D01*
X90304761Y-56500000D01*
X90447619Y-56452380D01*
X90542857Y-56452380D01*
X90685714Y-56500000D01*
X90733333Y-56547619D01*
X91209523Y-57452380D02*
X91400000Y-57452380D01*
X91495238Y-57404761D01*
X91542857Y-57357142D01*
X91638095Y-57214285D01*
X91685714Y-57023809D01*
X91685714Y-56642857D01*
X91638095Y-56547619D01*
X91590476Y-56500000D01*
X91495238Y-56452380D01*
X91304761Y-56452380D01*
X91209523Y-56500000D01*
X91161904Y-56547619D01*
X91114285Y-56642857D01*
X91114285Y-56880952D01*
X91161904Y-56976190D01*
X91209523Y-57023809D01*
X91304761Y-57071428D01*
X91495238Y-57071428D01*
X91590476Y-57023809D01*
X91638095Y-56976190D01*
X91685714Y-56880952D01*
X77633333Y-49657142D02*
X77585714Y-49704761D01*
X77442857Y-49752380D01*
X77347619Y-49752380D01*
X77204761Y-49704761D01*
X77109523Y-49609523D01*
X77061904Y-49514285D01*
X77014285Y-49323809D01*
X77014285Y-49180952D01*
X77061904Y-48990476D01*
X77109523Y-48895238D01*
X77204761Y-48800000D01*
X77347619Y-48752380D01*
X77442857Y-48752380D01*
X77585714Y-48800000D01*
X77633333Y-48847619D01*
X78204761Y-49180952D02*
X78109523Y-49133333D01*
X78061904Y-49085714D01*
X78014285Y-48990476D01*
X78014285Y-48942857D01*
X78061904Y-48847619D01*
X78109523Y-48800000D01*
X78204761Y-48752380D01*
X78395238Y-48752380D01*
X78490476Y-48800000D01*
X78538095Y-48847619D01*
X78585714Y-48942857D01*
X78585714Y-48990476D01*
X78538095Y-49085714D01*
X78490476Y-49133333D01*
X78395238Y-49180952D01*
X78204761Y-49180952D01*
X78109523Y-49228571D01*
X78061904Y-49276190D01*
X78014285Y-49371428D01*
X78014285Y-49561904D01*
X78061904Y-49657142D01*
X78109523Y-49704761D01*
X78204761Y-49752380D01*
X78395238Y-49752380D01*
X78490476Y-49704761D01*
X78538095Y-49657142D01*
X78585714Y-49561904D01*
X78585714Y-49371428D01*
X78538095Y-49276190D01*
X78490476Y-49228571D01*
X78395238Y-49180952D01*
X116733333Y-78177142D02*
X116685714Y-78224761D01*
X116542857Y-78272380D01*
X116447619Y-78272380D01*
X116304761Y-78224761D01*
X116209523Y-78129523D01*
X116161904Y-78034285D01*
X116114285Y-77843809D01*
X116114285Y-77700952D01*
X116161904Y-77510476D01*
X116209523Y-77415238D01*
X116304761Y-77320000D01*
X116447619Y-77272380D01*
X116542857Y-77272380D01*
X116685714Y-77320000D01*
X116733333Y-77367619D01*
X117066666Y-77272380D02*
X117733333Y-77272380D01*
X117304761Y-78272380D01*
X107233333Y-83257142D02*
X107185714Y-83304761D01*
X107042857Y-83352380D01*
X106947619Y-83352380D01*
X106804761Y-83304761D01*
X106709523Y-83209523D01*
X106661904Y-83114285D01*
X106614285Y-82923809D01*
X106614285Y-82780952D01*
X106661904Y-82590476D01*
X106709523Y-82495238D01*
X106804761Y-82400000D01*
X106947619Y-82352380D01*
X107042857Y-82352380D01*
X107185714Y-82400000D01*
X107233333Y-82447619D01*
X108090476Y-82352380D02*
X107900000Y-82352380D01*
X107804761Y-82400000D01*
X107757142Y-82447619D01*
X107661904Y-82590476D01*
X107614285Y-82780952D01*
X107614285Y-83161904D01*
X107661904Y-83257142D01*
X107709523Y-83304761D01*
X107804761Y-83352380D01*
X107995238Y-83352380D01*
X108090476Y-83304761D01*
X108138095Y-83257142D01*
X108185714Y-83161904D01*
X108185714Y-82923809D01*
X108138095Y-82828571D01*
X108090476Y-82780952D01*
X107995238Y-82733333D01*
X107804761Y-82733333D01*
X107709523Y-82780952D01*
X107661904Y-82828571D01*
X107614285Y-82923809D01*
X78633333Y-110457142D02*
X78585714Y-110504761D01*
X78442857Y-110552380D01*
X78347619Y-110552380D01*
X78204761Y-110504761D01*
X78109523Y-110409523D01*
X78061904Y-110314285D01*
X78014285Y-110123809D01*
X78014285Y-109980952D01*
X78061904Y-109790476D01*
X78109523Y-109695238D01*
X78204761Y-109600000D01*
X78347619Y-109552380D01*
X78442857Y-109552380D01*
X78585714Y-109600000D01*
X78633333Y-109647619D01*
X79538095Y-109552380D02*
X79061904Y-109552380D01*
X79014285Y-110028571D01*
X79061904Y-109980952D01*
X79157142Y-109933333D01*
X79395238Y-109933333D01*
X79490476Y-109980952D01*
X79538095Y-110028571D01*
X79585714Y-110123809D01*
X79585714Y-110361904D01*
X79538095Y-110457142D01*
X79490476Y-110504761D01*
X79395238Y-110552380D01*
X79157142Y-110552380D01*
X79061904Y-110504761D01*
X79014285Y-110457142D01*
X112433333Y-78257142D02*
X112385714Y-78304761D01*
X112242857Y-78352380D01*
X112147619Y-78352380D01*
X112004761Y-78304761D01*
X111909523Y-78209523D01*
X111861904Y-78114285D01*
X111814285Y-77923809D01*
X111814285Y-77780952D01*
X111861904Y-77590476D01*
X111909523Y-77495238D01*
X112004761Y-77400000D01*
X112147619Y-77352380D01*
X112242857Y-77352380D01*
X112385714Y-77400000D01*
X112433333Y-77447619D01*
X113290476Y-77685714D02*
X113290476Y-78352380D01*
X113052380Y-77304761D02*
X112814285Y-78019047D01*
X113433333Y-78019047D01*
X79033333Y-116977142D02*
X78985714Y-117024761D01*
X78842857Y-117072380D01*
X78747619Y-117072380D01*
X78604761Y-117024761D01*
X78509523Y-116929523D01*
X78461904Y-116834285D01*
X78414285Y-116643809D01*
X78414285Y-116500952D01*
X78461904Y-116310476D01*
X78509523Y-116215238D01*
X78604761Y-116120000D01*
X78747619Y-116072380D01*
X78842857Y-116072380D01*
X78985714Y-116120000D01*
X79033333Y-116167619D01*
X79366666Y-116072380D02*
X79985714Y-116072380D01*
X79652380Y-116453333D01*
X79795238Y-116453333D01*
X79890476Y-116500952D01*
X79938095Y-116548571D01*
X79985714Y-116643809D01*
X79985714Y-116881904D01*
X79938095Y-116977142D01*
X79890476Y-117024761D01*
X79795238Y-117072380D01*
X79509523Y-117072380D01*
X79414285Y-117024761D01*
X79366666Y-116977142D01*
X122133333Y-80757142D02*
X122085714Y-80804761D01*
X121942857Y-80852380D01*
X121847619Y-80852380D01*
X121704761Y-80804761D01*
X121609523Y-80709523D01*
X121561904Y-80614285D01*
X121514285Y-80423809D01*
X121514285Y-80280952D01*
X121561904Y-80090476D01*
X121609523Y-79995238D01*
X121704761Y-79900000D01*
X121847619Y-79852380D01*
X121942857Y-79852380D01*
X122085714Y-79900000D01*
X122133333Y-79947619D01*
X122514285Y-79947619D02*
X122561904Y-79900000D01*
X122657142Y-79852380D01*
X122895238Y-79852380D01*
X122990476Y-79900000D01*
X123038095Y-79947619D01*
X123085714Y-80042857D01*
X123085714Y-80138095D01*
X123038095Y-80280952D01*
X122466666Y-80852380D01*
X123085714Y-80852380D01*
X115633333Y-92257142D02*
X115585714Y-92304761D01*
X115442857Y-92352380D01*
X115347619Y-92352380D01*
X115204761Y-92304761D01*
X115109523Y-92209523D01*
X115061904Y-92114285D01*
X115014285Y-91923809D01*
X115014285Y-91780952D01*
X115061904Y-91590476D01*
X115109523Y-91495238D01*
X115204761Y-91400000D01*
X115347619Y-91352380D01*
X115442857Y-91352380D01*
X115585714Y-91400000D01*
X115633333Y-91447619D01*
X116585714Y-92352380D02*
X116014285Y-92352380D01*
X116300000Y-92352380D02*
X116300000Y-91352380D01*
X116204761Y-91495238D01*
X116109523Y-91590476D01*
X116014285Y-91638095D01*
%LPC*%
D18*
X162550000Y-52450000D03*
X162550000Y-59450000D03*
D19*
X162550000Y-53050000D03*
X162550000Y-58850000D03*
D20*
X162550000Y-54950000D03*
X162550000Y-56950000D03*
D21*
X159850000Y-53450000D03*
X159850000Y-58450000D03*
D22*
X159850000Y-54650000D03*
X159850000Y-55300000D03*
X159850000Y-55950000D03*
X159850000Y-56600000D03*
X159850000Y-57250000D03*
D23*
X73050000Y-124450000D03*
D24*
X73050000Y-130250000D03*
D25*
X77850000Y-127450000D03*
G36*
G01*
X147756250Y-46950000D02*
X146843750Y-46950000D01*
G75*
G02*
X146600000Y-46706250I0J243750D01*
G01*
X146600000Y-46218750D01*
G75*
G02*
X146843750Y-45975000I243750J0D01*
G01*
X147756250Y-45975000D01*
G75*
G02*
X148000000Y-46218750I0J-243750D01*
G01*
X148000000Y-46706250D01*
G75*
G02*
X147756250Y-46950000I-243750J0D01*
G01*
G37*
G36*
G01*
X147756250Y-48825000D02*
X146843750Y-48825000D01*
G75*
G02*
X146600000Y-48581250I0J243750D01*
G01*
X146600000Y-48093750D01*
G75*
G02*
X146843750Y-47850000I243750J0D01*
G01*
X147756250Y-47850000D01*
G75*
G02*
X148000000Y-48093750I0J-243750D01*
G01*
X148000000Y-48581250D01*
G75*
G02*
X147756250Y-48825000I-243750J0D01*
G01*
G37*
G36*
G01*
X143489582Y-46950000D02*
X142577082Y-46950000D01*
G75*
G02*
X142333332Y-46706250I0J243750D01*
G01*
X142333332Y-46218750D01*
G75*
G02*
X142577082Y-45975000I243750J0D01*
G01*
X143489582Y-45975000D01*
G75*
G02*
X143733332Y-46218750I0J-243750D01*
G01*
X143733332Y-46706250D01*
G75*
G02*
X143489582Y-46950000I-243750J0D01*
G01*
G37*
G36*
G01*
X143489582Y-48825000D02*
X142577082Y-48825000D01*
G75*
G02*
X142333332Y-48581250I0J243750D01*
G01*
X142333332Y-48093750D01*
G75*
G02*
X142577082Y-47850000I243750J0D01*
G01*
X143489582Y-47850000D01*
G75*
G02*
X143733332Y-48093750I0J-243750D01*
G01*
X143733332Y-48581250D01*
G75*
G02*
X143489582Y-48825000I-243750J0D01*
G01*
G37*
G36*
G01*
X139222916Y-46950000D02*
X138310416Y-46950000D01*
G75*
G02*
X138066666Y-46706250I0J243750D01*
G01*
X138066666Y-46218750D01*
G75*
G02*
X138310416Y-45975000I243750J0D01*
G01*
X139222916Y-45975000D01*
G75*
G02*
X139466666Y-46218750I0J-243750D01*
G01*
X139466666Y-46706250D01*
G75*
G02*
X139222916Y-46950000I-243750J0D01*
G01*
G37*
G36*
G01*
X139222916Y-48825000D02*
X138310416Y-48825000D01*
G75*
G02*
X138066666Y-48581250I0J243750D01*
G01*
X138066666Y-48093750D01*
G75*
G02*
X138310416Y-47850000I243750J0D01*
G01*
X139222916Y-47850000D01*
G75*
G02*
X139466666Y-48093750I0J-243750D01*
G01*
X139466666Y-48581250D01*
G75*
G02*
X139222916Y-48825000I-243750J0D01*
G01*
G37*
G36*
G01*
X134956250Y-46950000D02*
X134043750Y-46950000D01*
G75*
G02*
X133800000Y-46706250I0J243750D01*
G01*
X133800000Y-46218750D01*
G75*
G02*
X134043750Y-45975000I243750J0D01*
G01*
X134956250Y-45975000D01*
G75*
G02*
X135200000Y-46218750I0J-243750D01*
G01*
X135200000Y-46706250D01*
G75*
G02*
X134956250Y-46950000I-243750J0D01*
G01*
G37*
G36*
G01*
X134956250Y-48825000D02*
X134043750Y-48825000D01*
G75*
G02*
X133800000Y-48581250I0J243750D01*
G01*
X133800000Y-48093750D01*
G75*
G02*
X134043750Y-47850000I243750J0D01*
G01*
X134956250Y-47850000D01*
G75*
G02*
X135200000Y-48093750I0J-243750D01*
G01*
X135200000Y-48581250D01*
G75*
G02*
X134956250Y-48825000I-243750J0D01*
G01*
G37*
D26*
X88160000Y-125820000D03*
X90700000Y-125820000D03*
X88160000Y-128360000D03*
X90700000Y-128360000D03*
X88160000Y-130900000D03*
D27*
X90700000Y-130900000D03*
D26*
X141200000Y-79120000D03*
X143740000Y-79120000D03*
X141200000Y-81660000D03*
X143740000Y-81660000D03*
X141200000Y-84200000D03*
X143740000Y-84200000D03*
X141200000Y-86740000D03*
X143740000Y-86740000D03*
X141200000Y-89280000D03*
X143740000Y-89280000D03*
X141200000Y-91820000D03*
D27*
X143740000Y-91820000D03*
D28*
X137700000Y-128400000D03*
X131200000Y-128400000D03*
X137700000Y-123900000D03*
X131200000Y-123900000D03*
X152800000Y-128400000D03*
X146300000Y-128400000D03*
X152800000Y-123900000D03*
X146300000Y-123900000D03*
D29*
X154675000Y-82600000D03*
X159925000Y-82600000D03*
X154675000Y-85800000D03*
X159925000Y-85800000D03*
G36*
G01*
X152225000Y-107275000D02*
X152225000Y-106725000D01*
G75*
G02*
X152425000Y-106525000I200000J0D01*
G01*
X152825000Y-106525000D01*
G75*
G02*
X153025000Y-106725000I0J-200000D01*
G01*
X153025000Y-107275000D01*
G75*
G02*
X152825000Y-107475000I-200000J0D01*
G01*
X152425000Y-107475000D01*
G75*
G02*
X152225000Y-107275000I0J200000D01*
G01*
G37*
G36*
G01*
X150575000Y-107275000D02*
X150575000Y-106725000D01*
G75*
G02*
X150775000Y-106525000I200000J0D01*
G01*
X151175000Y-106525000D01*
G75*
G02*
X151375000Y-106725000I0J-200000D01*
G01*
X151375000Y-107275000D01*
G75*
G02*
X151175000Y-107475000I-200000J0D01*
G01*
X150775000Y-107475000D01*
G75*
G02*
X150575000Y-107275000I0J200000D01*
G01*
G37*
G36*
G01*
X110975000Y-129625000D02*
X110975000Y-130175000D01*
G75*
G02*
X110775000Y-130375000I-200000J0D01*
G01*
X110375000Y-130375000D01*
G75*
G02*
X110175000Y-130175000I0J200000D01*
G01*
X110175000Y-129625000D01*
G75*
G02*
X110375000Y-129425000I200000J0D01*
G01*
X110775000Y-129425000D01*
G75*
G02*
X110975000Y-129625000I0J-200000D01*
G01*
G37*
G36*
G01*
X112625000Y-129625000D02*
X112625000Y-130175000D01*
G75*
G02*
X112425000Y-130375000I-200000J0D01*
G01*
X112025000Y-130375000D01*
G75*
G02*
X111825000Y-130175000I0J200000D01*
G01*
X111825000Y-129625000D01*
G75*
G02*
X112025000Y-129425000I200000J0D01*
G01*
X112425000Y-129425000D01*
G75*
G02*
X112625000Y-129625000I0J-200000D01*
G01*
G37*
G36*
G01*
X94800000Y-52235000D02*
X94800000Y-51685000D01*
G75*
G02*
X95000000Y-51485000I200000J0D01*
G01*
X95400000Y-51485000D01*
G75*
G02*
X95600000Y-51685000I0J-200000D01*
G01*
X95600000Y-52235000D01*
G75*
G02*
X95400000Y-52435000I-200000J0D01*
G01*
X95000000Y-52435000D01*
G75*
G02*
X94800000Y-52235000I0J200000D01*
G01*
G37*
G36*
G01*
X93150000Y-52235000D02*
X93150000Y-51685000D01*
G75*
G02*
X93350000Y-51485000I200000J0D01*
G01*
X93750000Y-51485000D01*
G75*
G02*
X93950000Y-51685000I0J-200000D01*
G01*
X93950000Y-52235000D01*
G75*
G02*
X93750000Y-52435000I-200000J0D01*
G01*
X93350000Y-52435000D01*
G75*
G02*
X93150000Y-52235000I0J200000D01*
G01*
G37*
G36*
G01*
X94800000Y-55935000D02*
X94800000Y-55385000D01*
G75*
G02*
X95000000Y-55185000I200000J0D01*
G01*
X95400000Y-55185000D01*
G75*
G02*
X95600000Y-55385000I0J-200000D01*
G01*
X95600000Y-55935000D01*
G75*
G02*
X95400000Y-56135000I-200000J0D01*
G01*
X95000000Y-56135000D01*
G75*
G02*
X94800000Y-55935000I0J200000D01*
G01*
G37*
G36*
G01*
X93150000Y-55935000D02*
X93150000Y-55385000D01*
G75*
G02*
X93350000Y-55185000I200000J0D01*
G01*
X93750000Y-55185000D01*
G75*
G02*
X93950000Y-55385000I0J-200000D01*
G01*
X93950000Y-55935000D01*
G75*
G02*
X93750000Y-56135000I-200000J0D01*
G01*
X93350000Y-56135000D01*
G75*
G02*
X93150000Y-55935000I0J200000D01*
G01*
G37*
G36*
G01*
X115725000Y-130175000D02*
X115725000Y-129625000D01*
G75*
G02*
X115925000Y-129425000I200000J0D01*
G01*
X116325000Y-129425000D01*
G75*
G02*
X116525000Y-129625000I0J-200000D01*
G01*
X116525000Y-130175000D01*
G75*
G02*
X116325000Y-130375000I-200000J0D01*
G01*
X115925000Y-130375000D01*
G75*
G02*
X115725000Y-130175000I0J200000D01*
G01*
G37*
G36*
G01*
X114075000Y-130175000D02*
X114075000Y-129625000D01*
G75*
G02*
X114275000Y-129425000I200000J0D01*
G01*
X114675000Y-129425000D01*
G75*
G02*
X114875000Y-129625000I0J-200000D01*
G01*
X114875000Y-130175000D01*
G75*
G02*
X114675000Y-130375000I-200000J0D01*
G01*
X114275000Y-130375000D01*
G75*
G02*
X114075000Y-130175000I0J200000D01*
G01*
G37*
G36*
G01*
X92875000Y-47025000D02*
X92875000Y-47575000D01*
G75*
G02*
X92675000Y-47775000I-200000J0D01*
G01*
X92275000Y-47775000D01*
G75*
G02*
X92075000Y-47575000I0J200000D01*
G01*
X92075000Y-47025000D01*
G75*
G02*
X92275000Y-46825000I200000J0D01*
G01*
X92675000Y-46825000D01*
G75*
G02*
X92875000Y-47025000I0J-200000D01*
G01*
G37*
G36*
G01*
X94525000Y-47025000D02*
X94525000Y-47575000D01*
G75*
G02*
X94325000Y-47775000I-200000J0D01*
G01*
X93925000Y-47775000D01*
G75*
G02*
X93725000Y-47575000I0J200000D01*
G01*
X93725000Y-47025000D01*
G75*
G02*
X93925000Y-46825000I200000J0D01*
G01*
X94325000Y-46825000D01*
G75*
G02*
X94525000Y-47025000I0J-200000D01*
G01*
G37*
G36*
G01*
X147025000Y-52825000D02*
X147575000Y-52825000D01*
G75*
G02*
X147775000Y-53025000I0J-200000D01*
G01*
X147775000Y-53425000D01*
G75*
G02*
X147575000Y-53625000I-200000J0D01*
G01*
X147025000Y-53625000D01*
G75*
G02*
X146825000Y-53425000I0J200000D01*
G01*
X146825000Y-53025000D01*
G75*
G02*
X147025000Y-52825000I200000J0D01*
G01*
G37*
G36*
G01*
X147025000Y-51175000D02*
X147575000Y-51175000D01*
G75*
G02*
X147775000Y-51375000I0J-200000D01*
G01*
X147775000Y-51775000D01*
G75*
G02*
X147575000Y-51975000I-200000J0D01*
G01*
X147025000Y-51975000D01*
G75*
G02*
X146825000Y-51775000I0J200000D01*
G01*
X146825000Y-51375000D01*
G75*
G02*
X147025000Y-51175000I200000J0D01*
G01*
G37*
G36*
G01*
X142725000Y-52825000D02*
X143275000Y-52825000D01*
G75*
G02*
X143475000Y-53025000I0J-200000D01*
G01*
X143475000Y-53425000D01*
G75*
G02*
X143275000Y-53625000I-200000J0D01*
G01*
X142725000Y-53625000D01*
G75*
G02*
X142525000Y-53425000I0J200000D01*
G01*
X142525000Y-53025000D01*
G75*
G02*
X142725000Y-52825000I200000J0D01*
G01*
G37*
G36*
G01*
X142725000Y-51175000D02*
X143275000Y-51175000D01*
G75*
G02*
X143475000Y-51375000I0J-200000D01*
G01*
X143475000Y-51775000D01*
G75*
G02*
X143275000Y-51975000I-200000J0D01*
G01*
X142725000Y-51975000D01*
G75*
G02*
X142525000Y-51775000I0J200000D01*
G01*
X142525000Y-51375000D01*
G75*
G02*
X142725000Y-51175000I200000J0D01*
G01*
G37*
G36*
G01*
X138425000Y-52825000D02*
X138975000Y-52825000D01*
G75*
G02*
X139175000Y-53025000I0J-200000D01*
G01*
X139175000Y-53425000D01*
G75*
G02*
X138975000Y-53625000I-200000J0D01*
G01*
X138425000Y-53625000D01*
G75*
G02*
X138225000Y-53425000I0J200000D01*
G01*
X138225000Y-53025000D01*
G75*
G02*
X138425000Y-52825000I200000J0D01*
G01*
G37*
G36*
G01*
X138425000Y-51175000D02*
X138975000Y-51175000D01*
G75*
G02*
X139175000Y-51375000I0J-200000D01*
G01*
X139175000Y-51775000D01*
G75*
G02*
X138975000Y-51975000I-200000J0D01*
G01*
X138425000Y-51975000D01*
G75*
G02*
X138225000Y-51775000I0J200000D01*
G01*
X138225000Y-51375000D01*
G75*
G02*
X138425000Y-51175000I200000J0D01*
G01*
G37*
G36*
G01*
X134125000Y-52825000D02*
X134675000Y-52825000D01*
G75*
G02*
X134875000Y-53025000I0J-200000D01*
G01*
X134875000Y-53425000D01*
G75*
G02*
X134675000Y-53625000I-200000J0D01*
G01*
X134125000Y-53625000D01*
G75*
G02*
X133925000Y-53425000I0J200000D01*
G01*
X133925000Y-53025000D01*
G75*
G02*
X134125000Y-52825000I200000J0D01*
G01*
G37*
G36*
G01*
X134125000Y-51175000D02*
X134675000Y-51175000D01*
G75*
G02*
X134875000Y-51375000I0J-200000D01*
G01*
X134875000Y-51775000D01*
G75*
G02*
X134675000Y-51975000I-200000J0D01*
G01*
X134125000Y-51975000D01*
G75*
G02*
X133925000Y-51775000I0J200000D01*
G01*
X133925000Y-51375000D01*
G75*
G02*
X134125000Y-51175000I200000J0D01*
G01*
G37*
G36*
G01*
X156825000Y-76175000D02*
X156825000Y-75625000D01*
G75*
G02*
X157025000Y-75425000I200000J0D01*
G01*
X157425000Y-75425000D01*
G75*
G02*
X157625000Y-75625000I0J-200000D01*
G01*
X157625000Y-76175000D01*
G75*
G02*
X157425000Y-76375000I-200000J0D01*
G01*
X157025000Y-76375000D01*
G75*
G02*
X156825000Y-76175000I0J200000D01*
G01*
G37*
G36*
G01*
X155175000Y-76175000D02*
X155175000Y-75625000D01*
G75*
G02*
X155375000Y-75425000I200000J0D01*
G01*
X155775000Y-75425000D01*
G75*
G02*
X155975000Y-75625000I0J-200000D01*
G01*
X155975000Y-76175000D01*
G75*
G02*
X155775000Y-76375000I-200000J0D01*
G01*
X155375000Y-76375000D01*
G75*
G02*
X155175000Y-76175000I0J200000D01*
G01*
G37*
G36*
G01*
X155875000Y-72325000D02*
X155875000Y-72875000D01*
G75*
G02*
X155675000Y-73075000I-200000J0D01*
G01*
X155275000Y-73075000D01*
G75*
G02*
X155075000Y-72875000I0J200000D01*
G01*
X155075000Y-72325000D01*
G75*
G02*
X155275000Y-72125000I200000J0D01*
G01*
X155675000Y-72125000D01*
G75*
G02*
X155875000Y-72325000I0J-200000D01*
G01*
G37*
G36*
G01*
X157525000Y-72325000D02*
X157525000Y-72875000D01*
G75*
G02*
X157325000Y-73075000I-200000J0D01*
G01*
X156925000Y-73075000D01*
G75*
G02*
X156725000Y-72875000I0J200000D01*
G01*
X156725000Y-72325000D01*
G75*
G02*
X156925000Y-72125000I200000J0D01*
G01*
X157325000Y-72125000D01*
G75*
G02*
X157525000Y-72325000I0J-200000D01*
G01*
G37*
G36*
G01*
X84525000Y-117325000D02*
X85075000Y-117325000D01*
G75*
G02*
X85275000Y-117525000I0J-200000D01*
G01*
X85275000Y-117925000D01*
G75*
G02*
X85075000Y-118125000I-200000J0D01*
G01*
X84525000Y-118125000D01*
G75*
G02*
X84325000Y-117925000I0J200000D01*
G01*
X84325000Y-117525000D01*
G75*
G02*
X84525000Y-117325000I200000J0D01*
G01*
G37*
G36*
G01*
X84525000Y-115675000D02*
X85075000Y-115675000D01*
G75*
G02*
X85275000Y-115875000I0J-200000D01*
G01*
X85275000Y-116275000D01*
G75*
G02*
X85075000Y-116475000I-200000J0D01*
G01*
X84525000Y-116475000D01*
G75*
G02*
X84325000Y-116275000I0J200000D01*
G01*
X84325000Y-115875000D01*
G75*
G02*
X84525000Y-115675000I200000J0D01*
G01*
G37*
G36*
G01*
X160025000Y-90875000D02*
X160025000Y-90325000D01*
G75*
G02*
X160225000Y-90125000I200000J0D01*
G01*
X160625000Y-90125000D01*
G75*
G02*
X160825000Y-90325000I0J-200000D01*
G01*
X160825000Y-90875000D01*
G75*
G02*
X160625000Y-91075000I-200000J0D01*
G01*
X160225000Y-91075000D01*
G75*
G02*
X160025000Y-90875000I0J200000D01*
G01*
G37*
G36*
G01*
X158375000Y-90875000D02*
X158375000Y-90325000D01*
G75*
G02*
X158575000Y-90125000I200000J0D01*
G01*
X158975000Y-90125000D01*
G75*
G02*
X159175000Y-90325000I0J-200000D01*
G01*
X159175000Y-90875000D01*
G75*
G02*
X158975000Y-91075000I-200000J0D01*
G01*
X158575000Y-91075000D01*
G75*
G02*
X158375000Y-90875000I0J200000D01*
G01*
G37*
G36*
G01*
X103750000Y-84643750D02*
X103750000Y-85156250D01*
G75*
G02*
X103531250Y-85375000I-218750J0D01*
G01*
X103093750Y-85375000D01*
G75*
G02*
X102875000Y-85156250I0J218750D01*
G01*
X102875000Y-84643750D01*
G75*
G02*
X103093750Y-84425000I218750J0D01*
G01*
X103531250Y-84425000D01*
G75*
G02*
X103750000Y-84643750I0J-218750D01*
G01*
G37*
G36*
G01*
X105325000Y-84643750D02*
X105325000Y-85156250D01*
G75*
G02*
X105106250Y-85375000I-218750J0D01*
G01*
X104668750Y-85375000D01*
G75*
G02*
X104450000Y-85156250I0J218750D01*
G01*
X104450000Y-84643750D01*
G75*
G02*
X104668750Y-84425000I218750J0D01*
G01*
X105106250Y-84425000D01*
G75*
G02*
X105325000Y-84643750I0J-218750D01*
G01*
G37*
D26*
X160600000Y-114380000D03*
X160600000Y-111840000D03*
X160600000Y-109300000D03*
X160600000Y-106760000D03*
X160600000Y-104220000D03*
X160600000Y-101680000D03*
X160600000Y-99140000D03*
D27*
X160600000Y-96600000D03*
D26*
X111240000Y-60600000D03*
X111240000Y-58060000D03*
X113780000Y-60600000D03*
X113780000Y-58060000D03*
X116320000Y-60600000D03*
X116320000Y-58060000D03*
X118860000Y-60600000D03*
X118860000Y-58060000D03*
X121400000Y-60600000D03*
D27*
X121400000Y-58060000D03*
D26*
X150900000Y-114400000D03*
D27*
X150900000Y-111860000D03*
D26*
X121640000Y-111100000D03*
X121640000Y-113640000D03*
X119100000Y-111100000D03*
X119100000Y-113640000D03*
X116560000Y-111100000D03*
X116560000Y-113640000D03*
X114020000Y-111100000D03*
X114020000Y-113640000D03*
X111480000Y-111100000D03*
X111480000Y-113640000D03*
X108940000Y-111100000D03*
D27*
X108940000Y-113640000D03*
D26*
X89940000Y-94000000D03*
X87400000Y-94000000D03*
X89940000Y-91460000D03*
X87400000Y-91460000D03*
X89940000Y-88920000D03*
X87400000Y-88920000D03*
X89940000Y-86380000D03*
X87400000Y-86380000D03*
X89940000Y-83840000D03*
X87400000Y-83840000D03*
X89940000Y-81300000D03*
D27*
X87400000Y-81300000D03*
D26*
X114540000Y-134160000D03*
X114540000Y-136700000D03*
X112000000Y-134160000D03*
D27*
X112000000Y-136700000D03*
D26*
X114440000Y-126340000D03*
X111900000Y-126340000D03*
X114440000Y-123800000D03*
D27*
X111900000Y-123800000D03*
D26*
X144760000Y-59200000D03*
D27*
X147300000Y-59200000D03*
D30*
X70400000Y-53200000D03*
X70400000Y-48800000D03*
D31*
X73000000Y-52600000D03*
X73000000Y-51800000D03*
X73000000Y-51000000D03*
X73000000Y-50200000D03*
X73000000Y-49400000D03*
D32*
X73000000Y-55400000D03*
X73000000Y-46600000D03*
X67500000Y-55400000D03*
X67500000Y-46600000D03*
D26*
X134360000Y-59200000D03*
D27*
X136900000Y-59200000D03*
D26*
X156740000Y-69000000D03*
D27*
X154200000Y-69000000D03*
D33*
X83100000Y-56110000D03*
X83100000Y-54840000D03*
X83100000Y-53570000D03*
X83100000Y-52300000D03*
X83100000Y-51030000D03*
X83100000Y-49760000D03*
X83100000Y-48490000D03*
X88500000Y-48490000D03*
X88500000Y-49760000D03*
X88500000Y-51030000D03*
X88500000Y-52300000D03*
X88500000Y-53570000D03*
X88500000Y-54840000D03*
X88500000Y-56110000D03*
D34*
X72500000Y-111800000D03*
D35*
X74800000Y-118000000D03*
X72500000Y-118000000D03*
X70200000Y-118000000D03*
D36*
X112250000Y-80762000D03*
X112750000Y-80762000D03*
X113250000Y-80762000D03*
X113750000Y-80762000D03*
X114250000Y-80762000D03*
X114750000Y-80762000D03*
X115250000Y-80762000D03*
X115750000Y-80762000D03*
X116250000Y-80762000D03*
X116750000Y-80762000D03*
X117250000Y-80762000D03*
X117750000Y-80762000D03*
D37*
X119238000Y-82250000D03*
X119238000Y-82750000D03*
X119238000Y-83250000D03*
X119238000Y-83750000D03*
X119238000Y-84250000D03*
X119238000Y-84750000D03*
X119238000Y-85250000D03*
X119238000Y-85750000D03*
X119238000Y-86250000D03*
X119238000Y-86750000D03*
X119238000Y-87250000D03*
X119238000Y-87750000D03*
D36*
X117750000Y-89238000D03*
X117250000Y-89238000D03*
X116750000Y-89238000D03*
X116250000Y-89238000D03*
X115750000Y-89238000D03*
X115250000Y-89238000D03*
X114750000Y-89238000D03*
X114250000Y-89238000D03*
X113750000Y-89238000D03*
X113250000Y-89238000D03*
X112750000Y-89238000D03*
X112250000Y-89238000D03*
D37*
X110762000Y-87750000D03*
X110762000Y-87250000D03*
X110762000Y-86750000D03*
X110762000Y-86250000D03*
X110762000Y-85750000D03*
X110762000Y-85250000D03*
X110762000Y-84750000D03*
X110762000Y-84250000D03*
X110762000Y-83750000D03*
X110762000Y-83250000D03*
X110762000Y-82750000D03*
X110762000Y-82250000D03*
G36*
G01*
X99050000Y-52256250D02*
X99050000Y-51743750D01*
G75*
G02*
X99268750Y-51525000I218750J0D01*
G01*
X99706250Y-51525000D01*
G75*
G02*
X99925000Y-51743750I0J-218750D01*
G01*
X99925000Y-52256250D01*
G75*
G02*
X99706250Y-52475000I-218750J0D01*
G01*
X99268750Y-52475000D01*
G75*
G02*
X99050000Y-52256250I0J218750D01*
G01*
G37*
G36*
G01*
X97475000Y-52256250D02*
X97475000Y-51743750D01*
G75*
G02*
X97693750Y-51525000I218750J0D01*
G01*
X98131250Y-51525000D01*
G75*
G02*
X98350000Y-51743750I0J-218750D01*
G01*
X98350000Y-52256250D01*
G75*
G02*
X98131250Y-52475000I-218750J0D01*
G01*
X97693750Y-52475000D01*
G75*
G02*
X97475000Y-52256250I0J218750D01*
G01*
G37*
G36*
G01*
X99050000Y-55956250D02*
X99050000Y-55443750D01*
G75*
G02*
X99268750Y-55225000I218750J0D01*
G01*
X99706250Y-55225000D01*
G75*
G02*
X99925000Y-55443750I0J-218750D01*
G01*
X99925000Y-55956250D01*
G75*
G02*
X99706250Y-56175000I-218750J0D01*
G01*
X99268750Y-56175000D01*
G75*
G02*
X99050000Y-55956250I0J218750D01*
G01*
G37*
G36*
G01*
X97475000Y-55956250D02*
X97475000Y-55443750D01*
G75*
G02*
X97693750Y-55225000I218750J0D01*
G01*
X98131250Y-55225000D01*
G75*
G02*
X98350000Y-55443750I0J-218750D01*
G01*
X98350000Y-55956250D01*
G75*
G02*
X98131250Y-56175000I-218750J0D01*
G01*
X97693750Y-56175000D01*
G75*
G02*
X97475000Y-55956250I0J218750D01*
G01*
G37*
D38*
X78850000Y-43200000D03*
X82150000Y-43200000D03*
D39*
X161800000Y-72550000D03*
X161800000Y-75850000D03*
G36*
G01*
X85056250Y-112550000D02*
X84543750Y-112550000D01*
G75*
G02*
X84325000Y-112331250I0J218750D01*
G01*
X84325000Y-111893750D01*
G75*
G02*
X84543750Y-111675000I218750J0D01*
G01*
X85056250Y-111675000D01*
G75*
G02*
X85275000Y-111893750I0J-218750D01*
G01*
X85275000Y-112331250D01*
G75*
G02*
X85056250Y-112550000I-218750J0D01*
G01*
G37*
G36*
G01*
X85056250Y-114125000D02*
X84543750Y-114125000D01*
G75*
G02*
X84325000Y-113906250I0J218750D01*
G01*
X84325000Y-113468750D01*
G75*
G02*
X84543750Y-113250000I218750J0D01*
G01*
X85056250Y-113250000D01*
G75*
G02*
X85275000Y-113468750I0J-218750D01*
G01*
X85275000Y-113906250D01*
G75*
G02*
X85056250Y-114125000I-218750J0D01*
G01*
G37*
G36*
G01*
X90625000Y-58750000D02*
X90625000Y-58250000D01*
G75*
G02*
X90850000Y-58025000I225000J0D01*
G01*
X91300000Y-58025000D01*
G75*
G02*
X91525000Y-58250000I0J-225000D01*
G01*
X91525000Y-58750000D01*
G75*
G02*
X91300000Y-58975000I-225000J0D01*
G01*
X90850000Y-58975000D01*
G75*
G02*
X90625000Y-58750000I0J225000D01*
G01*
G37*
G36*
G01*
X89075000Y-58750000D02*
X89075000Y-58250000D01*
G75*
G02*
X89300000Y-58025000I225000J0D01*
G01*
X89750000Y-58025000D01*
G75*
G02*
X89975000Y-58250000I0J-225000D01*
G01*
X89975000Y-58750000D01*
G75*
G02*
X89750000Y-58975000I-225000J0D01*
G01*
X89300000Y-58975000D01*
G75*
G02*
X89075000Y-58750000I0J225000D01*
G01*
G37*
G36*
G01*
X79450000Y-50225000D02*
X79950000Y-50225000D01*
G75*
G02*
X80175000Y-50450000I0J-225000D01*
G01*
X80175000Y-50900000D01*
G75*
G02*
X79950000Y-51125000I-225000J0D01*
G01*
X79450000Y-51125000D01*
G75*
G02*
X79225000Y-50900000I0J225000D01*
G01*
X79225000Y-50450000D01*
G75*
G02*
X79450000Y-50225000I225000J0D01*
G01*
G37*
G36*
G01*
X79450000Y-48675000D02*
X79950000Y-48675000D01*
G75*
G02*
X80175000Y-48900000I0J-225000D01*
G01*
X80175000Y-49350000D01*
G75*
G02*
X79950000Y-49575000I-225000J0D01*
G01*
X79450000Y-49575000D01*
G75*
G02*
X79225000Y-49350000I0J225000D01*
G01*
X79225000Y-48900000D01*
G75*
G02*
X79450000Y-48675000I225000J0D01*
G01*
G37*
G36*
G01*
X115570000Y-77620000D02*
X115230000Y-77620000D01*
G75*
G02*
X115090000Y-77480000I0J140000D01*
G01*
X115090000Y-77200000D01*
G75*
G02*
X115230000Y-77060000I140000J0D01*
G01*
X115570000Y-77060000D01*
G75*
G02*
X115710000Y-77200000I0J-140000D01*
G01*
X115710000Y-77480000D01*
G75*
G02*
X115570000Y-77620000I-140000J0D01*
G01*
G37*
G36*
G01*
X115570000Y-78580000D02*
X115230000Y-78580000D01*
G75*
G02*
X115090000Y-78440000I0J140000D01*
G01*
X115090000Y-78160000D01*
G75*
G02*
X115230000Y-78020000I140000J0D01*
G01*
X115570000Y-78020000D01*
G75*
G02*
X115710000Y-78160000I0J-140000D01*
G01*
X115710000Y-78440000D01*
G75*
G02*
X115570000Y-78580000I-140000J0D01*
G01*
G37*
G36*
G01*
X107600000Y-84470000D02*
X107600000Y-84130000D01*
G75*
G02*
X107740000Y-83990000I140000J0D01*
G01*
X108020000Y-83990000D01*
G75*
G02*
X108160000Y-84130000I0J-140000D01*
G01*
X108160000Y-84470000D01*
G75*
G02*
X108020000Y-84610000I-140000J0D01*
G01*
X107740000Y-84610000D01*
G75*
G02*
X107600000Y-84470000I0J140000D01*
G01*
G37*
G36*
G01*
X106640000Y-84470000D02*
X106640000Y-84130000D01*
G75*
G02*
X106780000Y-83990000I140000J0D01*
G01*
X107060000Y-83990000D01*
G75*
G02*
X107200000Y-84130000I0J-140000D01*
G01*
X107200000Y-84470000D01*
G75*
G02*
X107060000Y-84610000I-140000J0D01*
G01*
X106780000Y-84610000D01*
G75*
G02*
X106640000Y-84470000I0J140000D01*
G01*
G37*
G36*
G01*
X78550000Y-112925000D02*
X79050000Y-112925000D01*
G75*
G02*
X79275000Y-113150000I0J-225000D01*
G01*
X79275000Y-113600000D01*
G75*
G02*
X79050000Y-113825000I-225000J0D01*
G01*
X78550000Y-113825000D01*
G75*
G02*
X78325000Y-113600000I0J225000D01*
G01*
X78325000Y-113150000D01*
G75*
G02*
X78550000Y-112925000I225000J0D01*
G01*
G37*
G36*
G01*
X78550000Y-111375000D02*
X79050000Y-111375000D01*
G75*
G02*
X79275000Y-111600000I0J-225000D01*
G01*
X79275000Y-112050000D01*
G75*
G02*
X79050000Y-112275000I-225000J0D01*
G01*
X78550000Y-112275000D01*
G75*
G02*
X78325000Y-112050000I0J225000D01*
G01*
X78325000Y-111600000D01*
G75*
G02*
X78550000Y-111375000I225000J0D01*
G01*
G37*
G36*
G01*
X114470000Y-77600000D02*
X114130000Y-77600000D01*
G75*
G02*
X113990000Y-77460000I0J140000D01*
G01*
X113990000Y-77180000D01*
G75*
G02*
X114130000Y-77040000I140000J0D01*
G01*
X114470000Y-77040000D01*
G75*
G02*
X114610000Y-77180000I0J-140000D01*
G01*
X114610000Y-77460000D01*
G75*
G02*
X114470000Y-77600000I-140000J0D01*
G01*
G37*
G36*
G01*
X114470000Y-78560000D02*
X114130000Y-78560000D01*
G75*
G02*
X113990000Y-78420000I0J140000D01*
G01*
X113990000Y-78140000D01*
G75*
G02*
X114130000Y-78000000I140000J0D01*
G01*
X114470000Y-78000000D01*
G75*
G02*
X114610000Y-78140000I0J-140000D01*
G01*
X114610000Y-78420000D01*
G75*
G02*
X114470000Y-78560000I-140000J0D01*
G01*
G37*
G36*
G01*
X79650000Y-118775000D02*
X79650000Y-117825000D01*
G75*
G02*
X79900000Y-117575000I250000J0D01*
G01*
X80400000Y-117575000D01*
G75*
G02*
X80650000Y-117825000I0J-250000D01*
G01*
X80650000Y-118775000D01*
G75*
G02*
X80400000Y-119025000I-250000J0D01*
G01*
X79900000Y-119025000D01*
G75*
G02*
X79650000Y-118775000I0J250000D01*
G01*
G37*
G36*
G01*
X77750000Y-118775000D02*
X77750000Y-117825000D01*
G75*
G02*
X78000000Y-117575000I250000J0D01*
G01*
X78500000Y-117575000D01*
G75*
G02*
X78750000Y-117825000I0J-250000D01*
G01*
X78750000Y-118775000D01*
G75*
G02*
X78500000Y-119025000I-250000J0D01*
G01*
X78000000Y-119025000D01*
G75*
G02*
X77750000Y-118775000I0J250000D01*
G01*
G37*
G36*
G01*
X121700000Y-81770000D02*
X121700000Y-81430000D01*
G75*
G02*
X121840000Y-81290000I140000J0D01*
G01*
X122120000Y-81290000D01*
G75*
G02*
X122260000Y-81430000I0J-140000D01*
G01*
X122260000Y-81770000D01*
G75*
G02*
X122120000Y-81910000I-140000J0D01*
G01*
X121840000Y-81910000D01*
G75*
G02*
X121700000Y-81770000I0J140000D01*
G01*
G37*
G36*
G01*
X120740000Y-81770000D02*
X120740000Y-81430000D01*
G75*
G02*
X120880000Y-81290000I140000J0D01*
G01*
X121160000Y-81290000D01*
G75*
G02*
X121300000Y-81430000I0J-140000D01*
G01*
X121300000Y-81770000D01*
G75*
G02*
X121160000Y-81910000I-140000J0D01*
G01*
X120880000Y-81910000D01*
G75*
G02*
X120740000Y-81770000I0J140000D01*
G01*
G37*
G36*
G01*
X114130000Y-92100000D02*
X114470000Y-92100000D01*
G75*
G02*
X114610000Y-92240000I0J-140000D01*
G01*
X114610000Y-92520000D01*
G75*
G02*
X114470000Y-92660000I-140000J0D01*
G01*
X114130000Y-92660000D01*
G75*
G02*
X113990000Y-92520000I0J140000D01*
G01*
X113990000Y-92240000D01*
G75*
G02*
X114130000Y-92100000I140000J0D01*
G01*
G37*
G36*
G01*
X114130000Y-91140000D02*
X114470000Y-91140000D01*
G75*
G02*
X114610000Y-91280000I0J-140000D01*
G01*
X114610000Y-91560000D01*
G75*
G02*
X114470000Y-91700000I-140000J0D01*
G01*
X114130000Y-91700000D01*
G75*
G02*
X113990000Y-91560000I0J140000D01*
G01*
X113990000Y-91280000D01*
G75*
G02*
X114130000Y-91140000I140000J0D01*
G01*
G37*
M02*
