M48
; DRILL file {KiCad (5.1.10)-1} date 01/02/22 12:56:19
; FORMAT={-:-/ absolute / metric / decimal}
; #@! TF.CreationDate,2022-01-02T12:56:19-07:00
; #@! TF.GenerationSoftware,Kicad,Pcbnew,(5.1.10)-1
; #@! TF.FileFunction,Plated,1,4,PTH
FMAT,2
METRIC
T1C0.300
T2C0.500
T3C0.550
T4C0.800
T5C0.990
T6C1.000
%
G90
G05
T1
X70.2Y-46.6
X70.2Y-119.7
X70.2Y-120.8
X72.5Y-113.5
X72.5Y-115.5
X73.0Y-53.6
X78.225Y-50.675
X78.8Y-114.6
X79.7Y-47.7
X81.5Y-118.3
X82.15Y-45.35
X83.1Y-57.7
X83.5Y-118.3
X89.525Y-59.975
X90.4Y-50.1
X92.275Y-58.5
X95.3Y-47.3
X99.487Y-53.712
X101.7Y-85.4
X108.8Y-84.3
X113.6Y-83.5
X114.275Y-90.55
X114.3Y-76.4
X114.3Y-79.1
X114.3Y-93.1
X114.7Y-87.8
X115.25Y-82.35
X115.5Y-86.9
X116.8Y-84.9
X117.75Y-82.75
X117.8Y-62.7
X121.02Y-80.72
X122.9Y-81.6
X127.1Y-77.5
X132.6Y-103.1
X137.3Y-94.8
X137.5Y-96.6
X143.0Y-43.7
X147.3Y-43.2
X157.3Y-82.6
X157.6Y-90.6
X158.3Y-75.9
X160.7Y-78.5
T5
X131.2Y-123.9
X131.2Y-128.4
X137.7Y-123.9
X137.7Y-128.4
X146.3Y-123.9
X146.3Y-128.4
X152.8Y-123.9
X152.8Y-128.4
T6
X87.4Y-81.3
X87.4Y-83.84
X87.4Y-86.38
X87.4Y-88.92
X87.4Y-91.46
X87.4Y-94.0
X88.16Y-125.82
X88.16Y-128.36
X88.16Y-130.9
X89.94Y-81.3
X89.94Y-83.84
X89.94Y-86.38
X89.94Y-88.92
X89.94Y-91.46
X89.94Y-94.0
X90.7Y-125.82
X90.7Y-128.36
X90.7Y-130.9
X108.94Y-111.1
X108.94Y-113.64
X111.24Y-58.06
X111.24Y-60.6
X111.48Y-111.1
X111.48Y-113.64
X111.9Y-123.8
X111.9Y-126.34
X112.0Y-134.16
X112.0Y-136.7
X113.78Y-58.06
X113.78Y-60.6
X114.02Y-111.1
X114.02Y-113.64
X114.44Y-123.8
X114.44Y-126.34
X114.54Y-134.16
X114.54Y-136.7
X116.32Y-58.06
X116.32Y-60.6
X116.56Y-111.1
X116.56Y-113.64
X118.86Y-58.06
X118.86Y-60.6
X119.1Y-111.1
X119.1Y-113.64
X121.4Y-58.06
X121.4Y-60.6
X121.64Y-111.1
X121.64Y-113.64
X134.36Y-59.2
X136.9Y-59.2
X141.2Y-79.12
X141.2Y-81.66
X141.2Y-84.2
X141.2Y-86.74
X141.2Y-89.28
X141.2Y-91.82
X143.74Y-79.12
X143.74Y-81.66
X143.74Y-84.2
X143.74Y-86.74
X143.74Y-89.28
X143.74Y-91.82
X144.76Y-59.2
X147.3Y-59.2
X150.9Y-111.86
X150.9Y-114.4
X154.2Y-69.0
X156.74Y-69.0
X160.6Y-96.6
X160.6Y-99.14
X160.6Y-101.68
X160.6Y-104.22
X160.6Y-106.76
X160.6Y-109.3
X160.6Y-111.84
X160.6Y-114.38
T2
X162.225Y-52.45G85X162.875Y-52.45
G05
X162.225Y-59.45G85X162.875Y-59.45
G05
T3
X159.85Y-53.6G85X159.85Y-53.3
G05
X159.85Y-58.6G85X159.85Y-58.3
G05
T4
X71.75Y-124.45G85X74.35Y-124.45
G05
X71.95Y-130.25G85X74.15Y-130.25
G05
X77.85Y-128.55G85X77.85Y-126.35
G05
T0
M30
