G04 #@! TF.GenerationSoftware,KiCad,Pcbnew,(5.1.10)-1*
G04 #@! TF.CreationDate,2022-01-02T12:56:15-07:00*
G04 #@! TF.ProjectId,SAMD21,53414d44-3231-42e6-9b69-6361645f7063,rev?*
G04 #@! TF.SameCoordinates,Original*
G04 #@! TF.FileFunction,Legend,Bot*
G04 #@! TF.FilePolarity,Positive*
%FSLAX46Y46*%
G04 Gerber Fmt 4.6, Leading zero omitted, Abs format (unit mm)*
G04 Created by KiCad (PCBNEW (5.1.10)-1) date 2022-01-02 12:56:15*
%MOMM*%
%LPD*%
G01*
G04 APERTURE LIST*
%ADD10C,0.160000*%
%ADD11C,0.180000*%
%ADD12C,0.400000*%
%ADD13O,1.550000X0.890000*%
%ADD14O,0.950000X1.250000*%
%ADD15R,4.400000X1.800000*%
%ADD16O,4.000000X1.800000*%
%ADD17O,1.800000X4.000000*%
%ADD18O,1.700000X1.700000*%
%ADD19R,1.700000X1.700000*%
%ADD20C,1.540000*%
%ADD21C,0.900000*%
G04 APERTURE END LIST*
D10*
X104672190Y-98032380D02*
X104672190Y-98746666D01*
X104719809Y-98889523D01*
X104815047Y-98984761D01*
X104957904Y-99032380D01*
X105053142Y-99032380D01*
X103767428Y-98365714D02*
X103767428Y-99032380D01*
X104196000Y-98365714D02*
X104196000Y-98889523D01*
X104148380Y-98984761D01*
X104053142Y-99032380D01*
X103910285Y-99032380D01*
X103815047Y-98984761D01*
X103767428Y-98937142D01*
X103291238Y-99032380D02*
X103291238Y-98365714D01*
X103291238Y-98460952D02*
X103243619Y-98413333D01*
X103148380Y-98365714D01*
X103005523Y-98365714D01*
X102910285Y-98413333D01*
X102862666Y-98508571D01*
X102862666Y-99032380D01*
X102862666Y-98508571D02*
X102815047Y-98413333D01*
X102719809Y-98365714D01*
X102576952Y-98365714D01*
X102481714Y-98413333D01*
X102434095Y-98508571D01*
X102434095Y-99032380D01*
X101957904Y-98365714D02*
X101957904Y-99365714D01*
X101957904Y-98413333D02*
X101862666Y-98365714D01*
X101672190Y-98365714D01*
X101576952Y-98413333D01*
X101529333Y-98460952D01*
X101481714Y-98556190D01*
X101481714Y-98841904D01*
X101529333Y-98937142D01*
X101576952Y-98984761D01*
X101672190Y-99032380D01*
X101862666Y-99032380D01*
X101957904Y-98984761D01*
X100672190Y-98984761D02*
X100767428Y-99032380D01*
X100957904Y-99032380D01*
X101053142Y-98984761D01*
X101100761Y-98889523D01*
X101100761Y-98508571D01*
X101053142Y-98413333D01*
X100957904Y-98365714D01*
X100767428Y-98365714D01*
X100672190Y-98413333D01*
X100624571Y-98508571D01*
X100624571Y-98603809D01*
X101100761Y-98699047D01*
X100196000Y-99032380D02*
X100196000Y-98365714D01*
X100196000Y-98556190D02*
X100148380Y-98460952D01*
X100100761Y-98413333D01*
X100005523Y-98365714D01*
X99910285Y-98365714D01*
X99624571Y-98984761D02*
X99529333Y-99032380D01*
X99338857Y-99032380D01*
X99243619Y-98984761D01*
X99196000Y-98889523D01*
X99196000Y-98841904D01*
X99243619Y-98746666D01*
X99338857Y-98699047D01*
X99481714Y-98699047D01*
X99576952Y-98651428D01*
X99624571Y-98556190D01*
X99624571Y-98508571D01*
X99576952Y-98413333D01*
X99481714Y-98365714D01*
X99338857Y-98365714D01*
X99243619Y-98413333D01*
X98767428Y-98937142D02*
X98719809Y-98984761D01*
X98767428Y-99032380D01*
X98815047Y-98984761D01*
X98767428Y-98937142D01*
X98767428Y-99032380D01*
X98767428Y-98413333D02*
X98719809Y-98460952D01*
X98767428Y-98508571D01*
X98815047Y-98460952D01*
X98767428Y-98413333D01*
X98767428Y-98508571D01*
X102386476Y-99692380D02*
X102386476Y-100406666D01*
X102434095Y-100549523D01*
X102529333Y-100644761D01*
X102672190Y-100692380D01*
X102767428Y-100692380D01*
X102005523Y-99692380D02*
X101386476Y-99692380D01*
X101719809Y-100073333D01*
X101576952Y-100073333D01*
X101481714Y-100120952D01*
X101434095Y-100168571D01*
X101386476Y-100263809D01*
X101386476Y-100501904D01*
X101434095Y-100597142D01*
X101481714Y-100644761D01*
X101576952Y-100692380D01*
X101862666Y-100692380D01*
X101957904Y-100644761D01*
X102005523Y-100597142D01*
X100196000Y-100168571D02*
X99434095Y-100168571D01*
X99434095Y-100454285D02*
X100196000Y-100454285D01*
X98196000Y-99692380D02*
X98196000Y-100501904D01*
X98148380Y-100597142D01*
X98100761Y-100644761D01*
X98005523Y-100692380D01*
X97815047Y-100692380D01*
X97719809Y-100644761D01*
X97672190Y-100597142D01*
X97624571Y-100501904D01*
X97624571Y-99692380D01*
X97196000Y-100644761D02*
X97053142Y-100692380D01*
X96815047Y-100692380D01*
X96719809Y-100644761D01*
X96672190Y-100597142D01*
X96624571Y-100501904D01*
X96624571Y-100406666D01*
X96672190Y-100311428D01*
X96719809Y-100263809D01*
X96815047Y-100216190D01*
X97005523Y-100168571D01*
X97100761Y-100120952D01*
X97148380Y-100073333D01*
X97196000Y-99978095D01*
X97196000Y-99882857D01*
X97148380Y-99787619D01*
X97100761Y-99740000D01*
X97005523Y-99692380D01*
X96767428Y-99692380D01*
X96624571Y-99740000D01*
X95862666Y-100168571D02*
X95719809Y-100216190D01*
X95672190Y-100263809D01*
X95624571Y-100359047D01*
X95624571Y-100501904D01*
X95672190Y-100597142D01*
X95719809Y-100644761D01*
X95815047Y-100692380D01*
X96196000Y-100692380D01*
X96196000Y-99692380D01*
X95862666Y-99692380D01*
X95767428Y-99740000D01*
X95719809Y-99787619D01*
X95672190Y-99882857D01*
X95672190Y-99978095D01*
X95719809Y-100073333D01*
X95767428Y-100120952D01*
X95862666Y-100168571D01*
X96196000Y-100168571D01*
X94576952Y-99692380D02*
X94243619Y-100692380D01*
X93910285Y-99692380D01*
X93576952Y-100692380D02*
X93576952Y-99692380D01*
X93576952Y-100073333D02*
X93481714Y-100025714D01*
X93291238Y-100025714D01*
X93196000Y-100073333D01*
X93148380Y-100120952D01*
X93100761Y-100216190D01*
X93100761Y-100501904D01*
X93148380Y-100597142D01*
X93196000Y-100644761D01*
X93291238Y-100692380D01*
X93481714Y-100692380D01*
X93576952Y-100644761D01*
X92243619Y-100025714D02*
X92243619Y-100692380D01*
X92672190Y-100025714D02*
X92672190Y-100549523D01*
X92624571Y-100644761D01*
X92529333Y-100692380D01*
X92386476Y-100692380D01*
X92291238Y-100644761D01*
X92243619Y-100597142D01*
X91815047Y-100644761D02*
X91719809Y-100692380D01*
X91529333Y-100692380D01*
X91434095Y-100644761D01*
X91386476Y-100549523D01*
X91386476Y-100501904D01*
X91434095Y-100406666D01*
X91529333Y-100359047D01*
X91672190Y-100359047D01*
X91767428Y-100311428D01*
X91815047Y-100216190D01*
X91815047Y-100168571D01*
X91767428Y-100073333D01*
X91672190Y-100025714D01*
X91529333Y-100025714D01*
X91434095Y-100073333D01*
X90243619Y-100644761D02*
X90100761Y-100692380D01*
X89862666Y-100692380D01*
X89767428Y-100644761D01*
X89719809Y-100597142D01*
X89672190Y-100501904D01*
X89672190Y-100406666D01*
X89719809Y-100311428D01*
X89767428Y-100263809D01*
X89862666Y-100216190D01*
X90053142Y-100168571D01*
X90148380Y-100120952D01*
X90196000Y-100073333D01*
X90243619Y-99978095D01*
X90243619Y-99882857D01*
X90196000Y-99787619D01*
X90148380Y-99740000D01*
X90053142Y-99692380D01*
X89815047Y-99692380D01*
X89672190Y-99740000D01*
X88862666Y-100644761D02*
X88957904Y-100692380D01*
X89148380Y-100692380D01*
X89243619Y-100644761D01*
X89291238Y-100549523D01*
X89291238Y-100168571D01*
X89243619Y-100073333D01*
X89148380Y-100025714D01*
X88957904Y-100025714D01*
X88862666Y-100073333D01*
X88815047Y-100168571D01*
X88815047Y-100263809D01*
X89291238Y-100359047D01*
X88386476Y-100025714D02*
X88386476Y-100692380D01*
X88386476Y-100120952D02*
X88338857Y-100073333D01*
X88243619Y-100025714D01*
X88100761Y-100025714D01*
X88005523Y-100073333D01*
X87957904Y-100168571D01*
X87957904Y-100692380D01*
X87529333Y-100644761D02*
X87434095Y-100692380D01*
X87243619Y-100692380D01*
X87148380Y-100644761D01*
X87100761Y-100549523D01*
X87100761Y-100501904D01*
X87148380Y-100406666D01*
X87243619Y-100359047D01*
X87386476Y-100359047D01*
X87481714Y-100311428D01*
X87529333Y-100216190D01*
X87529333Y-100168571D01*
X87481714Y-100073333D01*
X87386476Y-100025714D01*
X87243619Y-100025714D01*
X87148380Y-100073333D01*
X86291238Y-100644761D02*
X86386476Y-100692380D01*
X86576952Y-100692380D01*
X86672190Y-100644761D01*
X86719809Y-100549523D01*
X86719809Y-100168571D01*
X86672190Y-100073333D01*
X86576952Y-100025714D01*
X86386476Y-100025714D01*
X86291238Y-100073333D01*
X86243619Y-100168571D01*
X86243619Y-100263809D01*
X86719809Y-100359047D01*
X85053142Y-100168571D02*
X84719809Y-100168571D01*
X84576952Y-100692380D02*
X85053142Y-100692380D01*
X85053142Y-99692380D01*
X84576952Y-99692380D01*
X84148380Y-100025714D02*
X84148380Y-100692380D01*
X84148380Y-100120952D02*
X84100761Y-100073333D01*
X84005523Y-100025714D01*
X83862666Y-100025714D01*
X83767428Y-100073333D01*
X83719809Y-100168571D01*
X83719809Y-100692380D01*
X82815047Y-100692380D02*
X82815047Y-100168571D01*
X82862666Y-100073333D01*
X82957904Y-100025714D01*
X83148380Y-100025714D01*
X83243619Y-100073333D01*
X82815047Y-100644761D02*
X82910285Y-100692380D01*
X83148380Y-100692380D01*
X83243619Y-100644761D01*
X83291238Y-100549523D01*
X83291238Y-100454285D01*
X83243619Y-100359047D01*
X83148380Y-100311428D01*
X82910285Y-100311428D01*
X82815047Y-100263809D01*
X82338857Y-100692380D02*
X82338857Y-99692380D01*
X82338857Y-100073333D02*
X82243619Y-100025714D01*
X82053142Y-100025714D01*
X81957904Y-100073333D01*
X81910285Y-100120952D01*
X81862666Y-100216190D01*
X81862666Y-100501904D01*
X81910285Y-100597142D01*
X81957904Y-100644761D01*
X82053142Y-100692380D01*
X82243619Y-100692380D01*
X82338857Y-100644761D01*
X81291238Y-100692380D02*
X81386476Y-100644761D01*
X81434095Y-100549523D01*
X81434095Y-99692380D01*
X80529333Y-100644761D02*
X80624571Y-100692380D01*
X80815047Y-100692380D01*
X80910285Y-100644761D01*
X80957904Y-100549523D01*
X80957904Y-100168571D01*
X80910285Y-100073333D01*
X80815047Y-100025714D01*
X80624571Y-100025714D01*
X80529333Y-100073333D01*
X80481714Y-100168571D01*
X80481714Y-100263809D01*
X80957904Y-100359047D01*
X102386476Y-101352380D02*
X102386476Y-102066666D01*
X102434095Y-102209523D01*
X102529333Y-102304761D01*
X102672190Y-102352380D01*
X102767428Y-102352380D01*
X101481714Y-101685714D02*
X101481714Y-102352380D01*
X101719809Y-101304761D02*
X101957904Y-102019047D01*
X101338857Y-102019047D01*
X100910285Y-102304761D02*
X100910285Y-102352380D01*
X100957904Y-102447619D01*
X101005523Y-102495238D01*
X99434095Y-101352380D02*
X99434095Y-102066666D01*
X99481714Y-102209523D01*
X99576952Y-102304761D01*
X99719809Y-102352380D01*
X99815047Y-102352380D01*
X99053142Y-101352380D02*
X98386476Y-101352380D01*
X98815047Y-102352380D01*
X97243619Y-101828571D02*
X96481714Y-101828571D01*
X96481714Y-102114285D02*
X97243619Y-102114285D01*
X94767428Y-102352380D02*
X95243619Y-102352380D01*
X95243619Y-101352380D01*
X94434095Y-101828571D02*
X94100761Y-101828571D01*
X93957904Y-102352380D02*
X94434095Y-102352380D01*
X94434095Y-101352380D01*
X93957904Y-101352380D01*
X93529333Y-102352380D02*
X93529333Y-101352380D01*
X93291238Y-101352380D01*
X93148380Y-101400000D01*
X93053142Y-101495238D01*
X93005523Y-101590476D01*
X92957904Y-101780952D01*
X92957904Y-101923809D01*
X93005523Y-102114285D01*
X93053142Y-102209523D01*
X93148380Y-102304761D01*
X93291238Y-102352380D01*
X93529333Y-102352380D01*
X91386476Y-102304761D02*
X91481714Y-102352380D01*
X91672190Y-102352380D01*
X91767428Y-102304761D01*
X91815047Y-102209523D01*
X91815047Y-101828571D01*
X91767428Y-101733333D01*
X91672190Y-101685714D01*
X91481714Y-101685714D01*
X91386476Y-101733333D01*
X91338857Y-101828571D01*
X91338857Y-101923809D01*
X91815047Y-102019047D01*
X90910285Y-101685714D02*
X90910285Y-102352380D01*
X90910285Y-101780952D02*
X90862666Y-101733333D01*
X90767428Y-101685714D01*
X90624571Y-101685714D01*
X90529333Y-101733333D01*
X90481714Y-101828571D01*
X90481714Y-102352380D01*
X89576952Y-102352380D02*
X89576952Y-101828571D01*
X89624571Y-101733333D01*
X89719809Y-101685714D01*
X89910285Y-101685714D01*
X90005523Y-101733333D01*
X89576952Y-102304761D02*
X89672190Y-102352380D01*
X89910285Y-102352380D01*
X90005523Y-102304761D01*
X90053142Y-102209523D01*
X90053142Y-102114285D01*
X90005523Y-102019047D01*
X89910285Y-101971428D01*
X89672190Y-101971428D01*
X89576952Y-101923809D01*
X89100761Y-102352380D02*
X89100761Y-101352380D01*
X89100761Y-101733333D02*
X89005523Y-101685714D01*
X88815047Y-101685714D01*
X88719809Y-101733333D01*
X88672190Y-101780952D01*
X88624571Y-101876190D01*
X88624571Y-102161904D01*
X88672190Y-102257142D01*
X88719809Y-102304761D01*
X88815047Y-102352380D01*
X89005523Y-102352380D01*
X89100761Y-102304761D01*
X88053142Y-102352380D02*
X88148380Y-102304761D01*
X88196000Y-102209523D01*
X88196000Y-101352380D01*
X87291238Y-102304761D02*
X87386476Y-102352380D01*
X87576952Y-102352380D01*
X87672190Y-102304761D01*
X87719809Y-102209523D01*
X87719809Y-101828571D01*
X87672190Y-101733333D01*
X87576952Y-101685714D01*
X87386476Y-101685714D01*
X87291238Y-101733333D01*
X87243619Y-101828571D01*
X87243619Y-101923809D01*
X87719809Y-102019047D01*
X102386476Y-103012380D02*
X102386476Y-103726666D01*
X102434095Y-103869523D01*
X102529333Y-103964761D01*
X102672190Y-104012380D01*
X102767428Y-104012380D01*
X101862666Y-104012380D02*
X101672190Y-104012380D01*
X101576952Y-103964761D01*
X101529333Y-103917142D01*
X101434095Y-103774285D01*
X101386476Y-103583809D01*
X101386476Y-103202857D01*
X101434095Y-103107619D01*
X101481714Y-103060000D01*
X101576952Y-103012380D01*
X101767428Y-103012380D01*
X101862666Y-103060000D01*
X101910285Y-103107619D01*
X101957904Y-103202857D01*
X101957904Y-103440952D01*
X101910285Y-103536190D01*
X101862666Y-103583809D01*
X101767428Y-103631428D01*
X101576952Y-103631428D01*
X101481714Y-103583809D01*
X101434095Y-103536190D01*
X101386476Y-103440952D01*
X100196000Y-103488571D02*
X99434095Y-103488571D01*
X99434095Y-103774285D02*
X100196000Y-103774285D01*
X98196000Y-104012380D02*
X98196000Y-103012380D01*
X97767428Y-103107619D02*
X97719809Y-103060000D01*
X97624571Y-103012380D01*
X97386476Y-103012380D01*
X97291238Y-103060000D01*
X97243619Y-103107619D01*
X97196000Y-103202857D01*
X97196000Y-103298095D01*
X97243619Y-103440952D01*
X97815047Y-104012380D01*
X97196000Y-104012380D01*
X96196000Y-103917142D02*
X96243619Y-103964761D01*
X96386476Y-104012380D01*
X96481714Y-104012380D01*
X96624571Y-103964761D01*
X96719809Y-103869523D01*
X96767428Y-103774285D01*
X96815047Y-103583809D01*
X96815047Y-103440952D01*
X96767428Y-103250476D01*
X96719809Y-103155238D01*
X96624571Y-103060000D01*
X96481714Y-103012380D01*
X96386476Y-103012380D01*
X96243619Y-103060000D01*
X96196000Y-103107619D01*
X95005523Y-103345714D02*
X95005523Y-104345714D01*
X95005523Y-103393333D02*
X94910285Y-103345714D01*
X94719809Y-103345714D01*
X94624571Y-103393333D01*
X94576952Y-103440952D01*
X94529333Y-103536190D01*
X94529333Y-103821904D01*
X94576952Y-103917142D01*
X94624571Y-103964761D01*
X94719809Y-104012380D01*
X94910285Y-104012380D01*
X95005523Y-103964761D01*
X93672190Y-103345714D02*
X93672190Y-104012380D01*
X94100761Y-103345714D02*
X94100761Y-103869523D01*
X94053142Y-103964761D01*
X93957904Y-104012380D01*
X93815047Y-104012380D01*
X93719809Y-103964761D01*
X93672190Y-103917142D01*
X93053142Y-104012380D02*
X93148380Y-103964761D01*
X93196000Y-103869523D01*
X93196000Y-103012380D01*
X92529333Y-104012380D02*
X92624571Y-103964761D01*
X92672190Y-103869523D01*
X92672190Y-103012380D01*
X92148380Y-103631428D02*
X91386476Y-103631428D01*
X90481714Y-103345714D02*
X90481714Y-104012380D01*
X90910285Y-103345714D02*
X90910285Y-103869523D01*
X90862666Y-103964761D01*
X90767428Y-104012380D01*
X90624571Y-104012380D01*
X90529333Y-103964761D01*
X90481714Y-103917142D01*
X90005523Y-103345714D02*
X90005523Y-104345714D01*
X90005523Y-103393333D02*
X89910285Y-103345714D01*
X89719809Y-103345714D01*
X89624571Y-103393333D01*
X89576952Y-103440952D01*
X89529333Y-103536190D01*
X89529333Y-103821904D01*
X89576952Y-103917142D01*
X89624571Y-103964761D01*
X89719809Y-104012380D01*
X89910285Y-104012380D01*
X90005523Y-103964761D01*
X89148380Y-103964761D02*
X89053142Y-104012380D01*
X88862666Y-104012380D01*
X88767428Y-103964761D01*
X88719809Y-103869523D01*
X88719809Y-103821904D01*
X88767428Y-103726666D01*
X88862666Y-103679047D01*
X89005523Y-103679047D01*
X89100761Y-103631428D01*
X89148380Y-103536190D01*
X89148380Y-103488571D01*
X89100761Y-103393333D01*
X89005523Y-103345714D01*
X88862666Y-103345714D01*
X88767428Y-103393333D01*
X102386476Y-104672380D02*
X102386476Y-105386666D01*
X102434095Y-105529523D01*
X102529333Y-105624761D01*
X102672190Y-105672380D01*
X102767428Y-105672380D01*
X101386476Y-105672380D02*
X101957904Y-105672380D01*
X101672190Y-105672380D02*
X101672190Y-104672380D01*
X101767428Y-104815238D01*
X101862666Y-104910476D01*
X101957904Y-104958095D01*
X101053142Y-104672380D02*
X100434095Y-104672380D01*
X100767428Y-105053333D01*
X100624571Y-105053333D01*
X100529333Y-105100952D01*
X100481714Y-105148571D01*
X100434095Y-105243809D01*
X100434095Y-105481904D01*
X100481714Y-105577142D01*
X100529333Y-105624761D01*
X100624571Y-105672380D01*
X100910285Y-105672380D01*
X101005523Y-105624761D01*
X101053142Y-105577142D01*
X99243619Y-105148571D02*
X98481714Y-105148571D01*
X98481714Y-105434285D02*
X99243619Y-105434285D01*
X97291238Y-105624761D02*
X97148380Y-105672380D01*
X96910285Y-105672380D01*
X96815047Y-105624761D01*
X96767428Y-105577142D01*
X96719809Y-105481904D01*
X96719809Y-105386666D01*
X96767428Y-105291428D01*
X96815047Y-105243809D01*
X96910285Y-105196190D01*
X97100761Y-105148571D01*
X97196000Y-105100952D01*
X97243619Y-105053333D01*
X97291238Y-104958095D01*
X97291238Y-104862857D01*
X97243619Y-104767619D01*
X97196000Y-104720000D01*
X97100761Y-104672380D01*
X96862666Y-104672380D01*
X96719809Y-104720000D01*
X96386476Y-104672380D02*
X96148380Y-105672380D01*
X95957904Y-104958095D01*
X95767428Y-105672380D01*
X95529333Y-104672380D01*
X94576952Y-105577142D02*
X94624571Y-105624761D01*
X94767428Y-105672380D01*
X94862666Y-105672380D01*
X95005523Y-105624761D01*
X95100761Y-105529523D01*
X95148380Y-105434285D01*
X95196000Y-105243809D01*
X95196000Y-105100952D01*
X95148380Y-104910476D01*
X95100761Y-104815238D01*
X95005523Y-104720000D01*
X94862666Y-104672380D01*
X94767428Y-104672380D01*
X94624571Y-104720000D01*
X94576952Y-104767619D01*
X93672190Y-105672380D02*
X94148380Y-105672380D01*
X94148380Y-104672380D01*
X93338857Y-105672380D02*
X93338857Y-104672380D01*
X92767428Y-105672380D02*
X93196000Y-105100952D01*
X92767428Y-104672380D02*
X93338857Y-105243809D01*
X91576952Y-105005714D02*
X91576952Y-106005714D01*
X91576952Y-105053333D02*
X91481714Y-105005714D01*
X91291238Y-105005714D01*
X91196000Y-105053333D01*
X91148380Y-105100952D01*
X91100761Y-105196190D01*
X91100761Y-105481904D01*
X91148380Y-105577142D01*
X91196000Y-105624761D01*
X91291238Y-105672380D01*
X91481714Y-105672380D01*
X91576952Y-105624761D01*
X90243619Y-105005714D02*
X90243619Y-105672380D01*
X90672190Y-105005714D02*
X90672190Y-105529523D01*
X90624571Y-105624761D01*
X90529333Y-105672380D01*
X90386476Y-105672380D01*
X90291238Y-105624761D01*
X90243619Y-105577142D01*
X89624571Y-105672380D02*
X89719809Y-105624761D01*
X89767428Y-105529523D01*
X89767428Y-104672380D01*
X89100761Y-105672380D02*
X89196000Y-105624761D01*
X89243619Y-105529523D01*
X89243619Y-104672380D01*
X88719809Y-105291428D02*
X87957904Y-105291428D01*
X87053142Y-105005714D02*
X87053142Y-105672380D01*
X87481714Y-105005714D02*
X87481714Y-105529523D01*
X87434095Y-105624761D01*
X87338857Y-105672380D01*
X87196000Y-105672380D01*
X87100761Y-105624761D01*
X87053142Y-105577142D01*
X86576952Y-105005714D02*
X86576952Y-106005714D01*
X86576952Y-105053333D02*
X86481714Y-105005714D01*
X86291238Y-105005714D01*
X86196000Y-105053333D01*
X86148380Y-105100952D01*
X86100761Y-105196190D01*
X86100761Y-105481904D01*
X86148380Y-105577142D01*
X86196000Y-105624761D01*
X86291238Y-105672380D01*
X86481714Y-105672380D01*
X86576952Y-105624761D01*
X156619047Y-137752380D02*
X156619047Y-138466666D01*
X156666666Y-138609523D01*
X156761904Y-138704761D01*
X156904761Y-138752380D01*
X157000000Y-138752380D01*
X155666666Y-138752380D02*
X156142857Y-138752380D01*
X156142857Y-137752380D01*
X154761904Y-138657142D02*
X154809523Y-138704761D01*
X154952380Y-138752380D01*
X155047619Y-138752380D01*
X155190476Y-138704761D01*
X155285714Y-138609523D01*
X155333333Y-138514285D01*
X155380952Y-138323809D01*
X155380952Y-138180952D01*
X155333333Y-137990476D01*
X155285714Y-137895238D01*
X155190476Y-137800000D01*
X155047619Y-137752380D01*
X154952380Y-137752380D01*
X154809523Y-137800000D01*
X154761904Y-137847619D01*
X154047619Y-137752380D02*
X154047619Y-138466666D01*
X154095238Y-138609523D01*
X154190476Y-138704761D01*
X154333333Y-138752380D01*
X154428571Y-138752380D01*
X153095238Y-138752380D02*
X153571428Y-138752380D01*
X153571428Y-137752380D01*
X152190476Y-138657142D02*
X152238095Y-138704761D01*
X152380952Y-138752380D01*
X152476190Y-138752380D01*
X152619047Y-138704761D01*
X152714285Y-138609523D01*
X152761904Y-138514285D01*
X152809523Y-138323809D01*
X152809523Y-138180952D01*
X152761904Y-137990476D01*
X152714285Y-137895238D01*
X152619047Y-137800000D01*
X152476190Y-137752380D01*
X152380952Y-137752380D01*
X152238095Y-137800000D01*
X152190476Y-137847619D01*
X151476190Y-137752380D02*
X151476190Y-138466666D01*
X151523809Y-138609523D01*
X151619047Y-138704761D01*
X151761904Y-138752380D01*
X151857142Y-138752380D01*
X150523809Y-138752380D02*
X151000000Y-138752380D01*
X151000000Y-137752380D01*
X149619047Y-138657142D02*
X149666666Y-138704761D01*
X149809523Y-138752380D01*
X149904761Y-138752380D01*
X150047619Y-138704761D01*
X150142857Y-138609523D01*
X150190476Y-138514285D01*
X150238095Y-138323809D01*
X150238095Y-138180952D01*
X150190476Y-137990476D01*
X150142857Y-137895238D01*
X150047619Y-137800000D01*
X149904761Y-137752380D01*
X149809523Y-137752380D01*
X149666666Y-137800000D01*
X149619047Y-137847619D01*
X148904761Y-137752380D02*
X148904761Y-138466666D01*
X148952380Y-138609523D01*
X149047619Y-138704761D01*
X149190476Y-138752380D01*
X149285714Y-138752380D01*
X147952380Y-138752380D02*
X148428571Y-138752380D01*
X148428571Y-137752380D01*
X147047619Y-138657142D02*
X147095238Y-138704761D01*
X147238095Y-138752380D01*
X147333333Y-138752380D01*
X147476190Y-138704761D01*
X147571428Y-138609523D01*
X147619047Y-138514285D01*
X147666666Y-138323809D01*
X147666666Y-138180952D01*
X147619047Y-137990476D01*
X147571428Y-137895238D01*
X147476190Y-137800000D01*
X147333333Y-137752380D01*
X147238095Y-137752380D01*
X147095238Y-137800000D01*
X147047619Y-137847619D01*
X82366666Y-73295238D02*
X82557142Y-73200000D01*
X82747619Y-73009523D01*
X83033333Y-72723809D01*
X83223809Y-72628571D01*
X83414285Y-72628571D01*
X83319047Y-73104761D02*
X83509523Y-73009523D01*
X83700000Y-72819047D01*
X83795238Y-72438095D01*
X83795238Y-71771428D01*
X83700000Y-71390476D01*
X83509523Y-71200000D01*
X83319047Y-71104761D01*
X82938095Y-71104761D01*
X82747619Y-71200000D01*
X82557142Y-71390476D01*
X82461904Y-71771428D01*
X82461904Y-72438095D01*
X82557142Y-72819047D01*
X82747619Y-73009523D01*
X82938095Y-73104761D01*
X83319047Y-73104761D01*
X81604761Y-72057142D02*
X80938095Y-72057142D01*
X80652380Y-73104761D02*
X81604761Y-73104761D01*
X81604761Y-71104761D01*
X80652380Y-71104761D01*
X79890476Y-73009523D02*
X79604761Y-73104761D01*
X79128571Y-73104761D01*
X78938095Y-73009523D01*
X78842857Y-72914285D01*
X78747619Y-72723809D01*
X78747619Y-72533333D01*
X78842857Y-72342857D01*
X78938095Y-72247619D01*
X79128571Y-72152380D01*
X79509523Y-72057142D01*
X79700000Y-71961904D01*
X79795238Y-71866666D01*
X79890476Y-71676190D01*
X79890476Y-71485714D01*
X79795238Y-71295238D01*
X79700000Y-71200000D01*
X79509523Y-71104761D01*
X79033333Y-71104761D01*
X78747619Y-71200000D01*
X76461904Y-71295238D02*
X76366666Y-71200000D01*
X76176190Y-71104761D01*
X75700000Y-71104761D01*
X75509523Y-71200000D01*
X75414285Y-71295238D01*
X75319047Y-71485714D01*
X75319047Y-71676190D01*
X75414285Y-71961904D01*
X76557142Y-73104761D01*
X75319047Y-73104761D01*
X74080952Y-71104761D02*
X73890476Y-71104761D01*
X73700000Y-71200000D01*
X73604761Y-71295238D01*
X73509523Y-71485714D01*
X73414285Y-71866666D01*
X73414285Y-72342857D01*
X73509523Y-72723809D01*
X73604761Y-72914285D01*
X73700000Y-73009523D01*
X73890476Y-73104761D01*
X74080952Y-73104761D01*
X74271428Y-73009523D01*
X74366666Y-72914285D01*
X74461904Y-72723809D01*
X74557142Y-72342857D01*
X74557142Y-71866666D01*
X74461904Y-71485714D01*
X74366666Y-71295238D01*
X74271428Y-71200000D01*
X74080952Y-71104761D01*
X72652380Y-71295238D02*
X72557142Y-71200000D01*
X72366666Y-71104761D01*
X71890476Y-71104761D01*
X71700000Y-71200000D01*
X71604761Y-71295238D01*
X71509523Y-71485714D01*
X71509523Y-71676190D01*
X71604761Y-71961904D01*
X72747619Y-73104761D01*
X71509523Y-73104761D01*
X69604761Y-73104761D02*
X70747619Y-73104761D01*
X70176190Y-73104761D02*
X70176190Y-71104761D01*
X70366666Y-71390476D01*
X70557142Y-71580952D01*
X70747619Y-71676190D01*
D11*
X109821095Y-67914761D02*
X109154429Y-69914761D01*
X108487762Y-67914761D01*
X106773476Y-69914761D02*
X107916333Y-69914761D01*
X107344905Y-69914761D02*
X107344905Y-67914761D01*
X107535381Y-68200476D01*
X107725857Y-68390952D01*
X107916333Y-68486190D01*
X105916333Y-69724285D02*
X105821095Y-69819523D01*
X105916333Y-69914761D01*
X106011572Y-69819523D01*
X105916333Y-69724285D01*
X105916333Y-69914761D01*
X104583000Y-67914761D02*
X104392524Y-67914761D01*
X104202048Y-68010000D01*
X104106810Y-68105238D01*
X104011572Y-68295714D01*
X103916333Y-68676666D01*
X103916333Y-69152857D01*
X104011572Y-69533809D01*
X104106810Y-69724285D01*
X104202048Y-69819523D01*
X104392524Y-69914761D01*
X104583000Y-69914761D01*
X104773476Y-69819523D01*
X104868714Y-69724285D01*
X104963952Y-69533809D01*
X105059191Y-69152857D01*
X105059191Y-68676666D01*
X104963952Y-68295714D01*
X104868714Y-68105238D01*
X104773476Y-68010000D01*
X104583000Y-67914761D01*
X109630619Y-72523333D02*
X108678238Y-72523333D01*
X109821095Y-73094761D02*
X109154429Y-71094761D01*
X108487762Y-73094761D01*
X108106810Y-71094761D02*
X106963952Y-71094761D01*
X107535381Y-73094761D02*
X107535381Y-71094761D01*
X106392524Y-72999523D02*
X106106810Y-73094761D01*
X105630619Y-73094761D01*
X105440143Y-72999523D01*
X105344905Y-72904285D01*
X105249667Y-72713809D01*
X105249667Y-72523333D01*
X105344905Y-72332857D01*
X105440143Y-72237619D01*
X105630619Y-72142380D01*
X106011572Y-72047142D01*
X106202048Y-71951904D01*
X106297286Y-71856666D01*
X106392524Y-71666190D01*
X106392524Y-71475714D01*
X106297286Y-71285238D01*
X106202048Y-71190000D01*
X106011572Y-71094761D01*
X105535381Y-71094761D01*
X105249667Y-71190000D01*
X104487762Y-72523333D02*
X103535381Y-72523333D01*
X104678238Y-73094761D02*
X104011572Y-71094761D01*
X103344905Y-73094761D01*
X102678238Y-73094761D02*
X102678238Y-71094761D01*
X102011572Y-72523333D01*
X101344905Y-71094761D01*
X101344905Y-73094761D01*
X100392524Y-73094761D02*
X100392524Y-71094761D01*
X99916333Y-71094761D01*
X99630619Y-71190000D01*
X99440143Y-71380476D01*
X99344905Y-71570952D01*
X99249667Y-71951904D01*
X99249667Y-72237619D01*
X99344905Y-72618571D01*
X99440143Y-72809047D01*
X99630619Y-72999523D01*
X99916333Y-73094761D01*
X100392524Y-73094761D01*
X98487762Y-71285238D02*
X98392524Y-71190000D01*
X98202048Y-71094761D01*
X97725857Y-71094761D01*
X97535381Y-71190000D01*
X97440143Y-71285238D01*
X97344905Y-71475714D01*
X97344905Y-71666190D01*
X97440143Y-71951904D01*
X98583000Y-73094761D01*
X97344905Y-73094761D01*
X95440143Y-73094761D02*
X96583000Y-73094761D01*
X96011572Y-73094761D02*
X96011572Y-71094761D01*
X96202048Y-71380476D01*
X96392524Y-71570952D01*
X96583000Y-71666190D01*
X93535381Y-71190000D02*
X93725857Y-71094761D01*
X94011572Y-71094761D01*
X94297286Y-71190000D01*
X94487762Y-71380476D01*
X94583000Y-71570952D01*
X94678238Y-71951904D01*
X94678238Y-72237619D01*
X94583000Y-72618571D01*
X94487762Y-72809047D01*
X94297286Y-72999523D01*
X94011572Y-73094761D01*
X93821095Y-73094761D01*
X93535381Y-72999523D01*
X93440143Y-72904285D01*
X93440143Y-72237619D01*
X93821095Y-72237619D01*
X91535381Y-73094761D02*
X92678238Y-73094761D01*
X92106810Y-73094761D02*
X92106810Y-71094761D01*
X92297286Y-71380476D01*
X92487762Y-71570952D01*
X92678238Y-71666190D01*
X90392524Y-71951904D02*
X90583000Y-71856666D01*
X90678238Y-71761428D01*
X90773476Y-71570952D01*
X90773476Y-71475714D01*
X90678238Y-71285238D01*
X90583000Y-71190000D01*
X90392524Y-71094761D01*
X90011572Y-71094761D01*
X89821095Y-71190000D01*
X89725857Y-71285238D01*
X89630619Y-71475714D01*
X89630619Y-71570952D01*
X89725857Y-71761428D01*
X89821095Y-71856666D01*
X90011572Y-71951904D01*
X90392524Y-71951904D01*
X90583000Y-72047142D01*
X90678238Y-72142380D01*
X90773476Y-72332857D01*
X90773476Y-72713809D01*
X90678238Y-72904285D01*
X90583000Y-72999523D01*
X90392524Y-73094761D01*
X90011572Y-73094761D01*
X89821095Y-72999523D01*
X89725857Y-72904285D01*
X89630619Y-72713809D01*
X89630619Y-72332857D01*
X89725857Y-72142380D01*
X89821095Y-72047142D01*
X90011572Y-71951904D01*
X88868714Y-72523333D02*
X87916333Y-72523333D01*
X89059191Y-73094761D02*
X88392524Y-71094761D01*
X87725857Y-73094761D01*
D12*
X109166666Y-66219047D02*
X108595238Y-66409523D01*
X107642857Y-66409523D01*
X107261904Y-66219047D01*
X107071428Y-66028571D01*
X106880952Y-65647619D01*
X106880952Y-65266666D01*
X107071428Y-64885714D01*
X107261904Y-64695238D01*
X107642857Y-64504761D01*
X108404761Y-64314285D01*
X108785714Y-64123809D01*
X108976190Y-63933333D01*
X109166666Y-63552380D01*
X109166666Y-63171428D01*
X108976190Y-62790476D01*
X108785714Y-62600000D01*
X108404761Y-62409523D01*
X107452380Y-62409523D01*
X106880952Y-62600000D01*
X105357142Y-65266666D02*
X103452380Y-65266666D01*
X105738095Y-66409523D02*
X104404761Y-62409523D01*
X103071428Y-66409523D01*
X101738095Y-66409523D02*
X101738095Y-62409523D01*
X100404761Y-65266666D01*
X99071428Y-62409523D01*
X99071428Y-66409523D01*
X97166666Y-66409523D02*
X97166666Y-62409523D01*
X96214285Y-62409523D01*
X95642857Y-62600000D01*
X95261904Y-62980952D01*
X95071428Y-63361904D01*
X94880952Y-64123809D01*
X94880952Y-64695238D01*
X95071428Y-65457142D01*
X95261904Y-65838095D01*
X95642857Y-66219047D01*
X96214285Y-66409523D01*
X97166666Y-66409523D01*
X93357142Y-62790476D02*
X93166666Y-62600000D01*
X92785714Y-62409523D01*
X91833333Y-62409523D01*
X91452380Y-62600000D01*
X91261904Y-62790476D01*
X91071428Y-63171428D01*
X91071428Y-63552380D01*
X91261904Y-64123809D01*
X93547619Y-66409523D01*
X91071428Y-66409523D01*
X87261904Y-66409523D02*
X89547619Y-66409523D01*
X88404761Y-66409523D02*
X88404761Y-62409523D01*
X88785714Y-62980952D01*
X89166666Y-63361904D01*
X89547619Y-63552380D01*
X82500000Y-66409523D02*
X82500000Y-62409523D01*
X81547619Y-62409523D01*
X80976190Y-62600000D01*
X80595238Y-62980952D01*
X80404761Y-63361904D01*
X80214285Y-64123809D01*
X80214285Y-64695238D01*
X80404761Y-65457142D01*
X80595238Y-65838095D01*
X80976190Y-66219047D01*
X81547619Y-66409523D01*
X82500000Y-66409523D01*
X76976190Y-66219047D02*
X77357142Y-66409523D01*
X78119047Y-66409523D01*
X78500000Y-66219047D01*
X78690476Y-65838095D01*
X78690476Y-64314285D01*
X78500000Y-63933333D01*
X78119047Y-63742857D01*
X77357142Y-63742857D01*
X76976190Y-63933333D01*
X76785714Y-64314285D01*
X76785714Y-64695238D01*
X78690476Y-65076190D01*
X75071428Y-66409523D02*
X75071428Y-63742857D01*
X75071428Y-64123809D02*
X74880952Y-63933333D01*
X74500000Y-63742857D01*
X73928571Y-63742857D01*
X73547619Y-63933333D01*
X73357142Y-64314285D01*
X73357142Y-66409523D01*
X73357142Y-64314285D02*
X73166666Y-63933333D01*
X72785714Y-63742857D01*
X72214285Y-63742857D01*
X71833333Y-63933333D01*
X71642857Y-64314285D01*
X71642857Y-66409523D01*
X69166666Y-66409523D02*
X69547619Y-66219047D01*
X69738095Y-66028571D01*
X69928571Y-65647619D01*
X69928571Y-64504761D01*
X69738095Y-64123809D01*
X69547619Y-63933333D01*
X69166666Y-63742857D01*
X68595238Y-63742857D01*
X68214285Y-63933333D01*
X68023809Y-64123809D01*
X67833333Y-64504761D01*
X67833333Y-65647619D01*
X68023809Y-66028571D01*
X68214285Y-66219047D01*
X68595238Y-66409523D01*
X69166666Y-66409523D01*
%LPC*%
D13*
X162550000Y-52450000D03*
X162550000Y-59450000D03*
D14*
X159850000Y-53450000D03*
X159850000Y-58450000D03*
D15*
X73050000Y-124450000D03*
D16*
X73050000Y-130250000D03*
D17*
X77850000Y-127450000D03*
D18*
X88160000Y-125820000D03*
X90700000Y-125820000D03*
X88160000Y-128360000D03*
X90700000Y-128360000D03*
X88160000Y-130900000D03*
D19*
X90700000Y-130900000D03*
D18*
X141200000Y-79120000D03*
X143740000Y-79120000D03*
X141200000Y-81660000D03*
X143740000Y-81660000D03*
X141200000Y-84200000D03*
X143740000Y-84200000D03*
X141200000Y-86740000D03*
X143740000Y-86740000D03*
X141200000Y-89280000D03*
X143740000Y-89280000D03*
X141200000Y-91820000D03*
D19*
X143740000Y-91820000D03*
D20*
X137700000Y-128400000D03*
X131200000Y-128400000D03*
X137700000Y-123900000D03*
X131200000Y-123900000D03*
X152800000Y-128400000D03*
X146300000Y-128400000D03*
X152800000Y-123900000D03*
X146300000Y-123900000D03*
D18*
X160600000Y-114380000D03*
X160600000Y-111840000D03*
X160600000Y-109300000D03*
X160600000Y-106760000D03*
X160600000Y-104220000D03*
X160600000Y-101680000D03*
X160600000Y-99140000D03*
D19*
X160600000Y-96600000D03*
D18*
X111240000Y-60600000D03*
X111240000Y-58060000D03*
X113780000Y-60600000D03*
X113780000Y-58060000D03*
X116320000Y-60600000D03*
X116320000Y-58060000D03*
X118860000Y-60600000D03*
X118860000Y-58060000D03*
X121400000Y-60600000D03*
D19*
X121400000Y-58060000D03*
D18*
X150900000Y-114400000D03*
D19*
X150900000Y-111860000D03*
D18*
X121640000Y-111100000D03*
X121640000Y-113640000D03*
X119100000Y-111100000D03*
X119100000Y-113640000D03*
X116560000Y-111100000D03*
X116560000Y-113640000D03*
X114020000Y-111100000D03*
X114020000Y-113640000D03*
X111480000Y-111100000D03*
X111480000Y-113640000D03*
X108940000Y-111100000D03*
D19*
X108940000Y-113640000D03*
D18*
X89940000Y-94000000D03*
X87400000Y-94000000D03*
X89940000Y-91460000D03*
X87400000Y-91460000D03*
X89940000Y-88920000D03*
X87400000Y-88920000D03*
X89940000Y-86380000D03*
X87400000Y-86380000D03*
X89940000Y-83840000D03*
X87400000Y-83840000D03*
X89940000Y-81300000D03*
D19*
X87400000Y-81300000D03*
D18*
X114540000Y-134160000D03*
X114540000Y-136700000D03*
X112000000Y-134160000D03*
D19*
X112000000Y-136700000D03*
D18*
X114440000Y-126340000D03*
X111900000Y-126340000D03*
X114440000Y-123800000D03*
D19*
X111900000Y-123800000D03*
D18*
X144760000Y-59200000D03*
D19*
X147300000Y-59200000D03*
D21*
X70400000Y-53200000D03*
X70400000Y-48800000D03*
D18*
X134360000Y-59200000D03*
D19*
X136900000Y-59200000D03*
D18*
X156740000Y-69000000D03*
D19*
X154200000Y-69000000D03*
M02*
