%FSLAX45Y45*%
G04 Gerber Fmt 4.5, Leading zero omitted, Abs format (unit mm)*
G04 Created by KiCad (PCBNEW (5.1.10)-1) date 2022-01-02 12:56:20*
%MOMM*%
%LPD*%
G01*
G04 APERTURE LIST*
%TA.AperFunction,Profile*%
%ADD10C,0.050000*%
%TD*%
%ADD11C,0.200000*%
%ADD12C,0.300000*%
G04 APERTURE END LIST*
D10*
X16500000Y-5100000D02*
X16500000Y-4500000D01*
X16400000Y-5200000D02*
X16400000Y-5990000D01*
X16500000Y-6090000D02*
G75*
G02*
X16400000Y-5990000I0J100000D01*
G01*
X16400000Y-5200000D02*
G75*
G02*
X16500000Y-5100000I100000J0D01*
G01*
X7000000Y-14000000D02*
G75*
G02*
X6500000Y-13500000I0J500000D01*
G01*
X6500000Y-4500000D02*
G75*
G02*
X7000000Y-4000000I500000J0D01*
G01*
X16000000Y-4000000D02*
G75*
G02*
X16500000Y-4500000I0J-500000D01*
G01*
X16500000Y-13500000D02*
G75*
G02*
X16000000Y-14000000I-500000J0D01*
G01*
X6500000Y-4500000D02*
X6500000Y-13500000D01*
X16000000Y-4000000D02*
X7000000Y-4000000D01*
X16500000Y-13500000D02*
X16500000Y-6090000D01*
X7000000Y-14000000D02*
X16000000Y-14000000D01*
D11*
X6995000Y-4835000D02*
X7085000Y-4925000D01*
X7085000Y-4835000D02*
X6995000Y-4925000D01*
X6995000Y-5275000D02*
X7085000Y-5365000D01*
X7085000Y-5275000D02*
X6995000Y-5365000D01*
D12*
X6783928Y-14468214D02*
X6783928Y-14168214D01*
X6855357Y-14168214D01*
X6898214Y-14182500D01*
X6926786Y-14211071D01*
X6941071Y-14239643D01*
X6955357Y-14296786D01*
X6955357Y-14339643D01*
X6941071Y-14396786D01*
X6926786Y-14425357D01*
X6898214Y-14453929D01*
X6855357Y-14468214D01*
X6783928Y-14468214D01*
X7083928Y-14468214D02*
X7083928Y-14268214D01*
X7083928Y-14325357D02*
X7098214Y-14296786D01*
X7112500Y-14282500D01*
X7141071Y-14268214D01*
X7169643Y-14268214D01*
X7269643Y-14468214D02*
X7269643Y-14268214D01*
X7269643Y-14168214D02*
X7255357Y-14182500D01*
X7269643Y-14196786D01*
X7283928Y-14182500D01*
X7269643Y-14168214D01*
X7269643Y-14196786D01*
X7455357Y-14468214D02*
X7426786Y-14453929D01*
X7412500Y-14425357D01*
X7412500Y-14168214D01*
X7612500Y-14468214D02*
X7583928Y-14453929D01*
X7569643Y-14425357D01*
X7569643Y-14168214D01*
X7955357Y-14468214D02*
X7955357Y-14168214D01*
X8055357Y-14382500D01*
X8155357Y-14168214D01*
X8155357Y-14468214D01*
X8426786Y-14468214D02*
X8426786Y-14311071D01*
X8412500Y-14282500D01*
X8383928Y-14268214D01*
X8326786Y-14268214D01*
X8298214Y-14282500D01*
X8426786Y-14453929D02*
X8398214Y-14468214D01*
X8326786Y-14468214D01*
X8298214Y-14453929D01*
X8283928Y-14425357D01*
X8283928Y-14396786D01*
X8298214Y-14368214D01*
X8326786Y-14353929D01*
X8398214Y-14353929D01*
X8426786Y-14339643D01*
X8569643Y-14268214D02*
X8569643Y-14568214D01*
X8569643Y-14282500D02*
X8598214Y-14268214D01*
X8655357Y-14268214D01*
X8683928Y-14282500D01*
X8698214Y-14296786D01*
X8712500Y-14325357D01*
X8712500Y-14411071D01*
X8698214Y-14439643D01*
X8683928Y-14453929D01*
X8655357Y-14468214D01*
X8598214Y-14468214D01*
X8569643Y-14453929D01*
X8841071Y-14439643D02*
X8855357Y-14453929D01*
X8841071Y-14468214D01*
X8826786Y-14453929D01*
X8841071Y-14439643D01*
X8841071Y-14468214D01*
X8841071Y-14282500D02*
X8855357Y-14296786D01*
X8841071Y-14311071D01*
X8826786Y-14296786D01*
X8841071Y-14282500D01*
X8841071Y-14311071D01*
X6407500Y-14917500D02*
X6497500Y-15007500D01*
X6497500Y-14917500D02*
X6407500Y-15007500D01*
X6841071Y-14798214D02*
X6869643Y-14798214D01*
X6898214Y-14812500D01*
X6912500Y-14826786D01*
X6926786Y-14855357D01*
X6941071Y-14912500D01*
X6941071Y-14983929D01*
X6926786Y-15041071D01*
X6912500Y-15069643D01*
X6898214Y-15083929D01*
X6869643Y-15098214D01*
X6841071Y-15098214D01*
X6812500Y-15083929D01*
X6798214Y-15069643D01*
X6783928Y-15041071D01*
X6769643Y-14983929D01*
X6769643Y-14912500D01*
X6783928Y-14855357D01*
X6798214Y-14826786D01*
X6812500Y-14812500D01*
X6841071Y-14798214D01*
X7069643Y-15069643D02*
X7083928Y-15083929D01*
X7069643Y-15098214D01*
X7055357Y-15083929D01*
X7069643Y-15069643D01*
X7069643Y-15098214D01*
X7226786Y-15098214D02*
X7283928Y-15098214D01*
X7312500Y-15083929D01*
X7326786Y-15069643D01*
X7355357Y-15026786D01*
X7369643Y-14969643D01*
X7369643Y-14855357D01*
X7355357Y-14826786D01*
X7341071Y-14812500D01*
X7312500Y-14798214D01*
X7255357Y-14798214D01*
X7226786Y-14812500D01*
X7212500Y-14826786D01*
X7198214Y-14855357D01*
X7198214Y-14926786D01*
X7212500Y-14955357D01*
X7226786Y-14969643D01*
X7255357Y-14983929D01*
X7312500Y-14983929D01*
X7341071Y-14969643D01*
X7355357Y-14955357D01*
X7369643Y-14926786D01*
X7555357Y-14798214D02*
X7583928Y-14798214D01*
X7612500Y-14812500D01*
X7626786Y-14826786D01*
X7641071Y-14855357D01*
X7655357Y-14912500D01*
X7655357Y-14983929D01*
X7641071Y-15041071D01*
X7626786Y-15069643D01*
X7612500Y-15083929D01*
X7583928Y-15098214D01*
X7555357Y-15098214D01*
X7526786Y-15083929D01*
X7512500Y-15069643D01*
X7498214Y-15041071D01*
X7483928Y-14983929D01*
X7483928Y-14912500D01*
X7498214Y-14855357D01*
X7512500Y-14826786D01*
X7526786Y-14812500D01*
X7555357Y-14798214D01*
X7841071Y-14798214D02*
X7869643Y-14798214D01*
X7898214Y-14812500D01*
X7912500Y-14826786D01*
X7926786Y-14855357D01*
X7941071Y-14912500D01*
X7941071Y-14983929D01*
X7926786Y-15041071D01*
X7912500Y-15069643D01*
X7898214Y-15083929D01*
X7869643Y-15098214D01*
X7841071Y-15098214D01*
X7812500Y-15083929D01*
X7798214Y-15069643D01*
X7783928Y-15041071D01*
X7769643Y-14983929D01*
X7769643Y-14912500D01*
X7783928Y-14855357D01*
X7798214Y-14826786D01*
X7812500Y-14812500D01*
X7841071Y-14798214D01*
X8069643Y-15098214D02*
X8069643Y-14898214D01*
X8069643Y-14926786D02*
X8083928Y-14912500D01*
X8112500Y-14898214D01*
X8155357Y-14898214D01*
X8183928Y-14912500D01*
X8198214Y-14941071D01*
X8198214Y-15098214D01*
X8198214Y-14941071D02*
X8212500Y-14912500D01*
X8241071Y-14898214D01*
X8283928Y-14898214D01*
X8312500Y-14912500D01*
X8326786Y-14941071D01*
X8326786Y-15098214D01*
X8469643Y-15098214D02*
X8469643Y-14898214D01*
X8469643Y-14926786D02*
X8483928Y-14912500D01*
X8512500Y-14898214D01*
X8555357Y-14898214D01*
X8583928Y-14912500D01*
X8598214Y-14941071D01*
X8598214Y-15098214D01*
X8598214Y-14941071D02*
X8612500Y-14912500D01*
X8641071Y-14898214D01*
X8683928Y-14898214D01*
X8712500Y-14912500D01*
X8726786Y-14941071D01*
X8726786Y-15098214D01*
X9312500Y-14783929D02*
X9055357Y-15169643D01*
X9698214Y-14798214D02*
X9726786Y-14798214D01*
X9755357Y-14812500D01*
X9769643Y-14826786D01*
X9783928Y-14855357D01*
X9798214Y-14912500D01*
X9798214Y-14983929D01*
X9783928Y-15041071D01*
X9769643Y-15069643D01*
X9755357Y-15083929D01*
X9726786Y-15098214D01*
X9698214Y-15098214D01*
X9669643Y-15083929D01*
X9655357Y-15069643D01*
X9641071Y-15041071D01*
X9626786Y-14983929D01*
X9626786Y-14912500D01*
X9641071Y-14855357D01*
X9655357Y-14826786D01*
X9669643Y-14812500D01*
X9698214Y-14798214D01*
X9926786Y-15069643D02*
X9941071Y-15083929D01*
X9926786Y-15098214D01*
X9912500Y-15083929D01*
X9926786Y-15069643D01*
X9926786Y-15098214D01*
X10126786Y-14798214D02*
X10155357Y-14798214D01*
X10183928Y-14812500D01*
X10198214Y-14826786D01*
X10212500Y-14855357D01*
X10226786Y-14912500D01*
X10226786Y-14983929D01*
X10212500Y-15041071D01*
X10198214Y-15069643D01*
X10183928Y-15083929D01*
X10155357Y-15098214D01*
X10126786Y-15098214D01*
X10098214Y-15083929D01*
X10083928Y-15069643D01*
X10069643Y-15041071D01*
X10055357Y-14983929D01*
X10055357Y-14912500D01*
X10069643Y-14855357D01*
X10083928Y-14826786D01*
X10098214Y-14812500D01*
X10126786Y-14798214D01*
X10326786Y-14798214D02*
X10512500Y-14798214D01*
X10412500Y-14912500D01*
X10455357Y-14912500D01*
X10483928Y-14926786D01*
X10498214Y-14941071D01*
X10512500Y-14969643D01*
X10512500Y-15041071D01*
X10498214Y-15069643D01*
X10483928Y-15083929D01*
X10455357Y-15098214D01*
X10369643Y-15098214D01*
X10341071Y-15083929D01*
X10326786Y-15069643D01*
X10783928Y-14798214D02*
X10641071Y-14798214D01*
X10626786Y-14941071D01*
X10641071Y-14926786D01*
X10669643Y-14912500D01*
X10741071Y-14912500D01*
X10769643Y-14926786D01*
X10783928Y-14941071D01*
X10798214Y-14969643D01*
X10798214Y-15041071D01*
X10783928Y-15069643D01*
X10769643Y-15083929D01*
X10741071Y-15098214D01*
X10669643Y-15098214D01*
X10641071Y-15083929D01*
X10626786Y-15069643D01*
X11055357Y-14898214D02*
X11055357Y-15098214D01*
X10983928Y-14783929D02*
X10912500Y-14998214D01*
X11098214Y-14998214D01*
X11198214Y-14798214D02*
X11198214Y-14855357D01*
X11312500Y-14798214D02*
X11312500Y-14855357D01*
X11755357Y-15212500D02*
X11741071Y-15198214D01*
X11712500Y-15155357D01*
X11698214Y-15126786D01*
X11683928Y-15083929D01*
X11669643Y-15012500D01*
X11669643Y-14955357D01*
X11683928Y-14883929D01*
X11698214Y-14841071D01*
X11712500Y-14812500D01*
X11741071Y-14769643D01*
X11755357Y-14755357D01*
X11855357Y-14826786D02*
X11869643Y-14812500D01*
X11898214Y-14798214D01*
X11969643Y-14798214D01*
X11998214Y-14812500D01*
X12012500Y-14826786D01*
X12026786Y-14855357D01*
X12026786Y-14883929D01*
X12012500Y-14926786D01*
X11841071Y-15098214D01*
X12026786Y-15098214D01*
X12383928Y-15098214D02*
X12383928Y-14798214D01*
X12512500Y-15098214D02*
X12512500Y-14941071D01*
X12498214Y-14912500D01*
X12469643Y-14898214D01*
X12426786Y-14898214D01*
X12398214Y-14912500D01*
X12383928Y-14926786D01*
X12698214Y-15098214D02*
X12669643Y-15083929D01*
X12655357Y-15069643D01*
X12641071Y-15041071D01*
X12641071Y-14955357D01*
X12655357Y-14926786D01*
X12669643Y-14912500D01*
X12698214Y-14898214D01*
X12741071Y-14898214D01*
X12769643Y-14912500D01*
X12783928Y-14926786D01*
X12798214Y-14955357D01*
X12798214Y-15041071D01*
X12783928Y-15069643D01*
X12769643Y-15083929D01*
X12741071Y-15098214D01*
X12698214Y-15098214D01*
X12969643Y-15098214D02*
X12941071Y-15083929D01*
X12926786Y-15055357D01*
X12926786Y-14798214D01*
X13198214Y-15083929D02*
X13169643Y-15098214D01*
X13112500Y-15098214D01*
X13083928Y-15083929D01*
X13069643Y-15055357D01*
X13069643Y-14941071D01*
X13083928Y-14912500D01*
X13112500Y-14898214D01*
X13169643Y-14898214D01*
X13198214Y-14912500D01*
X13212500Y-14941071D01*
X13212500Y-14969643D01*
X13069643Y-14998214D01*
X13326786Y-15083929D02*
X13355357Y-15098214D01*
X13412500Y-15098214D01*
X13441071Y-15083929D01*
X13455357Y-15055357D01*
X13455357Y-15041071D01*
X13441071Y-15012500D01*
X13412500Y-14998214D01*
X13369643Y-14998214D01*
X13341071Y-14983929D01*
X13326786Y-14955357D01*
X13326786Y-14941071D01*
X13341071Y-14912500D01*
X13369643Y-14898214D01*
X13412500Y-14898214D01*
X13441071Y-14912500D01*
X13555357Y-15212500D02*
X13569643Y-15198214D01*
X13598214Y-15155357D01*
X13612500Y-15126786D01*
X13626786Y-15083929D01*
X13641071Y-15012500D01*
X13641071Y-14955357D01*
X13626786Y-14883929D01*
X13612500Y-14841071D01*
X13598214Y-14812500D01*
X13569643Y-14769643D01*
X13555357Y-14755357D01*
X14098214Y-15212500D02*
X14083928Y-15198214D01*
X14055357Y-15155357D01*
X14041071Y-15126786D01*
X14026786Y-15083929D01*
X14012500Y-15012500D01*
X14012500Y-14955357D01*
X14026786Y-14883929D01*
X14041071Y-14841071D01*
X14055357Y-14812500D01*
X14083928Y-14769643D01*
X14098214Y-14755357D01*
X14212500Y-14898214D02*
X14212500Y-15098214D01*
X14212500Y-14926786D02*
X14226786Y-14912500D01*
X14255357Y-14898214D01*
X14298214Y-14898214D01*
X14326786Y-14912500D01*
X14341071Y-14941071D01*
X14341071Y-15098214D01*
X14526786Y-15098214D02*
X14498214Y-15083929D01*
X14483928Y-15069643D01*
X14469643Y-15041071D01*
X14469643Y-14955357D01*
X14483928Y-14926786D01*
X14498214Y-14912500D01*
X14526786Y-14898214D01*
X14569643Y-14898214D01*
X14598214Y-14912500D01*
X14612500Y-14926786D01*
X14626786Y-14955357D01*
X14626786Y-15041071D01*
X14612500Y-15069643D01*
X14598214Y-15083929D01*
X14569643Y-15098214D01*
X14526786Y-15098214D01*
X14712500Y-14898214D02*
X14826786Y-14898214D01*
X14755357Y-14798214D02*
X14755357Y-15055357D01*
X14769643Y-15083929D01*
X14798214Y-15098214D01*
X14826786Y-15098214D01*
X15155357Y-14898214D02*
X15155357Y-15198214D01*
X15155357Y-14912500D02*
X15183928Y-14898214D01*
X15241071Y-14898214D01*
X15269643Y-14912500D01*
X15283928Y-14926786D01*
X15298214Y-14955357D01*
X15298214Y-15041071D01*
X15283928Y-15069643D01*
X15269643Y-15083929D01*
X15241071Y-15098214D01*
X15183928Y-15098214D01*
X15155357Y-15083929D01*
X15469643Y-15098214D02*
X15441071Y-15083929D01*
X15426786Y-15055357D01*
X15426786Y-14798214D01*
X15712500Y-15098214D02*
X15712500Y-14941071D01*
X15698214Y-14912500D01*
X15669643Y-14898214D01*
X15612500Y-14898214D01*
X15583928Y-14912500D01*
X15712500Y-15083929D02*
X15683928Y-15098214D01*
X15612500Y-15098214D01*
X15583928Y-15083929D01*
X15569643Y-15055357D01*
X15569643Y-15026786D01*
X15583928Y-14998214D01*
X15612500Y-14983929D01*
X15683928Y-14983929D01*
X15712500Y-14969643D01*
X15812500Y-14898214D02*
X15926786Y-14898214D01*
X15855357Y-14798214D02*
X15855357Y-15055357D01*
X15869643Y-15083929D01*
X15898214Y-15098214D01*
X15926786Y-15098214D01*
X16141071Y-15083929D02*
X16112500Y-15098214D01*
X16055357Y-15098214D01*
X16026786Y-15083929D01*
X16012500Y-15055357D01*
X16012500Y-14941071D01*
X16026786Y-14912500D01*
X16055357Y-14898214D01*
X16112500Y-14898214D01*
X16141071Y-14912500D01*
X16155357Y-14941071D01*
X16155357Y-14969643D01*
X16012500Y-14998214D01*
X16412500Y-15098214D02*
X16412500Y-14798214D01*
X16412500Y-15083929D02*
X16383928Y-15098214D01*
X16326786Y-15098214D01*
X16298214Y-15083929D01*
X16283928Y-15069643D01*
X16269643Y-15041071D01*
X16269643Y-14955357D01*
X16283928Y-14926786D01*
X16298214Y-14912500D01*
X16326786Y-14898214D01*
X16383928Y-14898214D01*
X16412500Y-14912500D01*
X16526786Y-15212500D02*
X16541071Y-15198214D01*
X16569643Y-15155357D01*
X16583928Y-15126786D01*
X16598214Y-15083929D01*
X16612500Y-15012500D01*
X16612500Y-14955357D01*
X16598214Y-14883929D01*
X16583928Y-14841071D01*
X16569643Y-14812500D01*
X16541071Y-14769643D01*
X16526786Y-14755357D01*
M02*
