G04 #@! TF.GenerationSoftware,KiCad,Pcbnew,(5.1.10)-1*
G04 #@! TF.CreationDate,2022-01-02T12:56:15-07:00*
G04 #@! TF.ProjectId,SAMD21,53414d44-3231-42e6-9b69-6361645f7063,rev?*
G04 #@! TF.SameCoordinates,Original*
G04 #@! TF.FileFunction,Copper,L4,Bot*
G04 #@! TF.FilePolarity,Positive*
%FSLAX46Y46*%
G04 Gerber Fmt 4.6, Leading zero omitted, Abs format (unit mm)*
G04 Created by KiCad (PCBNEW (5.1.10)-1) date 2022-01-02 12:56:15*
%MOMM*%
%LPD*%
G01*
G04 APERTURE LIST*
G04 #@! TA.AperFunction,ComponentPad*
%ADD10O,1.550000X0.890000*%
G04 #@! TD*
G04 #@! TA.AperFunction,ComponentPad*
%ADD11O,0.950000X1.250000*%
G04 #@! TD*
G04 #@! TA.AperFunction,ComponentPad*
%ADD12R,4.400000X1.800000*%
G04 #@! TD*
G04 #@! TA.AperFunction,ComponentPad*
%ADD13O,4.000000X1.800000*%
G04 #@! TD*
G04 #@! TA.AperFunction,ComponentPad*
%ADD14O,1.800000X4.000000*%
G04 #@! TD*
G04 #@! TA.AperFunction,ComponentPad*
%ADD15O,1.700000X1.700000*%
G04 #@! TD*
G04 #@! TA.AperFunction,ComponentPad*
%ADD16R,1.700000X1.700000*%
G04 #@! TD*
G04 #@! TA.AperFunction,ComponentPad*
%ADD17C,1.540000*%
G04 #@! TD*
G04 #@! TA.AperFunction,ViaPad*
%ADD18C,0.600000*%
G04 #@! TD*
G04 #@! TA.AperFunction,Conductor*
%ADD19C,0.400000*%
G04 #@! TD*
G04 #@! TA.AperFunction,Conductor*
%ADD20C,0.250000*%
G04 #@! TD*
G04 APERTURE END LIST*
D10*
X162550000Y-52450000D03*
X162550000Y-59450000D03*
D11*
X159850000Y-53450000D03*
X159850000Y-58450000D03*
D12*
X73050000Y-124450000D03*
D13*
X73050000Y-130250000D03*
D14*
X77850000Y-127450000D03*
D15*
X88160000Y-125820000D03*
X90700000Y-125820000D03*
X88160000Y-128360000D03*
X90700000Y-128360000D03*
X88160000Y-130900000D03*
D16*
X90700000Y-130900000D03*
D15*
X141200000Y-79120000D03*
X143740000Y-79120000D03*
X141200000Y-81660000D03*
X143740000Y-81660000D03*
X141200000Y-84200000D03*
X143740000Y-84200000D03*
X141200000Y-86740000D03*
X143740000Y-86740000D03*
X141200000Y-89280000D03*
X143740000Y-89280000D03*
X141200000Y-91820000D03*
D16*
X143740000Y-91820000D03*
D17*
X137700000Y-128400000D03*
X131200000Y-128400000D03*
X137700000Y-123900000D03*
X131200000Y-123900000D03*
X152800000Y-128400000D03*
X146300000Y-128400000D03*
X152800000Y-123900000D03*
X146300000Y-123900000D03*
D15*
X160600000Y-114380000D03*
X160600000Y-111840000D03*
X160600000Y-109300000D03*
X160600000Y-106760000D03*
X160600000Y-104220000D03*
X160600000Y-101680000D03*
X160600000Y-99140000D03*
D16*
X160600000Y-96600000D03*
D15*
X111240000Y-60600000D03*
X111240000Y-58060000D03*
X113780000Y-60600000D03*
X113780000Y-58060000D03*
X116320000Y-60600000D03*
X116320000Y-58060000D03*
X118860000Y-60600000D03*
X118860000Y-58060000D03*
X121400000Y-60600000D03*
D16*
X121400000Y-58060000D03*
D15*
X150900000Y-114400000D03*
D16*
X150900000Y-111860000D03*
D15*
X121640000Y-111100000D03*
X121640000Y-113640000D03*
X119100000Y-111100000D03*
X119100000Y-113640000D03*
X116560000Y-111100000D03*
X116560000Y-113640000D03*
X114020000Y-111100000D03*
X114020000Y-113640000D03*
X111480000Y-111100000D03*
X111480000Y-113640000D03*
X108940000Y-111100000D03*
D16*
X108940000Y-113640000D03*
D15*
X89940000Y-94000000D03*
X87400000Y-94000000D03*
X89940000Y-91460000D03*
X87400000Y-91460000D03*
X89940000Y-88920000D03*
X87400000Y-88920000D03*
X89940000Y-86380000D03*
X87400000Y-86380000D03*
X89940000Y-83840000D03*
X87400000Y-83840000D03*
X89940000Y-81300000D03*
D16*
X87400000Y-81300000D03*
D15*
X114540000Y-134160000D03*
X114540000Y-136700000D03*
X112000000Y-134160000D03*
D16*
X112000000Y-136700000D03*
D15*
X114440000Y-126340000D03*
X111900000Y-126340000D03*
X114440000Y-123800000D03*
D16*
X111900000Y-123800000D03*
D15*
X144760000Y-59200000D03*
D16*
X147300000Y-59200000D03*
D15*
X134360000Y-59200000D03*
D16*
X136900000Y-59200000D03*
D15*
X156740000Y-69000000D03*
D16*
X154200000Y-69000000D03*
D18*
X70200000Y-120800000D03*
X70200000Y-119700000D03*
X78800000Y-114600000D03*
X81500000Y-118300000D03*
X83500000Y-118300000D03*
X73000000Y-53600000D03*
X70200000Y-46600000D03*
X83100000Y-57700000D03*
X79700000Y-47700000D03*
X92274990Y-58500000D03*
X108800000Y-84300000D03*
X114300000Y-76400000D03*
X115250000Y-82350000D03*
X117750000Y-82750000D03*
X122900000Y-81600000D03*
X114700000Y-87800000D03*
X114300000Y-93100000D03*
X158300003Y-75899997D03*
X157300000Y-82600000D03*
X72500000Y-113500000D03*
X72500000Y-115500000D03*
X99487500Y-53712500D03*
X89525000Y-59975000D03*
X78225000Y-50675000D03*
X95300000Y-47300000D03*
X101700000Y-85400000D03*
X114300000Y-79100000D03*
X121020000Y-80720000D03*
X114275010Y-90550000D03*
X157600000Y-90600000D03*
X82150000Y-45350000D03*
X160700000Y-78500000D03*
X117800000Y-62700000D03*
X143000000Y-43700000D03*
X147300000Y-43200000D03*
X113600000Y-83500000D03*
X137500000Y-96600000D03*
X115500000Y-86900000D03*
X132600000Y-103100000D03*
X116800000Y-84900000D03*
X137300000Y-94800000D03*
X127100000Y-77500000D03*
X90400000Y-50100000D03*
D19*
X150950000Y-75050000D02*
X154400000Y-78500000D01*
X154400000Y-78500000D02*
X160700000Y-78500000D01*
X108650000Y-75050000D02*
X105850000Y-75050000D01*
X108350000Y-75050000D02*
X108650000Y-75050000D01*
X108650000Y-75050000D02*
X150950000Y-75050000D01*
X105850000Y-75050000D02*
X95300000Y-85600000D01*
X95300000Y-121220000D02*
X90700000Y-125820000D01*
X82150000Y-74850000D02*
X82150000Y-97750000D01*
X82150000Y-45350000D02*
X82150000Y-74850000D01*
X82150000Y-74850000D02*
X82150000Y-75050000D01*
X82150000Y-97750000D02*
X95300000Y-110900000D01*
X95300000Y-111300000D02*
X95300000Y-121220000D01*
X95300000Y-110900000D02*
X95300000Y-111300000D01*
X95300000Y-85600000D02*
X95300000Y-111300000D01*
D20*
X117500001Y-59240001D02*
X116320000Y-58060000D01*
X117500001Y-62400001D02*
X117500001Y-59240001D01*
X117800000Y-62700000D02*
X117500001Y-62400001D01*
X118860000Y-60600000D02*
X120060000Y-59400000D01*
X120060000Y-59400000D02*
X124200000Y-59400000D01*
X124200000Y-59400000D02*
X139900000Y-43700000D01*
X139900000Y-43700000D02*
X143000000Y-43700000D01*
X118860000Y-58060000D02*
X134520000Y-42400000D01*
X134520000Y-42400000D02*
X146700000Y-42400000D01*
X147300000Y-43000000D02*
X147300000Y-43200000D01*
X146700000Y-42400000D02*
X147300000Y-43000000D01*
X113600000Y-83500000D02*
X126700000Y-96600000D01*
X126700000Y-96600000D02*
X137500000Y-96600000D01*
X115500000Y-86900000D02*
X131700000Y-103100000D01*
X131700000Y-103100000D02*
X132600000Y-103100000D01*
X116800000Y-84900000D02*
X126700000Y-94800000D01*
X126700000Y-94800000D02*
X137300000Y-94800000D01*
X141200000Y-79120000D02*
X128720000Y-79120000D01*
X128720000Y-79120000D02*
X127100000Y-77500000D01*
X140820000Y-89280000D02*
X141200000Y-89280000D01*
X139500000Y-90600000D02*
X140820000Y-89280000D01*
X131200000Y-123900000D02*
X137700000Y-123900000D01*
X139500000Y-122100000D02*
X139500000Y-90600000D01*
X137700000Y-123900000D02*
X139500000Y-122100000D01*
X146300000Y-123900000D02*
X152800000Y-123900000D01*
X144880000Y-89280000D02*
X143740000Y-89280000D01*
X146300000Y-90700000D02*
X144880000Y-89280000D01*
X146300000Y-124000000D02*
X146300000Y-90700000D01*
X145900000Y-124400000D02*
X146300000Y-124000000D01*
X90400000Y-50100000D02*
X92800000Y-52500000D01*
X92800000Y-80980000D02*
X89940000Y-83840000D01*
X92800000Y-52500000D02*
X92800000Y-80980000D01*
X119100000Y-111100000D02*
X117900000Y-112300000D01*
X117900000Y-114300000D02*
X117900000Y-114500000D01*
X117900000Y-112300000D02*
X117900000Y-114300000D01*
X117900000Y-117500000D02*
X117900000Y-114300000D01*
X113200000Y-122200000D02*
X117900000Y-117500000D01*
X113200000Y-125040000D02*
X113200000Y-122200000D01*
X111900000Y-126340000D02*
X113200000Y-125040000D01*
M02*
